<svg xmlns="http://www.w3.org/2000/svg" width="79" height="28" viewBox="0 0 79 28"><g><g><path fill="#201600" d="M0 14.083C0 .383 16-3.55 23.918 4.254c7.935-7.798 23.919-3.88 23.919 9.829v13.892H40.12V14.083c0-5.435-5.212-7.057-8.843-5.598-1.965.79-3.503 2.66-3.503 5.598v13.892h-7.716V14.083c0-5.435-5.208-7.057-8.843-5.598-1.965.79-3.5 2.66-3.5 5.598v13.892H0zm78.694-6.147H63.128c-5.44 0-7.06 5.224-5.6 8.846.79 1.959 2.652 3.5 5.6 3.5h7.909v-7.24h7.716v14.956H63.128c-11.21 0-16.163-10.913-12.735-19.422C52.278 3.886 56.533.22 63.128.22h15.566z"/></g></g></svg>