<svg xmlns="http://www.w3.org/2000/svg" width="34" height="34" viewBox="0 0 34 34"><g><g><g><path fill="none" stroke="#fff" stroke-linecap="round" stroke-linejoin="round" stroke-miterlimit="20" d="M1 16.43v0s10.473 8.613 18.433 8.613C27.393 25.043 33 16.43 33 16.43v0"/></g><g><path fill="none" stroke="#fff" stroke-linecap="round" stroke-linejoin="round" stroke-miterlimit="20" d="M1 22.243v0s10.153-8.953 17.413-8.953C26.687 13.29 33 22.243 33 22.243v0"/></g><g><path fill="none" stroke="#fff" stroke-linecap="round" stroke-linejoin="round" stroke-miterlimit="20" d="M28.16 24.66a8.293 8.293 0 0 0 2.087 2.707"/></g><g><path fill="none" stroke="#fff" stroke-linecap="round" stroke-linejoin="round" stroke-miterlimit="20" d="M22.92 26.87a17.4 17.4 0 0 0 1.9 4.493"/></g><g><path fill="none" stroke="#fff" stroke-linecap="round" stroke-linejoin="round" stroke-miterlimit="20" d="M17.503 27.21v5.793"/></g><g><path fill="none" stroke="#fff" stroke-linecap="round" stroke-linejoin="round" stroke-miterlimit="20" d="M11.733 25.85A16.253 16.253 0 0 1 9 30.243"/></g><g><path fill="none" stroke="#fff" stroke-linecap="round" stroke-linejoin="round" stroke-miterlimit="20" d="M7.483 23.4a13.247 13.247 0 0 1-3.553 3.493"/></g><g><path fill="none" stroke="#fff" stroke-linecap="round" stroke-linejoin="round" stroke-miterlimit="20" d="M2.58 4.793v0S7 1 12.293 1C17.587 1 31.42 3.887 31.42 7.987S20.493 3.733 10.793 3.733"/></g></g></g></svg>