<svg xmlns="http://www.w3.org/2000/svg" width="34" height="34" viewBox="0 0 34 34"><g><g><g><path fill="none" stroke="#a7a5a0" stroke-miterlimit="20" d="M17 33c8.837 0 16-7.163 16-16S25.837 1 17 1 1 8.163 1 17s7.163 16 16 16z"/></g><g><path fill="none" stroke="#a7a5a0" stroke-miterlimit="20" d="M17 21c-2.206 0-4-1.794-4-4s1.794-4 4-4 4 1.794 4 4-1.794 4-4 4z"/></g><g><path fill="none" stroke="#a7a5a0" stroke-miterlimit="20" d="M26 21.46A4.545 4.545 0 0 1 21.46 26h-8.92A4.545 4.545 0 0 1 8 21.46v-8.92A4.545 4.545 0 0 1 12.54 8h8.92A4.545 4.545 0 0 1 26 12.54z"/></g><g><path fill="none" stroke="#a7a5a0" stroke-miterlimit="20" d="M22.25 13.5c-.69 0-1.25-.56-1.25-1.25S21.56 11 22.25 11s1.25.56 1.25 1.25-.56 1.25-1.25 1.25z"/></g></g></g></svg>