<svg xmlns="http://www.w3.org/2000/svg" width="34" height="34" viewBox="0 0 34 34"><g><g><path fill="none" stroke="#a7a5a0" stroke-miterlimit="20" d="M1 17C1 8.163 8.163 1 17 1s16 7.163 16 16-7.163 16-16 16S1 25.837 1 17zm9.913-2.82c-.039-.003-2.367-.051-2.492-.003-.201.078-.26.303-.197.538.02.07.725 1.56.76 1.632.698 1.384 1.462 2.73 2.429 3.953.608.77 1.31 1.43 2.19 1.898 1.039.551 2.153.678 3.303.617.399-.022.625-.247.65-.6.005-.067.109-.856.229-1.157.14-.35.435-.4.736-.173.127.096.245.206.356.321.368.381.715.782 1.098 1.148.344.328.772.496 1.259.498.094 0 1.907.052 2.278 0 .59-.083.785-.549.47-1.043a8.008 8.008 0 0 0-.857-1.105c-.434-.47-.913-.899-1.36-1.357-.282-.287-.295-.481-.103-.827.054-.096.112-.19.178-.28.516-.696 1.044-1.385 1.548-2.09.314-.44.607-.897.729-1.435.052-.23-.036-.41-.26-.48a1.496 1.496 0 0 0-.437-.059c-.823-.002-1.646-.001-2.47 0-.438.002-.562.09-.723.493-.313.783-.676 1.541-1.162 2.233-.267.38-.552.755-.876 1.087-.254.262-.503.171-.584-.191a3.527 3.527 0 0 1-.074-.801c.008-.68.041-1.361.057-2.042.004-.159-.01-.32-.037-.476-.052-.304-.22-.522-.533-.59a3.61 3.61 0 0 0-.73-.073c-.6-.006-1.2-.032-1.8 0-.369.02-.71.069-.954.378-.117.15-.1.298.083.331.592.106.735.456.757.855.033.623.048 1.032.035 1.656-.004.239-.08.7-.162.927-.077.216-.258.262-.449.132a1.63 1.63 0 0 1-.353-.32c-.742-.922-1.306-1.95-1.75-3.038-.157-.383-.41-.538-.782-.558z"/></g></g></svg>