<?xml version="1.0" standalone="no"?>
  <!DOCTYPE svg PUBLIC "-//W3C//DTD SVG 1.1//EN" "http://www.w3.org/Graphics/SVG/1.1/DTD/svg11.dtd" >
  <svg>
  <metadata>
  Created by font-carrier
  </metadata>
  <defs>
  <font id="Manrope-Regular" horiz-adv-x="1208" vert-adv-y="1208" >
    <font-face
      
      font-family="Manrope"
      
      font-weight="400"
      
      font-stretch="normal"
      
      units-per-em="960"
      
      ascent="1020"
      
      descent="-300"
      
    />
      <missing-glyph />

      

      
      <glyph glyph-name="uni41" unicode="&#x41;" d="M473 138L137 138L90 0L5 0L250 720L360 720L605 0L520 0L473 138M446 215L304 631L163 215L446 215Z"  horiz-adv-x="610" vert-adv-y="960"  />

      
      <glyph glyph-name="unic1" unicode="&#xc1;" d="M184 786L160 847L395 942L418 880L184 786M473 138L137 138L90 0L5 0L250 720L360 720L605 0L520 0L473 138M446 215L304 631L163 215L446 215Z"  horiz-adv-x="610" vert-adv-y="960"  />

      
      <glyph glyph-name="uni0102" unicode="&#x0102;" d="M309 780Q273 780 242.50 798Q212 816 194 846.50Q176 877 176 913L243 913Q243 885 262 866Q281 847 309 847Q337 847 356 866Q375 885 375 913L442 913Q442 877 424 846.50Q406 816 375.50 798Q345 780 309 780M473 138L137 138L90 0L5 0L250 720L360 720L605 0L520 0L473 138M446 215L304 631L163 215L446 215Z"  horiz-adv-x="610" vert-adv-y="960"  />

      
      <glyph glyph-name="unic2" unicode="&#xc2;" d="M192 786L159 843L305 936L452 843L419 786L305 858L192 786M473 138L137 138L90 0L5 0L250 720L360 720L605 0L520 0L473 138M446 215L304 631L163 215L446 215Z"  horiz-adv-x="610" vert-adv-y="960"  />

      
      <glyph glyph-name="unic4" unicode="&#xc4;" d="M251 840L166 840L166 925L251 925L251 840M445 840L360 840L360 925L445 925L445 840M473 138L137 138L90 0L5 0L250 720L360 720L605 0L520 0L473 138M446 215L304 631L163 215L446 215Z"  horiz-adv-x="610" vert-adv-y="960"  />

      
      <glyph glyph-name="unic0" unicode="&#xc0;" d="M425 786L192 880L215 942L449 847L425 786M473 138L137 138L90 0L5 0L249 720L360 720L605 0L520 0L473 138M447 215L306 631L164 215L447 215Z"  horiz-adv-x="610" vert-adv-y="960"  />

      
      <glyph glyph-name="uni0100" unicode="&#x0100;" d="M432 840L179 840L179 908L432 908L432 840M473 138L137 138L90 0L5 0L250 720L360 720L605 0L520 0L473 138M446 215L304 631L163 215L446 215Z"  horiz-adv-x="610" vert-adv-y="960"  />

      
      <glyph glyph-name="uni0104" unicode="&#x0104;" d="M622-195Q605-218 576-231Q557-240 535-240Q514-240 495-231.50Q476-223 463-207Q439-180 439-140Q439-118 446-98Q466-43 518 6L473 138L137 138L90 0L5 0L250 720L360 720L605 0L604 0Q574-21 548-54Q520-87 509-119Q506-128 506-138Q506-154 515-163Q525-174 540-174Q563-174 587-152L622-195M446 215L304 631L163 215L446 215Z"  horiz-adv-x="610" vert-adv-y="960"  />

      
      <glyph glyph-name="unic5" unicode="&#xc5;" d="M473 138L137 138L90 0L5 0L236 680Q212 697 197.50 723.50Q183 750 183 780Q183 813 199.50 841Q216 869 244.50 885.50Q273 902 305 902Q356 902 392 866Q428 830 428 780Q428 749 413.50 722.50Q399 696 374 679L605 0L520 0L473 138M305 840Q280 840 262.50 822.50Q245 805 245 780Q245 755 262.50 737.50Q280 720 305 720Q330 720 347.50 737.50Q365 755 365 780Q365 805 347.50 822.50Q330 840 305 840M446 215L304 631L163 215L446 215Z"  horiz-adv-x="610" vert-adv-y="960"  />

      
      <glyph glyph-name="unic3" unicode="&#xc3;" d="M155 843Q152 855 152 868Q152 891 162 908Q171 922 185 931.50Q199 941 215 943Q229 945 236 945Q265 945 305 927Q313 923 328.50 916Q344 909 355 905.50Q366 902 375 902Q390 902 397 909Q404 916 404 926Q404 934 401 940L455 940Q458 930 458 916Q458 893 448 876Q439 862 425 852.50Q411 843 395 841Q381 839 374 839Q344 839 306 857L287 866Q273 873 259.50 877.50Q246 882 236 882Q221 882 213.50 875Q206 868 206 857Q206 849 209 843L155 843M473 138L137 138L90 0L5 0L250 720L360 720L605 0L520 0L473 138M446 215L304 631L163 215L446 215Z"  horiz-adv-x="610" vert-adv-y="960"  />

      
      <glyph glyph-name="unic6" unicode="&#xc6;" d="M478 639L478 401L783 401L783 319L478 319L478 81L843 81L843 0L397 0L397 138L137 138L90 0L5 0L250 720L843 720L843 639L478 639M397 215L397 639L307 639L163 215L397 215Z"  horiz-adv-x="903" vert-adv-y="960"  />

      
      <glyph glyph-name="uni42" unicode="&#x42;" d="M551 329Q571 304 581.50 273Q592 242 592 211Q592 174 580.50 140Q569 106 547 79Q504 29 439 10Q403 0 342 0L80 0L80 720L329 720Q360 720 380.50 718.50Q401 717 416 712Q476 696 514 649Q535 624 546.50 592.50Q558 561 558 528Q558 499 547.50 471Q537 443 519 420Q503 398 489 387Q527 364 551 329M162 643L162 416L358 416Q383 416 409.50 429.50Q436 443 451 465Q474 496 474 535Q474 556 466 574.50Q458 593 444 607Q426 627 405.50 635Q385 643 358 643L162 643M473 118Q507 152 509 203Q509 251 480 288Q463 312 434 325.50Q405 339 376 339L162 339L162 78L341 78Q394 78 421.50 84.50Q449 91 473 118Z"  horiz-adv-x="626" vert-adv-y="960"  />

      
      <glyph glyph-name="uni43" unicode="&#x43;" d="M687 214Q668 150 629 100Q584 43 517.50 14Q451-15 374-15Q296-15 230 14.50Q164 44 120 100Q40 201 40 354Q40 519 120 620Q164 677 230 706Q296 735 374 735Q452 735 519 705.50Q586 676 629 620Q674 562 692 488L608 474Q595 530 565 570Q532 613 480.50 635Q429 657 370 657Q315 657 265.50 634.50Q216 612 185 570Q127 495 127 360Q127 227 185 149Q217 107 268.50 85Q320 63 378 63Q433 63 483 85.50Q533 108 565 149Q592 187 606 237L687 214Z"  horiz-adv-x="732" vert-adv-y="960"  />

      
      <glyph glyph-name="uni0106" unicode="&#x0106;" d="M507 880L483 942L249 847L273 786L507 880M687 214Q668 150 629 100Q584 43 517.50 14Q451-15 374-15Q296-15 230 14.50Q164 44 120 100Q40 201 40 354Q40 519 120 620Q164 677 230 706Q296 735 374 735Q452 735 519 705.50Q586 676 629 620Q674 562 692 488L608 474Q595 530 565 570Q532 613 480.50 635Q429 657 370 657Q315 657 265.50 634.50Q216 612 185 570Q127 495 127 360Q127 227 185 149Q217 107 268.50 85Q320 63 378 63Q433 63 483 85.50Q533 108 565 149Q592 187 606 237L687 214Z"  horiz-adv-x="732" vert-adv-y="960"  />

      
      <glyph glyph-name="uni010C" unicode="&#x010C;" d="M232 878L379 786L525 878L492 936L379 864L265 936L232 878M687 214Q668 150 629 100Q584 43 517.50 14Q451-15 374-15Q296-15 230 14.50Q164 44 120 100Q40 201 40 354Q40 519 120 620Q164 677 230 706Q296 735 374 735Q452 735 519 705.50Q586 676 629 620Q674 562 692 488L608 474Q595 530 565 570Q532 613 480.50 635Q429 657 370 657Q315 657 265.50 634.50Q216 612 185 570Q127 495 127 360Q127 227 185 149Q217 107 268.50 85Q320 63 378 63Q433 63 483 85.50Q533 108 565 149Q592 187 606 237L687 214Z"  horiz-adv-x="732" vert-adv-y="960"  />

      
      <glyph glyph-name="unic7" unicode="&#xc7;" d="M565 149Q592 187 606 237L687 214Q668 150 629 100Q590 50 532 21Q474-8 407-14L392-56Q424-72 440-99Q451-118 451-145Q451-177 435-199Q422-218 400.50-229.50Q379-241 356-241Q329-241 291-224L312-170Q333-178 347-178Q370-179 382-163Q388-153 388-142Q388-136 385-128Q380-116 369-109.50Q358-103 343-98Q328-93 322-91L350-14Q280-10 220.50 19Q161 48 120 100Q40 201 40 354Q40 519 120 620Q164 677 230 706Q296 735 374 735Q452 735 519 705.50Q586 676 629 620Q674 562 692 488L608 474Q595 530 565 570Q532 613 480.50 635Q429 657 370 657Q315 657 265.50 634.50Q216 612 185 570Q127 495 127 360Q127 227 185 149Q217 107 268.50 85Q320 63 378 63Q433 63 483 85.50Q533 108 565 149Z"  horiz-adv-x="732" vert-adv-y="960"  />

      
      <glyph glyph-name="uni010A" unicode="&#x010A;" d="M426 950L426 858L335 858L335 950L426 950M687 214Q668 150 629 100Q584 43 517.50 14Q451-15 374-15Q296-15 230 14.50Q164 44 120 100Q40 201 40 354Q40 519 120 620Q164 677 230 706Q296 735 374 735Q452 735 519 705.50Q586 676 629 620Q674 562 692 488L608 474Q595 530 565 570Q532 613 480.50 635Q429 657 370 657Q315 657 265.50 634.50Q216 612 185 570Q127 495 127 360Q127 227 185 149Q217 107 268.50 85Q320 63 378 63Q433 63 483 85.50Q533 108 565 149Q592 187 606 237L687 214Z"  horiz-adv-x="732" vert-adv-y="960"  />

      
      <glyph glyph-name="uni44" unicode="&#x44;" d="M601 537Q640 461 642 361Q640 259 601 184Q558 100 476.50 50Q395 0 302 0L80 0L80 720L302 720Q396 720 477 670Q558 620 601 537M528 222Q558 282 558 354Q558 439 528 499Q495 565 433 603.50Q371 642 297 642L162 643L162 79L297 79Q370 79 432.50 117.50Q495 156 528 222Z"  horiz-adv-x="682" vert-adv-y="960"  />

      
      <glyph glyph-name="unid0" unicode="&#xd0;" d="M596 537Q637 458 637 361Q637 262 596 184Q553 100 471.50 50Q390 0 297 0L75 0L75 326L10 326L10 394L75 394L75 720L297 720Q391 720 472 670Q553 620 596 537M523 222Q554 284 554 361Q552 440 523 499Q490 565 428.50 603.50Q367 642 293 642L157 643L157 394L329 394L329 326L157 326L157 79L293 79Q365 79 427.50 117.50Q490 156 523 222Z"  horiz-adv-x="677" vert-adv-y="960"  />

      
      <glyph glyph-name="uni010E" unicode="&#x010E;" d="M316 786L170 878L203 936L316 864L430 936L463 878L316 786M601 537Q640 461 642 361Q640 259 601 184Q558 100 476.50 50Q395 0 302 0L80 0L80 720L302 720Q396 720 477 670Q558 620 601 537M528 222Q558 282 558 354Q558 439 528 499Q495 565 433 603.50Q371 642 297 642L162 643L162 79L297 79Q370 79 432.50 117.50Q495 156 528 222Z"  horiz-adv-x="682" vert-adv-y="960"  />

      
      <glyph glyph-name="uni0110" unicode="&#x0110;" d="M596 537Q637 458 637 361Q637 262 596 184Q553 100 471.50 50Q390 0 297 0L75 0L75 326L10 326L10 394L75 394L75 720L297 720Q391 720 472 670Q553 620 596 537M523 222Q554 284 554 361Q552 440 523 499Q490 565 428.50 603.50Q367 642 293 642L157 643L157 394L329 394L329 326L157 326L157 79L293 79Q365 79 427.50 117.50Q490 156 523 222Z"  horiz-adv-x="677" vert-adv-y="960"  />

      
      <glyph glyph-name="uni45" unicode="&#x45;" d="M161 639L161 401L467 401L467 319L161 319L161 81L527 81L527 0L80 0L80 720L527 720L527 639L161 639Z"  horiz-adv-x="587" vert-adv-y="960"  />

      
      <glyph glyph-name="unic9" unicode="&#xc9;" d="M186 786L162 847L396 942L420 880L186 786M161 639L161 401L467 401L467 319L161 319L161 81L527 81L527 0L80 0L80 720L527 720L527 639L161 639Z"  horiz-adv-x="587" vert-adv-y="960"  />

      
      <glyph glyph-name="uni011A" unicode="&#x011A;" d="M298 786L152 878L185 936L298 864L412 936L445 878L298 786M161 639L161 401L467 401L467 319L161 319L161 81L527 81L527 0L80 0L80 720L527 720L527 639L161 639Z"  horiz-adv-x="587" vert-adv-y="960"  />

      
      <glyph glyph-name="unica" unicode="&#xca;" d="M169 786L136 843L283 936L430 843L396 786L283 858L169 786M161 639L161 401L467 401L467 319L161 319L161 81L527 81L527 0L80 0L80 720L527 720L527 639L161 639Z"  horiz-adv-x="587" vert-adv-y="960"  />

      
      <glyph glyph-name="unicb" unicode="&#xcb;" d="M233 840L148 840L148 925L233 925L233 840M426 840L341 840L341 925L426 925L426 840M161 639L161 401L467 401L467 319L161 319L161 81L527 81L527 0L80 0L80 720L527 720L527 639L161 639Z"  horiz-adv-x="587" vert-adv-y="960"  />

      
      <glyph glyph-name="uni0116" unicode="&#x0116;" d="M353 833L261 833L261 925L353 925L353 833M161 639L161 401L467 401L467 319L161 319L161 81L527 81L527 0L80 0L80 720L527 720L527 639L161 639Z"  horiz-adv-x="587" vert-adv-y="960"  />

      
      <glyph glyph-name="unic8" unicode="&#xc8;" d="M392 786L158 880L182 942L416 847L392 786M161 639L161 401L467 401L467 319L161 319L161 81L527 81L527 0L80 0L80 720L527 720L527 639L161 639Z"  horiz-adv-x="587" vert-adv-y="960"  />

      
      <glyph glyph-name="uni0112" unicode="&#x0112;" d="M425 840L172 840L172 908L425 908L425 840M161 639L161 401L467 401L467 319L161 319L161 81L527 81L527 0L80 0L80 720L527 720L527 639L161 639Z"  horiz-adv-x="587" vert-adv-y="960"  />

      
      <glyph glyph-name="uni0118" unicode="&#x0118;" d="M161 639L161 401L467 401L467 319L161 319L161 81L527 81L527 0L497 0Q464-24 441-54Q411-89 402-119Q399-128 399-138Q399-154 408-163Q418-174 433-174Q456-174 480-152L515-195Q499-217 469-231Q449-240 428-240Q407-240 388-231.50Q369-223 356-207Q331-181 331-141Q331-120 339-98Q357-45 405 0L80 0L80 720L527 720L527 639L161 639Z"  horiz-adv-x="587" vert-adv-y="960"  />

      
      <glyph glyph-name="uni46" unicode="&#x46;" d="M161 639L161 401L437 401L437 319L161 319L161 0L80 0L80 720L497 720L497 639L161 639Z"  horiz-adv-x="517" vert-adv-y="960"  />

      
      <glyph glyph-name="uni47" unicode="&#x47;" d="M708 370L708 347Q701 194 628 101Q582 43 516.50 14Q451-15 374-15Q295-15 228 14.50Q161 44 120 101Q42 197 40 360Q42 521 120 619Q161 676 228 705.50Q295 735 374 735Q452 735 517.50 705.50Q583 676 628 619Q647 595 663 564L588 530Q572 558 564 569Q532 612 481.50 634.50Q431 657 374 657Q317 657 266 634Q215 611 184 569Q129 500 125 360Q129 220 184 151Q215 109 266 86Q317 63 374 63Q431 63 481.50 85.50Q532 108 564 151Q607 211 617 301L435 301L435 370L708 370Z"  horiz-adv-x="748" vert-adv-y="960"  />

      
      <glyph glyph-name="uni011E" unicode="&#x011E;" d="M382 780Q346 780 315.50 798Q285 816 267 846.50Q249 877 249 913L316 913Q316 885 335 866Q354 847 382 847Q410 847 429 866Q448 885 448 913L515 913Q515 877 497 846.50Q479 816 448.50 798Q418 780 382 780M708 370L708 347Q701 194 628 101Q582 43 516.50 14Q451-15 374-15Q295-15 228 14.50Q161 44 120 101Q42 197 40 360Q42 521 120 619Q161 676 228 705.50Q295 735 374 735Q452 735 517.50 705.50Q583 676 628 619Q647 595 663 564L588 530Q572 558 564 569Q532 612 481.50 634.50Q431 657 374 657Q317 657 266 634Q215 611 184 569Q129 500 125 360Q129 220 184 151Q215 109 266 86Q317 63 374 63Q431 63 481.50 85.50Q532 108 564 151Q607 211 617 301L435 301L435 370L708 370Z"  horiz-adv-x="748" vert-adv-y="960"  />

      
      <glyph glyph-name="uni0122" unicode="&#x0122;" d="M708 370L708 347Q701 194 628 101Q582 43 516.50 14Q451-15 374-15Q295-15 228 14.50Q161 44 120 101Q42 197 40 360Q42 521 120 619Q161 676 228 705.50Q295 735 374 735Q452 735 517.50 705.50Q583 676 628 619Q647 595 663 564L588 530Q572 558 564 569Q532 612 481.50 634.50Q431 657 374 657Q317 657 266 634Q215 611 184 569Q129 500 125 360Q129 220 184 151Q215 109 266 86Q317 63 374 63Q431 63 481.50 85.50Q532 108 564 151Q607 211 617 301L435 301L435 370L708 370M325-78L413-78L413-166Q413-207 387.50-230Q362-253 325-253L325-212Q340-212 357-201.50Q374-191 373-166L325-166L325-78Z"  horiz-adv-x="748" vert-adv-y="960"  />

      
      <glyph glyph-name="uni0120" unicode="&#x0120;" d="M420 833L328 833L328 925L420 925L420 833M708 370L708 347Q701 194 628 101Q582 43 516.50 14Q451-15 374-15Q295-15 228 14.50Q161 44 120 101Q42 197 40 360Q42 521 120 619Q161 676 228 705.50Q295 735 374 735Q452 735 517.50 705.50Q583 676 628 619Q647 595 663 564L588 530Q572 558 564 569Q532 612 481.50 634.50Q431 657 374 657Q317 657 266 634Q215 611 184 569Q129 500 125 360Q129 220 184 151Q215 109 266 86Q317 63 374 63Q431 63 481.50 85.50Q532 108 564 151Q607 211 617 301L435 301L435 370L708 370Z"  horiz-adv-x="748" vert-adv-y="960"  />

      
      <glyph glyph-name="uni48" unicode="&#x48;" d="M631 720L631 0L550 0L550 267L161 267L161 0L80 0L80 720L161 720L161 349L550 349L550 720L631 720Z"  horiz-adv-x="711" vert-adv-y="960"  />

      
      <glyph glyph-name="uni0126" unicode="&#x0126;" d="M701 491L631 491L631 0L550 0L550 267L161 267L161 0L80 0L80 491L10 491L10 572L80 572L80 720L161 720L161 572L550 572L550 720L631 720L631 572L701 572L701 491M550 491L161 491L161 349L550 349L550 491Z"  horiz-adv-x="711" vert-adv-y="960"  />

      
      <glyph glyph-name="uni49" unicode="&#x49;" d="M151 720L151 0L70 0L70 720L151 720Z"  horiz-adv-x="221" vert-adv-y="960"  />

      
      <glyph glyph-name="unicd" unicode="&#xcd;" d="M241 880L217 942L-17 847L7 786L241 880M151 720L151 0L70 0L70 720L151 720Z"  horiz-adv-x="221" vert-adv-y="960"  />

      
      <glyph glyph-name="unice" unicode="&#xce;" d="M112 858L226 786L259 843L112 936L-35 843L-1 786L112 858M151 720L151 0L70 0L70 720L151 720Z"  horiz-adv-x="221" vert-adv-y="960"  />

      
      <glyph glyph-name="unicf" unicode="&#xcf;" d="M56 925L56 840L-29 840L-29 925L56 925M249 925L249 840L164 840L164 925L249 925M151 720L151 0L70 0L70 720L151 720Z"  horiz-adv-x="221" vert-adv-y="960"  />

      
      <glyph glyph-name="uni0130" unicode="&#x0130;" d="M156 925L156 833L65 833L65 925L156 925M151 720L151 0L70 0L70 720L151 720Z"  horiz-adv-x="221" vert-adv-y="960"  />

      
      <glyph glyph-name="unicc" unicode="&#xcc;" d="M241 847L7 942L-17 880L217 786L241 847M151 720L151 0L70 0L70 720L151 720Z"  horiz-adv-x="221" vert-adv-y="960"  />

      
      <glyph glyph-name="uni012A" unicode="&#x012A;" d="M237 908L237 840L-16 840L-16 908L237 908M151 720L151 0L70 0L70 720L151 720Z"  horiz-adv-x="221" vert-adv-y="960"  />

      
      <glyph glyph-name="uni012E" unicode="&#x012E;" d="M169-195Q152-218 123-231Q104-240 82-240Q61-240 42-231.50Q23-223 10-207Q-14-180-14-140Q-14-118-7-98Q13-40 70 10L70 720L151 720L151 0Q121-21 95-54Q67-87 56-119Q53-128 53-138Q53-154 62-163Q72-174 87-174Q111-174 135-152L169-195Z"  horiz-adv-x="221" vert-adv-y="960"  />

      
      <glyph glyph-name="uni4a" unicode="&#x4a;" d="M305 720L305 224Q305 176 303.50 158.50Q302 141 292 122Q278 94 251 78.50Q224 63 193 63Q159 63 131 82Q112 95 98.50 114Q85 133 81 154L0 135Q10 96 34 63.50Q58 31 92 12Q135-14 194-14Q308-14 363 80Q381 112 385 140.50Q389 169 389 224L389 720L305 720Z"  horiz-adv-x="470" vert-adv-y="960"  />

      
      <glyph glyph-name="uni4b" unicode="&#x4b;" d="M162 341L162 0L80 0L80 720L162 720L162 409L334 409L532 720L630 720L406 375L649 0L551 0L334 341L162 341Z"  horiz-adv-x="649" vert-adv-y="960"  />

      
      <glyph glyph-name="uni0136" unicode="&#x0136;" d="M162 341L162 0L80 0L80 720L162 720L162 409L334 409L532 720L630 720L406 375L649 0L551 0L334 341L162 341M381-166Q381-207 355-230Q329-253 292-253L292-212Q308-212 324.50-201.50Q341-191 340-166L292-166L292-78L381-78L381-166Z"  horiz-adv-x="649" vert-adv-y="960"  />

      
      <glyph glyph-name="uni4c" unicode="&#x4c;" d="M80 720L80 0L499 0L499 81L161 81L161 720L80 720Z"  horiz-adv-x="514" vert-adv-y="960"  />

      
      <glyph glyph-name="uni0139" unicode="&#x0139;" d="M338 880L314 942L80 847L104 786L338 880M80 720L80 0L499 0L499 81L161 81L161 720L80 720Z"  horiz-adv-x="514" vert-adv-y="960"  />

      
      <glyph glyph-name="uni013D" unicode="&#x013D;" d="M80 720L80 0L499 0L499 81L161 81L161 720L80 720M414 599Q414 556 395.50 531.50Q377 507 342 507Q336 507 322 509L327 548Q351 546 361 560Q371 574 371 600L370 617L322 617L322 726L414 726L414 599Z"  horiz-adv-x="514" vert-adv-y="960"  />

      
      <glyph glyph-name="uni013B" unicode="&#x013B;" d="M80 720L80 0L499 0L499 81L161 81L161 720L80 720M334-166Q334-207 308-230Q282-253 245-253L245-212Q261-212 277.50-201.50Q294-191 293-166L245-166L245-78L334-78L334-166Z"  horiz-adv-x="514" vert-adv-y="960"  />

      
      <glyph glyph-name="uni0141" unicode="&#x0141;" d="M507 81L507 0L88 0L88 196L47 155L-8 210L88 306L88 720L170 720L170 387L329 546L384 491L170 278L170 81L507 81Z"  horiz-adv-x="523" vert-adv-y="960"  />

      
      <glyph glyph-name="uni4d" unicode="&#x4d;" d="M792 1L710 1L710 540L460 0L412 0L162 540L162 0L80 0L80 720L161 720L436 131L710 720L792 720L792 1Z"  horiz-adv-x="872" vert-adv-y="960"  />

      
      <glyph glyph-name="uni4e" unicode="&#x4e;" d="M530 150L530 720L612 720L612 0L540 0L162 570L162 0L80 0L80 720L153 720L530 150Z"  horiz-adv-x="692" vert-adv-y="960"  />

      
      <glyph glyph-name="uni0143" unicode="&#x0143;" d="M490 880L467 942L233 847L257 786L490 880M530 150L530 720L612 720L612 0L540 0L162 570L162 0L80 0L80 720L153 720L530 150Z"  horiz-adv-x="692" vert-adv-y="960"  />

      
      <glyph glyph-name="uni0147" unicode="&#x0147;" d="M200 878L346 786L493 878L460 936L346 864L233 936L200 878M530 150L530 720L612 720L612 0L540 0L162 570L162 0L80 0L80 720L153 720L530 150Z"  horiz-adv-x="692" vert-adv-y="960"  />

      
      <glyph glyph-name="uni0145" unicode="&#x0145;" d="M530 150L530 720L612 720L612 0L540 0L162 570L162 0L80 0L80 720L153 720L530 150M391-166Q391-207 365-230Q339-253 302-253L302-212Q318-212 334.50-201.50Q351-191 350-166L302-166L302-78L391-78L391-166Z"  horiz-adv-x="692" vert-adv-y="960"  />

      
      <glyph glyph-name="uni014A" unicode="&#x014A;" d="M612 720L612-92Q612-186 542-201Q521-204 503-204Q478-204 448-197L448-131Q465-134 479-134Q507-134 521.50-118Q536-102 536-60Q536-39 525-8.50Q514 22 491 58L450 124L460 120L162 570L162 0L80 0L80 720L153 720L530 150L530 720L612 720Z"  horiz-adv-x="692" vert-adv-y="960"  />

      
      <glyph glyph-name="unid1" unicode="&#xd1;" d="M498 915Q501 905 501 891Q501 868 491 851Q482 837 468 827.50Q454 818 438 816Q424 814 417 814Q388 814 348 832Q339 836 324 843Q309 850 298.50 853.50Q288 857 278 857Q263 857 256 850Q249 843 249 832Q249 826 252 818L198 818Q195 830 195 843Q195 866 205 883Q214 897 228 906.50Q242 916 258 918Q272 920 279 920Q309 920 347 902L366 894Q400 877 418 877Q433 877 440 884Q447 891 447 901Q447 909 444 915L498 915M530 150L530 720L612 720L612 0L540 0L162 570L162 0L80 0L80 720L153 720L530 150Z"  horiz-adv-x="692" vert-adv-y="960"  />

      
      <glyph glyph-name="uni4f" unicode="&#x4f;" d="M374-15Q295-15 228.50 14.50Q162 44 119 101Q40 201 40 366Q40 520 119 620Q162 675 227 704.50Q292 734 367 734Q447 734 515.50 705.50Q584 677 629 620Q670 567 688 502Q706 437 708 360Q706 200 629 101Q585 44 518.50 14.50Q452-15 374-15M370 63Q429 63 480.50 85Q532 107 563 150Q621 226 621 367Q621 496 563 569Q533 611 483.50 634Q434 657 378 657Q319 657 267.50 634.50Q216 612 184 569Q128 498 126 360Q126 225 184 150Q215 108 265 85.50Q315 63 370 63Z"  horiz-adv-x="748" vert-adv-y="960"  />

      
      <glyph glyph-name="unid3" unicode="&#xd3;" d="M513 880L490 942L255 847L280 786L513 880M374-15Q295-15 228.50 14.50Q162 44 119 101Q40 201 40 366Q40 520 119 620Q162 675 227 704.50Q292 734 367 734Q447 734 515.50 705.50Q584 677 629 620Q670 567 688 502Q706 437 708 360Q706 200 629 101Q585 44 518.50 14.50Q452-15 374-15M370 63Q429 63 480.50 85Q532 107 563 150Q621 226 621 367Q621 496 563 569Q533 611 483.50 634Q434 657 378 657Q319 657 267.50 634.50Q216 612 184 569Q128 498 126 360Q126 225 184 150Q215 108 265 85.50Q315 63 370 63Z"  horiz-adv-x="748" vert-adv-y="960"  />

      
      <glyph glyph-name="unid4" unicode="&#xd4;" d="M374 858L487 786L521 843L374 936L227 843L261 786L374 858M374-15Q295-15 228.50 14.50Q162 44 119 101Q40 201 40 366Q40 520 119 620Q162 675 227 704.50Q292 734 367 734Q447 734 515.50 705.50Q584 677 629 620Q670 567 688 502Q706 437 708 360Q706 200 629 101Q585 44 518.50 14.50Q452-15 374-15M370 63Q429 63 480.50 85Q532 107 563 150Q621 226 621 367Q621 496 563 569Q533 611 483.50 634Q434 657 378 657Q319 657 267.50 634.50Q216 612 184 569Q128 498 126 360Q126 225 184 150Q215 108 265 85.50Q315 63 370 63Z"  horiz-adv-x="748" vert-adv-y="960"  />

      
      <glyph glyph-name="unid6" unicode="&#xd6;" d="M320 925L320 840L235 840L235 925L320 925M513 925L513 840L428 840L428 925L513 925M374-15Q295-15 228.50 14.50Q162 44 119 101Q40 201 40 366Q40 520 119 620Q162 675 227 704.50Q292 734 367 734Q447 734 515.50 705.50Q584 677 629 620Q670 567 688 502Q706 437 708 360Q706 200 629 101Q585 44 518.50 14.50Q452-15 374-15M370 63Q429 63 480.50 85Q532 107 563 150Q621 226 621 367Q621 496 563 569Q533 611 483.50 634Q434 657 378 657Q319 657 267.50 634.50Q216 612 184 569Q128 498 126 360Q126 225 184 150Q215 108 265 85.50Q315 63 370 63Z"  horiz-adv-x="748" vert-adv-y="960"  />

      
      <glyph glyph-name="unid2" unicode="&#xd2;" d="M523 847L289 942L265 880L499 786L523 847M374-15Q295-15 228.50 14.50Q162 44 119 101Q40 201 40 366Q40 520 119 620Q162 675 227 704.50Q292 734 367 734Q447 734 515.50 705.50Q584 677 629 620Q670 567 688 502Q706 437 708 360Q706 200 629 101Q585 44 518.50 14.50Q452-15 374-15M370 63Q429 63 480.50 85Q532 107 563 150Q621 226 621 367Q621 496 563 569Q533 611 483.50 634Q434 657 378 657Q319 657 267.50 634.50Q216 612 184 569Q128 498 126 360Q126 225 184 150Q215 108 265 85.50Q315 63 370 63Z"  horiz-adv-x="748" vert-adv-y="960"  />

      
      <glyph glyph-name="uni0150" unicode="&#x0150;" d="M420 899L378 942L270 836L312 792L420 899M569 899L527 942L419 836L461 792L569 899M374-15Q295-15 228.50 14.50Q162 44 119 101Q40 201 40 366Q40 520 119 620Q162 675 227 704.50Q292 734 367 734Q447 734 515.50 705.50Q584 677 629 620Q670 567 688 502Q706 437 708 360Q706 200 629 101Q585 44 518.50 14.50Q452-15 374-15M370 63Q429 63 480.50 85Q532 107 563 150Q621 226 621 367Q621 496 563 569Q533 611 483.50 634Q434 657 378 657Q319 657 267.50 634.50Q216 612 184 569Q128 498 126 360Q126 225 184 150Q215 108 265 85.50Q315 63 370 63Z"  horiz-adv-x="748" vert-adv-y="960"  />

      
      <glyph glyph-name="uni014C" unicode="&#x014C;" d="M496 908L496 840L243 840L243 908L496 908M374-15Q295-15 228.50 14.50Q162 44 119 101Q40 201 40 366Q40 520 119 620Q162 675 227 704.50Q292 734 367 734Q447 734 515.50 705.50Q584 677 629 620Q670 567 688 502Q706 437 708 360Q706 200 629 101Q585 44 518.50 14.50Q452-15 374-15M370 63Q429 63 480.50 85Q532 107 563 150Q621 226 621 367Q621 496 563 569Q533 611 483.50 634Q434 657 378 657Q319 657 267.50 634.50Q216 612 184 569Q128 498 126 360Q126 225 184 150Q215 108 265 85.50Q315 63 370 63Z"  horiz-adv-x="748" vert-adv-y="960"  />

      
      <glyph glyph-name="unid8" unicode="&#xd8;" d="M654 584Q705 496 708 360Q706 200 629 101Q585 44 518.50 14.50Q452-15 374-15Q305-15 245.50 7.50Q186 30 143 74L86 17L31 72L95 136Q40 229 40 366Q40 520 119 620Q162 675 227 704.50Q292 734 367 734Q437 734 498.50 712Q560 690 606 646L662 702L717 647L654 584M126 360Q126 264 156 197L548 588Q517 621 472 639Q427 657 378 657Q319 657 267.50 634.50Q216 612 184 569Q128 498 126 360M621 369Q621 459 591 522L200 131Q232 98 276.50 80.50Q321 63 370 63Q429 63 480.50 85Q532 107 563 150Q621 224 621 369Z"  horiz-adv-x="748" vert-adv-y="960"  />

      
      <glyph glyph-name="unid5" unicode="&#xd5;" d="M524 940Q527 930 527 916Q527 893 517 876Q508 862 494 852.50Q480 843 464 841Q450 839 443 839Q413 839 375 857L356 866Q342 873 328.50 877.50Q315 882 305 882Q290 882 282.50 875Q275 868 275 857Q275 849 278 843L224 843Q221 855 221 868Q221 891 231 908Q240 922 254 931.50Q268 941 284 943Q298 945 305 945Q334 945 374 927Q382 923 397.50 916Q413 909 424 905.50Q435 902 444 902Q459 902 466 909Q473 916 473 926Q473 934 470 940L524 940M374-15Q295-15 228.50 14.50Q162 44 119 101Q40 201 40 366Q40 520 119 620Q162 675 227 704.50Q292 734 367 734Q447 734 515.50 705.50Q584 677 629 620Q670 567 688 502Q706 437 708 360Q706 200 629 101Q585 44 518.50 14.50Q452-15 374-15M370 63Q429 63 480.50 85Q532 107 563 150Q621 226 621 367Q621 496 563 569Q533 611 483.50 634Q434 657 378 657Q319 657 267.50 634.50Q216 612 184 569Q128 498 126 360Q126 225 184 150Q215 108 265 85.50Q315 63 370 63Z"  horiz-adv-x="748" vert-adv-y="960"  />

      
      <glyph glyph-name="uni0152" unicode="&#x0152;" d="M726 639L726 401L1032 401L1032 319L726 319L726 81L1092 81L1092 0L645 0L645 123Q631 103 629 101Q585 44 518.50 14.50Q452-15 374-15Q295-15 228.50 14.50Q162 44 119 101Q40 201 40 366Q40 520 119 620Q162 675 227 704.50Q292 734 367 734Q447 734 515.50 705.50Q584 677 629 620Q631 618 645 598L645 720L1092 720L1092 639L726 639M621 367Q621 496 563 569Q533 611 483.50 634Q434 657 378 657Q319 657 267.50 634.50Q216 612 184 569Q128 498 126 360Q126 225 184 150Q215 108 265 85.50Q315 63 370 63Q429 63 480.50 85Q532 107 563 150Q621 226 621 367Z"  horiz-adv-x="1152" vert-adv-y="960"  />

      
      <glyph glyph-name="uni50" unicode="&#x50;" d="M550 645Q578 615 593.50 576Q609 537 610 495Q610 457 596 419.50Q582 382 557 352Q526 314 479.50 292Q433 270 383 270L161 270L161 0L80 0L80 720L383 720Q420 720 459 707Q513 689 550 645M493 402Q526 443 526 491Q526 522 515.50 549Q505 576 484 597Q465 617 438 629.50Q411 642 383 642L161 642L161 348L383 348Q413 348 443 362.50Q473 377 493 402Z"  horiz-adv-x="641" vert-adv-y="960"  />

      
      <glyph glyph-name="unide" unicode="&#xde;" d="M521 510Q549 480 564.50 441Q580 402 581 360Q581 322 566.50 284.50Q552 247 527 217Q497 179 451 157Q405 135 354 135L162 135L162 0L80 0L80 720L162 720L162 585L354 585Q394 585 430 572Q484 554 521 510M464 267Q497 308 497 356Q497 386 486 413.50Q475 441 455 463Q436 483 408.50 495Q381 507 354 507L162 507L162 213L354 213Q384 213 413.50 227.50Q443 242 464 267Z"  horiz-adv-x="612" vert-adv-y="960"  />

      
      <glyph glyph-name="uni51" unicode="&#x51;" d="M628 100L689 40L635-14L574 47Q491-15 374-15Q295-15 228.50 14.50Q162 44 119 101Q40 201 40 366Q40 520 119 620Q162 675 227 704.50Q292 734 367 734Q447 734 515.50 705.50Q584 677 629 620Q670 567 688 502Q706 437 708 360Q706 200 629 101L628 100M370 63Q456 63 516 104L441 179L495 233L570 159Q621 235 621 367Q621 496 563 569Q533 611 483.50 634Q434 657 378 657Q319 657 267.50 634.50Q216 612 184 569Q128 498 126 360Q126 225 184 150Q215 108 265 85.50Q315 63 370 63Z"  horiz-adv-x="748" vert-adv-y="960"  />

      
      <glyph glyph-name="uni52" unicode="&#x52;" d="M557 352Q522 309 470 288L610 0L516 0L385 270L383 270L161 270L161 0L80 0L80 720L383 720Q420 720 459 707Q513 689 550 645Q578 615 593.50 576Q609 537 610 495Q610 457 596 419.50Q582 382 557 352M161 348L383 348Q413 348 443 362.50Q473 377 493 402Q526 443 526 491Q526 522 515.50 549Q505 576 484 597Q465 617 438 629.50Q411 642 383 642L161 642L161 348Z"  horiz-adv-x="621" vert-adv-y="960"  />

      
      <glyph glyph-name="uni0154" unicode="&#x0154;" d="M200 786L176 847L410 942L434 880L200 786M557 352Q522 309 470 288L610 0L516 0L385 270L383 270L161 270L161 0L80 0L80 720L383 720Q420 720 459 707Q513 689 550 645Q578 615 593.50 576Q609 537 610 495Q610 457 596 419.50Q582 382 557 352M161 348L383 348Q413 348 443 362.50Q473 377 493 402Q526 443 526 491Q526 522 515.50 549Q505 576 484 597Q465 617 438 629.50Q411 642 383 642L161 642L161 348Z"  horiz-adv-x="621" vert-adv-y="960"  />

      
      <glyph glyph-name="uni0158" unicode="&#x0158;" d="M301 786L155 878L188 936L301 864L415 936L448 878L301 786M557 352Q522 309 470 288L610 0L516 0L385 270L383 270L161 270L161 0L80 0L80 720L383 720Q420 720 459 707Q513 689 550 645Q578 615 593.50 576Q609 537 610 495Q610 457 596 419.50Q582 382 557 352M161 348L383 348Q413 348 443 362.50Q473 377 493 402Q526 443 526 491Q526 522 515.50 549Q505 576 484 597Q465 617 438 629.50Q411 642 383 642L161 642L161 348Z"  horiz-adv-x="621" vert-adv-y="960"  />

      
      <glyph glyph-name="uni0156" unicode="&#x0156;" d="M557 352Q522 309 470 288L610 0L516 0L385 270L383 270L161 270L161 0L80 0L80 720L383 720Q420 720 459 707Q513 689 550 645Q578 615 593.50 576Q609 537 610 495Q610 457 596 419.50Q582 382 557 352M161 348L383 348Q413 348 443 362.50Q473 377 493 402Q526 443 526 491Q526 522 515.50 549Q505 576 484 597Q465 617 438 629.50Q411 642 383 642L161 642L161 348M268-78L356-78L356-166Q356-207 330-230Q304-253 268-253L268-212Q283-212 299.50-201.50Q316-191 315-166L268-166L268-78Z"  horiz-adv-x="621" vert-adv-y="960"  />

      
      <glyph glyph-name="uni53" unicode="&#x53;" d="M500 517Q484 555 464 582Q444 609 414 627Q390 641 360 649Q330 657 299 657Q242 657 201 634Q176 620 160.50 595Q145 570 145 543Q145 505 170 480Q195 454 269 431L398 393Q480 369 528 324Q555 298 570.50 263Q586 228 586 191Q586 145 563.50 102Q541 59 503 32Q438-15 317-15Q164-15 89 85Q47 139 30 217L112 239Q124 174 154 136Q181 98 225 80Q269 62 320 62Q357 62 394 72Q431 82 455 99Q478 115 489 139.50Q500 164 500 191Q500 235 468 265Q436 297 378 313L246 352Q203 365 170.50 380.50Q138 396 112 419Q86 443 72.50 477Q59 511 59 546Q59 595 88.50 639Q118 683 163 705Q222 735 305 735Q392 735 455 698Q498 673 530 632Q562 591 581 539L500 517Z"  horiz-adv-x="616" vert-adv-y="960"  />

      
      <glyph glyph-name="uni015A" unicode="&#x015A;" d="M437 880L414 942L180 847L204 786L437 880M500 517Q484 555 464 582Q444 609 414 627Q390 641 360 649Q330 657 299 657Q242 657 201 634Q176 620 160.50 595Q145 570 145 543Q145 505 170 480Q195 454 269 431L398 393Q480 369 528 324Q555 298 570.50 263Q586 228 586 191Q586 145 563.50 102Q541 59 503 32Q438-15 317-15Q164-15 89 85Q47 139 30 217L112 239Q124 174 154 136Q181 98 225 80Q269 62 320 62Q357 62 394 72Q431 82 455 99Q478 115 489 139.50Q500 164 500 191Q500 235 468 265Q436 297 378 313L246 352Q203 365 170.50 380.50Q138 396 112 419Q86 443 72.50 477Q59 511 59 546Q59 595 88.50 639Q118 683 163 705Q222 735 305 735Q392 735 455 698Q498 673 530 632Q562 591 581 539L500 517Z"  horiz-adv-x="616" vert-adv-y="960"  />

      
      <glyph glyph-name="uni0160" unicode="&#x0160;" d="M167 878L314 786L461 878L427 936L314 864L201 936L167 878M500 517Q484 555 464 582Q444 609 414 627Q390 641 360 649Q330 657 299 657Q242 657 201 634Q176 620 160.50 595Q145 570 145 543Q145 505 170 480Q195 454 269 431L398 393Q480 369 528 324Q555 298 570.50 263Q586 228 586 191Q586 145 563.50 102Q541 59 503 32Q438-15 317-15Q164-15 89 85Q47 139 30 217L112 239Q124 174 154 136Q181 98 225 80Q269 62 320 62Q357 62 394 72Q431 82 455 99Q478 115 489 139.50Q500 164 500 191Q500 235 468 265Q436 297 378 313L246 352Q203 365 170.50 380.50Q138 396 112 419Q86 443 72.50 477Q59 511 59 546Q59 595 88.50 639Q118 683 163 705Q222 735 305 735Q392 735 455 698Q498 673 530 632Q562 591 581 539L500 517Z"  horiz-adv-x="616" vert-adv-y="960"  />

      
      <glyph glyph-name="uni015E" unicode="&#x015E;" d="M528 324Q555 298 570.50 263Q586 228 586 191Q586 145 563.50 102Q541 59 503 32Q444-11 343-14L328-56Q360-72 376-99Q387-117 387-144Q387-176 371-199Q357-219 336-230Q315-241 292-241Q274-241 260-236.50Q246-232 227-224L247-170Q269-178 283-178Q294-179 303-175Q312-171 317-163Q324-151 324-142Q324-136 321-128Q316-116 305-109.50Q294-103 279-98Q264-93 258-91L286-14Q156-4 89 85Q47 139 30 217L112 239Q124 174 154 136Q181 98 225 80Q269 62 320 62Q357 62 394 72Q431 82 455 99Q478 115 489 139.50Q500 164 500 191Q500 235 468 265Q436 297 378 313L246 352Q203 365 170.50 380.50Q138 396 112 419Q86 443 72.50 477Q59 511 59 546Q59 595 88.50 639Q118 683 163 705Q222 735 305 735Q392 735 455 698Q498 673 530 632Q562 591 581 539L500 517Q484 555 464 582Q444 609 414 627Q390 641 360 649Q330 657 299 657Q242 657 201 634Q176 620 160.50 595Q145 570 145 543Q145 505 170 480Q195 454 269 431L398 393Q480 369 528 324Z"  horiz-adv-x="616" vert-adv-y="960"  />

      
      <glyph glyph-name="uni0218" unicode="&#x0218;" d="M500 517Q484 555 464 582Q444 609 414 627Q390 641 360 649Q330 657 299 657Q242 657 201 634Q176 620 160.50 595Q145 570 145 543Q145 505 170 480Q195 454 269 431L398 393Q480 369 528 324Q555 298 570.50 263Q586 228 586 191Q586 145 563.50 102Q541 59 503 32Q438-15 317-15Q164-15 89 85Q47 139 30 217L112 239Q124 174 154 136Q181 98 225 80Q269 62 320 62Q357 62 394 72Q431 82 455 99Q478 115 489 139.50Q500 164 500 191Q500 235 468 265Q436 297 378 313L246 352Q203 365 170.50 380.50Q138 396 112 419Q86 443 72.50 477Q59 511 59 546Q59 595 88.50 639Q118 683 163 705Q222 735 305 735Q392 735 455 698Q498 673 530 632Q562 591 581 539L500 517M354-166Q354-207 328.50-230Q303-253 266-253L266-212Q281-212 298-201.50Q315-191 314-166L266-166L266-78L354-78L354-166Z"  horiz-adv-x="616" vert-adv-y="960"  />

      
      <glyph glyph-name="uni54" unicode="&#x54;" d="M588 639L340 639L340 0L259 0L259 639L10 639L10 720L588 720L588 639Z"  horiz-adv-x="598" vert-adv-y="960"  />

      
      <glyph glyph-name="uni0166" unicode="&#x0166;" d="M340 639L340 401L522 401L522 319L340 319L340 0L259 0L259 319L77 319L77 401L259 401L259 639L10 639L10 720L588 720L588 639L340 639Z"  horiz-adv-x="598" vert-adv-y="960"  />

      
      <glyph glyph-name="uni0164" unicode="&#x0164;" d="M279 786L132 878L166 936L279 864L393 936L426 878L279 786M588 639L340 639L340 0L259 0L259 639L10 639L10 720L588 720L588 639Z"  horiz-adv-x="598" vert-adv-y="960"  />

      
      <glyph glyph-name="uni0162" unicode="&#x0162;" d="M328 0L307-56Q340-72 355-99Q366-118 366-145Q366-177 350-199Q337-218 316-229.50Q295-241 272-241Q243-241 207-224L227-170Q249-178 263-178Q274-179 283-175Q292-171 297-163Q304-151 304-143Q304-138 300-128Q295-116 284-109.50Q273-103 258-98Q243-93 237-91L271 0L259 0L259 639L10 639L10 720L588 720L588 639L340 639L340 0L328 0Z"  horiz-adv-x="598" vert-adv-y="960"  />

      
      <glyph glyph-name="uni021A" unicode="&#x021A;" d="M588 639L340 639L340 0L259 0L259 639L10 639L10 720L588 720L588 639M235-78L323-78L323-166Q323-207 297.50-230Q272-253 235-253L235-212Q251-212 267.50-201.50Q284-191 283-166L235-166L235-78Z"  horiz-adv-x="598" vert-adv-y="960"  />

      
      <glyph glyph-name="uni55" unicode="&#x55;" d="M645 260Q645 214 628.50 168Q612 122 583 86Q545 38 487.50 11.50Q430-15 366-15Q300-15 241 11Q182 37 143 86Q114 122 97 168.50Q80 215 80 260L80 720L162 720L162 291Q162 238 170 205Q178 172 205 136Q233 101 275.50 81Q318 61 363 61Q408 61 450 81Q492 101 520 137Q547 171 555 204.50Q563 238 563 291L563 720L645 720L645 260Z"  horiz-adv-x="725" vert-adv-y="960"  />

      
      <glyph glyph-name="unida" unicode="&#xda;" d="M485 880L461 942L227 847L251 786L485 880M645 260Q645 214 628.50 168Q612 122 583 86Q545 38 487.50 11.50Q430-15 366-15Q300-15 241 11Q182 37 143 86Q114 122 97 168.50Q80 215 80 260L80 720L162 720L162 291Q162 238 170 205Q178 172 205 136Q233 101 275.50 81Q318 61 363 61Q408 61 450 81Q492 101 520 137Q547 171 555 204.50Q563 238 563 291L563 720L645 720L645 260Z"  horiz-adv-x="725" vert-adv-y="960"  />

      
      <glyph glyph-name="unidb" unicode="&#xdb;" d="M351 858L464 786L498 843L351 936L204 843L237 786L351 858M645 260Q645 214 628.50 168Q612 122 583 86Q545 38 487.50 11.50Q430-15 366-15Q300-15 241 11Q182 37 143 86Q114 122 97 168.50Q80 215 80 260L80 720L162 720L162 291Q162 238 170 205Q178 172 205 136Q233 101 275.50 81Q318 61 363 61Q408 61 450 81Q492 101 520 137Q547 171 555 204.50Q563 238 563 291L563 720L645 720L645 260Z"  horiz-adv-x="725" vert-adv-y="960"  />

      
      <glyph glyph-name="unidc" unicode="&#xdc;" d="M292 925L292 840L207 840L207 925L292 925M485 925L485 840L400 840L400 925L485 925M645 260Q645 214 628.50 168Q612 122 583 86Q545 38 487.50 11.50Q430-15 366-15Q300-15 241 11Q182 37 143 86Q114 122 97 168.50Q80 215 80 260L80 720L162 720L162 291Q162 238 170 205Q178 172 205 136Q233 101 275.50 81Q318 61 363 61Q408 61 450 81Q492 101 520 137Q547 171 555 204.50Q563 238 563 291L563 720L645 720L645 260Z"  horiz-adv-x="725" vert-adv-y="960"  />

      
      <glyph glyph-name="unid9" unicode="&#xd9;" d="M489 847L255 942L231 880L465 786L489 847M645 260Q645 214 628.50 168Q612 122 583 86Q545 38 487.50 11.50Q430-15 366-15Q300-15 241 11Q182 37 143 86Q114 122 97 168.50Q80 215 80 260L80 720L162 720L162 291Q162 238 170 205Q178 172 205 136Q233 101 275.50 81Q318 61 363 61Q408 61 450 81Q492 101 520 137Q547 171 555 204.50Q563 238 563 291L563 720L645 720L645 260Z"  horiz-adv-x="725" vert-adv-y="960"  />

      
      <glyph glyph-name="uni0170" unicode="&#x0170;" d="M386 899L344 942L235 836L277 792L386 899M534 899L492 942L384 836L426 792L534 899M645 260Q645 214 628.50 168Q612 122 583 86Q545 38 487.50 11.50Q430-15 366-15Q300-15 241 11Q182 37 143 86Q114 122 97 168.50Q80 215 80 260L80 720L162 720L162 291Q162 238 170 205Q178 172 205 136Q233 101 275.50 81Q318 61 363 61Q408 61 450 81Q492 101 520 137Q547 171 555 204.50Q563 238 563 291L563 720L645 720L645 260Z"  horiz-adv-x="725" vert-adv-y="960"  />

      
      <glyph glyph-name="uni016A" unicode="&#x016A;" d="M488 908L488 840L235 840L235 908L488 908M645 260Q645 214 628.50 168Q612 122 583 86Q545 38 487.50 11.50Q430-15 366-15Q300-15 241 11Q182 37 143 86Q114 122 97 168.50Q80 215 80 260L80 720L162 720L162 291Q162 238 170 205Q178 172 205 136Q233 101 275.50 81Q318 61 363 61Q408 61 450 81Q492 101 520 137Q547 171 555 204.50Q563 238 563 291L563 720L645 720L645 260Z"  horiz-adv-x="725" vert-adv-y="960"  />

      
      <glyph glyph-name="uni0172" unicode="&#x0172;" d="M645 720L645 260Q645 214 628.50 168Q612 122 583 86Q570 69 558 59L508 7Q468-33 458-47Q427-92 419-119Q415-131 415-139Q415-154 424-163Q434-174 449-174Q473-174 497-152L532-195Q513-218 485-231Q466-240 445-240Q424-240 405-231.50Q386-223 373-207Q348-181 348-140Q348-118 355-98Q369-58 401-20L408-12Q384-15 360-15Q297-15 239 11.50Q181 38 143 86Q114 122 97 168.50Q80 215 80 260L80 720L162 720L162 291Q162 238 170 205Q178 172 205 136Q233 101 275.50 81Q318 61 363 61Q408 61 450 81Q492 101 520 137Q547 171 555 204.50Q563 238 563 291L563 720L645 720Z"  horiz-adv-x="725" vert-adv-y="960"  />

      
      <glyph glyph-name="uni016E" unicode="&#x016E;" d="M363 963Q396 963 424 946.50Q452 930 468.50 901.50Q485 873 485 840Q485 790 449 754Q413 718 363 718Q330 718 301.50 734.50Q273 751 256.50 779Q240 807 240 840Q240 873 256.50 901.50Q273 930 301.50 946.50Q330 963 363 963M363 900Q338 900 320.50 882.50Q303 865 303 840Q303 815 320.50 797.50Q338 780 363 780Q388 780 405.50 797.50Q423 815 423 840Q423 865 405.50 882.50Q388 900 363 900M645 260Q645 214 628.50 168Q612 122 583 86Q545 38 487.50 11.50Q430-15 366-15Q300-15 241 11Q182 37 143 86Q114 122 97 168.50Q80 215 80 260L80 720L162 720L162 291Q162 238 170 205Q178 172 205 136Q233 101 275.50 81Q318 61 363 61Q408 61 450 81Q492 101 520 137Q547 171 555 204.50Q563 238 563 291L563 720L645 720L645 260Z"  horiz-adv-x="725" vert-adv-y="960"  />

      
      <glyph glyph-name="uni56" unicode="&#x56;" d="M5 720L90 720L304 89L520 720L605 720L360 0L250 0L5 720Z"  horiz-adv-x="610" vert-adv-y="960"  />

      
      <glyph glyph-name="uni57" unicode="&#x57;" d="M927 720L718 0L637 0L471 573L305 0L224 0L16 720L101 720L265 142L428 720L513 720L677 142L841 720L927 720Z"  horiz-adv-x="942" vert-adv-y="960"  />

      
      <glyph glyph-name="uni1E82" unicode="&#x1E82;" d="M583 880L559 942L325 847L349 786L583 880M927 720L718 0L637 0L471 573L305 0L224 0L16 720L101 720L265 142L428 720L513 720L677 142L841 720L927 720Z"  horiz-adv-x="942" vert-adv-y="960"  />

      
      <glyph glyph-name="uni0174" unicode="&#x0174;" d="M472 858L585 786L618 843L472 936L325 843L358 786L472 858M927 720L718 0L637 0L471 573L305 0L224 0L16 720L101 720L265 142L428 720L513 720L677 142L841 720L927 720Z"  horiz-adv-x="942" vert-adv-y="960"  />

      
      <glyph glyph-name="uni1E84" unicode="&#x1E84;" d="M418 925L418 840L333 840L333 925L418 925M611 925L611 840L526 840L526 925L611 925M927 720L718 0L637 0L471 573L305 0L224 0L16 720L101 720L265 142L428 720L513 720L677 142L841 720L927 720Z"  horiz-adv-x="942" vert-adv-y="960"  />

      
      <glyph glyph-name="uni1E80" unicode="&#x1E80;" d="M603 847L368 942L345 880L579 786L603 847M927 720L718 0L637 0L471 573L305 0L224 0L16 720L101 720L265 142L428 720L513 720L677 142L841 720L927 720Z"  horiz-adv-x="942" vert-adv-y="960"  />

      
      <glyph glyph-name="uni58" unicode="&#x58;" d="M608 0L508 0L306 297L104 0L5 0L260 365L11 720L110 720L306 432L502 720L601 720L353 365L608 0Z"  horiz-adv-x="613" vert-adv-y="960"  />

      
      <glyph glyph-name="uni59" unicode="&#x59;" d="M565 720L324 301L324 0L242 0L242 301L0 720L94 720L283 394L471 720L565 720Z"  horiz-adv-x="565" vert-adv-y="960"  />

      
      <glyph glyph-name="unidd" unicode="&#xdd;" d="M422 880L398 942L164 847L188 786L422 880M565 720L324 301L324 0L242 0L242 301L0 720L94 720L283 394L471 720L565 720Z"  horiz-adv-x="565" vert-adv-y="960"  />

      
      <glyph glyph-name="uni0176" unicode="&#x0176;" d="M283 858L396 786L430 843L283 936L136 843L170 786L283 858M565 720L324 301L324 0L242 0L242 301L0 720L94 720L283 394L471 720L565 720Z"  horiz-adv-x="565" vert-adv-y="960"  />

      
      <glyph glyph-name="uni0178" unicode="&#x0178;" d="M229 925L229 840L144 840L144 925L229 925M422 925L422 840L337 840L337 925L422 925M565 720L324 301L324 0L242 0L242 301L0 720L94 720L283 394L471 720L565 720Z"  horiz-adv-x="565" vert-adv-y="960"  />

      
      <glyph glyph-name="uni1EF2" unicode="&#x1EF2;" d="M426 847L192 942L168 880L402 786L426 847M565 720L324 301L324 0L242 0L242 301L0 720L94 720L283 394L471 720L565 720Z"  horiz-adv-x="565" vert-adv-y="960"  />

      
      <glyph glyph-name="uni5a" unicode="&#x5a;" d="M566 77L566 0L60 0L60 78L463 643L60 643L60 720L566 720L566 642L163 77L566 77Z"  horiz-adv-x="626" vert-adv-y="960"  />

      
      <glyph glyph-name="uni0179" unicode="&#x0179;" d="M464 880L440 942L206 847L230 786L464 880M566 77L566 0L60 0L60 78L463 643L60 643L60 720L566 720L566 642L163 77L566 77Z"  horiz-adv-x="626" vert-adv-y="960"  />

      
      <glyph glyph-name="uni017D" unicode="&#x017D;" d="M181 878L328 786L475 878L441 936L328 864L215 936L181 878M566 77L566 0L60 0L60 78L463 643L60 643L60 720L566 720L566 642L163 77L566 77Z"  horiz-adv-x="626" vert-adv-y="960"  />

      
      <glyph glyph-name="uni017B" unicode="&#x017B;" d="M379 925L379 833L287 833L287 925L379 925M566 77L566 0L60 0L60 78L463 643L60 643L60 720L566 720L566 642L163 77L566 77Z"  horiz-adv-x="626" vert-adv-y="960"  />

      
      <glyph glyph-name="uni61" unicode="&#x61;" d="M63 439Q72 455 79 463Q147 554 277 554Q354 554 411 524.50Q468 495 496 434Q517 391 517 338L517 0L445 0L445 107Q431 79 405 55Q379 31 350 17Q281-17 211-13Q170-11 132 8.50Q94 28 72 59Q56 84 48 107Q40 130 40 158Q40 200 61 236Q82 272 119 295Q153 314 188 322Q223 330 288 340L321 345L433 360Q425 415 387 444Q347 477 276 477Q237 477 204 463.50Q171 450 151 422Q146 416 138 404L63 439M305 270Q247 261 210 251Q173 241 147.50 219.50Q122 198 122 160Q122 123 151 94.50Q180 66 222 62Q227 61 238 61Q291 61 342 90Q393 119 415 167Q429 197 432.50 223Q436 249 436 291L305 270Z"  horiz-adv-x="577" vert-adv-y="960"  />

      
      <glyph glyph-name="unie1" unicode="&#xe1;" d="M424 700L400 762L166 667L190 606L424 700M63 439Q72 455 79 463Q147 554 277 554Q354 554 411 524.50Q468 495 496 434Q517 391 517 338L517 0L445 0L445 107Q431 79 405 55Q379 31 350 17Q281-17 211-13Q170-11 132 8.50Q94 28 72 59Q56 84 48 107Q40 130 40 158Q40 200 61 236Q82 272 119 295Q153 314 188 322Q223 330 288 340L321 345L433 360Q425 415 387 444Q347 477 276 477Q237 477 204 463.50Q171 450 151 422Q146 416 138 404L63 439M305 270Q247 261 210 251Q173 241 147.50 219.50Q122 198 122 160Q122 123 151 94.50Q180 66 222 62Q227 61 238 61Q291 61 342 90Q393 119 415 167Q429 197 432.50 223Q436 249 436 291L305 270Z"  horiz-adv-x="577" vert-adv-y="960"  />

      
      <glyph glyph-name="uni0103" unicode="&#x0103;" d="M429 733Q429 697 411.50 666.50Q394 636 363.50 618Q333 600 297 600Q261 600 230.50 618Q200 636 182 666.50Q164 697 164 733L230 733Q230 705 249.50 686Q269 667 297 667Q325 667 344 686Q363 705 363 733L429 733M63 439Q72 455 79 463Q147 554 277 554Q354 554 411 524.50Q468 495 496 434Q517 391 517 338L517 0L445 0L445 107Q431 79 405 55Q379 31 350 17Q281-17 211-13Q170-11 132 8.50Q94 28 72 59Q56 84 48 107Q40 130 40 158Q40 200 61 236Q82 272 119 295Q153 314 188 322Q223 330 288 340L321 345L433 360Q425 415 387 444Q347 477 276 477Q237 477 204 463.50Q171 450 151 422Q146 416 138 404L63 439M305 270Q247 261 210 251Q173 241 147.50 219.50Q122 198 122 160Q122 123 151 94.50Q180 66 222 62Q227 61 238 61Q291 61 342 90Q393 119 415 167Q429 197 432.50 223Q436 249 436 291L305 270Z"  horiz-adv-x="577" vert-adv-y="960"  />

      
      <glyph glyph-name="unie2" unicode="&#xe2;" d="M294 678L407 606L440 663L294 756L147 663L180 606L294 678M63 439Q72 455 79 463Q147 554 277 554Q354 554 411 524.50Q468 495 496 434Q517 391 517 338L517 0L445 0L445 107Q431 79 405 55Q379 31 350 17Q281-17 211-13Q170-11 132 8.50Q94 28 72 59Q56 84 48 107Q40 130 40 158Q40 200 61 236Q82 272 119 295Q153 314 188 322Q223 330 288 340L321 345L433 360Q425 415 387 444Q347 477 276 477Q237 477 204 463.50Q171 450 151 422Q146 416 138 404L63 439M305 270Q247 261 210 251Q173 241 147.50 219.50Q122 198 122 160Q122 123 151 94.50Q180 66 222 62Q227 61 238 61Q291 61 342 90Q393 119 415 167Q429 197 432.50 223Q436 249 436 291L305 270Z"  horiz-adv-x="577" vert-adv-y="960"  />

      
      <glyph glyph-name="unie4" unicode="&#xe4;" d="M242 745L242 660L157 660L157 745L242 745M435 745L435 660L350 660L350 745L435 745M63 439Q72 455 79 463Q147 554 277 554Q354 554 411 524.50Q468 495 496 434Q517 391 517 338L517 0L445 0L445 107Q431 79 405 55Q379 31 350 17Q281-17 211-13Q170-11 132 8.50Q94 28 72 59Q56 84 48 107Q40 130 40 158Q40 200 61 236Q82 272 119 295Q153 314 188 322Q223 330 288 340L321 345L433 360Q425 415 387 444Q347 477 276 477Q237 477 204 463.50Q171 450 151 422Q146 416 138 404L63 439M305 270Q247 261 210 251Q173 241 147.50 219.50Q122 198 122 160Q122 123 151 94.50Q180 66 222 62Q227 61 238 61Q291 61 342 90Q393 119 415 167Q429 197 432.50 223Q436 249 436 291L305 270Z"  horiz-adv-x="577" vert-adv-y="960"  />

      
      <glyph glyph-name="unie0" unicode="&#xe0;" d="M449 667L215 762L191 700L425 606L449 667M63 439Q72 455 79 463Q147 554 277 554Q354 554 411 524.50Q468 495 496 434Q517 391 517 338L517 0L445 0L445 107Q431 79 405 55Q379 31 350 17Q281-17 211-13Q170-11 132 8.50Q94 28 72 59Q56 84 48 107Q40 130 40 158Q40 200 61 236Q82 272 119 295Q153 314 188 322Q223 330 288 340L321 345L433 360Q425 415 387 444Q347 477 276 477Q237 477 204 463.50Q171 450 151 422Q146 416 138 404L63 439M305 270Q247 261 210 251Q173 241 147.50 219.50Q122 198 122 160Q122 123 151 94.50Q180 66 222 62Q227 61 238 61Q291 61 342 90Q393 119 415 167Q429 197 432.50 223Q436 249 436 291L305 270Z"  horiz-adv-x="577" vert-adv-y="960"  />

      
      <glyph glyph-name="uni0101" unicode="&#x0101;" d="M428 728L428 660L174 660L174 728L428 728M63 439Q72 455 79 463Q147 554 277 554Q354 554 411 524.50Q468 495 496 434Q517 391 517 338L517 0L445 0L445 107Q431 79 405 55Q379 31 350 17Q281-17 211-13Q170-11 132 8.50Q94 28 72 59Q56 84 48 107Q40 130 40 158Q40 200 61 236Q82 272 119 295Q153 314 188 322Q223 330 288 340L321 345L433 360Q425 415 387 444Q347 477 276 477Q237 477 204 463.50Q171 450 151 422Q146 416 138 404L63 439M305 270Q247 261 210 251Q173 241 147.50 219.50Q122 198 122 160Q122 123 151 94.50Q180 66 222 62Q227 61 238 61Q291 61 342 90Q393 119 415 167Q429 197 432.50 223Q436 249 436 291L305 270Z"  horiz-adv-x="577" vert-adv-y="960"  />

      
      <glyph glyph-name="uni0105" unicode="&#x0105;" d="M535-195Q518-218 489-231Q470-240 448-240Q427-240 408-231.50Q389-223 376-207Q352-180 352-140Q352-118 359-98Q382-34 445 17L445 107Q431 79 405 55Q379 31 350 17Q281-17 211-13Q170-11 132 8.50Q94 28 72 59Q56 84 48 107Q40 130 40 158Q40 200 61 236Q82 272 119 295Q153 314 188 322Q223 330 288 340L321 345L433 360Q425 415 387 444Q347 477 276 477Q237 477 204 463.50Q171 450 151 422Q146 416 138 404L63 439Q72 455 79 463Q147 554 277 554Q354 554 411 524.50Q468 495 496 434Q517 391 517 338L517 0Q487-21 461-54Q433-87 422-119Q419-128 419-138Q419-154 428-163Q438-174 453-174Q477-174 501-152L535-195M415 167Q429 197 432.50 223Q436 249 436 291L305 270Q247 261 210 251Q173 241 147.50 219.50Q122 198 122 160Q122 123 151 94.50Q180 66 222 62Q227 61 238 61Q291 61 342 90Q393 119 415 167Z"  horiz-adv-x="577" vert-adv-y="960"  />

      
      <glyph glyph-name="unie5" unicode="&#xe5;" d="M496 434Q517 391 517 338L517 0L445 0L445 107Q431 79 405 55Q379 31 350 17Q281-17 211-13Q170-11 132 8.50Q94 28 72 59Q56 84 48 107Q40 130 40 158Q40 200 61 236Q82 272 119 295Q153 314 188 322Q223 330 288 340L321 345L433 360Q425 415 387 444Q347 477 276 477Q237 477 204 463.50Q171 450 151 422Q146 416 138 404L63 439Q72 455 79 463Q120 519 189 541Q164 574 164 615Q164 665 200 701Q236 737 286 737Q337 737 372.50 701Q408 665 408 615Q408 571 381 538Q461 509 496 434M286 675Q261 675 243.50 657.50Q226 640 226 615Q226 590 243.50 572.50Q261 555 286 555Q311 555 328.50 572.50Q346 590 346 615Q346 640 328.50 657.50Q311 675 286 675M415 167Q429 197 432.50 223Q436 249 436 291L305 270Q247 261 210 251Q173 241 147.50 219.50Q122 198 122 160Q122 123 151 94.50Q180 66 222 62Q227 61 238 61Q291 61 342 90Q393 119 415 167Z"  horiz-adv-x="577" vert-adv-y="960"  />

      
      <glyph glyph-name="unie3" unicode="&#xe3;" d="M446 735Q449 725 449 711Q449 688 439 671Q430 657 416 647.50Q402 638 386 636Q372 634 366 634Q337 634 297 652L278 661Q264 668 250.50 672.50Q237 677 227 677Q212 677 204.50 670Q197 663 197 652Q197 644 200 638L146 638Q143 649 143 661Q143 686 153 703Q162 717 176 726.50Q190 736 206 738Q220 740 227 740Q256 740 296 722Q304 718 319.50 711Q335 704 346 700.50Q357 697 366 697Q381 697 388 704Q395 711 395 721Q395 729 392 735L446 735M63 439Q72 455 79 463Q147 554 277 554Q354 554 411 524.50Q468 495 496 434Q517 391 517 338L517 0L445 0L445 107Q431 79 405 55Q379 31 350 17Q281-17 211-13Q170-11 132 8.50Q94 28 72 59Q56 84 48 107Q40 130 40 158Q40 200 61 236Q82 272 119 295Q153 314 188 322Q223 330 288 340L321 345L433 360Q425 415 387 444Q347 477 276 477Q237 477 204 463.50Q171 450 151 422Q146 416 138 404L63 439M305 270Q247 261 210 251Q173 241 147.50 219.50Q122 198 122 160Q122 123 151 94.50Q180 66 222 62Q227 61 238 61Q291 61 342 90Q393 119 415 167Q429 197 432.50 223Q436 249 436 291L305 270Z"  horiz-adv-x="577" vert-adv-y="960"  />

      
      <glyph glyph-name="unie6" unicode="&#xe6;" d="M514 248Q517 171 551 123Q572 94 604.50 78Q637 62 675 62Q713 62 745.50 78Q778 94 799 123Q804 130 815 152L890 117Q878 91 863 72Q830 30 782 7.50Q734-15 682-15Q623-15 572.50 7Q522 29 490 73Q474 94 462 119L455 107Q416 41 351 11Q301-12 234-12Q204-12 183-8Q100 10 69 61Q40 102 40 150Q40 181 54 214Q68 248 97 270Q126 292 162 300Q197 310 234 313Q271 316 331 316L433 316Q433 364 421 394Q409 424 384 444Q343 477 268 477Q198 477 155 430Q147 422 135 404L60 439Q66 450 76 464Q109 508 161 531Q213 554 273 554Q365 554 428 511Q459 488 481 454L490 467Q523 510 571 532.50Q619 555 675 555Q732 555 780 532.50Q828 510 861 467Q918 390 918 270L918 248L514 248M675 478Q637 478 604.50 462Q572 446 551 417Q523 377 516 316L834 316Q827 379 799 417Q778 446 745.50 462Q713 478 675 478M403 150Q425 186 432 244L353 244Q244 244 214 241Q186 238 164.50 225Q143 212 132 192Q122 174 122 153Q122 128 137 105Q150 86 173.50 74.50Q197 63 219 61Q225 60 237 60Q281 60 326 80Q349 91 369.50 110Q390 129 403 150Z"  horiz-adv-x="959" vert-adv-y="960"  />

      
      <glyph glyph-name="uni62" unicode="&#x62;" d="M513 468Q572 393 572 271Q572 147 513 72Q480 30 431 7.50Q382-15 326-15Q269-15 222 6Q175 27 143 68L143 0L70 0L70 720L152 720L152 483Q184 517 230 536Q276 555 327 555Q383 555 431.50 532.50Q480 510 513 468M447 123Q486 174 486 271Q486 365 447 419Q425 450 390.50 465Q356 480 314 480Q274 480 241 465.50Q208 451 186 423Q143 369 143 271Q143 172 186 118Q208 90 242.50 75Q277 60 316 60Q355 60 390 76Q425 92 447 123Z"  horiz-adv-x="612" vert-adv-y="960"  />

      
      <glyph glyph-name="uni63" unicode="&#x63;" d="M447 387Q443 396 429 417Q407 447 372.50 462.50Q338 478 297 478Q257 478 222.50 462.50Q188 447 167 417Q128 366 126 270Q128 174 167 123Q188 94 223 78.50Q258 63 297 63Q338 63 372.50 78.50Q407 94 429 123Q439 138 446 152L523 118Q505 88 494 74Q459 30 408 7.50Q357-15 297-15Q238-15 186.50 7.50Q135 30 101 74Q42 148 40 270Q42 392 101 467Q137 512 187 533.50Q237 555 297 555Q357 555 408 532.50Q459 510 494 467Q513 441 523 420L447 387Z"  horiz-adv-x="558" vert-adv-y="960"  />

      
      <glyph glyph-name="uni0107" unicode="&#x0107;" d="M424 700L400 762L166 667L190 606L424 700M447 387Q443 396 429 417Q407 447 372.50 462.50Q338 478 297 478Q257 478 222.50 462.50Q188 447 167 417Q128 366 126 270Q128 174 167 123Q188 94 223 78.50Q258 63 297 63Q338 63 372.50 78.50Q407 94 429 123Q439 138 446 152L523 118Q505 88 494 74Q459 30 408 7.50Q357-15 297-15Q238-15 186.50 7.50Q135 30 101 74Q42 148 40 270Q42 392 101 467Q137 512 187 533.50Q237 555 297 555Q357 555 408 532.50Q459 510 494 467Q513 441 523 420L447 387Z"  horiz-adv-x="558" vert-adv-y="960"  />

      
      <glyph glyph-name="uni010D" unicode="&#x010D;" d="M156 698L303 606L450 698L416 756L303 684L190 756L156 698M447 387Q443 396 429 417Q407 447 372.50 462.50Q338 478 297 478Q257 478 222.50 462.50Q188 447 167 417Q128 366 126 270Q128 174 167 123Q188 94 223 78.50Q258 63 297 63Q338 63 372.50 78.50Q407 94 429 123Q439 138 446 152L523 118Q505 88 494 74Q459 30 408 7.50Q357-15 297-15Q238-15 186.50 7.50Q135 30 101 74Q42 148 40 270Q42 392 101 467Q137 512 187 533.50Q237 555 297 555Q357 555 408 532.50Q459 510 494 467Q513 441 523 420L447 387Z"  horiz-adv-x="558" vert-adv-y="960"  />

      
      <glyph glyph-name="unie7" unicode="&#xe7;" d="M429 123Q439 138 446 152L523 118Q505 88 494 74Q465 39 425 17Q385-5 339-12L323-56Q356-72 371-99Q382-118 382-145Q382-177 366-199Q353-218 331.50-229.50Q310-241 287-241Q260-241 222-224L243-170Q264-178 279-178Q301-179 313-163Q320-151 320-143Q320-138 316-128Q311-116 300-109.50Q289-103 274-98Q259-93 253-91L281-15Q226-12 179.50 10.50Q133 33 101 74Q42 148 40 270Q42 392 101 467Q137 512 187 533.50Q237 555 297 555Q357 555 408 532.50Q459 510 494 467Q513 441 523 420L447 387Q443 396 429 417Q407 447 372.50 462.50Q338 478 297 478Q257 478 222.50 462.50Q188 447 167 417Q128 366 126 270Q128 174 167 123Q188 94 223 78.50Q258 63 297 63Q338 63 372.50 78.50Q407 94 429 123Z"  horiz-adv-x="558" vert-adv-y="960"  />

      
      <glyph glyph-name="uni010B" unicode="&#x010B;" d="M352 745L352 653L260 653L260 745L352 745M447 387Q443 396 429 417Q407 447 372.50 462.50Q338 478 297 478Q257 478 222.50 462.50Q188 447 167 417Q128 366 126 270Q128 174 167 123Q188 94 223 78.50Q258 63 297 63Q338 63 372.50 78.50Q407 94 429 123Q439 138 446 152L523 118Q505 88 494 74Q459 30 408 7.50Q357-15 297-15Q238-15 186.50 7.50Q135 30 101 74Q42 148 40 270Q42 392 101 467Q137 512 187 533.50Q237 555 297 555Q357 555 408 532.50Q459 510 494 467Q513 441 523 420L447 387Z"  horiz-adv-x="558" vert-adv-y="960"  />

      
      <glyph glyph-name="uni64" unicode="&#x64;" d="M542 720L542 0L470 0L470 69Q439 28 391.50 6.50Q344-15 287-15Q231-15 182 7.50Q133 30 100 72Q40 148 40 271Q40 393 100 468Q132 510 181 532.50Q230 555 285 555Q336 555 382 536Q428 517 461 482L461 720L542 720M426 118Q470 172 470 271Q470 369 426 423Q405 451 371.50 465.50Q338 480 298 480Q256 480 222 465Q188 450 166 419Q126 365 126 271Q126 174 165 123Q187 92 222 76Q257 60 296 60Q336 60 370 75Q404 90 426 118Z"  horiz-adv-x="612" vert-adv-y="960"  />

      
      <glyph glyph-name="unif0" unicode="&#xf0;" d="M498 577Q519 534 532 469Q545 404 545 333L545 254Q545 198 529 149Q513 100 481 63Q448 25 399 5Q350-15 297-15Q240-15 189 4.50Q138 24 104 63Q42 133 40 252Q42 371 104 440Q138 480 188 499.50Q238 519 293 519Q334 519 373.50 506Q413 493 442 467Q442 467 454 455Q447 516 423 558Q396 600 363 625L311 559L257 601L302 658Q263 672 218 675L230 744Q298 741 349 718L407 792L461 750L410 685Q469 642 498 577M447 213Q451 232 451 256Q451 305 430 346Q414 376 388 395.50Q362 415 330 423Q313 427 292 427Q240 427 204 401Q153 367 138 292Q134 273 134 249Q134 198 155 157Q170 128 196.50 108.50Q223 89 256 81Q278 76 296 76Q344 76 382 102Q432 138 447 213Z"  horiz-adv-x="585" vert-adv-y="960"  />

      
      <glyph glyph-name="uni010F" unicode="&#x010F;" d="M542 720L542 0L470 0L470 69Q439 28 391.50 6.50Q344-15 287-15Q231-15 182 7.50Q133 30 100 72Q40 148 40 271Q40 393 100 468Q132 510 181 532.50Q230 555 285 555Q336 555 382 536Q428 517 461 482L461 720L542 720M426 118Q470 172 470 271Q470 369 426 423Q405 451 371.50 465.50Q338 480 298 480Q256 480 222 465Q188 450 166 419Q126 365 126 271Q126 174 165 123Q187 92 222 76Q257 60 296 60Q336 60 370 75Q404 90 426 118M716 599Q716 556 697.50 531.50Q679 507 644 507Q638 507 624 509L629 548Q653 546 663 560Q673 574 673 600L672 617L624 617L624 726L716 726L716 599Z"  horiz-adv-x="729" vert-adv-y="960"  />

      
      <glyph glyph-name="uni0111" unicode="&#x0111;" d="M595 592L542 592L542 0L470 0L470 69Q439 28 391.50 6.50Q344-15 287-15Q231-15 182 7.50Q133 30 100 72Q40 148 40 271Q40 393 100 468Q132 510 181 532.50Q230 555 285 555Q336 555 382 536Q428 517 461 482L461 592L342 592L342 660L461 660L461 720L542 720L542 660L595 660L595 592M426 118Q470 172 470 271Q470 369 426 423Q405 451 371.50 465.50Q338 480 298 480Q256 480 222 465Q188 450 166 419Q126 365 126 271Q126 174 165 123Q187 92 222 76Q257 60 296 60Q336 60 370 75Q404 90 426 118Z"  horiz-adv-x="612" vert-adv-y="960"  />

      
      <glyph glyph-name="uni65" unicode="&#x65;" d="M128 248Q131 170 167 123Q188 94 223 78Q258 62 298 62Q338 62 372.50 78Q407 94 429 123Q438 135 446 152L526 117Q512 91 496 72Q462 30 411.50 7.50Q361-15 305-15Q243-15 189.50 7Q136 29 101 73Q40 150 40 270Q42 392 101 467Q136 510 187 532.50Q238 555 298 555Q358 555 408.50 532.50Q459 510 494 467Q555 390 555 270Q555 255 554 248L128 248M298 478Q258 478 223 462Q188 446 167 417Q137 376 130 316L466 316Q459 376 429 417Q407 446 372.50 462Q338 478 298 478Z"  horiz-adv-x="595" vert-adv-y="960"  />

      
      <glyph glyph-name="unie9" unicode="&#xe9;" d="M193 606L168 667L403 762L426 700L193 606M128 248Q131 170 167 123Q188 94 223 78Q258 62 298 62Q338 62 372.50 78Q407 94 429 123Q438 135 446 152L526 117Q512 91 496 72Q462 30 411.50 7.50Q361-15 305-15Q243-15 189.50 7Q136 29 101 73Q40 150 40 270Q42 392 101 467Q136 510 187 532.50Q238 555 298 555Q358 555 408.50 532.50Q459 510 494 467Q555 390 555 270Q555 255 554 248L128 248M298 478Q258 478 223 462Q188 446 167 417Q137 376 130 316L466 316Q459 376 429 417Q407 446 372.50 462Q338 478 298 478Z"  horiz-adv-x="595" vert-adv-y="960"  />

      
      <glyph glyph-name="uni011B" unicode="&#x011B;" d="M314 606L167 698L200 756L314 684L427 756L460 698L314 606M128 248Q131 170 167 123Q188 94 223 78Q258 62 298 62Q338 62 372.50 78Q407 94 429 123Q438 135 446 152L526 117Q512 91 496 72Q462 30 411.50 7.50Q361-15 305-15Q243-15 189.50 7Q136 29 101 73Q40 150 40 270Q42 392 101 467Q136 510 187 532.50Q238 555 298 555Q358 555 408.50 532.50Q459 510 494 467Q555 390 555 270Q555 255 554 248L128 248M298 478Q258 478 223 462Q188 446 167 417Q137 376 130 316L466 316Q459 376 429 417Q407 446 372.50 462Q338 478 298 478Z"  horiz-adv-x="595" vert-adv-y="960"  />

      
      <glyph glyph-name="uniea" unicode="&#xea;" d="M185 606L151 663L298 756L445 663L411 606L298 678L185 606M128 248Q131 170 167 123Q188 94 223 78Q258 62 298 62Q338 62 372.50 78Q407 94 429 123Q438 135 446 152L526 117Q512 91 496 72Q462 30 411.50 7.50Q361-15 305-15Q243-15 189.50 7Q136 29 101 73Q40 150 40 270Q42 392 101 467Q136 510 187 532.50Q238 555 298 555Q358 555 408.50 532.50Q459 510 494 467Q555 390 555 270Q555 255 554 248L128 248M298 478Q258 478 223 462Q188 446 167 417Q137 376 130 316L466 316Q459 376 429 417Q407 446 372.50 462Q338 478 298 478Z"  horiz-adv-x="595" vert-adv-y="960"  />

      
      <glyph glyph-name="unieb" unicode="&#xeb;" d="M252 660L167 660L167 745L252 745L252 660M445 660L360 660L360 745L445 745L445 660M128 248Q131 170 167 123Q188 94 223 78Q258 62 298 62Q338 62 372.50 78Q407 94 429 123Q438 135 446 152L526 117Q512 91 496 72Q462 30 411.50 7.50Q361-15 305-15Q243-15 189.50 7Q136 29 101 73Q40 150 40 270Q42 392 101 467Q136 510 187 532.50Q238 555 298 555Q358 555 408.50 532.50Q459 510 494 467Q555 390 555 270Q555 255 554 248L128 248M298 478Q258 478 223 462Q188 446 167 417Q137 376 130 316L466 316Q459 376 429 417Q407 446 372.50 462Q338 478 298 478Z"  horiz-adv-x="595" vert-adv-y="960"  />

      
      <glyph glyph-name="uni0117" unicode="&#x0117;" d="M349 653L257 653L257 745L349 745L349 653M128 248Q131 170 167 123Q188 94 223 78Q258 62 298 62Q338 62 372.50 78Q407 94 429 123Q438 135 446 152L526 117Q512 91 496 72Q462 30 411.50 7.50Q361-15 305-15Q243-15 189.50 7Q136 29 101 73Q40 150 40 270Q42 392 101 467Q136 510 187 532.50Q238 555 298 555Q358 555 408.50 532.50Q459 510 494 467Q555 390 555 270Q555 255 554 248L128 248M298 478Q258 478 223 462Q188 446 167 417Q137 376 130 316L466 316Q459 376 429 417Q407 446 372.50 462Q338 478 298 478Z"  horiz-adv-x="595" vert-adv-y="960"  />

      
      <glyph glyph-name="unie8" unicode="&#xe8;" d="M434 606L200 700L224 762L458 667L434 606M128 248Q131 170 167 123Q188 94 223 78Q258 62 298 62Q338 62 372.50 78Q407 94 429 123Q438 135 446 152L526 117Q512 91 496 72Q462 30 411.50 7.50Q361-15 305-15Q243-15 189.50 7Q136 29 101 73Q40 150 40 270Q42 392 101 467Q136 510 187 532.50Q238 555 298 555Q358 555 408.50 532.50Q459 510 494 467Q555 390 555 270Q555 255 554 248L128 248M298 478Q258 478 223 462Q188 446 167 417Q137 376 130 316L466 316Q459 376 429 417Q407 446 372.50 462Q338 478 298 478Z"  horiz-adv-x="595" vert-adv-y="960"  />

      
      <glyph glyph-name="uni0113" unicode="&#x0113;" d="M435 660L181 660L181 728L435 728L435 660M128 248Q131 170 167 123Q188 94 223 78Q258 62 298 62Q338 62 372.50 78Q407 94 429 123Q438 135 446 152L526 117Q512 91 496 72Q462 30 411.50 7.50Q361-15 305-15Q243-15 189.50 7Q136 29 101 73Q40 150 40 270Q42 392 101 467Q136 510 187 532.50Q238 555 298 555Q358 555 408.50 532.50Q459 510 494 467Q555 390 555 270Q555 255 554 248L128 248M298 478Q258 478 223 462Q188 446 167 417Q137 376 130 316L466 316Q459 376 429 417Q407 446 372.50 462Q338 478 298 478Z"  horiz-adv-x="595" vert-adv-y="960"  />

      
      <glyph glyph-name="uni0119" unicode="&#x0119;" d="M128 248Q131 170 167 123Q188 94 223 78Q258 62 298 62Q338 62 372.50 78Q407 94 429 123Q438 135 446 152L526 117Q502 70 448-2Q425-32 421-40Q390-88 382-119Q378-131 378-138Q378-153 388-163Q398-174 413-174Q437-174 461-152L495-195Q478-218 449-231Q430-240 409-240Q388-240 369-231.50Q350-223 337-207Q312-181 312-140Q312-118 319-98Q331-61 366-13L370-7Q338-15 307-15Q245-15 191 7Q137 29 101 73Q40 150 40 270Q42 392 101 467Q136 510 187 532.50Q238 555 298 555Q358 555 408.50 532.50Q459 510 494 467Q555 390 555 270Q555 255 554 248L128 248M298 478Q258 478 223 462Q188 446 167 417Q137 376 130 316L466 316Q459 376 429 417Q407 446 372.50 462Q338 478 298 478Z"  horiz-adv-x="595" vert-adv-y="960"  />

      
      <glyph glyph-name="uni66" unicode="&#x66;" d="M282 660Q245 653 229 631Q213 609 213 571L213 540L365 540L365 472L213 472L213 0L131 0L131 472L10 472L10 540L131 540L131 566Q131 649 181 694Q230 735 314 735Q340 735 365 732L365 661Q346 664 325 664Q301 664 282 660Z"  horiz-adv-x="375" vert-adv-y="960"  />

      
      <glyph glyph-name="uni67" unicode="&#x67;" d="M542 540L542 2Q542-75 523-122.50Q504-170 458-204Q388-255 291-255Q245-255 203-239Q161-223 132-193Q95-169 77-136L152-100Q161-115 173-127Q194-151 225.50-163.50Q257-176 291-176Q326-176 358.50-166.50Q391-157 414-138Q442-114 451.50-83.50Q461-53 460 3L460 57Q429 22 384.50 3.50Q340-15 287-15Q231-15 182 7.50Q133 30 100 72Q40 148 40 271Q40 393 100 468Q132 510 181 532.50Q230 555 285 555Q339 555 388 533Q437 511 470 472L470 540L542 540M426 118Q470 172 470 271Q470 369 426 423Q405 451 371.50 465.50Q338 480 298 480Q256 480 222 465Q188 450 166 419Q126 365 126 271Q126 174 165 123Q187 92 222 76Q257 60 296 60Q336 60 370 75Q404 90 426 118Z"  horiz-adv-x="612" vert-adv-y="960"  />

      
      <glyph glyph-name="uni011F" unicode="&#x011F;" d="M320 600Q284 600 253.50 618Q223 636 205 666.50Q187 697 187 733L254 733Q254 705 273.50 686Q293 667 320 667Q348 667 367 686Q386 705 386 733L453 733Q453 697 435 666.50Q417 636 386.50 618Q356 600 320 600M542 540L542 2Q542-75 523-122.50Q504-170 458-204Q388-255 291-255Q245-255 203-239Q161-223 132-193Q95-169 77-136L152-100Q161-115 173-127Q194-151 225.50-163.50Q257-176 291-176Q326-176 358.50-166.50Q391-157 414-138Q442-114 451.50-83.50Q461-53 460 3L460 57Q429 22 384.50 3.50Q340-15 287-15Q231-15 182 7.50Q133 30 100 72Q40 148 40 271Q40 393 100 468Q132 510 181 532.50Q230 555 285 555Q339 555 388 533Q437 511 470 472L470 540L542 540M426 118Q470 172 470 271Q470 369 426 423Q405 451 371.50 465.50Q338 480 298 480Q256 480 222 465Q188 450 166 419Q126 365 126 271Q126 174 165 123Q187 92 222 76Q257 60 296 60Q336 60 370 75Q404 90 426 118Z"  horiz-adv-x="612" vert-adv-y="960"  />

      
      <glyph glyph-name="uni0123" unicode="&#x0123;" d="M361 600L273 600L273 688Q273 729 298.50 752Q324 775 361 775L361 734Q345 734 328.50 723.50Q312 713 313 688L361 688L361 600M542 540L542 2Q542-75 523-122.50Q504-170 458-204Q388-255 291-255Q245-255 203-239Q161-223 132-193Q95-169 77-136L152-100Q161-115 173-127Q194-151 225.50-163.50Q257-176 291-176Q326-176 358.50-166.50Q391-157 414-138Q442-114 451.50-83.50Q461-53 460 3L460 57Q429 22 384.50 3.50Q340-15 287-15Q231-15 182 7.50Q133 30 100 72Q40 148 40 271Q40 393 100 468Q132 510 181 532.50Q230 555 285 555Q339 555 388 533Q437 511 470 472L470 540L542 540M426 118Q470 172 470 271Q470 369 426 423Q405 451 371.50 465.50Q338 480 298 480Q256 480 222 465Q188 450 166 419Q126 365 126 271Q126 174 165 123Q187 92 222 76Q257 60 296 60Q336 60 370 75Q404 90 426 118Z"  horiz-adv-x="612" vert-adv-y="960"  />

      
      <glyph glyph-name="uni0121" unicode="&#x0121;" d="M363 653L271 653L271 745L363 745L363 653M542 540L542 2Q542-75 523-122.50Q504-170 458-204Q388-255 291-255Q245-255 203-239Q161-223 132-193Q95-169 77-136L152-100Q161-115 173-127Q194-151 225.50-163.50Q257-176 291-176Q326-176 358.50-166.50Q391-157 414-138Q442-114 451.50-83.50Q461-53 460 3L460 57Q429 22 384.50 3.50Q340-15 287-15Q231-15 182 7.50Q133 30 100 72Q40 148 40 271Q40 393 100 468Q132 510 181 532.50Q230 555 285 555Q339 555 388 533Q437 511 470 472L470 540L542 540M426 118Q470 172 470 271Q470 369 426 423Q405 451 371.50 465.50Q338 480 298 480Q256 480 222 465Q188 450 166 419Q126 365 126 271Q126 174 165 123Q187 92 222 76Q257 60 296 60Q336 60 370 75Q404 90 426 118Z"  horiz-adv-x="612" vert-adv-y="960"  />

      
      <glyph glyph-name="uni68" unicode="&#x68;" d="M453 508Q504 469 522 410Q540 351 539 266L539 0L457 0L457 266Q457 333 445 376Q433 419 397 446Q358 474 305 474Q277 474 251 466Q225 458 206 441Q169 409 158 351Q152 325 152 277L152 0L70 0L70 720L143 720L143 479L160 497Q192 525 232.50 539Q273 553 315 553Q352 553 387.50 541.50Q423 530 453 508Z"  horiz-adv-x="589" vert-adv-y="960"  />

      
      <glyph glyph-name="uni0127" unicode="&#x0127;" d="M453 508Q504 469 522 410Q540 351 539 266L539 0L457 0L457 266Q457 333 445 376Q433 419 397 446Q358 474 305 474Q277 474 251 466Q225 458 206 441Q169 409 158 351Q152 325 152 277L152 0L70 0L70 592L8 592L8 660L70 660L70 720L143 720L143 660L261 660L261 592L143 592L143 479L160 497Q192 525 232.50 539Q273 553 315 553Q352 553 387.50 541.50Q423 530 453 508Z"  horiz-adv-x="589" vert-adv-y="960"  />

      
      <glyph glyph-name="uni69" unicode="&#x69;" d="M161 720L161 633L80 633L80 720L161 720M161 540L161 0L80 0L80 540L161 540Z"  horiz-adv-x="241" vert-adv-y="960"  />

      
      <glyph glyph-name="uni0131" unicode="&#x0131;" d="M161 540L161 0L80 0L80 540L161 540Z"  horiz-adv-x="241" vert-adv-y="960"  />

      
      <glyph glyph-name="unied" unicode="&#xed;" d="M249 700L225 762L-9 667L15 606L249 700M161 540L161 0L80 0L80 540L161 540Z"  horiz-adv-x="241" vert-adv-y="960"  />

      
      <glyph glyph-name="uniee" unicode="&#xee;" d="M125 678L238 606L272 663L125 756L-22 663L11 606L125 678M161 540L161 0L80 0L80 540L161 540Z"  horiz-adv-x="241" vert-adv-y="960"  />

      
      <glyph glyph-name="unief" unicode="&#xef;" d="M66 745L66 660L-19 660L-19 745L66 745M260 745L260 660L175 660L175 745L260 745M161 540L161 0L80 0L80 540L161 540Z"  horiz-adv-x="241" vert-adv-y="960"  />

      
      <glyph glyph-name="uniec" unicode="&#xec;" d="M250 667L16 762L-8 700L226 606L250 667M161 540L161 0L80 0L80 540L161 540Z"  horiz-adv-x="241" vert-adv-y="960"  />

      
      <glyph glyph-name="uni012B" unicode="&#x012B;" d="M247 728L247 660L-6 660L-6 728L247 728M161 540L161 0L80 0L80 540L161 540Z"  horiz-adv-x="241" vert-adv-y="960"  />

      
      <glyph glyph-name="uni012F" unicode="&#x012F;" d="M161 633L80 633L80 720L161 720L161 633M179-195Q162-218 133-231Q113-240 92-240Q71-240 52-231.50Q33-223 20-207Q-4-180-4-140Q-4-118 3-98Q23-40 80 10L80 540L161 540L161 0Q131-21 105-54Q77-87 66-119Q63-128 63-138Q63-154 72-163Q82-174 97-174Q121-174 145-152L179-195Z"  horiz-adv-x="241" vert-adv-y="960"  />

      
      <glyph glyph-name="uni6a" unicode="&#x6a;" d="M181 714L181 627L100 627L100 714L181 714M12-255Q50-255 82.50-241Q115-227 137-201Q166-170 173.50-130Q181-90 181-17L181 540L100 540L100-17Q100-76 95-103.50Q90-131 73-149Q54-170 12-172L12-255Z"  horiz-adv-x="261" vert-adv-y="960"  />

      
      <glyph glyph-name="uni6b" unicode="&#x6b;" d="M153 0L71 0L70 720L153 720L153 328L255 328L399 540L493 540L325 294L518 0L426 0L255 260L153 260L153 0Z"  horiz-adv-x="518" vert-adv-y="960"  />

      
      <glyph glyph-name="uni0137" unicode="&#x0137;" d="M153 0L71 0L70 720L153 720L153 328L255 328L399 540L493 540L325 294L518 0L426 0L255 260L153 260L153 0M321-166Q321-207 295-230Q269-253 232-253L232-212Q248-212 264.50-201.50Q281-191 280-166L232-166L232-78L321-78L321-166Z"  horiz-adv-x="518" vert-adv-y="960"  />

      
      <glyph glyph-name="uni6c" unicode="&#x6c;" d="M151 0L151 735L70 735L70 0L151 0Z"  horiz-adv-x="221" vert-adv-y="960"  />

      
      <glyph glyph-name="uni013A" unicode="&#x013A;" d="M239 880L215 942L-19 847L5 786L239 880M151 0L151 735L70 735L70 0L151 0Z"  horiz-adv-x="221" vert-adv-y="960"  />

      
      <glyph glyph-name="uni013E" unicode="&#x013E;" d="M151 0L151 735L70 735L70 0L151 0M336 599Q336 556 317.50 531.50Q299 507 264 507Q258 507 244 509L249 548Q273 546 283 560Q293 574 293 600L292 617L244 617L244 726L336 726L336 599Z"  horiz-adv-x="349" vert-adv-y="960"  />

      
      <glyph glyph-name="uni013C" unicode="&#x013C;" d="M151 0L151 735L70 735L70 0L151 0M156-166Q156-207 130.50-230Q105-253 68-253L68-212Q84-212 100.50-201.50Q117-191 116-166L68-166L68-78L156-78L156-166Z"  horiz-adv-x="221" vert-adv-y="960"  />

      
      <glyph glyph-name="uni0142" unicode="&#x0142;" d="M217 336L217 0L136 0L136 256L35 155L-20 210L136 366L136 735L217 735L217 446L317 546L372 491L217 336Z"  horiz-adv-x="352" vert-adv-y="960"  />

      
      <glyph glyph-name="uni6d" unicode="&#x6d;" d="M733 499Q773 467 784.50 426.50Q796 386 796 319L796 0L715 0L715 319Q715 366 707.50 391Q700 416 674 439Q642 468 597 468Q568 468 543.50 457Q519 446 502 425Q485 404 479.50 382.50Q474 361 474 332L474 319L473 0L393 0L393 319Q393 366 385.50 391Q378 416 351 439Q320 468 274 468Q246 468 221 457Q196 446 180 425Q163 404 157.50 382.50Q152 361 152 332L152 0L70 0L70 540L143 540L143 468Q169 503 209 522Q249 541 294 541Q324 541 355.50 530Q387 519 411 499Q437 477 453 448Q455 453 461 461Q486 499 527.50 520Q569 541 616 541Q647 541 677.50 530Q708 519 733 499Z"  horiz-adv-x="846" vert-adv-y="960"  />

      
      <glyph glyph-name="uni6e" unicode="&#x6e;" d="M453 508Q504 469 522 410Q540 351 539 266L539 0L457 0L457 266Q457 333 445 376Q433 419 397 446Q358 474 305 474Q277 474 251 466Q225 458 206 441Q169 409 158 351Q152 325 152 277L152 0L70 0L70 540L143 540L143 479L160 497Q192 525 232.50 539Q273 553 315 553Q352 553 387.50 541.50Q423 530 453 508Z"  horiz-adv-x="589" vert-adv-y="960"  />

      
      <glyph glyph-name="uni0144" unicode="&#x0144;" d="M212 606L188 667L422 762L446 700L212 606M453 508Q504 469 522 410Q540 351 539 266L539 0L457 0L457 266Q457 333 445 376Q433 419 397 446Q358 474 305 474Q277 474 251 466Q225 458 206 441Q169 409 158 351Q152 325 152 277L152 0L70 0L70 540L143 540L143 479L160 497Q192 525 232.50 539Q273 553 315 553Q352 553 387.50 541.50Q423 530 453 508Z"  horiz-adv-x="589" vert-adv-y="960"  />

      
      <glyph glyph-name="uni0148" unicode="&#x0148;" d="M314 606L167 698L201 756L314 684L427 756L461 698L314 606M453 508Q504 469 522 410Q540 351 539 266L539 0L457 0L457 266Q457 333 445 376Q433 419 397 446Q358 474 305 474Q277 474 251 466Q225 458 206 441Q169 409 158 351Q152 325 152 277L152 0L70 0L70 540L143 540L143 479L160 497Q192 525 232.50 539Q273 553 315 553Q352 553 387.50 541.50Q423 530 453 508Z"  horiz-adv-x="589" vert-adv-y="960"  />

      
      <glyph glyph-name="uni0146" unicode="&#x0146;" d="M453 508Q504 469 522 410Q540 351 539 266L539 0L457 0L457 266Q457 333 445 376Q433 419 397 446Q358 474 305 474Q277 474 251 466Q225 458 206 441Q169 409 158 351Q152 325 152 277L152 0L70 0L70 540L143 540L143 479L160 497Q192 525 232.50 539Q273 553 315 553Q352 553 387.50 541.50Q423 530 453 508M262-78L350-78L350-166Q350-207 324.50-230Q299-253 262-253L262-212Q278-212 294.50-201.50Q311-191 310-166L262-166L262-78Z"  horiz-adv-x="589" vert-adv-y="960"  />

      
      <glyph glyph-name="uni014B" unicode="&#x014B;" d="M453 508Q504 469 522 410Q540 351 539 266L539-92Q539-140 519.50-167Q500-194 465-201Q444-204 428-204Q405-204 375-197L375-133Q395-135 403-135Q430-135 443.50-119Q457-103 457-60L457 266Q457 333 445 376Q433 419 397 446Q358 474 305 474Q277 474 251 466Q225 458 206 441Q169 409 158 351Q152 325 152 277L152 0L70 0L70 540L143 540L143 479L160 497Q192 525 232.50 539Q273 553 315 553Q352 553 387.50 541.50Q423 530 453 508Z"  horiz-adv-x="589" vert-adv-y="960"  />

      
      <glyph glyph-name="unif1" unicode="&#xf1;" d="M165 638Q162 649 162 661Q162 686 172 703Q181 717 195 726.50Q209 736 225 738Q239 740 246 740Q275 740 315 722Q323 718 338.50 711Q354 704 365 700.50Q376 697 385 697Q400 697 407 704.50Q414 712 414 723Q414 727 412 735L466 735Q468 721 468 713Q468 690 458 671Q450 657 436 647.50Q422 638 406 636Q392 634 385 634Q356 634 316 652Q308 656 292.50 663Q277 670 266 673.50Q255 677 246 677Q231 677 224 669.50Q217 662 217 651Q217 646 219 638L165 638M453 508Q504 469 522 410Q540 351 539 266L539 0L457 0L457 266Q457 333 445 376Q433 419 397 446Q358 474 305 474Q277 474 251 466Q225 458 206 441Q169 409 158 351Q152 325 152 277L152 0L70 0L70 540L143 540L143 479L160 497Q192 525 232.50 539Q273 553 315 553Q352 553 387.50 541.50Q423 530 453 508Z"  horiz-adv-x="589" vert-adv-y="960"  />

      
      <glyph glyph-name="uni6f" unicode="&#x6f;" d="M298-15Q238-15 187 7.50Q136 30 101 73Q40 150 40 271Q40 391 101 467Q135 509 187 532Q239 555 298 555Q357 555 408.50 532.50Q460 510 494 467Q556 392 556 271Q556 151 494 73Q460 29 409.50 7Q359-15 298-15M430 123Q470 176 470 271Q470 365 430 418Q408 447 373 462.50Q338 478 298 478Q258 478 223 462.50Q188 447 167 418Q126 365 126 271Q126 176 167 123Q188 94 223 78Q258 62 298 62Q338 62 373 78Q408 94 430 123Z"  horiz-adv-x="596" vert-adv-y="960"  />

      
      <glyph glyph-name="unif3" unicode="&#xf3;" d="M414 700L391 762L157 667L181 606L414 700M298-15Q238-15 187 7.50Q136 30 101 73Q40 150 40 271Q40 391 101 467Q135 509 187 532Q239 555 298 555Q357 555 408.50 532.50Q460 510 494 467Q556 392 556 271Q556 151 494 73Q460 29 409.50 7Q359-15 298-15M430 123Q470 176 470 271Q470 365 430 418Q408 447 373 462.50Q338 478 298 478Q258 478 223 462.50Q188 447 167 418Q126 365 126 271Q126 176 167 123Q188 94 223 78Q258 62 298 62Q338 62 373 78Q408 94 430 123Z"  horiz-adv-x="596" vert-adv-y="960"  />

      
      <glyph glyph-name="unif4" unicode="&#xf4;" d="M298 678L412 606L445 663L298 756L152 663L185 606L298 678M298-15Q238-15 187 7.50Q136 30 101 73Q40 150 40 271Q40 391 101 467Q135 509 187 532Q239 555 298 555Q357 555 408.50 532.50Q460 510 494 467Q556 392 556 271Q556 151 494 73Q460 29 409.50 7Q359-15 298-15M430 123Q470 176 470 271Q470 365 430 418Q408 447 373 462.50Q338 478 298 478Q258 478 223 462.50Q188 447 167 418Q126 365 126 271Q126 176 167 123Q188 94 223 78Q258 62 298 62Q338 62 373 78Q408 94 430 123Z"  horiz-adv-x="596" vert-adv-y="960"  />

      
      <glyph glyph-name="unif6" unicode="&#xf6;" d="M244 745L244 660L159 660L159 745L244 745M437 745L437 660L352 660L352 745L437 745M298-15Q238-15 187 7.50Q136 30 101 73Q40 150 40 271Q40 391 101 467Q135 509 187 532Q239 555 298 555Q357 555 408.50 532.50Q460 510 494 467Q556 392 556 271Q556 151 494 73Q460 29 409.50 7Q359-15 298-15M430 123Q470 176 470 271Q470 365 430 418Q408 447 373 462.50Q338 478 298 478Q258 478 223 462.50Q188 447 167 418Q126 365 126 271Q126 176 167 123Q188 94 223 78Q258 62 298 62Q338 62 373 78Q408 94 430 123Z"  horiz-adv-x="596" vert-adv-y="960"  />

      
      <glyph glyph-name="unif2" unicode="&#xf2;" d="M440 667L205 762L182 700L416 606L440 667M298-15Q238-15 187 7Q136 29 102 73Q40 151 40 271Q40 390 102 467Q136 510 187.50 532.50Q239 555 298 555Q357 555 409 532Q461 509 495 467Q556 391 556 271Q556 150 495 73Q460 30 409 7.50Q358-15 298-15M167 123Q188 94 223 78Q258 62 298 62Q338 62 373 77.50Q408 93 429 123Q470 176 470 271Q470 365 429 418Q408 447 373.50 462.50Q339 478 298 478Q258 478 223 462.50Q188 447 167 418Q126 365 126 271Q126 176 167 123Z"  horiz-adv-x="596" vert-adv-y="960"  />

      
      <glyph glyph-name="uni0151" unicode="&#x0151;" d="M329 719L287 762L179 656L221 612L329 719M478 719L436 762L328 656L370 612L478 719M298-15Q238-15 187 7.50Q136 30 101 73Q40 150 40 271Q40 391 101 467Q135 509 187 532Q239 555 298 555Q357 555 408.50 532.50Q460 510 494 467Q556 392 556 271Q556 151 494 73Q460 29 409.50 7Q359-15 298-15M430 123Q470 176 470 271Q470 365 430 418Q408 447 373 462.50Q338 478 298 478Q258 478 223 462.50Q188 447 167 418Q126 365 126 271Q126 176 167 123Q188 94 223 78Q258 62 298 62Q338 62 373 78Q408 94 430 123Z"  horiz-adv-x="596" vert-adv-y="960"  />

      
      <glyph glyph-name="uni014D" unicode="&#x014D;" d="M425 728L425 660L172 660L172 728L425 728M298-15Q238-15 187 7.50Q136 30 101 73Q40 150 40 271Q40 391 101 467Q135 509 187 532Q239 555 298 555Q357 555 408.50 532.50Q460 510 494 467Q556 392 556 271Q556 151 494 73Q460 29 409.50 7Q359-15 298-15M430 123Q470 176 470 271Q470 365 430 418Q408 447 373 462.50Q338 478 298 478Q258 478 223 462.50Q188 447 167 418Q126 365 126 271Q126 176 167 123Q188 94 223 78Q258 62 298 62Q338 62 373 78Q408 94 430 123Z"  horiz-adv-x="596" vert-adv-y="960"  />

      
      <glyph glyph-name="unif8" unicode="&#xf8;" d="M517 433Q556 367 556 271Q556 151 494 73Q460 29 409.50 7Q359-15 298-15Q249-15 205 0Q161 15 127 45L76-6L21 49L79 106Q40 176 40 271Q40 391 101 467Q135 509 187 532Q239 555 298 555Q347 555 391 540Q435 525 468 495L520 546L575 491L517 433M126 271Q126 212 142 169L412 438Q390 458 360 468Q330 478 298 478Q258 478 223 462.50Q188 447 167 418Q126 365 126 271M470 271Q470 329 455 371L185 103Q207 83 236.50 72.50Q266 62 298 62Q338 62 373 78Q408 94 430 123Q470 176 470 271Z"  horiz-adv-x="596" vert-adv-y="960"  />

      
      <glyph glyph-name="unif5" unicode="&#xf5;" d="M449 735Q452 725 452 713Q452 688 442 671Q433 657 419 647.50Q405 638 389 636Q375 634 368 634Q339 634 299 652Q291 656 275.50 663Q260 670 249 673.50Q238 677 229 677Q214 677 207 669.50Q200 662 200 651Q200 646 202 638L148 638Q146 652 146 661Q146 684 156 703Q164 717 178 726.50Q192 736 208 738Q222 740 229 740Q258 740 298 722Q306 718 321.50 711Q337 704 348 700.50Q359 697 369 697Q383 697 390 704.50Q397 712 397 723Q397 727 395 735L449 735M298-15Q238-15 187 7.50Q136 30 101 73Q40 150 40 271Q40 391 101 467Q135 509 187 532Q239 555 298 555Q357 555 408.50 532.50Q460 510 494 467Q556 392 556 271Q556 151 494 73Q460 29 409.50 7Q359-15 298-15M430 123Q470 176 470 271Q470 365 430 418Q408 447 373 462.50Q338 478 298 478Q258 478 223 462.50Q188 447 167 418Q126 365 126 271Q126 176 167 123Q188 94 223 78Q258 62 298 62Q338 62 373 78Q408 94 430 123Z"  horiz-adv-x="596" vert-adv-y="960"  />

      
      <glyph glyph-name="uni0153" unicode="&#x0153;" d="M558 248Q561 170 597 123Q619 94 653.50 78Q688 62 728 62Q768 62 802.50 78Q837 94 859 123Q868 136 876 152L956 117Q943 92 927 72Q892 30 841.50 7.50Q791-15 735-15Q673-15 619.50 7Q566 29 532 73Q525 82 513 100Q501 82 494 73Q460 29 409.50 7Q359-15 298-15Q238-15 187 7.50Q136 30 101 73Q40 150 40 271Q40 391 101 467Q135 509 187 532Q239 555 298 555Q357 555 408.50 532.50Q460 510 494 467Q508 449 513 440Q525 458 532 467Q567 510 618 532.50Q669 555 728 555Q788 555 839 532.50Q890 510 925 467Q984 390 986 270L985 248L558 248M298 62Q338 62 373 78Q408 94 430 123Q470 176 470 271Q470 365 430 418Q408 447 373 462.50Q338 478 298 478Q258 478 223 462.50Q188 447 167 418Q126 365 126 271Q126 176 167 123Q188 94 223 78Q258 62 298 62M728 478Q688 478 653.50 462Q619 446 597 417Q567 376 560 316L896 316Q889 379 859 417Q837 446 802.50 462Q768 478 728 478Z"  horiz-adv-x="1026" vert-adv-y="960"  />

      
      <glyph glyph-name="uni70" unicode="&#x70;" d="M513 468Q572 393 572 271Q572 147 513 72Q480 30 431 7.50Q382-15 326-15Q273-15 228.50 3.50Q184 22 152 57L152-240L70-240L70 540L143 540L143 472Q175 511 224 533Q273 555 327 555Q383 555 431.50 532.50Q480 510 513 468M447 123Q486 174 486 271Q486 365 447 419Q425 450 390.50 465Q356 480 314 480Q274 480 241 465.50Q208 451 186 423Q143 369 143 271Q143 172 186 118Q208 90 242.50 75Q277 60 316 60Q355 60 390 76Q425 92 447 123Z"  horiz-adv-x="612" vert-adv-y="960"  />

      
      <glyph glyph-name="unife" unicode="&#xfe;" d="M513 468Q572 393 572 271Q572 147 513 72Q480 30 431 7.50Q382-15 326-15Q273-15 228.50 3.50Q184 22 152 57L152-240L70-240L70 720L152 720L152 483Q184 517 230 536Q276 555 327 555Q383 555 431.50 532.50Q480 510 513 468M447 123Q486 174 486 271Q486 365 447 419Q425 450 390.50 465Q356 480 314 480Q274 480 241 465.50Q208 451 186 423Q143 369 143 271Q143 172 186 118Q208 90 242.50 75Q277 60 316 60Q355 60 390 76Q425 92 447 123Z"  horiz-adv-x="612" vert-adv-y="960"  />

      
      <glyph glyph-name="uni71" unicode="&#x71;" d="M542 540L542-240L461-240L461 58Q430 22 385 3.50Q340-15 287-15Q231-15 182 7.50Q133 30 100 72Q40 148 40 271Q40 393 100 468Q132 510 181 532.50Q230 555 285 555Q339 555 388 533Q437 511 470 472L470 540L542 540M426 118Q470 172 470 271Q470 369 426 423Q405 451 371.50 465.50Q338 480 298 480Q256 480 222 465Q188 450 166 419Q126 365 126 271Q126 174 165 123Q187 92 222 76Q257 60 296 60Q336 60 370 75Q404 90 426 118Z"  horiz-adv-x="612" vert-adv-y="960"  />

      
      <glyph glyph-name="uni72" unicode="&#x72;" d="M312 555Q354 555 387 544L387 467Q347 481 306 478Q240 476 202 438Q169 407 160.50 367.50Q152 328 152 261L152 0L70 0L70 540L143 540L143 460Q159 488 189 512Q239 553 312 555Z"  horiz-adv-x="412" vert-adv-y="960"  />

      
      <glyph glyph-name="uni0155" unicode="&#x0155;" d="M94 606L70 667L304 762L328 700L94 606M312 555Q354 555 387 544L387 467Q347 481 306 478Q240 476 202 438Q169 407 160.50 367.50Q152 328 152 261L152 0L70 0L70 540L143 540L143 460Q159 488 189 512Q239 553 312 555Z"  horiz-adv-x="412" vert-adv-y="960"  />

      
      <glyph glyph-name="uni0159" unicode="&#x0159;" d="M217 606L70 698L103 756L217 684L330 756L364 698L217 606M312 555Q354 555 387 544L387 467Q347 481 306 478Q240 476 202 438Q169 407 160.50 367.50Q152 328 152 261L152 0L70 0L70 540L143 540L143 460Q159 488 189 512Q239 553 312 555Z"  horiz-adv-x="412" vert-adv-y="960"  />

      
      <glyph glyph-name="uni0157" unicode="&#x0157;" d="M312 555Q354 555 387 544L387 467Q347 481 306 478Q240 476 202 438Q169 407 160.50 367.50Q152 328 152 261L152 0L70 0L70 540L143 540L143 460Q159 488 189 512Q239 553 312 555M67-78L155-78L155-166Q155-207 129-230Q103-253 67-253L67-212Q82-212 99-201.50Q116-191 115-166L67-166L67-78Z"  horiz-adv-x="412" vert-adv-y="960"  />

      
      <glyph glyph-name="uni73" unicode="&#x73;" d="M412 379Q403 404 385 425.50Q367 447 344 459Q309 477 257 477Q215 477 184 462Q166 452 155 437Q144 422 144 406Q144 382 161 365Q179 347 229 333Q259 324 332 305Q366 296 390.50 285Q415 274 437 255Q494 209 494 146Q494 108 475 75Q456 42 424 21Q370-14 273-14Q157-14 92 55Q70 80 55.50 113Q41 146 35 177L114 196Q117 172 126.50 148.50Q136 125 151 108Q192 63 272 63Q302 63 331.50 69.50Q361 76 379 88Q405 107 410 141Q413 174 387 195Q375 206 358 213.50Q341 221 309 231Q286 238 215 257Q179 267 154.50 277Q130 287 109 304Q85 323 72.50 349.50Q60 376 60 405Q60 446 85.50 481Q111 516 150 534Q197 555 257 555Q327 555 380 529Q419 509 449.50 473Q480 437 492 398L412 379Z"  horiz-adv-x="529" vert-adv-y="960"  />

      
      <glyph glyph-name="uni015B" unicode="&#x015B;" d="M404 700L380 762L146 667L170 606L404 700M412 379Q403 404 385 425.50Q367 447 344 459Q309 477 257 477Q215 477 184 462Q166 452 155 437Q144 422 144 406Q144 382 161 365Q179 347 229 333Q259 324 332 305Q366 296 390.50 285Q415 274 437 255Q494 209 494 146Q494 108 475 75Q456 42 424 21Q370-14 273-14Q157-14 92 55Q70 80 55.50 113Q41 146 35 177L114 196Q117 172 126.50 148.50Q136 125 151 108Q192 63 272 63Q302 63 331.50 69.50Q361 76 379 88Q405 107 410 141Q413 174 387 195Q375 206 358 213.50Q341 221 309 231Q286 238 215 257Q179 267 154.50 277Q130 287 109 304Q85 323 72.50 349.50Q60 376 60 405Q60 446 85.50 481Q111 516 150 534Q197 555 257 555Q327 555 380 529Q419 509 449.50 473Q480 437 492 398L412 379Z"  horiz-adv-x="529" vert-adv-y="960"  />

      
      <glyph glyph-name="uni0161" unicode="&#x0161;" d="M128 698L275 606L421 698L388 756L275 684L161 756L128 698M412 379Q403 404 385 425.50Q367 447 344 459Q309 477 257 477Q215 477 184 462Q166 452 155 437Q144 422 144 406Q144 382 161 365Q179 347 229 333Q259 324 332 305Q366 296 390.50 285Q415 274 437 255Q494 209 494 146Q494 108 475 75Q456 42 424 21Q370-14 273-14Q157-14 92 55Q70 80 55.50 113Q41 146 35 177L114 196Q117 172 126.50 148.50Q136 125 151 108Q192 63 272 63Q302 63 331.50 69.50Q361 76 379 88Q405 107 410 141Q413 174 387 195Q375 206 358 213.50Q341 221 309 231Q286 238 215 257Q179 267 154.50 277Q130 287 109 304Q85 323 72.50 349.50Q60 376 60 405Q60 446 85.50 481Q111 516 150 534Q197 555 257 555Q327 555 380 529Q419 509 449.50 473Q480 437 492 398L412 379Z"  horiz-adv-x="529" vert-adv-y="960"  />

      
      <glyph glyph-name="uni015F" unicode="&#x015F;" d="M437 255Q494 209 494 146Q494 108 475 75Q456 42 424 21Q378-8 309-13L293-56Q326-72 341-99Q352-118 352-145Q352-177 336-199Q323-218 302-229.50Q281-241 258-241Q229-241 193-224L213-170Q235-178 249-178Q260-179 269-175Q278-171 283-163Q290-151 290-143Q290-138 286-128Q281-116 270-109.50Q259-103 244-98Q229-93 223-91L251-13Q151-8 92 55Q70 80 55.50 113Q41 146 35 177L114 196Q117 172 126.50 148.50Q136 125 151 108Q192 63 272 63Q302 63 331.50 69.50Q361 76 379 88Q405 107 410 141Q413 174 387 195Q375 206 358 213.50Q341 221 309 231Q286 238 215 257Q179 267 154.50 277Q130 287 109 304Q85 323 72.50 349.50Q60 376 60 405Q60 446 85.50 481Q111 516 150 534Q197 555 257 555Q327 555 380 529Q419 509 449.50 473Q480 437 492 398L412 379Q403 404 385 425.50Q367 447 344 459Q309 477 257 477Q215 477 184 462Q166 452 155 437Q144 422 144 406Q144 382 161 365Q179 347 229 333Q259 324 332 305Q366 296 390.50 285Q415 274 437 255Z"  horiz-adv-x="529" vert-adv-y="960"  />

      
      <glyph glyph-name="uni0219" unicode="&#x0219;" d="M412 379Q403 404 385 425.50Q367 447 344 459Q309 477 257 477Q215 477 184 462Q166 452 155 437Q144 422 144 406Q144 382 161 365Q179 347 229 333Q259 324 332 305Q366 296 390.50 285Q415 274 437 255Q494 209 494 146Q494 108 475 75Q456 42 424 21Q370-14 273-14Q157-14 92 55Q70 80 55.50 113Q41 146 35 177L114 196Q117 172 126.50 148.50Q136 125 151 108Q192 63 272 63Q302 63 331.50 69.50Q361 76 379 88Q405 107 410 141Q413 174 387 195Q375 206 358 213.50Q341 221 309 231Q286 238 215 257Q179 267 154.50 277Q130 287 109 304Q85 323 72.50 349.50Q60 376 60 405Q60 446 85.50 481Q111 516 150 534Q197 555 257 555Q327 555 380 529Q419 509 449.50 473Q480 437 492 398L412 379M313-166Q313-207 287-230Q261-253 225-253L225-212Q240-212 256.50-201.50Q273-191 272-166L225-166L225-78L313-78L313-166Z"  horiz-adv-x="529" vert-adv-y="960"  />

      
      <glyph glyph-name="unidf" unicode="&#xdf;" d="M70 520Q70 568 81 604Q92 640 120 670Q149 702 188.50 718Q228 734 271 734Q315 734 355.50 716.50Q396 699 423 667Q447 643 461 610Q475 577 475 542Q475 516 465.50 488.50Q456 461 439 440Q424 418 395 401Q429 384 450.50 369Q472 354 488 332Q511 307 523.50 276Q536 245 536 211Q536 149 504.50 97.50Q473 46 415 21Q382 6 351 3Q320 0 265 0L224 0L224 74L265 74Q307 74 330.50 77.50Q354 81 381 93Q416 109 436 142Q456 175 456 213Q456 265 411 304Q359 349 272 353L272 426Q306 432 334 448Q362 464 378 486Q395 512 395 544Q395 588 364 619Q346 639 321.50 649.50Q297 660 270 660Q211 660 173 617Q160 603 152 582Q144 561 144 542L144 0L70 0L70 520Z"  horiz-adv-x="586" vert-adv-y="960"  />

      
      <glyph glyph-name="uni74" unicode="&#x74;" d="M212 204Q212 161 213.50 142.50Q215 124 224 109Q232 91 249 81Q266 71 287 69Q309 67 320 67Q348 67 376 72L376 0Q342-8 303-8Q274-8 255-4Q178 10 150 68Q137 94 134 122.50Q131 151 131 200L131 472L10 472L10 540L131 540L131 690L212 690L212 540L376 540L376 472L212 472L212 204Z"  horiz-adv-x="426" vert-adv-y="960"  />

      
      <glyph glyph-name="uni0167" unicode="&#x0167;" d="M212 472L212 309L376 309L376 240L212 240L212 204Q212 161 213.50 142.50Q215 124 224 109Q232 91 249 81Q266 71 287 69Q309 67 320 67Q348 67 376 72L376 0Q342-8 303-8Q274-8 255-4Q178 10 150 68Q137 94 134 122.50Q131 151 131 200L131 240L10 240L10 309L131 309L131 472L10 472L10 540L131 540L131 690L212 690L212 540L376 540L376 472L212 472Z"  horiz-adv-x="426" vert-adv-y="960"  />

      
      <glyph glyph-name="uni0165" unicode="&#x0165;" d="M212 204Q212 161 213.50 142.50Q215 124 224 109Q232 91 249 81Q266 71 287 69Q309 67 320 67Q348 67 376 72L376 0Q342-8 303-8Q274-8 255-4Q178 10 150 68Q137 94 134 122.50Q131 151 131 200L131 472L10 472L10 540L131 540L131 690L212 690L212 540L376 540L376 472L212 472L212 204M406 702Q406 659 387.50 634.50Q369 610 334 610Q328 610 314 612L319 651Q343 649 353 663Q363 677 363 703L362 720L314 720L314 829L406 829L406 702Z"  horiz-adv-x="411" vert-adv-y="960"  />

      
      <glyph glyph-name="uni0163" unicode="&#x0163;" d="M212 204Q212 161 213.50 142.50Q215 124 224 109Q232 91 249 81Q266 71 287 69Q309 67 320 67Q348 67 376 72L376 0Q342-8 303-8Q274-8 255-4L244-2L225-57Q258-73 273-100Q284-119 284-146Q284-178 268-200Q255-219 233.50-230.50Q212-242 189-242Q161-242 125-225L145-171Q166-179 181-179Q203-180 215-164Q222-152 222-144Q222-139 218-129Q213-117 202-110.50Q191-104 176-99Q161-94 155-92L195 18Q166 36 150 68Q137 94 134 122.50Q131 151 131 200L131 472L10 472L10 540L131 540L131 690L212 690L212 540L376 540L376 472L212 472L212 204Z"  horiz-adv-x="426" vert-adv-y="960"  />

      
      <glyph glyph-name="uni021B" unicode="&#x021B;" d="M212 204Q212 161 213.50 142.50Q215 124 224 109Q232 91 249 81Q266 71 287 69Q309 67 320 67Q348 67 376 72L376 0Q342-8 303-8Q274-8 255-4Q178 10 150 68Q137 94 134 122.50Q131 151 131 200L131 472L10 472L10 540L131 540L131 690L212 690L212 540L376 540L376 472L212 472L212 204M170-78L258-78L258-166Q258-207 232-230Q206-253 170-253L170-212Q185-212 201.50-201.50Q218-191 217-166L170-166L170-78Z"  horiz-adv-x="426" vert-adv-y="960"  />

      
      <glyph glyph-name="uni75" unicode="&#x75;" d="M519 540L519 0L447 0L447 62Q437 50 429 43Q399 15 358 1Q317-13 275-13Q238-13 202-1.50Q166 10 136 32Q85 71 67 130Q49 189 50 274L50 540L132 540L132 274Q132 208 144.50 164.50Q157 121 192 95Q230 66 288 66Q346 66 383 100Q422 132 431 189Q436 211 437 242Q438 273 438 303L438 304L438 540L519 540Z"  horiz-adv-x="589" vert-adv-y="960"  />

      
      <glyph glyph-name="unifa" unicode="&#xfa;" d="M191 606L167 667L401 762L425 700L191 606M519 540L519 0L447 0L447 62Q437 50 429 43Q399 15 358 1Q317-13 275-13Q238-13 202-1.50Q166 10 136 32Q85 71 67 130Q49 189 50 274L50 540L132 540L132 274Q132 208 144.50 164.50Q157 121 192 95Q230 66 288 66Q346 66 383 100Q422 132 431 189Q436 211 437 242Q438 273 438 303L438 304L438 540L519 540Z"  horiz-adv-x="589" vert-adv-y="960"  />

      
      <glyph glyph-name="unifb" unicode="&#xfb;" d="M172 606L138 663L285 756L432 663L398 606L285 678L172 606M519 540L519 0L447 0L447 62Q437 50 429 43Q399 15 358 1Q317-13 275-13Q238-13 202-1.50Q166 10 136 32Q85 71 67 130Q49 189 50 274L50 540L132 540L132 274Q132 208 144.50 164.50Q157 121 192 95Q230 66 288 66Q346 66 383 100Q422 132 431 189Q436 211 437 242Q438 273 438 303L438 304L438 540L519 540Z"  horiz-adv-x="589" vert-adv-y="960"  />

      
      <glyph glyph-name="unifc" unicode="&#xfc;" d="M230 660L145 660L145 745L230 745L230 660M424 660L339 660L339 745L424 745L424 660M519 540L519 0L447 0L447 62Q437 50 429 43Q399 15 358 1Q317-13 275-13Q238-13 202-1.50Q166 10 136 32Q85 71 67 130Q49 189 50 274L50 540L132 540L132 274Q132 208 144.50 164.50Q157 121 192 95Q230 66 288 66Q346 66 383 100Q422 132 431 189Q436 211 437 242Q438 273 438 303L438 304L438 540L519 540Z"  horiz-adv-x="589" vert-adv-y="960"  />

      
      <glyph glyph-name="unif9" unicode="&#xf9;" d="M411 606L177 700L201 762L435 667L411 606M519 540L519 0L447 0L447 62Q437 50 429 43Q399 15 358 1Q317-13 275-13Q238-13 202-1.50Q166 10 136 32Q85 71 67 130Q49 189 50 274L50 540L132 540L132 274Q132 208 144.50 164.50Q157 121 192 95Q230 66 288 66Q346 66 383 100Q422 132 431 189Q436 211 437 242Q438 273 438 303L438 304L438 540L519 540Z"  horiz-adv-x="589" vert-adv-y="960"  />

      
      <glyph glyph-name="uni0171" unicode="&#x0171;" d="M214 612L172 656L280 762L322 719L214 612M320 656L429 762L471 719L362 612L320 656M519 540L519 0L447 0L447 62Q437 50 429 43Q399 15 358 1Q317-13 275-13Q238-13 202-1.50Q166 10 136 32Q85 71 67 130Q49 189 50 274L50 540L132 540L132 274Q132 208 144.50 164.50Q157 121 192 95Q230 66 288 66Q346 66 383 100Q422 132 431 189Q436 211 437 242Q438 273 438 303L438 304L438 540L519 540Z"  horiz-adv-x="589" vert-adv-y="960"  />

      
      <glyph glyph-name="uni016B" unicode="&#x016B;" d="M424 660L171 660L171 728L424 728L424 660M519 540L519 0L447 0L447 62Q437 50 429 43Q399 15 358 1Q317-13 275-13Q238-13 202-1.50Q166 10 136 32Q85 71 67 130Q49 189 50 274L50 540L132 540L132 274Q132 208 144.50 164.50Q157 121 192 95Q230 66 288 66Q346 66 383 100Q422 132 431 189Q436 211 437 242Q438 273 438 303L438 304L438 540L519 540Z"  horiz-adv-x="589" vert-adv-y="960"  />

      
      <glyph glyph-name="uni0173" unicode="&#x0173;" d="M538-195Q519-218 491-231Q472-240 451-240Q430-240 411-231.50Q392-223 379-207Q354-181 354-140Q354-118 361-98Q384-34 447 17L447 62Q437 50 429 43Q399 15 358 1Q317-13 275-13Q238-13 202-1.50Q166 10 136 32Q85 71 67 130Q49 189 50 274L50 540L132 540L132 274Q132 208 144.50 164.50Q157 121 192 95Q230 66 288 66Q346 66 383 100Q422 132 431 189Q436 211 437 242Q438 273 438 303L438 304L438 540L519 540L519 0Q487-24 463-54Q434-91 425-119Q421-131 421-139Q421-154 430-163Q440-174 455-174Q479-174 503-152L538-195Z"  horiz-adv-x="589" vert-adv-y="960"  />

      
      <glyph glyph-name="uni016F" unicode="&#x016F;" d="M294 590Q261 590 232.50 606.50Q204 623 187.50 651Q171 679 171 712Q171 745 187.50 773Q204 801 232.50 817.50Q261 834 294 834Q344 834 380 798Q416 762 416 712Q416 662 380 626Q344 590 294 590M294 772Q269 772 251.50 754.50Q234 737 234 712Q234 687 251.50 669.50Q269 652 294 652Q319 652 336.50 669.50Q354 687 354 712Q354 737 336.50 754.50Q319 772 294 772M519 540L519 0L447 0L447 62Q437 50 429 43Q399 15 358 1Q317-13 275-13Q238-13 202-1.50Q166 10 136 32Q85 71 67 130Q49 189 50 274L50 540L132 540L132 274Q132 208 144.50 164.50Q157 121 192 95Q230 66 288 66Q346 66 383 100Q422 132 431 189Q436 211 437 242Q438 273 438 303L438 304L438 540L519 540Z"  horiz-adv-x="589" vert-adv-y="960"  />

      
      <glyph glyph-name="uni76" unicode="&#x76;" d="M492 540L295 0L212 0L16 540L98 540L254 105L409 540L492 540Z"  horiz-adv-x="508" vert-adv-y="960"  />

      
      <glyph glyph-name="uni77" unicode="&#x77;" d="M743 540L578 0L497 0L377 408L252 0L175 0L10 540L92 540L216 133L340 540L413 540L538 133L663 540L743 540Z"  horiz-adv-x="753" vert-adv-y="960"  />

      
      <glyph glyph-name="uni1E83" unicode="&#x1E83;" d="M499 700L475 762L241 667L265 606L499 700M743 540L578 0L497 0L377 408L252 0L175 0L10 540L92 540L216 133L340 540L413 540L538 133L663 540L743 540Z"  horiz-adv-x="753" vert-adv-y="960"  />

      
      <glyph glyph-name="uni0175" unicode="&#x0175;" d="M386 678L499 606L533 663L386 756L239 663L272 606L386 678M743 540L578 0L497 0L377 408L252 0L175 0L10 540L92 540L216 133L340 540L413 540L538 133L663 540L743 540Z"  horiz-adv-x="753" vert-adv-y="960"  />

      
      <glyph glyph-name="uni1E85" unicode="&#x1E85;" d="M318 745L318 660L233 660L233 745L318 745M511 745L511 660L426 660L426 745L511 745M743 540L578 0L497 0L377 408L252 0L175 0L10 540L92 540L216 133L340 540L413 540L538 133L663 540L743 540Z"  horiz-adv-x="753" vert-adv-y="960"  />

      
      <glyph glyph-name="uni1E81" unicode="&#x1E81;" d="M504 667L270 762L246 700L480 606L504 667M743 540L578 0L497 0L377 408L252 0L175 0L10 540L92 540L216 133L340 540L413 540L538 133L663 540L743 540Z"  horiz-adv-x="753" vert-adv-y="960"  />

      
      <glyph glyph-name="uni78" unicode="&#x78;" d="M308 273L517 0L421 0L264 211L106 0L10 0L219 273L15 540L109 540L264 335L418 540L512 540L308 273Z"  horiz-adv-x="527" vert-adv-y="960"  />

      
      <glyph glyph-name="uni79" unicode="&#x79;" d="M542 539L296-102Q265-185 222-215Q202-230 178.50-235Q155-240 123-240L110-239L110-161L127-163Q164-165 182-151Q197-141 210.50-114Q224-87 251-15L20 540L104 540L289 89L460 539L542 539Z"  horiz-adv-x="552" vert-adv-y="960"  />

      
      <glyph glyph-name="unifd" unicode="&#xfd;" d="M421 700L397 762L163 667L187 606L421 700M542 539L296-102Q265-185 222-215Q202-230 178.50-235Q155-240 123-240L110-239L110-161L127-163Q164-165 182-151Q197-141 210.50-114Q224-87 251-15L20 540L104 540L289 89L460 539L542 539Z"  horiz-adv-x="552" vert-adv-y="960"  />

      
      <glyph glyph-name="uni0177" unicode="&#x0177;" d="M287 678L401 606L434 663L287 756L141 663L174 606L287 678M542 539L296-102Q265-185 222-215Q202-230 178.50-235Q155-240 123-240L110-239L110-161L127-163Q164-165 182-151Q197-141 210.50-114Q224-87 251-15L20 540L104 540L289 89L460 539L542 539Z"  horiz-adv-x="552" vert-adv-y="960"  />

      
      </font>
</defs>
</svg>
