<?xml version="1.0" standalone="no"?>
  <!DOCTYPE svg PUBLIC "-//W3C//DTD SVG 1.1//EN" "http://www.w3.org/Graphics/SVG/1.1/DTD/svg11.dtd" >
  <svg>
  <metadata>
  Created by font-carrier
  </metadata>
  <defs>
  <font id="Manrope-Thin" horiz-adv-x="1213" vert-adv-y="1213" >
    <font-face
      
      font-family="Manrope Thin"
      
      font-weight="400"
      
      font-stretch="normal"
      
      units-per-em="960"
      
      ascent="1020"
      
      descent="-300"
      
    />
      <missing-glyph />

      

      
      <glyph glyph-name="uni41" unicode="&#x41;" d="M472 157L107 157L50 0L5 0L267 720L312 720L574 0L529 0L472 157M457 197L289 659L121 197L457 197Z"  horiz-adv-x="579" vert-adv-y="960"  />

      
      <glyph glyph-name="unic1" unicode="&#xc1;" d="M187 786L170 821L370 914L387 879L187 786M472 157L107 157L50 0L5 0L267 720L312 720L574 0L529 0L472 157M457 197L289 659L121 197L457 197Z"  horiz-adv-x="579" vert-adv-y="960"  />

      
      <glyph glyph-name="uni0102" unicode="&#x0102;" d="M290 780Q243 780 209.50 813.50Q176 847 176 894L215 894Q215 863 237 841Q259 819 290 819Q321 819 343 841Q365 863 365 894L404 894Q404 847 370.50 813.50Q337 780 290 780M472 157L107 157L50 0L5 0L267 720L312 720L574 0L529 0L472 157M457 197L289 659L121 197L457 197Z"  horiz-adv-x="579" vert-adv-y="960"  />

      
      <glyph glyph-name="unic2" unicode="&#xc2;" d="M190 786L167 818L290 909L413 818L390 786L290 860L190 786M472 157L107 157L50 0L5 0L267 720L312 720L574 0L529 0L472 157M457 197L289 659L121 197L457 197Z"  horiz-adv-x="579" vert-adv-y="960"  />

      
      <glyph glyph-name="unic4" unicode="&#xc4;" d="M230 840L170 840L170 900L230 900L230 840M410 840L350 840L350 900L410 900L410 840M472 157L107 157L50 0L5 0L267 720L312 720L574 0L529 0L472 157M457 197L289 659L121 197L457 197Z"  horiz-adv-x="579" vert-adv-y="960"  />

      
      <glyph glyph-name="unic0" unicode="&#xc0;" d="M392 786L192 879L209 914L409 821L392 786M472 157L107 157L50 0L5 0L267 720L312 720L574 0L529 0L472 157M458 197L290 659L122 197L458 197Z"  horiz-adv-x="579" vert-adv-y="960"  />

      
      <glyph glyph-name="uni0100" unicode="&#x0100;" d="M410 840L170 840L170 882L410 882L410 840M472 157L107 157L50 0L5 0L267 720L312 720L574 0L529 0L472 157M457 197L289 659L121 197L457 197Z"  horiz-adv-x="579" vert-adv-y="960"  />

      
      <glyph glyph-name="uni0104" unicode="&#x0104;" d="M595-201Q575-221 550-232Q531-240 513-240Q476-240 454-215Q430-191 430-156Q430-143 435-123Q454-55 525 10L472 157L107 157L50 0L5 0L267 720L312 720L574 0L573 0Q542-24 514-60Q484-101 475-134Q471-148 471-155Q471-173 483-185Q497-199 514-199Q540-199 569-172L595-201M457 197L289 659L121 197L457 197Z"  horiz-adv-x="579" vert-adv-y="960"  />

      
      <glyph glyph-name="unic5" unicode="&#xc5;" d="M472 157L107 157L50 0L5 0L255 687Q227 698 209 723Q191 748 191 780Q191 821 220.50 850Q250 879 290 879Q331 879 360 850Q389 821 389 780Q389 748 371 723Q353 698 324 687L574 0L529 0L472 157M230 780Q230 755 247.50 737.50Q265 720 290 720Q315 720 332.50 737.50Q350 755 350 780Q350 805 332.50 822.50Q315 840 290 840Q265 840 247.50 822.50Q230 805 230 780M457 197L289 659L121 197L457 197Z"  horiz-adv-x="579" vert-adv-y="960"  />

      
      <glyph glyph-name="unic3" unicode="&#xc3;" d="M155 840Q152 849 152 859Q152 874 160 890Q168 903 181.50 910.50Q195 918 209 919Q230 921 248.50 916.50Q267 912 290 902Q320 889 333.50 884.50Q347 880 360 880Q376 880 383.50 888Q391 896 391 907Q391 914 388 920L424 920Q427 911 427 901Q427 886 419 870Q411 857 397.50 849.50Q384 842 370 841Q349 839 330.50 843.50Q312 848 289 858Q259 871 245.50 875.50Q232 880 219 880Q203 880 195.50 872Q188 864 188 853Q188 846 191 840L155 840M472 157L107 157L50 0L5 0L267 720L312 720L574 0L529 0L472 157M457 197L289 659L121 197L457 197Z"  horiz-adv-x="579" vert-adv-y="960"  />

      
      <glyph glyph-name="unic6" unicode="&#xc6;" d="M422 678L422 381L750 381L750 339L422 339L422 42L810 42L810 0L380 0L380 157L107 157L50 0L5 0L267 720L810 720L810 678L422 678M380 197L380 678L296 678L121 197L380 197Z"  horiz-adv-x="870" vert-adv-y="960"  />

      
      <glyph glyph-name="uni42" unicode="&#x42;" d="M542 314Q581 266 581 202Q581 166 568.50 131.50Q556 97 534 72Q492 25 430 9Q397 0 344 0L312 0L80 0L80 720L301 720L339 720Q389 720 407 714Q463 699 501 657Q523 634 535 602.50Q547 571 547 537Q547 485 509 437Q486 405 452 384Q507 363 542 314M122 679L122 400L353 400Q387 400 420.50 416.50Q454 433 474 462Q501 501 501 550Q501 597 464 636Q439 662 415 670.50Q391 679 353 679L122 679M497 94Q536 138 536 190Q536 246 506 288Q486 320 447 339.50Q408 359 372 359L122 359L122 42L312 42L356 42Q407 42 438 51.50Q469 61 497 94Z"  horiz-adv-x="611" vert-adv-y="960"  />

      
      <glyph glyph-name="uni43" unicode="&#x43;" d="M667 216Q652 153 611 98Q569 42 504.50 13.50Q440-15 363-15Q287-15 224 13Q161 41 116 98Q77 150 58.50 214.50Q40 279 40 348Q40 521 116 621Q159 677 223 706Q287 735 363 735Q439 735 504.50 706Q570 677 611 621Q654 564 672 486L628 479Q614 545 577 595Q541 643 483 667.50Q425 692 359 692Q297 692 241 667Q185 642 151 595Q86 511 86 360Q86 210 151 124Q187 76 244 51.50Q301 27 367 27Q430 27 486 52Q542 77 577 124Q609 169 625 228L667 216Z"  horiz-adv-x="712" vert-adv-y="960"  />

      
      <glyph glyph-name="uni0106" unicode="&#x0106;" d="M474 879L457 914L257 821L274 786L474 879M667 216Q652 153 611 98Q569 42 504.50 13.50Q440-15 363-15Q287-15 224 13Q161 41 116 98Q77 150 58.50 214.50Q40 279 40 348Q40 521 116 621Q159 677 223 706Q287 735 363 735Q439 735 504.50 706Q570 677 611 621Q654 564 672 486L628 479Q614 545 577 595Q541 643 483 667.50Q425 692 359 692Q297 692 241 667Q185 642 151 595Q86 511 86 360Q86 210 151 124Q187 76 244 51.50Q301 27 367 27Q430 27 486 52Q542 77 577 124Q609 169 625 228L667 216Z"  horiz-adv-x="712" vert-adv-y="960"  />

      
      <glyph glyph-name="uni010C" unicode="&#x010C;" d="M243 877L366 786L489 877L466 909L366 835L266 909L243 877M667 216Q652 153 611 98Q569 42 504.50 13.50Q440-15 363-15Q287-15 224 13Q161 41 116 98Q77 150 58.50 214.50Q40 279 40 348Q40 521 116 621Q159 677 223 706Q287 735 363 735Q439 735 504.50 706Q570 677 611 621Q654 564 672 486L628 479Q614 545 577 595Q541 643 483 667.50Q425 692 359 692Q297 692 241 667Q185 642 151 595Q86 511 86 360Q86 210 151 124Q187 76 244 51.50Q301 27 367 27Q430 27 486 52Q542 77 577 124Q609 169 625 228L667 216Z"  horiz-adv-x="712" vert-adv-y="960"  />

      
      <glyph glyph-name="unic7" unicode="&#xc7;" d="M577 124Q609 169 625 228L667 216Q652 153 611 98Q574 48 518.50 20Q463-8 397-14L376-71Q408-84 424-114Q434-131 434-153Q434-181 419-202Q407-221 384.50-231Q362-241 340-239Q317-238 288-225L302-188Q332-198 346-198Q373-198 384-178Q392-165 392-153Q392-143 387-133Q380-119 368.50-113Q357-107 325-96L355-15Q202-12 116 98Q77 150 58.50 214.50Q40 279 40 348Q40 521 116 621Q159 677 223 706Q287 735 363 735Q439 735 504.50 706Q570 677 611 621Q654 564 672 486L628 479Q614 545 577 595Q541 643 483 667.50Q425 692 359 692Q297 692 241 667Q185 642 151 595Q86 511 86 360Q86 210 151 124Q187 76 244 51.50Q301 27 367 27Q430 27 486 52Q542 77 577 124Z"  horiz-adv-x="712" vert-adv-y="960"  />

      
      <glyph glyph-name="uni010A" unicode="&#x010A;" d="M396 925L396 865L336 865L336 925L396 925M667 216Q652 153 611 98Q569 42 504.50 13.50Q440-15 363-15Q287-15 224 13Q161 41 116 98Q77 150 58.50 214.50Q40 279 40 348Q40 521 116 621Q159 677 223 706Q287 735 363 735Q439 735 504.50 706Q570 677 611 621Q654 564 672 486L628 479Q614 545 577 595Q541 643 483 667.50Q425 692 359 692Q297 692 241 667Q185 642 151 595Q86 511 86 360Q86 210 151 124Q187 76 244 51.50Q301 27 367 27Q430 27 486 52Q542 77 577 124Q609 169 625 228L667 216Z"  horiz-adv-x="712" vert-adv-y="960"  />

      
      <glyph glyph-name="uni44" unicode="&#x44;" d="M581 537Q620 462 622 361Q620 259 581 184Q539 100 459 50Q379 0 284 0L80 0L80 720L284 720Q379 720 459 670.50Q539 621 581 537M542 204Q577 271 577 361Q577 450 542 517Q503 592 434.50 635Q366 678 281 678L122 678L122 44L281 44Q366 44 435 86.50Q504 129 542 204Z"  horiz-adv-x="662" vert-adv-y="960"  />

      
      <glyph glyph-name="unid0" unicode="&#xd0;" d="M570 537Q609 462 611 361Q609 259 570 184Q528 100 448 50Q368 0 273 0L69 0L69 339L10 339L10 381L69 381L69 720L273 720Q368 720 448 670.50Q528 621 570 537M531 204Q566 271 566 361Q566 450 531 517Q492 592 423.50 635Q355 678 270 678L111 678L111 381L310 381L310 339L111 339L111 44L270 44Q355 44 424 86.50Q493 129 531 204Z"  horiz-adv-x="651" vert-adv-y="960"  />

      
      <glyph glyph-name="uni010E" unicode="&#x010E;" d="M301 786L178 877L201 909L301 835L401 909L424 877L301 786M581 537Q620 462 622 361Q620 259 581 184Q539 100 459 50Q379 0 284 0L80 0L80 720L284 720Q379 720 459 670.50Q539 621 581 537M542 204Q577 271 577 361Q577 450 542 517Q503 592 434.50 635Q366 678 281 678L122 678L122 44L281 44Q366 44 435 86.50Q504 129 542 204Z"  horiz-adv-x="662" vert-adv-y="960"  />

      
      <glyph glyph-name="uni0110" unicode="&#x0110;" d="M570 537Q609 462 611 361Q609 259 570 184Q528 100 448 50Q368 0 273 0L69 0L69 339L10 339L10 381L69 381L69 720L273 720Q368 720 448 670.50Q528 621 570 537M531 204Q566 271 566 361Q566 450 531 517Q492 592 423.50 635Q355 678 270 678L111 678L111 381L310 381L310 339L111 339L111 44L270 44Q355 44 424 86.50Q493 129 531 204Z"  horiz-adv-x="651" vert-adv-y="960"  />

      
      <glyph glyph-name="uni45" unicode="&#x45;" d="M122 678L122 381L450 381L450 339L122 339L122 42L510 42L510 0L80 0L80 720L510 720L510 678L122 678Z"  horiz-adv-x="570" vert-adv-y="960"  />

      
      <glyph glyph-name="unic9" unicode="&#xc9;" d="M195 786L178 821L378 914L395 879L195 786M122 678L122 381L450 381L450 339L122 339L122 42L510 42L510 0L80 0L80 720L510 720L510 678L122 678Z"  horiz-adv-x="570" vert-adv-y="960"  />

      
      <glyph glyph-name="uni011A" unicode="&#x011A;" d="M290 786L167 877L190 909L290 835L390 909L413 877L290 786M122 678L122 381L450 381L450 339L122 339L122 42L510 42L510 0L80 0L80 720L510 720L510 678L122 678Z"  horiz-adv-x="570" vert-adv-y="960"  />

      
      <glyph glyph-name="unica" unicode="&#xca;" d="M174 786L151 818L274 909L397 818L374 786L274 860L174 786M122 678L122 381L450 381L450 339L122 339L122 42L510 42L510 0L80 0L80 720L510 720L510 678L122 678Z"  horiz-adv-x="570" vert-adv-y="960"  />

      
      <glyph glyph-name="unicb" unicode="&#xcb;" d="M215 840L155 840L155 900L215 900L215 840M395 840L335 840L335 900L395 900L395 840M122 678L122 381L450 381L450 339L122 339L122 42L510 42L510 0L80 0L80 720L510 720L510 678L122 678Z"  horiz-adv-x="570" vert-adv-y="960"  />

      
      <glyph glyph-name="uni0116" unicode="&#x0116;" d="M325 840L265 840L265 900L325 900L325 840M122 678L122 381L450 381L450 339L122 339L122 42L510 42L510 0L80 0L80 720L510 720L510 678L122 678Z"  horiz-adv-x="570" vert-adv-y="960"  />

      
      <glyph glyph-name="unic8" unicode="&#xc8;" d="M360 786L160 879L177 914L377 821L360 786M122 678L122 381L450 381L450 339L122 339L122 42L510 42L510 0L80 0L80 720L510 720L510 678L122 678Z"  horiz-adv-x="570" vert-adv-y="960"  />

      
      <glyph glyph-name="uni0112" unicode="&#x0112;" d="M410 840L170 840L170 882L410 882L410 840M122 678L122 381L450 381L450 339L122 339L122 42L510 42L510 0L80 0L80 720L510 720L510 678L122 678Z"  horiz-adv-x="570" vert-adv-y="960"  />

      
      <glyph glyph-name="uni0118" unicode="&#x0118;" d="M122 678L122 381L450 381L450 339L122 339L122 42L510 42L510 0L480 0Q449-24 421-60Q391-101 382-134Q378-148 378-155Q378-173 390-185Q404-199 421-199Q447-199 476-172L502-201Q482-221 457-232Q438-240 420-240Q383-240 361-215Q337-191 337-156Q337-143 342-123Q360-61 421 0L80 0L80 720L510 720L510 678L122 678Z"  horiz-adv-x="570" vert-adv-y="960"  />

      
      <glyph glyph-name="uni46" unicode="&#x46;" d="M122 678L122 381L420 381L420 339L122 339L122 0L80 0L80 720L480 720L480 678L122 678Z"  horiz-adv-x="500" vert-adv-y="960"  />

      
      <glyph glyph-name="uni47" unicode="&#x47;" d="M685 360L685 337Q678 190 609 100Q563 41 500 13Q437-15 362-15Q284-15 219 14Q154 43 116 100Q40 196 40 360Q40 524 116 620Q154 677 218.50 706Q283 735 362 735Q520 735 609 620Q633 589 645 561L606 544Q602 551 592.50 567.50Q583 584 576 594Q540 642 483 667Q426 692 362 692Q299 692 242 666.50Q185 641 149 594Q115 551 100.50 491.50Q86 432 83 360Q86 288 100.50 228.50Q115 169 149 126Q185 79 242 53.50Q299 28 362 28Q426 28 483 53Q540 78 576 126Q628 199 638 318L445 318L445 360L685 360Z"  horiz-adv-x="725" vert-adv-y="960"  />

      
      <glyph glyph-name="uni011E" unicode="&#x011E;" d="M363 780Q316 780 282.50 813.50Q249 847 249 894L288 894Q288 863 310 841Q332 819 363 819Q394 819 416 841Q438 863 438 894L477 894Q477 847 443.50 813.50Q410 780 363 780M685 360L685 337Q678 190 609 100Q563 41 500 13Q437-15 362-15Q284-15 219 14Q154 43 116 100Q40 196 40 360Q40 524 116 620Q154 677 218.50 706Q283 735 362 735Q520 735 609 620Q633 589 645 561L606 544Q602 551 592.50 567.50Q583 584 576 594Q540 642 483 667Q426 692 362 692Q299 692 242 666.50Q185 641 149 594Q115 551 100.50 491.50Q86 432 83 360Q86 288 100.50 228.50Q115 169 149 126Q185 79 242 53.50Q299 28 362 28Q426 28 483 53Q540 78 576 126Q628 199 638 318L445 318L445 360L685 360Z"  horiz-adv-x="725" vert-adv-y="960"  />

      
      <glyph glyph-name="uni0122" unicode="&#x0122;" d="M685 360L685 337Q678 190 609 100Q563 41 500 13Q437-15 362-15Q284-15 219 14Q154 43 116 100Q40 196 40 360Q40 524 116 620Q154 677 218.50 706Q283 735 362 735Q520 735 609 620Q633 589 645 561L606 544Q602 551 592.50 567.50Q583 584 576 594Q540 642 483 667Q426 692 362 692Q299 692 242 666.50Q185 641 149 594Q115 551 100.50 491.50Q86 432 83 360Q86 288 100.50 228.50Q115 169 149 126Q185 79 242 53.50Q299 28 362 28Q426 28 483 53Q540 78 576 126Q628 199 638 318L445 318L445 360L685 360M324-90L384-90L384-150Q384-185 365-202Q346-219 324-219L324-189Q335-189 346-179Q357-169 355-150L324-150L324-90Z"  horiz-adv-x="725" vert-adv-y="960"  />

      
      <glyph glyph-name="uni0120" unicode="&#x0120;" d="M393 840L333 840L333 900L393 900L393 840M685 360L685 337Q678 190 609 100Q563 41 500 13Q437-15 362-15Q284-15 219 14Q154 43 116 100Q40 196 40 360Q40 524 116 620Q154 677 218.50 706Q283 735 362 735Q520 735 609 620Q633 589 645 561L606 544Q602 551 592.50 567.50Q583 584 576 594Q540 642 483 667Q426 692 362 692Q299 692 242 666.50Q185 641 149 594Q115 551 100.50 491.50Q86 432 83 360Q86 288 100.50 228.50Q115 169 149 126Q185 79 242 53.50Q299 28 362 28Q426 28 483 53Q540 78 576 126Q628 199 638 318L445 318L445 360L685 360Z"  horiz-adv-x="725" vert-adv-y="960"  />

      
      <glyph glyph-name="uni48" unicode="&#x48;" d="M600 720L600 0L558 0L558 287L122 287L122 0L80 0L80 720L122 720L122 329L558 329L558 720L600 720Z"  horiz-adv-x="680" vert-adv-y="960"  />

      
      <glyph glyph-name="uni0126" unicode="&#x0126;" d="M670 498L600 498L600 0L558 0L558 287L122 287L122 0L80 0L80 498L10 498L10 540L80 540L80 720L122 720L122 540L558 540L558 720L600 720L600 540L670 540L670 498M558 498L122 498L122 329L558 329L558 498Z"  horiz-adv-x="680" vert-adv-y="960"  />

      
      <glyph glyph-name="uni49" unicode="&#x49;" d="M112 720L112 0L70 0L70 720L112 720Z"  horiz-adv-x="182" vert-adv-y="960"  />

      
      <glyph glyph-name="unicd" unicode="&#xcd;" d="M199 879L182 914L-18 821L-1 786L199 879M112 720L112 0L70 0L70 720L112 720Z"  horiz-adv-x="182" vert-adv-y="960"  />

      
      <glyph glyph-name="unice" unicode="&#xce;" d="M91 860L191 786L214 818L91 909L-32 818L-9 786L91 860M112 720L112 0L70 0L70 720L112 720Z"  horiz-adv-x="182" vert-adv-y="960"  />

      
      <glyph glyph-name="unicf" unicode="&#xcf;" d="M31 900L31 840L-29 840L-29 900L31 900M211 900L211 840L151 840L151 900L211 900M112 720L112 0L70 0L70 720L112 720Z"  horiz-adv-x="182" vert-adv-y="960"  />

      
      <glyph glyph-name="uni0130" unicode="&#x0130;" d="M121 900L121 840L61 840L61 900L121 900M112 720L112 0L70 0L70 720L112 720Z"  horiz-adv-x="182" vert-adv-y="960"  />

      
      <glyph glyph-name="unicc" unicode="&#xcc;" d="M199 821L-1 914L-18 879L182 786L199 821M112 720L112 0L70 0L70 720L112 720Z"  horiz-adv-x="182" vert-adv-y="960"  />

      
      <glyph glyph-name="uni012A" unicode="&#x012A;" d="M211 882L211 840L-29 840L-29 882L211 882M112 720L112 0L70 0L70 720L112 720Z"  horiz-adv-x="182" vert-adv-y="960"  />

      
      <glyph glyph-name="uni012E" unicode="&#x012E;" d="M134-201Q114-221 89-232Q70-240 52-240Q15-240-7-215Q-31-191-31-156Q-31-143-26-123Q-5-52 70 16L70 720L112 720L112 0Q81-24 53-60Q23-101 14-134Q10-148 10-155Q10-173 22-185Q36-199 53-199Q79-199 108-172L134-201Z"  horiz-adv-x="182" vert-adv-y="960"  />

      
      <glyph glyph-name="uni4a" unicode="&#x4a;" d="M313 720L313 212Q313 163 310.50 142Q308 121 296 98Q278 65 246.50 46.50Q215 28 177 28Q138 28 106 48Q82 63 65.50 86Q49 109 43 135L0 125Q8 89 30 59Q52 29 84 11Q125-14 179-14Q229-14 269 8.50Q309 31 333 73Q350 103 354 132Q358 161 358 212L358 720L313 720Z"  horiz-adv-x="439" vert-adv-y="960"  />

      
      <glyph glyph-name="uni4b" unicode="&#x4b;" d="M122 354L122 0L80 0L80 720L122 720L122 396L346 396L557 720L607 720L383 375L626 0L576 0L346 354L122 354Z"  horiz-adv-x="626" vert-adv-y="960"  />

      
      <glyph glyph-name="uni0136" unicode="&#x0136;" d="M122 354L122 0L80 0L80 720L122 720L122 396L346 396L557 720L607 720L383 375L626 0L576 0L346 354L122 354M352-150Q352-185 333-202Q314-219 292-219L292-189Q303-189 314-179Q325-169 323-150L292-150L292-90L352-90L352-150Z"  horiz-adv-x="626" vert-adv-y="960"  />

      
      <glyph glyph-name="uni4c" unicode="&#x4c;" d="M80 720L80 0L480 0L480 42L122 42L122 720L80 720Z"  horiz-adv-x="495" vert-adv-y="960"  />

      
      <glyph glyph-name="uni0139" unicode="&#x0139;" d="M297 879L280 914L80 821L97 786L297 879M80 720L80 0L480 0L480 42L122 42L122 720L80 720Z"  horiz-adv-x="495" vert-adv-y="960"  />

      
      <glyph glyph-name="uni013D" unicode="&#x013D;" d="M80 720L80 0L480 0L480 42L122 42L122 720L80 720M377 610Q377 582 364.50 566Q352 550 329 550Q321 550 317 551L320 577Q341 576 346 589Q351 602 350.50 618.50Q350 635 350 640L317 640L317 730L377 730L377 610Z"  horiz-adv-x="495" vert-adv-y="960"  />

      
      <glyph glyph-name="uni013B" unicode="&#x013B;" d="M80 720L80 0L480 0L480 42L122 42L122 720L80 720M310-150Q310-185 291-202Q272-219 250-219L250-189Q261-189 272-179Q283-169 281-150L250-150L250-90L310-90L310-150Z"  horiz-adv-x="495" vert-adv-y="960"  />

      
      <glyph glyph-name="uni0141" unicode="&#x0141;" d="M480 42L480 0L80 0L80 230L30 180L0 210L80 290L80 720L122 720L122 332L331 540L361 511L122 272L122 42L480 42Z"  horiz-adv-x="495" vert-adv-y="960"  />

      
      <glyph glyph-name="uni4d" unicode="&#x4d;" d="M771 1L729 1L729 619L449 0L402 0L122 619L122 0L80 0L80 720L120 720L426 51L729 720L771 720L771 1Z"  horiz-adv-x="851" vert-adv-y="960"  />

      
      <glyph glyph-name="uni4e" unicode="&#x4e;" d="M530 78L530 720L572 720L572 0L533 0L122 642L122 0L80 0L80 720L119 720L530 78Z"  horiz-adv-x="652" vert-adv-y="960"  />

      
      <glyph glyph-name="uni0143" unicode="&#x0143;" d="M450 879L433 914L233 821L250 786L450 879M530 78L530 720L572 720L572 0L533 0L122 642L122 0L80 0L80 720L119 720L530 78Z"  horiz-adv-x="652" vert-adv-y="960"  />

      
      <glyph glyph-name="uni0147" unicode="&#x0147;" d="M203 877L326 786L449 877L426 909L326 835L226 909L203 877M530 78L530 720L572 720L572 0L533 0L122 642L122 0L80 0L80 720L119 720L530 78Z"  horiz-adv-x="652" vert-adv-y="960"  />

      
      <glyph glyph-name="uni0145" unicode="&#x0145;" d="M530 78L530 720L572 720L572 0L533 0L122 642L122 0L80 0L80 720L119 720L530 78M356-150Q356-185 337-202Q318-219 296-219L296-189Q307-189 318-179Q329-169 327-150L296-150L296-90L356-90L356-150Z"  horiz-adv-x="652" vert-adv-y="960"  />

      
      <glyph glyph-name="uni014A" unicode="&#x014A;" d="M572 720L572-95Q572-135 558.50-154Q545-173 520-178Q511-179 496-179Q478-179 455-174L455-133Q472-136 484-136Q512-136 521-118.50Q530-101 530-55Q530-8 502 39L469 96L475 90L122 642L122 0L80 0L80 720L119 720L530 78L530 720L572 720Z"  horiz-adv-x="652" vert-adv-y="960"  />

      
      <glyph glyph-name="unid1" unicode="&#xd1;" d="M463 895Q466 886 466 876Q466 861 458 845Q450 832 436.50 824.50Q423 817 409 816Q388 814 369.50 818.50Q351 823 328 833Q298 846 284.50 850.50Q271 855 258 855Q242 855 234.50 847Q227 839 227 828Q227 821 230 815L194 815Q191 824 191 834Q191 849 199 865Q207 878 220.50 885.50Q234 893 248 894Q269 896 287.50 891.50Q306 887 329 877Q359 864 372.50 859.50Q386 855 399 855Q415 855 422.50 863Q430 871 430 882Q430 889 427 895L463 895M530 78L530 720L572 720L572 0L533 0L122 642L122 0L80 0L80 720L119 720L530 78Z"  horiz-adv-x="652" vert-adv-y="960"  />

      
      <glyph glyph-name="uni4f" unicode="&#x4f;" d="M363-15Q284-15 220.50 13.50Q157 42 116 99Q40 199 40 367Q40 522 116 621Q157 676 220 705Q283 734 356 734Q435 734 501.50 706Q568 678 611 621Q686 524 686 353Q686 198 611 99Q570 43 506 14Q442-15 363-15M359 27Q426 27 483 51.50Q540 76 575 125Q641 210 641 367Q641 510 575 594Q541 641 485.50 666.50Q430 692 367 692Q301 692 243 667Q185 642 150 594Q85 510 85 353Q85 207 150 125Q184 78 240.50 52.50Q297 27 359 27Z"  horiz-adv-x="726" vert-adv-y="960"  />

      
      <glyph glyph-name="unid3" unicode="&#xd3;" d="M482 879L465 914L265 821L282 786L482 879M363-15Q284-15 220.50 13.50Q157 42 116 99Q40 199 40 367Q40 522 116 621Q157 676 220 705Q283 734 356 734Q435 734 501.50 706Q568 678 611 621Q686 524 686 353Q686 198 611 99Q570 43 506 14Q442-15 363-15M359 27Q426 27 483 51.50Q540 76 575 125Q641 210 641 367Q641 510 575 594Q541 641 485.50 666.50Q430 692 367 692Q301 692 243 667Q185 642 150 594Q85 510 85 353Q85 207 150 125Q184 78 240.50 52.50Q297 27 359 27Z"  horiz-adv-x="726" vert-adv-y="960"  />

      
      <glyph glyph-name="unid4" unicode="&#xd4;" d="M363 860L463 786L486 818L363 909L240 818L263 786L363 860M363-15Q284-15 220.50 13.50Q157 42 116 99Q40 199 40 367Q40 522 116 621Q157 676 220 705Q283 734 356 734Q435 734 501.50 706Q568 678 611 621Q686 524 686 353Q686 198 611 99Q570 43 506 14Q442-15 363-15M359 27Q426 27 483 51.50Q540 76 575 125Q641 210 641 367Q641 510 575 594Q541 641 485.50 666.50Q430 692 367 692Q301 692 243 667Q185 642 150 594Q85 510 85 353Q85 207 150 125Q184 78 240.50 52.50Q297 27 359 27Z"  horiz-adv-x="726" vert-adv-y="960"  />

      
      <glyph glyph-name="unid6" unicode="&#xd6;" d="M303 900L303 840L243 840L243 900L303 900M483 900L483 840L423 840L423 900L483 900M363-15Q284-15 220.50 13.50Q157 42 116 99Q40 199 40 367Q40 522 116 621Q157 676 220 705Q283 734 356 734Q435 734 501.50 706Q568 678 611 621Q686 524 686 353Q686 198 611 99Q570 43 506 14Q442-15 363-15M359 27Q426 27 483 51.50Q540 76 575 125Q641 210 641 367Q641 510 575 594Q541 641 485.50 666.50Q430 692 367 692Q301 692 243 667Q185 642 150 594Q85 510 85 353Q85 207 150 125Q184 78 240.50 52.50Q297 27 359 27Z"  horiz-adv-x="726" vert-adv-y="960"  />

      
      <glyph glyph-name="unid2" unicode="&#xd2;" d="M492 821L292 914L275 879L475 786L492 821M363-15Q284-15 220.50 13.50Q157 42 116 99Q40 199 40 367Q40 522 116 621Q157 676 220 705Q283 734 356 734Q435 734 501.50 706Q568 678 611 621Q686 524 686 353Q686 198 611 99Q570 43 506 14Q442-15 363-15M359 27Q426 27 483 51.50Q540 76 575 125Q641 210 641 367Q641 510 575 594Q541 641 485.50 666.50Q430 692 367 692Q301 692 243 667Q185 642 150 594Q85 510 85 353Q85 207 150 125Q184 78 240.50 52.50Q297 27 359 27Z"  horiz-adv-x="726" vert-adv-y="960"  />

      
      <glyph glyph-name="uni0150" unicode="&#x0150;" d="M392 886L365 914L270 821L297 793L392 886M527 886L500 914L405 821L432 793L527 886M363-15Q284-15 220.50 13.50Q157 42 116 99Q40 199 40 367Q40 522 116 621Q157 676 220 705Q283 734 356 734Q435 734 501.50 706Q568 678 611 621Q686 524 686 353Q686 198 611 99Q570 43 506 14Q442-15 363-15M359 27Q426 27 483 51.50Q540 76 575 125Q641 210 641 367Q641 510 575 594Q541 641 485.50 666.50Q430 692 367 692Q301 692 243 667Q185 642 150 594Q85 510 85 353Q85 207 150 125Q184 78 240.50 52.50Q297 27 359 27Z"  horiz-adv-x="726" vert-adv-y="960"  />

      
      <glyph glyph-name="uni014C" unicode="&#x014C;" d="M483 882L483 840L243 840L243 882L483 882M363-15Q284-15 220.50 13.50Q157 42 116 99Q40 199 40 367Q40 522 116 621Q157 676 220 705Q283 734 356 734Q435 734 501.50 706Q568 678 611 621Q686 524 686 353Q686 198 611 99Q570 43 506 14Q442-15 363-15M359 27Q426 27 483 51.50Q540 76 575 125Q641 210 641 367Q641 510 575 594Q541 641 485.50 666.50Q430 692 367 692Q301 692 243 667Q185 642 150 594Q85 510 85 353Q85 207 150 125Q184 78 240.50 52.50Q297 27 359 27Z"  horiz-adv-x="726" vert-adv-y="960"  />

      
      <glyph glyph-name="unid8" unicode="&#xd8;" d="M629 595Q686 500 686 353Q686 198 611 99Q570 43 506 14Q442-15 363-15Q287-15 225.50 11Q164 37 123 90L62 29L32 59L98 125Q40 219 40 367Q40 522 116 621Q157 676 220 705Q283 734 356 734Q431 734 496 708Q561 682 604 629L664 689L694 660L629 595M85 351Q85 233 129 156L572 598Q538 643 483 667.50Q428 692 367 692Q301 692 243 667Q185 642 150 594Q85 512 85 351M641 368Q641 484 596 562L153 120Q188 75 243 51Q298 27 359 27Q425 27 482.50 52Q540 77 575 125Q641 209 641 368Z"  horiz-adv-x="726" vert-adv-y="960"  />

      
      <glyph glyph-name="unid5" unicode="&#xd5;" d="M498 920Q501 911 501 901Q501 886 493 870Q485 857 471.50 849.50Q458 842 444 841Q423 839 404.50 843.50Q386 848 363 858Q333 871 319.50 875.50Q306 880 293 880Q277 880 269.50 872Q262 864 262 853Q262 846 265 840L229 840Q226 849 226 859Q226 874 234 890Q242 903 255.50 910.50Q269 918 283 919Q304 921 322.50 916.50Q341 912 364 902Q394 889 407.50 884.50Q421 880 434 880Q450 880 457.50 888Q465 896 465 907Q465 914 462 920L498 920M363-15Q284-15 220.50 13.50Q157 42 116 99Q40 199 40 367Q40 522 116 621Q157 676 220 705Q283 734 356 734Q435 734 501.50 706Q568 678 611 621Q686 524 686 353Q686 198 611 99Q570 43 506 14Q442-15 363-15M359 27Q426 27 483 51.50Q540 76 575 125Q641 210 641 367Q641 510 575 594Q541 641 485.50 666.50Q430 692 367 692Q301 692 243 667Q185 642 150 594Q85 510 85 353Q85 207 150 125Q184 78 240.50 52.50Q297 27 359 27Z"  horiz-adv-x="726" vert-adv-y="960"  />

      
      <glyph glyph-name="uni0152" unicode="&#x0152;" d="M688 678L688 381L1016 381L1016 339L688 339L688 42L1076 42L1076 0L646 0L646 156Q629 122 611 99Q570 43 506 14Q442-15 363-15Q284-15 220.50 13.50Q157 42 116 99Q40 199 40 367Q40 522 116 621Q157 676 220 705Q283 734 356 734Q435 734 501.50 706Q568 678 611 621Q632 594 646 563L646 720L1076 720L1076 678L688 678M641 367Q641 510 575 594Q541 641 485.50 666.50Q430 692 367 692Q301 692 243 667Q185 642 150 594Q85 510 85 353Q85 207 150 125Q184 78 240.50 52.50Q297 27 359 27Q426 27 483 51.50Q540 76 575 125Q641 210 641 367Z"  horiz-adv-x="1136" vert-adv-y="960"  />

      
      <glyph glyph-name="uni50" unicode="&#x50;" d="M513 660Q545 630 563 589Q581 548 581 504Q581 464 566 426.50Q551 389 524 359Q495 326 452 307Q409 288 365 288L122 288L122 0L80 0L80 720L365 720Q404 720 442 705Q482 690 513 660M495 392Q514 415 525 443Q536 471 536 500Q536 537 522.50 570Q509 603 483 629Q460 652 428.50 665Q397 678 365 678L122 678L122 330L365 330Q402 330 436.50 346.50Q471 363 495 392Z"  horiz-adv-x="621" vert-adv-y="960"  />

      
      <glyph glyph-name="unide" unicode="&#xde;" d="M483 516Q515 486 533 445Q551 404 551 360Q551 320 536 282.50Q521 245 494 215Q465 182 422 163Q379 144 335 144L122 144L122 0L80 0L80 720L122 720L122 576L335 576Q374 576 412 561Q452 546 483 516M465 248Q484 271 495 299Q506 327 506 356Q506 393 492.50 426Q479 459 453 485Q430 508 398.50 521Q367 534 335 534L122 534L122 186L335 186Q372 186 406.50 202.50Q441 219 465 248Z"  horiz-adv-x="591" vert-adv-y="960"  />

      
      <glyph glyph-name="uni51" unicode="&#x51;" d="M611 99Q605 91 601 87L669 19L637-14L569 54Q488-15 363-15Q284-15 220.50 13.50Q157 42 116 99Q40 199 40 367Q40 522 116 621Q157 676 220 705Q283 734 356 734Q435 734 501.50 706Q568 678 611 621Q686 524 686 353Q686 198 611 99M359 27Q410 27 456 41.50Q502 56 537 85L454 168L487 201L570 118L575 125Q641 210 641 367Q641 510 575 594Q541 641 485.50 666.50Q430 692 367 692Q301 692 243 667Q185 642 150 594Q85 510 85 353Q85 207 150 125Q184 78 240.50 52.50Q297 27 359 27Z"  horiz-adv-x="726" vert-adv-y="960"  />

      
      <glyph glyph-name="uni52" unicode="&#x52;" d="M524 359Q488 319 435 300L581 0L531 0L391 290Q373 288 365 288L122 288L122 0L80 0L80 720L365 720Q404 720 442 705Q482 690 513 660Q545 630 563 589Q581 548 581 504Q581 464 566 426.50Q551 389 524 359M365 330Q402 330 436.50 346.50Q471 363 495 392Q514 415 525 443Q536 471 536 500Q536 537 522.50 570Q509 603 483 629Q460 652 428.50 665Q397 678 365 678L122 678L122 330L365 330Z"  horiz-adv-x="591" vert-adv-y="960"  />

      
      <glyph glyph-name="uni0154" unicode="&#x0154;" d="M194 786L177 821L377 914L394 879L194 786M524 359Q488 319 435 300L581 0L531 0L391 290Q373 288 365 288L122 288L122 0L80 0L80 720L365 720Q404 720 442 705Q482 690 513 660Q545 630 563 589Q581 548 581 504Q581 464 566 426.50Q551 389 524 359M365 330Q402 330 436.50 346.50Q471 363 495 392Q514 415 525 443Q536 471 536 500Q536 537 522.50 570Q509 603 483 629Q460 652 428.50 665Q397 678 365 678L122 678L122 330L365 330Z"  horiz-adv-x="591" vert-adv-y="960"  />

      
      <glyph glyph-name="uni0158" unicode="&#x0158;" d="M286 786L163 877L186 909L286 835L386 909L409 877L286 786M524 359Q488 319 435 300L581 0L531 0L391 290Q373 288 365 288L122 288L122 0L80 0L80 720L365 720Q404 720 442 705Q482 690 513 660Q545 630 563 589Q581 548 581 504Q581 464 566 426.50Q551 389 524 359M365 330Q402 330 436.50 346.50Q471 363 495 392Q514 415 525 443Q536 471 536 500Q536 537 522.50 570Q509 603 483 629Q460 652 428.50 665Q397 678 365 678L122 678L122 330L365 330Z"  horiz-adv-x="591" vert-adv-y="960"  />

      
      <glyph glyph-name="uni0156" unicode="&#x0156;" d="M524 359Q488 319 435 300L581 0L531 0L391 290Q373 288 365 288L122 288L122 0L80 0L80 720L365 720Q404 720 442 705Q482 690 513 660Q545 630 563 589Q581 548 581 504Q581 464 566 426.50Q551 389 524 359M365 330Q402 330 436.50 346.50Q471 363 495 392Q514 415 525 443Q536 471 536 500Q536 537 522.50 570Q509 603 483 629Q460 652 428.50 665Q397 678 365 678L122 678L122 330L365 330M265-90L325-90L325-150Q325-185 306-202Q287-219 265-219L265-189Q276-189 287-179Q298-169 296-150L265-150L265-90Z"  horiz-adv-x="591" vert-adv-y="960"  />

      
      <glyph glyph-name="uni53" unicode="&#x53;" d="M516 529Q484 619 416 660Q391 676 357.50 684.50Q324 693 291 693Q222 693 175 668Q144 651 124.50 620Q105 589 105 555Q105 503 138 470Q171 437 249 413L380 374Q459 353 508 305Q532 282 546.50 249.50Q561 217 561 184Q561 140 540.50 99Q520 58 485 33Q452 8 405-3.50Q358-15 307-15Q236-15 178 10.50Q120 36 84 87Q47 137 30 213L72 225Q86 155 118 112Q149 68 198.50 47.50Q248 27 308 27Q351 27 392 37.50Q433 48 460 67Q487 86 501.50 117.50Q516 149 516 183Q516 236 477 275Q439 314 368 334L237 373Q190 389 161.50 402Q133 415 107 439Q84 461 72 493Q60 525 60 557Q60 600 87 641Q114 682 155 704Q209 735 290 735Q330 735 369 725Q408 715 438 696Q520 646 557 540L516 529Z"  horiz-adv-x="591" vert-adv-y="960"  />

      
      <glyph glyph-name="uni015A" unicode="&#x015A;" d="M407 879L390 914L190 821L207 786L407 879M516 529Q484 619 416 660Q391 676 357.50 684.50Q324 693 291 693Q222 693 175 668Q144 651 124.50 620Q105 589 105 555Q105 503 138 470Q171 437 249 413L380 374Q459 353 508 305Q532 282 546.50 249.50Q561 217 561 184Q561 140 540.50 99Q520 58 485 33Q452 8 405-3.50Q358-15 307-15Q236-15 178 10.50Q120 36 84 87Q47 137 30 213L72 225Q86 155 118 112Q149 68 198.50 47.50Q248 27 308 27Q351 27 392 37.50Q433 48 460 67Q487 86 501.50 117.50Q516 149 516 183Q516 236 477 275Q439 314 368 334L237 373Q190 389 161.50 402Q133 415 107 439Q84 461 72 493Q60 525 60 557Q60 600 87 641Q114 682 155 704Q209 735 290 735Q330 735 369 725Q408 715 438 696Q520 646 557 540L516 529Z"  horiz-adv-x="591" vert-adv-y="960"  />

      
      <glyph glyph-name="uni0160" unicode="&#x0160;" d="M185 877L308 786L431 877L408 909L308 835L208 909L185 877M516 529Q484 619 416 660Q391 676 357.50 684.50Q324 693 291 693Q222 693 175 668Q144 651 124.50 620Q105 589 105 555Q105 503 138 470Q171 437 249 413L380 374Q459 353 508 305Q532 282 546.50 249.50Q561 217 561 184Q561 140 540.50 99Q520 58 485 33Q452 8 405-3.50Q358-15 307-15Q236-15 178 10.50Q120 36 84 87Q47 137 30 213L72 225Q86 155 118 112Q149 68 198.50 47.50Q248 27 308 27Q351 27 392 37.50Q433 48 460 67Q487 86 501.50 117.50Q516 149 516 183Q516 236 477 275Q439 314 368 334L237 373Q190 389 161.50 402Q133 415 107 439Q84 461 72 493Q60 525 60 557Q60 600 87 641Q114 682 155 704Q209 735 290 735Q330 735 369 725Q408 715 438 696Q520 646 557 540L516 529Z"  horiz-adv-x="591" vert-adv-y="960"  />

      
      <glyph glyph-name="uni015E" unicode="&#x015E;" d="M508 305Q532 282 546.50 249.50Q561 217 561 184Q561 140 540.50 99Q520 58 485 33Q429-9 334-14L313-71Q345-84 361-114Q371-131 371-153Q371-181 356-202Q344-221 321.50-231Q299-241 277-239Q254-238 225-225L239-188Q269-198 283-198Q310-198 321-178Q329-165 329-153Q329-143 324-133Q317-119 305.50-113Q294-107 262-96L292-15Q226-12 172 13.50Q118 39 84 87Q47 137 30 213L72 225Q86 155 118 112Q149 68 198.50 47.50Q248 27 308 27Q351 27 392 37.50Q433 48 460 67Q487 86 501.50 117.50Q516 149 516 183Q516 236 477 275Q439 314 368 334L237 373Q190 389 161.50 402Q133 415 107 439Q84 461 72 493Q60 525 60 557Q60 600 87 641Q114 682 155 704Q209 735 290 735Q330 735 369 725Q408 715 438 696Q520 646 557 540L516 529Q484 619 416 660Q391 676 357.50 684.50Q324 693 291 693Q222 693 175 668Q144 651 124.50 620Q105 589 105 555Q105 503 138 470Q171 437 249 413L380 374Q459 353 508 305Z"  horiz-adv-x="591" vert-adv-y="960"  />

      
      <glyph glyph-name="uni0218" unicode="&#x0218;" d="M516 529Q484 619 416 660Q391 676 357.50 684.50Q324 693 291 693Q222 693 175 668Q144 651 124.50 620Q105 589 105 555Q105 503 138 470Q171 437 249 413L380 374Q459 353 508 305Q532 282 546.50 249.50Q561 217 561 184Q561 140 540.50 99Q520 58 485 33Q452 8 405-3.50Q358-15 307-15Q236-15 178 10.50Q120 36 84 87Q47 137 30 213L72 225Q86 155 118 112Q149 68 198.50 47.50Q248 27 308 27Q351 27 392 37.50Q433 48 460 67Q487 86 501.50 117.50Q516 149 516 183Q516 236 477 275Q439 314 368 334L237 373Q190 389 161.50 402Q133 415 107 439Q84 461 72 493Q60 525 60 557Q60 600 87 641Q114 682 155 704Q209 735 290 735Q330 735 369 725Q408 715 438 696Q520 646 557 540L516 529M328-150Q328-185 309-202Q290-219 268-219L268-189Q279-189 290-179Q301-169 299-150L268-150L268-90L328-90L328-150Z"  horiz-adv-x="591" vert-adv-y="960"  />

      
      <glyph glyph-name="uni54" unicode="&#x54;" d="M580 678L316 678L316 0L274 0L274 678L10 678L10 720L580 720L580 678Z"  horiz-adv-x="590" vert-adv-y="960"  />

      
      <glyph glyph-name="uni0166" unicode="&#x0166;" d="M316 678L316 381L505 381L505 339L316 339L316 0L274 0L274 339L85 339L85 381L274 381L274 678L10 678L10 720L580 720L580 678L316 678Z"  horiz-adv-x="590" vert-adv-y="960"  />

      
      <glyph glyph-name="uni0164" unicode="&#x0164;" d="M275 786L152 877L175 909L275 835L375 909L398 877L275 786M580 678L316 678L316 0L274 0L274 678L10 678L10 720L580 720L580 678Z"  horiz-adv-x="590" vert-adv-y="960"  />

      
      <glyph glyph-name="uni0162" unicode="&#x0162;" d="M316 0L288-71Q320-84 336-114Q346-131 346-153Q346-181 331-202Q319-221 296.50-231Q274-241 252-239Q229-238 200-225L214-188Q244-198 258-198Q285-198 296-178Q304-165 304-153Q304-143 299-133Q292-119 280.50-113Q269-107 237-96L274 0L274 678L10 678L10 720L580 720L580 678L316 678L316 0Z"  horiz-adv-x="590" vert-adv-y="960"  />

      
      <glyph glyph-name="uni021A" unicode="&#x021A;" d="M580 678L316 678L316 0L274 0L274 678L10 678L10 720L580 720L580 678M245-90L305-90L305-150Q305-185 286-202Q267-219 245-219L245-189Q256-189 267-179Q278-169 276-150L245-150L245-90Z"  horiz-adv-x="590" vert-adv-y="960"  />

      
      <glyph glyph-name="uni55" unicode="&#x55;" d="M630 253Q630 210 613.50 164.50Q597 119 569 84Q532 37 475.50 11Q419-15 358-15Q296-15 238 10.50Q180 36 142 84Q114 117 97 163.50Q80 210 80 253L80 720L122 720L122 305Q122 254 124.50 227Q127 200 138 171Q149 142 174 110Q207 70 255 47Q303 24 355 24Q407 24 455.50 47Q504 70 536 110Q560 140 571.50 169Q583 198 585.50 227Q588 256 588 305L588 720L630 720L630 253Z"  horiz-adv-x="710" vert-adv-y="960"  />

      
      <glyph glyph-name="unida" unicode="&#xda;" d="M445 879L428 914L228 821L245 786L445 879M630 253Q630 210 613.50 164.50Q597 119 569 84Q532 37 475.50 11Q419-15 358-15Q296-15 238 10.50Q180 36 142 84Q114 117 97 163.50Q80 210 80 253L80 720L122 720L122 305Q122 254 124.50 227Q127 200 138 171Q149 142 174 110Q207 70 255 47Q303 24 355 24Q407 24 455.50 47Q504 70 536 110Q560 140 571.50 169Q583 198 585.50 227Q588 256 588 305L588 720L630 720L630 253Z"  horiz-adv-x="710" vert-adv-y="960"  />

      
      <glyph glyph-name="unidb" unicode="&#xdb;" d="M327 860L427 786L450 818L327 909L204 818L227 786L327 860M630 253Q630 210 613.50 164.50Q597 119 569 84Q532 37 475.50 11Q419-15 358-15Q296-15 238 10.50Q180 36 142 84Q114 117 97 163.50Q80 210 80 253L80 720L122 720L122 305Q122 254 124.50 227Q127 200 138 171Q149 142 174 110Q207 70 255 47Q303 24 355 24Q407 24 455.50 47Q504 70 536 110Q560 140 571.50 169Q583 198 585.50 227Q588 256 588 305L588 720L630 720L630 253Z"  horiz-adv-x="710" vert-adv-y="960"  />

      
      <glyph glyph-name="unidc" unicode="&#xdc;" d="M267 900L267 840L207 840L207 900L267 900M447 900L447 840L387 840L387 900L447 900M630 253Q630 210 613.50 164.50Q597 119 569 84Q532 37 475.50 11Q419-15 358-15Q296-15 238 10.50Q180 36 142 84Q114 117 97 163.50Q80 210 80 253L80 720L122 720L122 305Q122 254 124.50 227Q127 200 138 171Q149 142 174 110Q207 70 255 47Q303 24 355 24Q407 24 455.50 47Q504 70 536 110Q560 140 571.50 169Q583 198 585.50 227Q588 256 588 305L588 720L630 720L630 253Z"  horiz-adv-x="710" vert-adv-y="960"  />

      
      <glyph glyph-name="unid9" unicode="&#xd9;" d="M445 821L245 914L228 879L428 786L445 821M630 253Q630 210 613.50 164.50Q597 119 569 84Q532 37 475.50 11Q419-15 358-15Q296-15 238 10.50Q180 36 142 84Q114 117 97 163.50Q80 210 80 253L80 720L122 720L122 305Q122 254 124.50 227Q127 200 138 171Q149 142 174 110Q207 70 255 47Q303 24 355 24Q407 24 455.50 47Q504 70 536 110Q560 140 571.50 169Q583 198 585.50 227Q588 256 588 305L588 720L630 720L630 253Z"  horiz-adv-x="710" vert-adv-y="960"  />

      
      <glyph glyph-name="uni0170" unicode="&#x0170;" d="M369 886L342 914L247 821L274 793L369 886M504 886L477 914L382 821L409 793L504 886M630 253Q630 210 613.50 164.50Q597 119 569 84Q532 37 475.50 11Q419-15 358-15Q296-15 238 10.50Q180 36 142 84Q114 117 97 163.50Q80 210 80 253L80 720L122 720L122 305Q122 254 124.50 227Q127 200 138 171Q149 142 174 110Q207 70 255 47Q303 24 355 24Q407 24 455.50 47Q504 70 536 110Q560 140 571.50 169Q583 198 585.50 227Q588 256 588 305L588 720L630 720L630 253Z"  horiz-adv-x="710" vert-adv-y="960"  />

      
      <glyph glyph-name="uni016A" unicode="&#x016A;" d="M475 882L475 840L235 840L235 882L475 882M630 253Q630 210 613.50 164.50Q597 119 569 84Q532 37 475.50 11Q419-15 358-15Q296-15 238 10.50Q180 36 142 84Q114 117 97 163.50Q80 210 80 253L80 720L122 720L122 305Q122 254 124.50 227Q127 200 138 171Q149 142 174 110Q207 70 255 47Q303 24 355 24Q407 24 455.50 47Q504 70 536 110Q560 140 571.50 169Q583 198 585.50 227Q588 256 588 305L588 720L630 720L630 253Z"  horiz-adv-x="710" vert-adv-y="960"  />

      
      <glyph glyph-name="uni0172" unicode="&#x0172;" d="M630 720L630 253Q630 210 613.50 164.50Q597 119 569 84L559 72L559 72Q543 53 506 11Q469-31 457-49Q423-101 414-134Q410-148 410-155Q410-173 422-185Q436-199 453-199Q479-199 508-172L534-201Q514-221 489-232Q470-240 452-240Q415-240 393-215Q369-191 369-156Q369-143 374-123Q387-81 418-37Q428-23 446-1Q399-15 352-15Q292-15 235.50 11Q179 37 142 84Q114 117 97 163.50Q80 210 80 253L80 720L122 720L122 305Q122 254 124.50 227Q127 200 138 171Q149 142 174 110Q207 70 255 47Q303 24 355 24Q407 24 455.50 47Q504 70 536 110Q560 140 571.50 169Q583 198 585.50 227Q588 256 588 305L588 720L630 720Z"  horiz-adv-x="710" vert-adv-y="960"  />

      
      <glyph glyph-name="uni016E" unicode="&#x016E;" d="M355 929Q396 929 425 900Q454 871 454 830Q454 789 425 760Q396 731 355 731Q314 731 285 760Q256 789 256 830Q256 871 285.50 900Q315 929 355 929M355 890Q330 890 312.50 872.50Q295 855 295 830Q295 805 312.50 787.50Q330 770 355 770Q380 770 397.50 787.50Q415 805 415 830Q415 855 397.50 872.50Q380 890 355 890M630 253Q630 210 613.50 164.50Q597 119 569 84Q532 37 475.50 11Q419-15 358-15Q296-15 238 10.50Q180 36 142 84Q114 117 97 163.50Q80 210 80 253L80 720L122 720L122 305Q122 254 124.50 227Q127 200 138 171Q149 142 174 110Q207 70 255 47Q303 24 355 24Q407 24 455.50 47Q504 70 536 110Q560 140 571.50 169Q583 198 585.50 227Q588 256 588 305L588 720L630 720L630 253Z"  horiz-adv-x="710" vert-adv-y="960"  />

      
      <glyph glyph-name="uni56" unicode="&#x56;" d="M5 720L50 720L289 61L529 720L574 720L312 0L267 0L5 720Z"  horiz-adv-x="579" vert-adv-y="960"  />

      
      <glyph glyph-name="uni57" unicode="&#x57;" d="M889 720L683 0L639 0L454 643L270 0L226 0L20 720L63 720L248 76L432 720L476 720L661 76L845 720L889 720Z"  horiz-adv-x="909" vert-adv-y="960"  />

      
      <glyph glyph-name="uni1E82" unicode="&#x1E82;" d="M548 879L531 914L331 821L348 786L548 879M889 720L683 0L639 0L454 643L270 0L226 0L20 720L63 720L248 76L432 720L476 720L661 76L845 720L889 720Z"  horiz-adv-x="909" vert-adv-y="960"  />

      
      <glyph glyph-name="uni0174" unicode="&#x0174;" d="M455 860L555 786L578 818L455 909L332 818L355 786L455 860M889 720L683 0L639 0L454 643L270 0L226 0L20 720L63 720L248 76L432 720L476 720L661 76L845 720L889 720Z"  horiz-adv-x="909" vert-adv-y="960"  />

      
      <glyph glyph-name="uni1E84" unicode="&#x1E84;" d="M395 900L395 840L335 840L335 900L395 900M575 900L575 840L515 840L515 900L575 900M889 720L683 0L639 0L454 643L270 0L226 0L20 720L63 720L248 76L432 720L476 720L661 76L845 720L889 720Z"  horiz-adv-x="909" vert-adv-y="960"  />

      
      <glyph glyph-name="uni1E80" unicode="&#x1E80;" d="M553 821L353 914L336 879L536 786L553 821M889 720L683 0L639 0L454 643L270 0L226 0L20 720L63 720L248 76L432 720L476 720L661 76L845 720L889 720Z"  horiz-adv-x="909" vert-adv-y="960"  />

      
      <glyph glyph-name="uni58" unicode="&#x58;" d="M558 0L508 0L281 330L55 0L5 0L258 365L11 720L61 720L281 399L502 720L552 720L305 365L558 0Z"  horiz-adv-x="563" vert-adv-y="960"  />

      
      <glyph glyph-name="uni59" unicode="&#x59;" d="M519 720L281 306L281 0L239 0L239 306L0 720L48 720L260 354L471 720L519 720Z"  horiz-adv-x="519" vert-adv-y="960"  />

      
      <glyph glyph-name="unidd" unicode="&#xdd;" d="M378 879L361 914L161 821L178 786L378 879M519 720L281 306L281 0L239 0L239 306L0 720L48 720L260 354L471 720L519 720Z"  horiz-adv-x="519" vert-adv-y="960"  />

      
      <glyph glyph-name="uni0176" unicode="&#x0176;" d="M260 860L360 786L383 818L260 909L137 818L160 786L260 860M519 720L281 306L281 0L239 0L239 306L0 720L48 720L260 354L471 720L519 720Z"  horiz-adv-x="519" vert-adv-y="960"  />

      
      <glyph glyph-name="uni0178" unicode="&#x0178;" d="M200 900L200 840L140 840L140 900L200 900M380 900L380 840L320 840L320 900L380 900M519 720L281 306L281 0L239 0L239 306L0 720L48 720L260 354L471 720L519 720Z"  horiz-adv-x="519" vert-adv-y="960"  />

      
      <glyph glyph-name="uni1EF2" unicode="&#x1EF2;" d="M378 821L178 914L161 879L361 786L378 821M519 720L281 306L281 0L239 0L239 306L0 720L48 720L260 354L471 720L519 720Z"  horiz-adv-x="519" vert-adv-y="960"  />

      
      <glyph glyph-name="uni5a" unicode="&#x5a;" d="M541 41L541 0L60 0L60 42L490 678L60 678L60 720L541 720L541 678L111 41L541 41Z"  horiz-adv-x="601" vert-adv-y="960"  />

      
      <glyph glyph-name="uni0179" unicode="&#x0179;" d="M429 879L412 914L212 821L229 786L429 879M541 41L541 0L60 0L60 42L490 678L60 678L60 720L541 720L541 678L111 41L541 41Z"  horiz-adv-x="601" vert-adv-y="960"  />

      
      <glyph glyph-name="uni017D" unicode="&#x017D;" d="M193 877L316 786L439 877L416 909L316 835L216 909L193 877M541 41L541 0L60 0L60 42L490 678L60 678L60 720L541 720L541 678L111 41L541 41Z"  horiz-adv-x="601" vert-adv-y="960"  />

      
      <glyph glyph-name="uni017B" unicode="&#x017B;" d="M347 900L347 840L287 840L287 900L347 900M541 41L541 0L60 0L60 42L490 678L60 678L60 720L541 720L541 678L111 41L541 41Z"  horiz-adv-x="601" vert-adv-y="960"  />

      
      <glyph glyph-name="uni61" unicode="&#x61;" d="M68 439Q77 455 87 468Q121 511 169.50 532.50Q218 554 276 554Q353 554 410 522Q467 490 492 425Q507 382 507 338L507 0L468 0L468 118Q448 84 418 58Q388 32 353 16Q288-14 230-14Q180-14 134.50 7.50Q89 29 65 68Q40 110 40 157Q40 243 114 288Q149 308 190 317.50Q231 327 309 339L332 342L461 360Q454 430 412 467Q387 490 351.50 501Q316 512 276 512Q229 512 188 493.50Q147 475 122 441Q112 427 108 420L68 439M312 297Q241 287 194.50 275Q148 263 116 235Q84 207 84 158Q84 110 119 72.50Q154 35 204 27Q220 25 229 25Q288 25 346 57.50Q404 90 433 140Q455 180 460 215Q465 250 465 318L312 297Z"  horiz-adv-x="567" vert-adv-y="960"  />

      
      <glyph glyph-name="unie1" unicode="&#xe1;" d="M392 699L375 734L175 641L192 606L392 699M68 439Q77 455 87 468Q121 511 169.50 532.50Q218 554 276 554Q353 554 410 522Q467 490 492 425Q507 382 507 338L507 0L468 0L468 118Q448 84 418 58Q388 32 353 16Q288-14 230-14Q180-14 134.50 7.50Q89 29 65 68Q40 110 40 157Q40 243 114 288Q149 308 190 317.50Q231 327 309 339L332 342L461 360Q454 430 412 467Q387 490 351.50 501Q316 512 276 512Q229 512 188 493.50Q147 475 122 441Q112 427 108 420L68 439M312 297Q241 287 194.50 275Q148 263 116 235Q84 207 84 158Q84 110 119 72.50Q154 35 204 27Q220 25 229 25Q288 25 346 57.50Q404 90 433 140Q455 180 460 215Q465 250 465 318L312 297Z"  horiz-adv-x="567" vert-adv-y="960"  />

      
      <glyph glyph-name="uni0103" unicode="&#x0103;" d="M404 714Q404 667 370.50 633.50Q337 600 290 600Q243 600 209.50 633.50Q176 667 176 714L215 714Q215 683 237 661Q259 639 290 639Q321 639 343 661Q365 683 365 714L404 714M68 439Q77 455 87 468Q121 511 169.50 532.50Q218 554 276 554Q353 554 410 522Q467 490 492 425Q507 382 507 338L507 0L468 0L468 118Q448 84 418 58Q388 32 353 16Q288-14 230-14Q180-14 134.50 7.50Q89 29 65 68Q40 110 40 157Q40 243 114 288Q149 308 190 317.50Q231 327 309 339L332 342L461 360Q454 430 412 467Q387 490 351.50 501Q316 512 276 512Q229 512 188 493.50Q147 475 122 441Q112 427 108 420L68 439M312 297Q241 287 194.50 275Q148 263 116 235Q84 207 84 158Q84 110 119 72.50Q154 35 204 27Q220 25 229 25Q288 25 346 57.50Q404 90 433 140Q455 180 460 215Q465 250 465 318L312 297Z"  horiz-adv-x="567" vert-adv-y="960"  />

      
      <glyph glyph-name="unie2" unicode="&#xe2;" d="M289 680L389 606L412 638L289 729L166 638L189 606L289 680M68 439Q77 455 87 468Q121 511 169.50 532.50Q218 554 276 554Q353 554 410 522Q467 490 492 425Q507 382 507 338L507 0L468 0L468 118Q448 84 418 58Q388 32 353 16Q288-14 230-14Q180-14 134.50 7.50Q89 29 65 68Q40 110 40 157Q40 243 114 288Q149 308 190 317.50Q231 327 309 339L332 342L461 360Q454 430 412 467Q387 490 351.50 501Q316 512 276 512Q229 512 188 493.50Q147 475 122 441Q112 427 108 420L68 439M312 297Q241 287 194.50 275Q148 263 116 235Q84 207 84 158Q84 110 119 72.50Q154 35 204 27Q220 25 229 25Q288 25 346 57.50Q404 90 433 140Q455 180 460 215Q465 250 465 318L312 297Z"  horiz-adv-x="567" vert-adv-y="960"  />

      
      <glyph glyph-name="unie4" unicode="&#xe4;" d="M230 720L230 660L170 660L170 720L230 720M410 720L410 660L350 660L350 720L410 720M68 439Q77 455 87 468Q121 511 169.50 532.50Q218 554 276 554Q353 554 410 522Q467 490 492 425Q507 382 507 338L507 0L468 0L468 118Q448 84 418 58Q388 32 353 16Q288-14 230-14Q180-14 134.50 7.50Q89 29 65 68Q40 110 40 157Q40 243 114 288Q149 308 190 317.50Q231 327 309 339L332 342L461 360Q454 430 412 467Q387 490 351.50 501Q316 512 276 512Q229 512 188 493.50Q147 475 122 441Q112 427 108 420L68 439M312 297Q241 287 194.50 275Q148 263 116 235Q84 207 84 158Q84 110 119 72.50Q154 35 204 27Q220 25 229 25Q288 25 346 57.50Q404 90 433 140Q455 180 460 215Q465 250 465 318L312 297Z"  horiz-adv-x="567" vert-adv-y="960"  />

      
      <glyph glyph-name="unie0" unicode="&#xe0;" d="M417 641L217 734L200 699L400 606L417 641M68 439Q77 455 87 468Q121 511 169.50 532.50Q218 554 276 554Q353 554 410 522Q467 490 492 425Q507 382 507 338L507 0L468 0L468 118Q448 84 418 58Q388 32 353 16Q288-14 230-14Q180-14 134.50 7.50Q89 29 65 68Q40 110 40 157Q40 243 114 288Q149 308 190 317.50Q231 327 309 339L332 342L461 360Q454 430 412 467Q387 490 351.50 501Q316 512 276 512Q229 512 188 493.50Q147 475 122 441Q112 427 108 420L68 439M312 297Q241 287 194.50 275Q148 263 116 235Q84 207 84 158Q84 110 119 72.50Q154 35 204 27Q220 25 229 25Q288 25 346 57.50Q404 90 433 140Q455 180 460 215Q465 250 465 318L312 297Z"  horiz-adv-x="567" vert-adv-y="960"  />

      
      <glyph glyph-name="uni0101" unicode="&#x0101;" d="M414 702L414 660L174 660L174 702L414 702M68 439Q77 455 87 468Q121 511 169.50 532.50Q218 554 276 554Q353 554 410 522Q467 490 492 425Q507 382 507 338L507 0L468 0L468 118Q448 84 418 58Q388 32 353 16Q288-14 230-14Q180-14 134.50 7.50Q89 29 65 68Q40 110 40 157Q40 243 114 288Q149 308 190 317.50Q231 327 309 339L332 342L461 360Q454 430 412 467Q387 490 351.50 501Q316 512 276 512Q229 512 188 493.50Q147 475 122 441Q112 427 108 420L68 439M312 297Q241 287 194.50 275Q148 263 116 235Q84 207 84 158Q84 110 119 72.50Q154 35 204 27Q220 25 229 25Q288 25 346 57.50Q404 90 433 140Q455 180 460 215Q465 250 465 318L312 297Z"  horiz-adv-x="567" vert-adv-y="960"  />

      
      <glyph glyph-name="uni0105" unicode="&#x0105;" d="M529-201Q509-221 484-232Q465-240 447-240Q410-240 388-215Q364-191 364-156Q364-143 369-123Q380-86 406.50-49Q433-12 468 18L468 118Q448 84 418 58Q388 32 353 16Q288-14 230-14Q180-14 134.50 7.50Q89 29 65 68Q40 110 40 157Q40 243 114 288Q149 308 190 317.50Q231 327 309 339L332 342L461 360Q454 430 412 467Q387 490 351.50 501Q316 512 276 512Q229 512 188 493.50Q147 475 122 441Q112 427 108 420L68 439Q77 455 87 468Q121 511 169.50 532.50Q218 554 276 554Q353 554 410 522Q467 490 492 425Q507 382 507 338L507 0Q476-24 448-60Q418-101 409-134Q405-148 405-155Q405-173 417-185Q431-199 448-199Q474-199 503-172L529-201M433 140Q455 180 460 215Q465 250 465 318L312 297Q241 287 194.50 275Q148 263 116 235Q84 207 84 158Q84 110 119 72.50Q154 35 204 27Q220 25 229 25Q288 25 346 57.50Q404 90 433 140Z"  horiz-adv-x="567" vert-adv-y="960"  />

      
      <glyph glyph-name="unie5" unicode="&#xe5;" d="M492 425Q507 382 507 338L507 0L468 0L468 118Q448 84 418 58Q388 32 353 16Q288-14 230-14Q180-14 134.50 7.50Q89 29 65 68Q40 110 40 157Q40 243 114 288Q149 308 190 317.50Q231 327 309 339L332 342L461 360Q454 430 412 467Q387 490 351.50 501Q316 512 276 512Q229 512 188 493.50Q147 475 122 441Q112 427 108 420L68 439Q77 455 87 468Q135 528 210 546Q182 576 182 615Q182 656 211.50 685Q241 714 281 714Q322 714 351 685Q380 656 380 615Q380 575 352 545Q455 519 492 425M281 675Q256 675 238.50 657.50Q221 640 221 615Q221 590 238.50 572.50Q256 555 281 555Q306 555 323.50 572.50Q341 590 341 615Q341 640 323.50 657.50Q306 675 281 675M433 140Q455 180 460 215Q465 250 465 318L312 297Q241 287 194.50 275Q148 263 116 235Q84 207 84 158Q84 110 119 72.50Q154 35 204 27Q220 25 229 25Q288 25 346 57.50Q404 90 433 140Z"  horiz-adv-x="567" vert-adv-y="960"  />

      
      <glyph glyph-name="unie3" unicode="&#xe3;" d="M428 715Q431 706 431 696Q431 681 423 665Q415 652 401.50 644.50Q388 637 374 636Q353 634 334.50 638.50Q316 643 293 653Q263 666 249.50 670.50Q236 675 223 675Q207 675 199.50 667Q192 659 192 648Q192 641 195 635L159 635Q156 644 156 654Q156 669 164 685Q172 698 185.50 705.50Q199 713 213 714Q234 716 252.50 711.50Q271 707 294 697Q324 684 337.50 679.50Q351 675 364 675Q380 675 387.50 683Q395 691 395 702Q395 709 392 715L428 715M68 439Q77 455 87 468Q121 511 169.50 532.50Q218 554 276 554Q353 554 410 522Q467 490 492 425Q507 382 507 338L507 0L468 0L468 118Q448 84 418 58Q388 32 353 16Q288-14 230-14Q180-14 134.50 7.50Q89 29 65 68Q40 110 40 157Q40 243 114 288Q149 308 190 317.50Q231 327 309 339L332 342L461 360Q454 430 412 467Q387 490 351.50 501Q316 512 276 512Q229 512 188 493.50Q147 475 122 441Q112 427 108 420L68 439M312 297Q241 287 194.50 275Q148 263 116 235Q84 207 84 158Q84 110 119 72.50Q154 35 204 27Q220 25 229 25Q288 25 346 57.50Q404 90 433 140Q455 180 460 215Q465 250 465 318L312 297Z"  horiz-adv-x="567" vert-adv-y="960"  />

      
      <glyph glyph-name="unie6" unicode="&#xe6;" d="M870 469Q922 394 924 270L924 258L500 258Q503 157 545 98Q569 64 608 45.50Q647 27 691 27Q735 27 774 45.50Q813 64 837 98Q850 117 858 135L895 118Q886 95 870 72Q840 30 792.50 7.50Q745-15 691-15Q637-15 590 7.50Q543 30 513 72Q489 103 476 145Q468 127 466 123Q428 49 356 14Q300-14 226-14L204-13Q102 0 66 62Q40 100 40 143Q40 175 54 209Q69 245 102.50 266.50Q136 288 182 294Q215 298 258.50 299Q302 300 348 300L459 300Q458 367 446 404Q434 441 405 468Q381 490 344.50 501Q308 512 267 512Q223 512 183.50 494.50Q144 477 117 443Q111 437 102 420L62 439Q73 458 82 469Q114 511 164 532.50Q214 554 270 554Q373 554 434 501Q470 468 486 423Q500 452 513 469Q545 512 590.50 533.50Q636 555 691 555Q746 555 791.50 533.50Q837 512 870 469M545 442Q506 388 501 300L880 300Q875 391 837 442Q813 477 774 495.50Q735 514 691 513Q647 514 608 495.50Q569 477 545 442M429 142Q456 195 458 260L367 260Q227 260 188 255Q121 246 96 194Q85 170 85 146Q85 112 103 85Q119 60 149.50 44Q180 28 209 26Q217 25 232 25Q290 25 338 49Q365 63 390 89Q415 115 429 142Z"  horiz-adv-x="964" vert-adv-y="960"  />

      
      <glyph glyph-name="uni62" unicode="&#x62;" d="M499 468Q556 394 556 271Q556 148 499 73Q465 30 416.50 7.50Q368-15 311-15Q254-15 206.50 9Q159 33 128 78Q121 88 109 110L109 0L70 0L70 720L112 720L112 437Q118 449 128 464Q160 508 210.50 531.50Q261 555 319 555Q373 555 420 532Q467 509 499 468M464 100Q511 160 511 271Q511 382 464 442Q438 476 397.50 494.50Q357 513 311 513Q264 513 222.50 495Q181 477 156 442Q109 380 109 271Q109 161 156 99Q182 64 223 45.50Q264 27 311 27Q357 27 397.50 46Q438 65 464 100Z"  horiz-adv-x="596" vert-adv-y="960"  />

      
      <glyph glyph-name="uni63" unicode="&#x63;" d="M464 404Q457 421 441 442Q416 476 376 494.50Q336 513 291 513Q242 513 200.50 495.50Q159 478 133 442Q87 382 85 270Q87 158 133 98Q159 63 199.50 45Q240 27 287 27Q334 27 374.50 45Q415 63 441 98Q452 112 463 135L504 117Q491 91 476 72Q443 29 394 7Q345-15 287-15Q229-15 180 7Q131 29 98 72Q42 144 40 270Q42 395 98 469Q165 555 287 555Q345 555 393.50 533.50Q442 512 476 469Q495 443 504 421L464 404Z"  horiz-adv-x="539" vert-adv-y="960"  />

      
      <glyph glyph-name="uni0107" unicode="&#x0107;" d="M396 699L379 734L179 641L196 606L396 699M464 404Q457 421 441 442Q416 476 376 494.50Q336 513 291 513Q242 513 200.50 495.50Q159 478 133 442Q87 382 85 270Q87 158 133 98Q159 63 199.50 45Q240 27 287 27Q334 27 374.50 45Q415 63 441 98Q452 112 463 135L504 117Q491 91 476 72Q443 29 394 7Q345-15 287-15Q229-15 180 7Q131 29 98 72Q42 144 40 270Q42 395 98 469Q165 555 287 555Q345 555 393.50 533.50Q442 512 476 469Q495 443 504 421L464 404Z"  horiz-adv-x="539" vert-adv-y="960"  />

      
      <glyph glyph-name="uni010D" unicode="&#x010D;" d="M169 697L292 606L415 697L392 729L292 655L192 729L169 697M464 404Q457 421 441 442Q416 476 376 494.50Q336 513 291 513Q242 513 200.50 495.50Q159 478 133 442Q87 382 85 270Q87 158 133 98Q159 63 199.50 45Q240 27 287 27Q334 27 374.50 45Q415 63 441 98Q452 112 463 135L504 117Q491 91 476 72Q443 29 394 7Q345-15 287-15Q229-15 180 7Q131 29 98 72Q42 144 40 270Q42 395 98 469Q165 555 287 555Q345 555 393.50 533.50Q442 512 476 469Q495 443 504 421L464 404Z"  horiz-adv-x="539" vert-adv-y="960"  />

      
      <glyph glyph-name="unie7" unicode="&#xe7;" d="M441 98Q452 112 463 135L504 117Q491 91 476 72Q421 1 327-12L305-71Q337-84 353-114Q363-131 363-153Q363-181 348-202Q336-221 313.50-231Q291-241 269-239Q246-238 217-225L231-188Q261-198 275-198Q302-198 313-178Q321-165 321-153Q321-143 316-133Q309-119 297.50-113Q286-107 254-96L284-15Q226-14 178 7.50Q130 29 98 72Q42 144 40 270Q42 395 98 469Q165 555 287 555Q345 555 393.50 533.50Q442 512 476 469Q495 443 504 421L464 404Q457 421 441 442Q416 476 376 494.50Q336 513 291 513Q242 513 200.50 495.50Q159 478 133 442Q87 382 85 270Q87 158 133 98Q159 63 199.50 45Q240 27 287 27Q334 27 374.50 45Q415 63 441 98Z"  horiz-adv-x="539" vert-adv-y="960"  />

      
      <glyph glyph-name="uni010B" unicode="&#x010B;" d="M322 720L322 660L262 660L262 720L322 720M464 404Q457 421 441 442Q416 476 376 494.50Q336 513 291 513Q242 513 200.50 495.50Q159 478 133 442Q87 382 85 270Q87 158 133 98Q159 63 199.50 45Q240 27 287 27Q334 27 374.50 45Q415 63 441 98Q452 112 463 135L504 117Q491 91 476 72Q443 29 394 7Q345-15 287-15Q229-15 180 7Q131 29 98 72Q42 144 40 270Q42 395 98 469Q165 555 287 555Q345 555 393.50 533.50Q442 512 476 469Q495 443 504 421L464 404Z"  horiz-adv-x="539" vert-adv-y="960"  />

      
      <glyph glyph-name="uni64" unicode="&#x64;" d="M526 720L526 0L487 0L487 110Q475 88 468 78Q437 33 389.50 9Q342-15 285-15Q228-15 179.50 7.50Q131 30 97 73Q40 148 40 271Q40 394 97 468Q129 509 176 532Q223 555 277 555Q335 555 385.50 531.50Q436 508 468 464Q478 449 484 437L484 720L526 720M440 99Q487 161 487 271Q487 380 440 442Q415 477 373.50 495Q332 513 285 513Q239 513 198.50 494.50Q158 476 132 442Q85 382 85 271Q85 160 132 100Q158 65 198.50 46Q239 27 285 27Q332 27 373 45.50Q414 64 440 99Z"  horiz-adv-x="596" vert-adv-y="960"  />

      
      <glyph glyph-name="unif0" unicode="&#xf0;" d="M488 572Q509 532 521 471.50Q533 411 533 336L533 253Q533 197 518 147.50Q503 98 472 62Q440 24 391.50 4.50Q343-15 291-15Q236-15 185.50 4Q135 23 101 62Q42 131 40 252Q42 374 101 442Q135 481 184.50 500.50Q234 520 287 519Q340 520 389.50 500.50Q439 481 472 442Q477 437 485 425Q477 498 450 553Q418 618 361 653L303 579L270 605L322 672Q279 689 230 692L235 733Q302 728 350 707L409 782L442 756L387 687Q453 644 488 572M439 90Q488 149 488 253Q488 357 439 414Q413 445 374 461Q335 477 291 477Q244 477 202.50 461.50Q161 446 134 414Q85 357 85 252Q85 149 134 90Q160 59 200.50 43Q241 27 287 27Q332 27 372.50 43Q413 59 439 90Z"  horiz-adv-x="573" vert-adv-y="960"  />

      
      <glyph glyph-name="uni010F" unicode="&#x010F;" d="M526 720L526 0L487 0L487 110Q475 88 468 78Q437 33 389.50 9Q342-15 285-15Q228-15 179.50 7.50Q131 30 97 73Q40 148 40 271Q40 394 97 468Q129 509 176 532Q223 555 277 555Q335 555 385.50 531.50Q436 508 468 464Q478 449 484 437L484 720L526 720M440 99Q487 161 487 271Q487 380 440 442Q415 477 373.50 495Q332 513 285 513Q239 513 198.50 494.50Q158 476 132 442Q85 382 85 271Q85 160 132 100Q158 65 198.50 46Q239 27 285 27Q332 27 373 45.50Q414 64 440 99M680 610Q680 582 667.50 566Q655 550 632 550Q624 550 620 551L623 577Q644 576 649 589Q654 602 653.50 618.50Q653 635 653 640L620 640L620 730L680 730L680 610Z"  horiz-adv-x="673" vert-adv-y="960"  />

      
      <glyph glyph-name="uni0111" unicode="&#x0111;" d="M580 600L526 600L526 0L487 0L487 110Q475 88 468 78Q437 33 389.50 9Q342-15 285-15Q228-15 179.50 7.50Q131 30 97 73Q40 148 40 271Q40 394 97 468Q129 509 176 532Q223 555 277 555Q335 555 385.50 531.50Q436 508 468 464Q478 449 484 437L484 600L340 600L340 642L484 642L484 720L526 720L526 642L580 642L580 600M440 99Q487 161 487 271Q487 380 440 442Q415 477 373.50 495Q332 513 285 513Q239 513 198.50 494.50Q158 476 132 442Q85 382 85 271Q85 160 132 100Q158 65 198.50 46Q239 27 285 27Q332 27 373 45.50Q414 64 440 99Z"  horiz-adv-x="596" vert-adv-y="960"  />

      
      <glyph glyph-name="uni65" unicode="&#x65;" d="M476 469Q531 395 533 270L533 258L85 258Q89 156 132 98Q158 64 199 45.50Q240 27 287 27Q333 27 374 45.50Q415 64 441 98Q454 115 463 135L503 118Q492 92 476 72Q444 30 394 7.50Q344-15 287-15Q230-15 180.50 7.50Q131 30 98 72Q42 144 40 270Q42 395 98 469Q132 512 180.50 533.50Q229 555 287 555Q345 555 393.50 533.50Q442 512 476 469M132 442Q91 387 86 300L487 300Q482 389 441 442Q416 476 375.50 494.50Q335 513 290 513Q242 513 200 495Q158 477 132 442Z"  horiz-adv-x="573" vert-adv-y="960"  />

      
      <glyph glyph-name="unie9" unicode="&#xe9;" d="M195 606L178 641L378 734L395 699L195 606M476 469Q531 395 533 270L533 258L85 258Q89 156 132 98Q158 64 199 45.50Q240 27 287 27Q333 27 374 45.50Q415 64 441 98Q454 115 463 135L503 118Q492 92 476 72Q444 30 394 7.50Q344-15 287-15Q230-15 180.50 7.50Q131 30 98 72Q42 144 40 270Q42 395 98 469Q132 512 180.50 533.50Q229 555 287 555Q345 555 393.50 533.50Q442 512 476 469M132 442Q91 387 86 300L487 300Q482 389 441 442Q416 476 375.50 494.50Q335 513 290 513Q242 513 200 495Q158 477 132 442Z"  horiz-adv-x="573" vert-adv-y="960"  />

      
      <glyph glyph-name="uni011B" unicode="&#x011B;" d="M302 606L179 697L202 729L302 655L402 729L425 697L302 606M476 469Q531 395 533 270L533 258L85 258Q89 156 132 98Q158 64 199 45.50Q240 27 287 27Q333 27 374 45.50Q415 64 441 98Q454 115 463 135L503 118Q492 92 476 72Q444 30 394 7.50Q344-15 287-15Q230-15 180.50 7.50Q131 30 98 72Q42 144 40 270Q42 395 98 469Q132 512 180.50 533.50Q229 555 287 555Q345 555 393.50 533.50Q442 512 476 469M132 442Q91 387 86 300L487 300Q482 389 441 442Q416 476 375.50 494.50Q335 513 290 513Q242 513 200 495Q158 477 132 442Z"  horiz-adv-x="573" vert-adv-y="960"  />

      
      <glyph glyph-name="uniea" unicode="&#xea;" d="M187 606L164 638L287 729L410 638L387 606L287 680L187 606M476 469Q531 395 533 270L533 258L85 258Q89 156 132 98Q158 64 199 45.50Q240 27 287 27Q333 27 374 45.50Q415 64 441 98Q454 115 463 135L503 118Q492 92 476 72Q444 30 394 7.50Q344-15 287-15Q230-15 180.50 7.50Q131 30 98 72Q42 144 40 270Q42 395 98 469Q132 512 180.50 533.50Q229 555 287 555Q345 555 393.50 533.50Q442 512 476 469M132 442Q91 387 86 300L487 300Q482 389 441 442Q416 476 375.50 494.50Q335 513 290 513Q242 513 200 495Q158 477 132 442Z"  horiz-adv-x="573" vert-adv-y="960"  />

      
      <glyph glyph-name="unieb" unicode="&#xeb;" d="M227 660L167 660L167 720L227 720L227 660M407 660L347 660L347 720L407 720L407 660M476 469Q531 395 533 270L533 258L85 258Q89 156 132 98Q158 64 199 45.50Q240 27 287 27Q333 27 374 45.50Q415 64 441 98Q454 115 463 135L503 118Q492 92 476 72Q444 30 394 7.50Q344-15 287-15Q230-15 180.50 7.50Q131 30 98 72Q42 144 40 270Q42 395 98 469Q132 512 180.50 533.50Q229 555 287 555Q345 555 393.50 533.50Q442 512 476 469M132 442Q91 387 86 300L487 300Q482 389 441 442Q416 476 375.50 494.50Q335 513 290 513Q242 513 200 495Q158 477 132 442Z"  horiz-adv-x="573" vert-adv-y="960"  />

      
      <glyph glyph-name="uni0117" unicode="&#x0117;" d="M317 660L257 660L257 720L317 720L317 660M476 469Q531 395 533 270L533 258L85 258Q89 156 132 98Q158 64 199 45.50Q240 27 287 27Q333 27 374 45.50Q415 64 441 98Q454 115 463 135L503 118Q492 92 476 72Q444 30 394 7.50Q344-15 287-15Q230-15 180.50 7.50Q131 30 98 72Q42 144 40 270Q42 395 98 469Q132 512 180.50 533.50Q229 555 287 555Q345 555 393.50 533.50Q442 512 476 469M132 442Q91 387 86 300L487 300Q482 389 441 442Q416 476 375.50 494.50Q335 513 290 513Q242 513 200 495Q158 477 132 442Z"  horiz-adv-x="573" vert-adv-y="960"  />

      
      <glyph glyph-name="unie8" unicode="&#xe8;" d="M398 606L198 699L215 734L415 641L398 606M476 469Q531 395 533 270L533 258L85 258Q89 156 132 98Q158 64 199 45.50Q240 27 287 27Q333 27 374 45.50Q415 64 441 98Q454 115 463 135L503 118Q492 92 476 72Q444 30 394 7.50Q344-15 287-15Q230-15 180.50 7.50Q131 30 98 72Q42 144 40 270Q42 395 98 469Q132 512 180.50 533.50Q229 555 287 555Q345 555 393.50 533.50Q442 512 476 469M132 442Q91 387 86 300L487 300Q482 389 441 442Q416 476 375.50 494.50Q335 513 290 513Q242 513 200 495Q158 477 132 442Z"  horiz-adv-x="573" vert-adv-y="960"  />

      
      <glyph glyph-name="uni0113" unicode="&#x0113;" d="M417 660L177 660L177 702L417 702L417 660M476 469Q531 395 533 270L533 258L85 258Q89 156 132 98Q158 64 199 45.50Q240 27 287 27Q333 27 374 45.50Q415 64 441 98Q454 115 463 135L503 118Q492 92 476 72Q444 30 394 7.50Q344-15 287-15Q230-15 180.50 7.50Q131 30 98 72Q42 144 40 270Q42 395 98 469Q132 512 180.50 533.50Q229 555 287 555Q345 555 393.50 533.50Q442 512 476 469M132 442Q91 387 86 300L487 300Q482 389 441 442Q416 476 375.50 494.50Q335 513 290 513Q242 513 200 495Q158 477 132 442Z"  horiz-adv-x="573" vert-adv-y="960"  />

      
      <glyph glyph-name="uni0119" unicode="&#x0119;" d="M476 469Q531 395 533 270L533 258L85 258Q89 156 132 98Q158 64 199 45.50Q240 27 287 27Q333 27 374 45.50Q415 64 441 98Q454 115 463 135L503 118Q490 87 466.50 54Q443 21 403-29Q383-53 381-56Q348-105 340-134Q336-148 336-155Q336-173 348-185Q362-199 379-199Q405-199 434-172L460-201Q440-221 415-232Q396-240 378-240Q341-240 319-215Q295-191 295-156Q295-143 300-123Q311-83 344-40Q351-30 366-15L381 2Q335-15 287-15Q230-15 180.50 7.50Q131 30 98 72Q42 144 40 270Q42 395 98 469Q132 512 180.50 533.50Q229 555 287 555Q345 555 393.50 533.50Q442 512 476 469M132 442Q91 387 86 300L487 300Q482 389 441 442Q416 476 375.50 494.50Q335 513 290 513Q242 513 200 495Q158 477 132 442Z"  horiz-adv-x="573" vert-adv-y="960"  />

      
      <glyph glyph-name="uni66" unicode="&#x66;" d="M253 690Q215 682 197.50 658.50Q180 635 180 593L180 540L339 540L339 498L180 498L180 0L138 0L138 498L10 498L10 540L138 540L138 593Q138 667 187 705Q230 734 297 734Q311 734 339 732L339 693Q320 696 301 696Q276 696 253 690Z"  horiz-adv-x="349" vert-adv-y="960"  />

      
      <glyph glyph-name="uni67" unicode="&#x67;" d="M526 540L526 30Q526-63 511.50-110.50Q497-158 455-195Q419-226 372.50-240.50Q326-255 276-255Q217-255 167-232.50Q117-210 84-166Q74-154 64-135L103-116Q109-129 118-140Q144-175 186-193.50Q228-212 276-212Q320-212 359-200Q398-188 427-163Q462-133 472.50-93Q483-53 483 30L483 102L468 78Q437 33 389.50 9Q342-15 285-15Q228-15 179.50 7.50Q131 30 97 73Q40 148 40 271Q40 394 97 468Q129 509 176 532Q223 555 277 555Q335 555 385.50 531.50Q436 508 468 464Q477 451 487 431L487 540L526 540M440 99Q487 161 487 271Q487 380 440 442Q415 477 373.50 495Q332 513 285 513Q239 513 198.50 494.50Q158 476 132 442Q85 382 85 271Q85 160 132 100Q158 65 198.50 46Q239 27 285 27Q332 27 373 45.50Q414 64 440 99Z"  horiz-adv-x="596" vert-adv-y="960"  />

      
      <glyph glyph-name="uni011F" unicode="&#x011F;" d="M302 600Q255 600 221.50 633.50Q188 667 188 714L227 714Q227 683 249 661Q271 639 302 639Q333 639 355 661Q377 683 377 714L416 714Q416 667 382.50 633.50Q349 600 302 600M526 540L526 30Q526-63 511.50-110.50Q497-158 455-195Q419-226 372.50-240.50Q326-255 276-255Q217-255 167-232.50Q117-210 84-166Q74-154 64-135L103-116Q109-129 118-140Q144-175 186-193.50Q228-212 276-212Q320-212 359-200Q398-188 427-163Q462-133 472.50-93Q483-53 483 30L483 102L468 78Q437 33 389.50 9Q342-15 285-15Q228-15 179.50 7.50Q131 30 97 73Q40 148 40 271Q40 394 97 468Q129 509 176 532Q223 555 277 555Q335 555 385.50 531.50Q436 508 468 464Q477 451 487 431L487 540L526 540M440 99Q487 161 487 271Q487 380 440 442Q415 477 373.50 495Q332 513 285 513Q239 513 198.50 494.50Q158 476 132 442Q85 382 85 271Q85 160 132 100Q158 65 198.50 46Q239 27 285 27Q332 27 373 45.50Q414 64 440 99Z"  horiz-adv-x="596" vert-adv-y="960"  />

      
      <glyph glyph-name="uni0123" unicode="&#x0123;" d="M328 600L268 600L268 660Q268 695 287 712Q306 729 328 729L328 699Q317 699 306 689Q295 679 297 660L328 660L328 600M526 540L526 30Q526-63 511.50-110.50Q497-158 455-195Q419-226 372.50-240.50Q326-255 276-255Q217-255 167-232.50Q117-210 84-166Q74-154 64-135L103-116Q109-129 118-140Q144-175 186-193.50Q228-212 276-212Q320-212 359-200Q398-188 427-163Q462-133 472.50-93Q483-53 483 30L483 102L468 78Q437 33 389.50 9Q342-15 285-15Q228-15 179.50 7.50Q131 30 97 73Q40 148 40 271Q40 394 97 468Q129 509 176 532Q223 555 277 555Q335 555 385.50 531.50Q436 508 468 464Q477 451 487 431L487 540L526 540M440 99Q487 161 487 271Q487 380 440 442Q415 477 373.50 495Q332 513 285 513Q239 513 198.50 494.50Q158 476 132 442Q85 382 85 271Q85 160 132 100Q158 65 198.50 46Q239 27 285 27Q332 27 373 45.50Q414 64 440 99Z"  horiz-adv-x="596" vert-adv-y="960"  />

      
      <glyph glyph-name="uni0121" unicode="&#x0121;" d="M333 660L273 660L273 720L333 720L333 660M526 540L526 30Q526-63 511.50-110.50Q497-158 455-195Q419-226 372.50-240.50Q326-255 276-255Q217-255 167-232.50Q117-210 84-166Q74-154 64-135L103-116Q109-129 118-140Q144-175 186-193.50Q228-212 276-212Q320-212 359-200Q398-188 427-163Q462-133 472.50-93Q483-53 483 30L483 102L468 78Q437 33 389.50 9Q342-15 285-15Q228-15 179.50 7.50Q131 30 97 73Q40 148 40 271Q40 394 97 468Q129 509 176 532Q223 555 277 555Q335 555 385.50 531.50Q436 508 468 464Q477 451 487 431L487 540L526 540M440 99Q487 161 487 271Q487 380 440 442Q415 477 373.50 495Q332 513 285 513Q239 513 198.50 494.50Q158 476 132 442Q85 382 85 271Q85 160 132 100Q158 65 198.50 46Q239 27 285 27Q332 27 373 45.50Q414 64 440 99Z"  horiz-adv-x="596" vert-adv-y="960"  />

      
      <glyph glyph-name="uni68" unicode="&#x68;" d="M417 517Q474 478 494.50 414Q515 350 513 263L513 0L471 0L471 263Q471 347 456 399Q441 451 394 483Q350 511 291 511Q257 511 226.50 500Q196 489 173 468Q131 430 119 364Q112 333 112 295L112 0L70 0L70 720L109 720L109 452Q123 476 145 498Q171 523 206 536Q241 549 278 551Q285 552 298 552Q365 552 417 517Z"  horiz-adv-x="563" vert-adv-y="960"  />

      
      <glyph glyph-name="uni0127" unicode="&#x0127;" d="M417 517Q474 478 494.50 414Q515 350 513 263L513 0L471 0L471 263Q471 347 456 399Q441 451 394 483Q350 511 291 511Q257 511 226.50 500Q196 489 173 468Q131 430 119 364Q112 333 112 295L112 0L70 0L70 600L0 600L0 642L70 642L70 720L109 720L109 642L240 642L240 600L109 600L109 452Q123 476 145 498Q171 523 206 536Q241 549 278 551Q285 552 298 552Q365 552 417 517Z"  horiz-adv-x="563" vert-adv-y="960"  />

      
      <glyph glyph-name="uni69" unicode="&#x69;" d="M122 710L122 646L80 646L80 710L122 710M122 540L122 0L80 0L80 540L122 540Z"  horiz-adv-x="202" vert-adv-y="960"  />

      
      <glyph glyph-name="uni0131" unicode="&#x0131;" d="M122 540L122 0L80 0L80 540L122 540Z"  horiz-adv-x="202" vert-adv-y="960"  />

      
      <glyph glyph-name="unied" unicode="&#xed;" d="M209 699L192 734L-8 641L9 606L209 699M122 540L122 0L80 0L80 540L122 540Z"  horiz-adv-x="202" vert-adv-y="960"  />

      
      <glyph glyph-name="uniee" unicode="&#xee;" d="M101 680L201 606L224 638L101 729L-22 638L1 606L101 680M122 540L122 0L80 0L80 540L122 540Z"  horiz-adv-x="202" vert-adv-y="960"  />

      
      <glyph glyph-name="unief" unicode="&#xef;" d="M41 720L41 660L-19 660L-19 720L41 720M221 720L221 660L161 660L161 720L221 720M122 540L122 0L80 0L80 540L122 540Z"  horiz-adv-x="202" vert-adv-y="960"  />

      
      <glyph glyph-name="uniec" unicode="&#xec;" d="M210 641L10 734L-7 699L193 606L210 641M122 540L122 0L80 0L80 540L122 540Z"  horiz-adv-x="202" vert-adv-y="960"  />

      
      <glyph glyph-name="uni012B" unicode="&#x012B;" d="M221 702L221 660L-19 660L-19 702L221 702M122 540L122 0L80 0L80 540L122 540Z"  horiz-adv-x="202" vert-adv-y="960"  />

      
      <glyph glyph-name="uni012F" unicode="&#x012F;" d="M122 646L80 646L80 710L122 710L122 646M144-201Q124-221 99-232Q80-240 62-240Q25-240 3-215Q-21-191-21-156Q-21-143-16-123Q5-52 80 16L80 540L122 540L122 0Q91-24 63-60Q33-101 24-134Q20-148 20-155Q20-173 32-185Q46-199 63-199Q89-199 118-172L144-201Z"  horiz-adv-x="202" vert-adv-y="960"  />

      
      <glyph glyph-name="uni6a" unicode="&#x6a;" d="M145 710L145 646L103 646L103 710L145 710M0-255Q29-255 55-245.50Q81-236 100-217Q128-189 136.50-155.50Q145-122 145-65L145-8L145 540L103 540L103-8L103-46Q103-106 97.50-135Q92-164 70-186Q47-210 0-212L0-255Z"  horiz-adv-x="225" vert-adv-y="960"  />

      
      <glyph glyph-name="uni6b" unicode="&#x6b;" d="M113 0L71 0L70 720L113 720L113 315L248 315L401 540L452 540L284 294L478 0L428 0L248 273L113 273L113 0Z"  horiz-adv-x="478" vert-adv-y="960"  />

      
      <glyph glyph-name="uni0137" unicode="&#x0137;" d="M113 0L71 0L70 720L113 720L113 315L248 315L401 540L452 540L284 294L478 0L428 0L248 273L113 273L113 0M284-150Q284-185 265-202Q246-219 224-219L224-189Q235-189 246-179Q257-169 255-150L224-150L224-90L284-90L284-150Z"  horiz-adv-x="478" vert-adv-y="960"  />

      
      <glyph glyph-name="uni6c" unicode="&#x6c;" d="M112 0L112 735L70 735L70 0L112 0Z"  horiz-adv-x="182" vert-adv-y="960"  />

      
      <glyph glyph-name="uni013A" unicode="&#x013A;" d="M199 879L182 914L-18 821L-1 786L199 879M112 0L112 735L70 735L70 0L112 0Z"  horiz-adv-x="182" vert-adv-y="960"  />

      
      <glyph glyph-name="uni013E" unicode="&#x013E;" d="M112 0L112 735L70 735L70 0L112 0M267 610Q267 582 254.50 566Q242 550 219 550Q211 550 207 551L210 577Q231 576 236 589Q241 602 240.50 618.50Q240 635 240 640L207 640L207 730L267 730L267 610Z"  horiz-adv-x="260" vert-adv-y="960"  />

      
      <glyph glyph-name="uni013C" unicode="&#x013C;" d="M112 0L112 735L70 735L70 0L112 0M121-150Q121-185 102-202Q83-219 61-219L61-189Q72-189 83-179Q94-169 92-150L61-150L61-90L121-90L121-150Z"  horiz-adv-x="182" vert-adv-y="960"  />

      
      <glyph glyph-name="uni0142" unicode="&#x0142;" d="M182 352L182 0L140 0L140 310L10 180L-20 210L140 370L140 735L182 735L182 411L311 540L341 511L182 352Z"  horiz-adv-x="321" vert-adv-y="960"  />

      
      <glyph glyph-name="uni6d" unicode="&#x6d;" d="M684 497Q715 473 729 446.50Q743 420 746.50 391Q750 362 750 311L749 0L709 0L710 311Q710 354 707.50 377.50Q705 401 693.50 422.50Q682 444 657 464Q621 494 574 494Q540 494 510.50 480Q481 466 461 441Q443 417 437 393Q431 369 431 336L431 311L430 0L390 0L391 311Q391 354 388.50 377.50Q386 401 374.50 422.50Q363 444 338 464Q302 494 255 494Q221 494 191.50 480Q162 466 142 441Q124 417 118 393Q112 369 112 336L112 0L70 0L70 540L109 540L109 458L114 464Q138 496 176 514Q214 532 256 532Q318 532 365 497Q399 471 415 437Q425 455 433 464Q457 496 495 514Q533 532 575 532Q637 532 684 497Z"  horiz-adv-x="800" vert-adv-y="960"  />

      
      <glyph glyph-name="uni6e" unicode="&#x6e;" d="M417 517Q474 478 494.50 414Q515 350 513 263L513 0L471 0L471 263Q471 347 456 399Q441 451 394 483Q350 511 291 511Q257 511 226.50 500Q196 489 173 468Q131 430 119 364Q112 333 112 297L112 0L70 0L70 540L109 540L109 452Q123 476 145 498Q171 523 206 536Q241 549 278 551Q285 552 298 552Q365 552 417 517Z"  horiz-adv-x="563" vert-adv-y="960"  />

      
      <glyph glyph-name="uni0144" unicode="&#x0144;" d="M210 606L193 641L393 734L410 699L210 606M417 517Q474 478 494.50 414Q515 350 513 263L513 0L471 0L471 263Q471 347 456 399Q441 451 394 483Q350 511 291 511Q257 511 226.50 500Q196 489 173 468Q131 430 119 364Q112 333 112 297L112 0L70 0L70 540L109 540L109 452Q123 476 145 498Q171 523 206 536Q241 549 278 551Q285 552 298 552Q365 552 417 517Z"  horiz-adv-x="563" vert-adv-y="960"  />

      
      <glyph glyph-name="uni0148" unicode="&#x0148;" d="M297 606L174 697L197 729L297 655L397 729L420 697L297 606M417 517Q474 478 494.50 414Q515 350 513 263L513 0L471 0L471 263Q471 347 456 399Q441 451 394 483Q350 511 291 511Q257 511 226.50 500Q196 489 173 468Q131 430 119 364Q112 333 112 297L112 0L70 0L70 540L109 540L109 452Q123 476 145 498Q171 523 206 536Q241 549 278 551Q285 552 298 552Q365 552 417 517Z"  horiz-adv-x="563" vert-adv-y="960"  />

      
      <glyph glyph-name="uni0146" unicode="&#x0146;" d="M417 517Q474 478 494.50 414Q515 350 513 263L513 0L471 0L471 263Q471 347 456 399Q441 451 394 483Q350 511 291 511Q257 511 226.50 500Q196 489 173 468Q131 430 119 364Q112 333 112 297L112 0L70 0L70 540L109 540L109 452Q123 476 145 498Q171 523 206 536Q241 549 278 551Q285 552 298 552Q365 552 417 517M262-90L322-90L322-150Q322-185 303-202Q284-219 262-219L262-189Q273-189 284-179Q295-169 293-150L262-150L262-90Z"  horiz-adv-x="563" vert-adv-y="960"  />

      
      <glyph glyph-name="uni014B" unicode="&#x014B;" d="M417 517Q474 478 494.50 414Q515 350 513 263L513-95Q513-135 499.50-154Q486-173 461-178Q452-179 437-179Q419-179 396-174L396-133Q413-136 425-136Q453-136 462-118.50Q471-101 471-55L471 263Q471 347 456 399Q441 451 394 483Q350 511 291 511Q257 511 226.50 500Q196 489 173 468Q131 430 119 364Q112 333 112 297L112 0L70 0L70 540L109 540L109 452Q123 476 145 498Q171 523 206 536Q241 549 278 551Q285 552 298 552Q365 552 417 517Z"  horiz-adv-x="563" vert-adv-y="960"  />

      
      <glyph glyph-name="unif1" unicode="&#xf1;" d="M164 635Q161 644 161 654Q161 669 169 685Q177 698 190.50 705.50Q204 713 218 714Q239 716 257.50 711.50Q276 707 299 697Q329 684 342.50 679.50Q356 675 369 675Q385 675 392.50 683Q400 691 400 702Q400 709 397 715L433 715Q436 706 436 696Q436 681 428 665Q420 652 406.50 644.50Q393 637 379 636Q358 634 339.50 638.50Q321 643 298 653Q268 666 254.50 670.50Q241 675 228 675Q212 675 204.50 667Q197 659 197 648Q197 641 200 635L164 635M417 517Q474 478 494.50 414Q515 350 513 263L513 0L471 0L471 263Q471 347 456 399Q441 451 394 483Q350 511 291 511Q257 511 226.50 500Q196 489 173 468Q131 430 119 364Q112 333 112 297L112 0L70 0L70 540L109 540L109 452Q123 476 145 498Q171 523 206 536Q241 549 278 551Q285 552 298 552Q365 552 417 517Z"  horiz-adv-x="563" vert-adv-y="960"  />

      
      <glyph glyph-name="uni6f" unicode="&#x6f;" d="M287-15Q229-15 180 7Q131 29 98 72Q40 147 40 271Q40 394 98 469Q129 510 179 532.50Q229 555 287 555Q345 555 394.50 533Q444 511 476 469Q534 394 534 271Q534 147 476 72Q443 28 394.50 6.50Q346-15 287-15M442 98Q489 159 489 271Q489 382 442 443Q416 477 375 495Q334 513 287 513Q240 513 199 495Q158 477 133 443Q85 380 85 271Q85 161 133 98Q158 64 199 45.50Q240 27 287 27Q334 27 375 45.50Q416 64 442 98Z"  horiz-adv-x="574" vert-adv-y="960"  />

      
      <glyph glyph-name="unif3" unicode="&#xf3;" d="M381 699L364 734L164 641L181 606L381 699M287-15Q229-15 180 7Q131 29 98 72Q40 147 40 271Q40 394 98 469Q129 510 179 532.50Q229 555 287 555Q345 555 394.50 533Q444 511 476 469Q534 394 534 271Q534 147 476 72Q443 28 394.50 6.50Q346-15 287-15M442 98Q489 159 489 271Q489 382 442 443Q416 477 375 495Q334 513 287 513Q240 513 199 495Q158 477 133 443Q85 380 85 271Q85 161 133 98Q158 64 199 45.50Q240 27 287 27Q334 27 375 45.50Q416 64 442 98Z"  horiz-adv-x="574" vert-adv-y="960"  />

      
      <glyph glyph-name="unif4" unicode="&#xf4;" d="M287 680L387 606L410 638L287 729L164 638L187 606L287 680M287-15Q229-15 180 7Q131 29 98 72Q40 147 40 271Q40 394 98 469Q129 510 179 532.50Q229 555 287 555Q345 555 394.50 533Q444 511 476 469Q534 394 534 271Q534 147 476 72Q443 28 394.50 6.50Q346-15 287-15M442 98Q489 159 489 271Q489 382 442 443Q416 477 375 495Q334 513 287 513Q240 513 199 495Q158 477 133 443Q85 380 85 271Q85 161 133 98Q158 64 199 45.50Q240 27 287 27Q334 27 375 45.50Q416 64 442 98Z"  horiz-adv-x="574" vert-adv-y="960"  />

      
      <glyph glyph-name="unif6" unicode="&#xf6;" d="M227 720L227 660L167 660L167 720L227 720M407 720L407 660L347 660L347 720L407 720M287-15Q229-15 180 7Q131 29 98 72Q40 147 40 271Q40 394 98 469Q129 510 179 532.50Q229 555 287 555Q345 555 394.50 533Q444 511 476 469Q534 394 534 271Q534 147 476 72Q443 28 394.50 6.50Q346-15 287-15M442 98Q489 159 489 271Q489 382 442 443Q416 477 375 495Q334 513 287 513Q240 513 199 495Q158 477 133 443Q85 380 85 271Q85 161 133 98Q158 64 199 45.50Q240 27 287 27Q334 27 375 45.50Q416 64 442 98Z"  horiz-adv-x="574" vert-adv-y="960"  />

      
      <glyph glyph-name="unif2" unicode="&#xf2;" d="M410 641L210 734L193 699L393 606L410 641M287-15Q228-15 179.50 6.50Q131 28 98 72Q40 147 40 271Q40 394 98 469Q130 511 179.50 533Q229 555 287 555Q345 555 395 532.50Q445 510 476 469Q534 394 534 271Q534 147 476 72Q443 29 394 7Q345-15 287-15M132 98Q158 64 199 45.50Q240 27 287 27Q334 27 375 45.50Q416 64 441 98Q489 161 489 271Q489 380 441 443Q416 477 375 495Q334 513 287 513Q240 513 199 495Q158 477 132 443Q85 382 85 271Q85 159 132 98Z"  horiz-adv-x="574" vert-adv-y="960"  />

      
      <glyph glyph-name="uni0151" unicode="&#x0151;" d="M307 706L280 734L185 641L212 613L307 706M442 706L415 734L320 641L347 613L442 706M287-15Q229-15 180 7Q131 29 98 72Q40 147 40 271Q40 394 98 469Q129 510 179 532.50Q229 555 287 555Q345 555 394.50 533Q444 511 476 469Q534 394 534 271Q534 147 476 72Q443 28 394.50 6.50Q346-15 287-15M442 98Q489 159 489 271Q489 382 442 443Q416 477 375 495Q334 513 287 513Q240 513 199 495Q158 477 133 443Q85 380 85 271Q85 161 133 98Q158 64 199 45.50Q240 27 287 27Q334 27 375 45.50Q416 64 442 98Z"  horiz-adv-x="574" vert-adv-y="960"  />

      
      <glyph glyph-name="uni014D" unicode="&#x014D;" d="M407 702L407 660L167 660L167 702L407 702M287-15Q229-15 180 7Q131 29 98 72Q40 147 40 271Q40 394 98 469Q129 510 179 532.50Q229 555 287 555Q345 555 394.50 533Q444 511 476 469Q534 394 534 271Q534 147 476 72Q443 28 394.50 6.50Q346-15 287-15M442 98Q489 159 489 271Q489 382 442 443Q416 477 375 495Q334 513 287 513Q240 513 199 495Q158 477 133 443Q85 380 85 271Q85 161 133 98Q158 64 199 45.50Q240 27 287 27Q334 27 375 45.50Q416 64 442 98Z"  horiz-adv-x="574" vert-adv-y="960"  />

      
      <glyph glyph-name="unif8" unicode="&#xf8;" d="M492 445Q534 375 534 271Q534 147 476 72Q443 28 394.50 6.50Q346-15 287-15Q232-15 186 4Q140 23 107 61L46 0L16 30L82 96Q40 166 40 271Q40 394 98 469Q129 510 179 532.50Q229 555 287 555Q341 555 388 536Q435 517 467 480L528 540L558 511L492 445M85 271Q85 186 114 128L437 449Q411 480 371.50 496.50Q332 513 287 513Q240 513 199 495Q158 477 133 443Q85 380 85 271M489 271Q489 357 460 414L138 92Q163 61 202.50 44Q242 27 287 27Q334 27 375 45.50Q416 64 442 98Q489 159 489 271Z"  horiz-adv-x="574" vert-adv-y="960"  />

      
      <glyph glyph-name="unif5" unicode="&#xf5;" d="M422 715Q425 706 425 696Q425 681 417 665Q409 652 395.50 644.50Q382 637 368 636Q347 634 328.50 638.50Q310 643 287 653Q257 666 243.50 670.50Q230 675 217 675Q201 675 193.50 667Q186 659 186 648Q186 641 189 635L153 635Q150 644 150 654Q150 669 158 685Q166 698 179.50 705.50Q193 713 207 714Q228 716 246.50 711.50Q265 707 288 697Q318 684 331.50 679.50Q345 675 358 675Q374 675 381.50 683Q389 691 389 702Q389 709 386 715L422 715M287-15Q229-15 180 7Q131 29 98 72Q40 147 40 271Q40 394 98 469Q129 510 179 532.50Q229 555 287 555Q345 555 394.50 533Q444 511 476 469Q534 394 534 271Q534 147 476 72Q443 28 394.50 6.50Q346-15 287-15M442 98Q489 159 489 271Q489 382 442 443Q416 477 375 495Q334 513 287 513Q240 513 199 495Q158 477 133 443Q85 380 85 271Q85 161 133 98Q158 64 199 45.50Q240 27 287 27Q334 27 375 45.50Q416 64 442 98Z"  horiz-adv-x="574" vert-adv-y="960"  />

      
      <glyph glyph-name="uni0153" unicode="&#x0153;" d="M926 469Q981 395 983 270L983 258L535 258Q539 156 582 98Q608 64 649 45.50Q690 27 737 27Q783 27 824 45.50Q865 64 891 98Q904 115 913 135L953 118Q942 92 926 72Q894 30 844 7.50Q794-15 737-15Q680-15 630.50 7.50Q581 30 548 72Q527 98 512 137Q497 98 476 72Q443 28 394.50 6.50Q346-15 287-15Q229-15 180 7Q131 29 98 72Q40 147 40 271Q40 394 98 469Q129 510 179 532.50Q229 555 287 555Q345 555 394.50 533Q444 511 476 469Q497 443 512 404Q527 443 548 469Q582 512 630.50 533.50Q679 555 737 555Q795 555 843.50 533.50Q892 512 926 469M582 442Q541 387 536 300L937 300Q932 389 891 442Q866 476 825.50 494.50Q785 513 740 513Q692 513 650 495Q608 477 582 442M442 98Q489 159 489 271Q489 382 442 443Q416 477 375 495Q334 513 287 513Q240 513 199 495Q158 477 133 443Q85 380 85 271Q85 161 133 98Q158 64 199 45.50Q240 27 287 27Q334 27 375 45.50Q416 64 442 98Z"  horiz-adv-x="1023" vert-adv-y="960"  />

      
      <glyph glyph-name="uni70" unicode="&#x70;" d="M499 468Q556 394 556 271Q556 148 499 73Q465 30 416.50 7.50Q368-15 311-15Q254-15 206.50 9Q159 33 128 78Q122 86 112 104L112-240L70-240L70 540L109 540L109 431Q119 451 128 464Q160 508 210.50 531.50Q261 555 319 555Q373 555 420 532Q467 509 499 468M464 100Q511 160 511 271Q511 382 464 442Q438 476 397.50 494.50Q357 513 311 513Q264 513 222.50 495Q181 477 156 442Q109 380 109 271Q109 161 156 99Q182 64 223 45.50Q264 27 311 27Q357 27 397.50 46Q438 65 464 100Z"  horiz-adv-x="596" vert-adv-y="960"  />

      
      <glyph glyph-name="unife" unicode="&#xfe;" d="M499 468Q556 394 556 271Q556 148 499 73Q465 30 416.50 7.50Q368-15 311-15Q254-15 206.50 9Q159 33 128 78Q122 86 112 104L112-240L70-240L70 720L112 720L112 437Q118 449 128 464Q160 508 210.50 531.50Q261 555 319 555Q373 555 420 532Q467 509 499 468M464 100Q511 160 511 271Q511 382 464 442Q438 476 397.50 494.50Q357 513 311 513Q264 513 222.50 495Q181 477 156 442Q109 380 109 271Q109 161 156 99Q182 64 223 45.50Q264 27 311 27Q357 27 397.50 46Q438 65 464 100Z"  horiz-adv-x="596" vert-adv-y="960"  />

      
      <glyph glyph-name="uni71" unicode="&#x71;" d="M526 540L526-240L484-240L484 104Q474 86 468 78Q437 33 389.50 9Q342-15 285-15Q228-15 179.50 7.50Q131 30 97 73Q40 148 40 271Q40 394 97 468Q129 509 176 532Q223 555 277 555Q335 555 385.50 531.50Q436 508 468 464Q477 451 487 431L487 540L526 540M440 99Q487 161 487 271Q487 380 440 442Q415 477 373.50 495Q332 513 285 513Q239 513 198.50 494.50Q158 476 132 442Q85 382 85 271Q85 160 132 100Q158 65 198.50 46Q239 27 285 27Q332 27 373 45.50Q414 64 440 99Z"  horiz-adv-x="596" vert-adv-y="960"  />

      
      <glyph glyph-name="uni72" unicode="&#x72;" d="M291 555Q328 555 355 547L355 505Q326 515 291 515Q257 515 225.50 504Q194 493 173 472Q136 439 124.50 396.50Q113 354 112 287L112 0L70 0L70 540L109 540L109 457Q123 480 147 502Q175 528 213 541.50Q251 555 291 555Z"  horiz-adv-x="380" vert-adv-y="960"  />

      
      <glyph glyph-name="uni0155" unicode="&#x0155;" d="M87 606L70 641L270 734L287 699L87 606M291 555Q328 555 355 547L355 505Q326 515 291 515Q257 515 225.50 504Q194 493 173 472Q136 439 124.50 396.50Q113 354 112 287L112 0L70 0L70 540L109 540L109 457Q123 480 147 502Q175 528 213 541.50Q251 555 291 555Z"  horiz-adv-x="380" vert-adv-y="960"  />

      
      <glyph glyph-name="uni0159" unicode="&#x0159;" d="M193 606L70 697L93 729L193 655L293 729L316 697L193 606M291 555Q328 555 355 547L355 505Q326 515 291 515Q257 515 225.50 504Q194 493 173 472Q136 439 124.50 396.50Q113 354 112 287L112 0L70 0L70 540L109 540L109 457Q123 480 147 502Q175 528 213 541.50Q251 555 291 555Z"  horiz-adv-x="380" vert-adv-y="960"  />

      
      <glyph glyph-name="uni0157" unicode="&#x0157;" d="M291 555Q328 555 355 547L355 505Q326 515 291 515Q257 515 225.50 504Q194 493 173 472Q136 439 124.50 396.50Q113 354 112 287L112 0L70 0L70 540L109 540L109 457Q123 480 147 502Q175 528 213 541.50Q251 555 291 555M61-90L121-90L121-150Q121-185 102-202Q83-219 61-219L61-189Q72-189 83-179Q94-169 92-150L61-150L61-90Z"  horiz-adv-x="380" vert-adv-y="960"  />

      
      <glyph glyph-name="uni73" unicode="&#x73;" d="M442 389Q430 422 408 449Q386 476 356 491Q315 513 254 513Q205 513 166 495Q142 483 126 462.50Q110 442 110 418Q110 379 136 356Q150 344 166 336.50Q182 329 213 320Q244 310 329 288Q393 272 433 238Q485 195 485 139Q485 104 467 72Q449 40 420 22Q365-14 269-14Q215-14 169 3Q123 20 92 54Q68 80 56.50 109.50Q45 139 35 179L78 190Q90 123 124 83Q150 55 187.50 41.50Q225 28 267 28Q304 28 339 35.50Q374 43 396 58Q416 72 427.50 93Q439 114 439 139Q439 179 406 206Q390 219 371.50 227.50Q353 236 312 248Q291 255 213 277Q174 288 152 296.50Q130 305 108 323Q86 341 75.50 366Q65 391 65 418Q65 454 88.50 486Q112 518 148 534Q193 555 253 555Q323 555 375 529Q413 509 444.50 472.50Q476 436 485 399L442 389Z"  horiz-adv-x="520" vert-adv-y="960"  />

      
      <glyph glyph-name="uni015B" unicode="&#x015B;" d="M379 699L362 734L162 641L179 606L379 699M442 389Q430 422 408 449Q386 476 356 491Q315 513 254 513Q205 513 166 495Q142 483 126 462.50Q110 442 110 418Q110 379 136 356Q150 344 166 336.50Q182 329 213 320Q244 310 329 288Q393 272 433 238Q485 195 485 139Q485 104 467 72Q449 40 420 22Q365-14 269-14Q215-14 169 3Q123 20 92 54Q68 80 56.50 109.50Q45 139 35 179L78 190Q90 123 124 83Q150 55 187.50 41.50Q225 28 267 28Q304 28 339 35.50Q374 43 396 58Q416 72 427.50 93Q439 114 439 139Q439 179 406 206Q390 219 371.50 227.50Q353 236 312 248Q291 255 213 277Q174 288 152 296.50Q130 305 108 323Q86 341 75.50 366Q65 391 65 418Q65 454 88.50 486Q112 518 148 534Q193 555 253 555Q323 555 375 529Q413 509 444.50 472.50Q476 436 485 399L442 389Z"  horiz-adv-x="520" vert-adv-y="960"  />

      
      <glyph glyph-name="uni0161" unicode="&#x0161;" d="M147 697L270 606L393 697L370 729L270 655L170 729L147 697M442 389Q430 422 408 449Q386 476 356 491Q315 513 254 513Q205 513 166 495Q142 483 126 462.50Q110 442 110 418Q110 379 136 356Q150 344 166 336.50Q182 329 213 320Q244 310 329 288Q393 272 433 238Q485 195 485 139Q485 104 467 72Q449 40 420 22Q365-14 269-14Q215-14 169 3Q123 20 92 54Q68 80 56.50 109.50Q45 139 35 179L78 190Q90 123 124 83Q150 55 187.50 41.50Q225 28 267 28Q304 28 339 35.50Q374 43 396 58Q416 72 427.50 93Q439 114 439 139Q439 179 406 206Q390 219 371.50 227.50Q353 236 312 248Q291 255 213 277Q174 288 152 296.50Q130 305 108 323Q86 341 75.50 366Q65 391 65 418Q65 454 88.50 486Q112 518 148 534Q193 555 253 555Q323 555 375 529Q413 509 444.50 472.50Q476 436 485 399L442 389Z"  horiz-adv-x="520" vert-adv-y="960"  />

      
      <glyph glyph-name="uni015F" unicode="&#x015F;" d="M433 238Q485 195 485 139Q485 104 467 72Q449 40 420 22Q375-8 301-13L279-71Q311-84 327-114Q337-131 337-153Q337-181 322-202Q310-221 287.50-231Q265-241 243-239Q220-238 191-225L205-188Q235-198 249-198Q276-198 287-178Q295-165 295-153Q295-143 290-133Q283-119 271.50-113Q260-107 228-96L258-14Q207-12 164.50 4.50Q122 21 92 54Q68 80 56.50 109.50Q45 139 35 179L78 190Q90 123 124 83Q150 55 187.50 41.50Q225 28 267 28Q304 28 339 35.50Q374 43 396 58Q416 72 427.50 93Q439 114 439 139Q439 179 406 206Q390 219 371.50 227.50Q353 236 312 248Q291 255 213 277Q174 288 152 296.50Q130 305 108 323Q86 341 75.50 366Q65 391 65 418Q65 454 88.50 486Q112 518 148 534Q193 555 253 555Q323 555 375 529Q413 509 444.50 472.50Q476 436 485 399L442 389Q430 422 408 449Q386 476 356 491Q315 513 254 513Q205 513 166 495Q142 483 126 462.50Q110 442 110 418Q110 379 136 356Q150 344 166 336.50Q182 329 213 320Q244 310 329 288Q393 272 433 238Z"  horiz-adv-x="520" vert-adv-y="960"  />

      
      <glyph glyph-name="uni0219" unicode="&#x0219;" d="M442 389Q430 422 408 449Q386 476 356 491Q315 513 254 513Q205 513 166 495Q142 483 126 462.50Q110 442 110 418Q110 379 136 356Q150 344 166 336.50Q182 329 213 320Q244 310 329 288Q393 272 433 238Q485 195 485 139Q485 104 467 72Q449 40 420 22Q365-14 269-14Q215-14 169 3Q123 20 92 54Q68 80 56.50 109.50Q45 139 35 179L78 190Q90 123 124 83Q150 55 187.50 41.50Q225 28 267 28Q304 28 339 35.50Q374 43 396 58Q416 72 427.50 93Q439 114 439 139Q439 179 406 206Q390 219 371.50 227.50Q353 236 312 248Q291 255 213 277Q174 288 152 296.50Q130 305 108 323Q86 341 75.50 366Q65 391 65 418Q65 454 88.50 486Q112 518 148 534Q193 555 253 555Q323 555 375 529Q413 509 444.50 472.50Q476 436 485 399L442 389M290-150Q290-185 271-202Q252-219 230-219L230-189Q241-189 252-179Q263-169 261-150L230-150L230-90L290-90L290-150Z"  horiz-adv-x="520" vert-adv-y="960"  />

      
      <glyph glyph-name="unidf" unicode="&#xdf;" d="M70 513Q70 572 79 608Q88 644 119 677Q146 705 180.50 719.50Q215 734 254 734Q286 734 317.50 722.50Q349 711 374 691Q405 666 423 628.50Q441 591 441 550Q441 528 432 502.50Q423 477 409 458Q381 421 338 398Q402 379 438 344Q470 318 487.50 281.50Q505 245 505 205Q505 145 473 94Q441 43 385 20Q351 6 323 3Q295 0 237 0L196 0L196 42L237 42Q290 42 314.50 45Q339 48 370 62Q411 81 435.50 120Q460 159 460 205Q460 265 411 309Q383 336 340.50 351.50Q298 367 256 370L256 412Q294 421 325 440.50Q356 460 374 486Q395 516 395 553Q395 615 349 656Q329 674 304 683Q279 692 254 692Q192 692 147 643Q132 627 122 601Q112 575 112 551L112 0L70 0L70 513Z"  horiz-adv-x="555" vert-adv-y="960"  />

      
      <glyph glyph-name="uni74" unicode="&#x74;" d="M179 179L179 142Q179 120 181 107Q183 94 190 82Q198 62 216.50 50Q235 38 259 36Q281 34 292 34Q324 34 349 40L349 0Q320-7 287-7Q276-7 254-5Q179 5 152 63Q141 86 139 109.50Q137 133 137 179L137 498L10 498L10 540L137 540L137 690L179 690L179 540L349 540L349 498L179 498L179 179Z"  horiz-adv-x="399" vert-adv-y="960"  />

      
      <glyph glyph-name="uni0167" unicode="&#x0167;" d="M179 498L179 291L349 291L349 249L179 249L179 179L179 142Q179 120 181 107Q183 94 190 82Q198 62 216.50 50Q235 38 259 36Q281 34 292 34Q324 34 349 40L349 0Q320-7 287-7Q276-7 254-5Q179 5 152 63Q141 86 139 109.50Q137 133 137 179L137 249L10 249L10 291L137 291L137 498L10 498L10 540L137 540L137 690L179 690L179 540L349 540L349 498L179 498Z"  horiz-adv-x="399" vert-adv-y="960"  />

      
      <glyph glyph-name="uni0165" unicode="&#x0165;" d="M179 179L179 142Q179 120 181 107Q183 94 190 82Q198 62 216.50 50Q235 38 259 36Q281 34 292 34Q324 34 349 40L349 0Q320-7 287-7Q276-7 254-5Q179 5 152 63Q141 86 139 109.50Q137 133 137 179L137 498L10 498L10 540L137 540L137 690L179 690L179 540L349 540L349 498L179 498L179 179M349 680Q349 652 336.50 636Q324 620 301 620Q293 620 289 621L292 647Q313 646 318 659Q323 672 322.50 688.50Q322 705 322 710L289 710L289 800L349 800L349 680Z"  horiz-adv-x="373" vert-adv-y="960"  />

      
      <glyph glyph-name="uni0163" unicode="&#x0163;" d="M179 179L179 142Q179 120 181 107Q183 94 190 82Q198 62 216.50 50Q235 38 259 36Q281 34 292 34Q324 34 349 40L349 0Q320-7 287-7Q276-7 254-5L236-2L210-72Q242-85 258-115Q268-132 268-154Q268-182 253-203Q241-222 218.50-232Q196-242 174-240Q151-239 122-226L136-189Q166-199 180-199Q207-199 218-179Q226-166 226-154Q226-144 221-134Q214-120 202.50-114Q191-108 159-97L199 12Q168 29 152 63Q141 86 139 109.50Q137 133 137 179L137 498L10 498L10 540L137 540L137 690L179 690L179 540L349 540L349 498L179 498L179 179Z"  horiz-adv-x="399" vert-adv-y="960"  />

      
      <glyph glyph-name="uni021B" unicode="&#x021B;" d="M179 179L179 142Q179 120 181 107Q183 94 190 82Q198 62 216.50 50Q235 38 259 36Q281 34 292 34Q324 34 349 40L349 0Q320-7 287-7Q276-7 254-5Q179 5 152 63Q141 86 139 109.50Q137 133 137 179L137 498L10 498L10 540L137 540L137 690L179 690L179 540L349 540L349 498L179 498L179 179M158-90L218-90L218-150Q218-185 199-202Q180-219 158-219L158-189Q169-189 180-179Q191-169 189-150L158-150L158-90Z"  horiz-adv-x="399" vert-adv-y="960"  />

      
      <glyph glyph-name="uni75" unicode="&#x75;" d="M493 540L493 0L454 0L454 88Q440 64 418 42Q392 17 357 4Q322-9 285-11Q278-12 265-12Q198-12 146 23Q89 62 68.50 126Q48 190 50 277L50 540L92 540L92 277Q92 193 107 141Q122 89 169 57Q213 29 272 29Q306 29 336.50 40Q367 51 390 72Q432 110 444 176Q451 207 451 243L451 540L493 540Z"  horiz-adv-x="563" vert-adv-y="960"  />

      
      <glyph glyph-name="unifa" unicode="&#xfa;" d="M195 606L178 641L378 734L395 699L195 606M493 540L493 0L454 0L454 88Q440 64 418 42Q392 17 357 4Q322-9 285-11Q278-12 265-12Q198-12 146 23Q89 62 68.50 126Q48 190 50 277L50 540L92 540L92 277Q92 193 107 141Q122 89 169 57Q213 29 272 29Q306 29 336.50 40Q367 51 390 72Q432 110 444 176Q451 207 451 243L451 540L493 540Z"  horiz-adv-x="563" vert-adv-y="960"  />

      
      <glyph glyph-name="unifb" unicode="&#xfb;" d="M172 606L149 638L272 729L395 638L372 606L272 680L172 606M493 540L493 0L454 0L454 88Q440 64 418 42Q392 17 357 4Q322-9 285-11Q278-12 265-12Q198-12 146 23Q89 62 68.50 126Q48 190 50 277L50 540L92 540L92 277Q92 193 107 141Q122 89 169 57Q213 29 272 29Q306 29 336.50 40Q367 51 390 72Q432 110 444 176Q451 207 451 243L451 540L493 540Z"  horiz-adv-x="563" vert-adv-y="960"  />

      
      <glyph glyph-name="unifc" unicode="&#xfc;" d="M211 660L151 660L151 720L211 720L211 660M391 660L331 660L331 720L391 720L391 660M493 540L493 0L454 0L454 88Q440 64 418 42Q392 17 357 4Q322-9 285-11Q278-12 265-12Q198-12 146 23Q89 62 68.50 126Q48 190 50 277L50 540L92 540L92 277Q92 193 107 141Q122 89 169 57Q213 29 272 29Q306 29 336.50 40Q367 51 390 72Q432 110 444 176Q451 207 451 243L451 540L493 540Z"  horiz-adv-x="563" vert-adv-y="960"  />

      
      <glyph glyph-name="unif9" unicode="&#xf9;" d="M378 606L178 699L195 734L395 641L378 606M493 540L493 0L454 0L454 88Q440 64 418 42Q392 17 357 4Q322-9 285-11Q278-12 265-12Q198-12 146 23Q89 62 68.50 126Q48 190 50 277L50 540L92 540L92 277Q92 193 107 141Q122 89 169 57Q213 29 272 29Q306 29 336.50 40Q367 51 390 72Q432 110 444 176Q451 207 451 243L451 540L493 540Z"  horiz-adv-x="563" vert-adv-y="960"  />

      
      <glyph glyph-name="uni0171" unicode="&#x0171;" d="M204 613L177 641L272 734L299 706L204 613M339 613L312 641L407 734L434 706L339 613M493 540L493 0L454 0L454 88Q440 64 418 42Q392 17 357 4Q322-9 285-11Q278-12 265-12Q198-12 146 23Q89 62 68.50 126Q48 190 50 277L50 540L92 540L92 277Q92 193 107 141Q122 89 169 57Q213 29 272 29Q306 29 336.50 40Q367 51 390 72Q432 110 444 176Q451 207 451 243L451 540L493 540Z"  horiz-adv-x="563" vert-adv-y="960"  />

      
      <glyph glyph-name="uni016B" unicode="&#x016B;" d="M404 660L164 660L164 702L404 702L404 660M493 540L493 0L454 0L454 88Q440 64 418 42Q392 17 357 4Q322-9 285-11Q278-12 265-12Q198-12 146 23Q89 62 68.50 126Q48 190 50 277L50 540L92 540L92 277Q92 193 107 141Q122 89 169 57Q213 29 272 29Q306 29 336.50 40Q367 51 390 72Q432 110 444 176Q451 207 451 243L451 540L493 540Z"  horiz-adv-x="563" vert-adv-y="960"  />

      
      <glyph glyph-name="uni0173" unicode="&#x0173;" d="M515-201Q495-221 470-232Q451-240 433-240Q396-240 374-215Q350-191 350-156Q350-143 355-123Q366-86 392.50-49Q419-12 454 18L454 88Q440 64 418 42Q392 17 357 4Q322-9 285-11Q278-12 265-12Q198-12 146 23Q89 62 68.50 126Q48 190 50 277L50 540L92 540L92 277Q92 193 107 141Q122 89 169 57Q213 29 272 29Q306 29 336.50 40Q367 51 390 72Q432 110 444 176Q451 207 451 243L451 540L493 540L493 0Q462-24 434-60Q404-101 395-134Q391-148 391-155Q391-173 403-185Q417-199 434-199Q460-199 489-172L515-201Z"  horiz-adv-x="563" vert-adv-y="960"  />

      
      <glyph glyph-name="uni016F" unicode="&#x016F;" d="M280 613Q239 613 210 642Q181 671 181 712Q181 753 210.50 782Q240 811 280 811Q321 811 350 782Q379 753 379 712Q379 671 350 642Q321 613 280 613M280 772Q255 772 237.50 754.50Q220 737 220 712Q220 687 237.50 669.50Q255 652 280 652Q305 652 322.50 669.50Q340 687 340 712Q340 737 322.50 754.50Q305 772 280 772M493 540L493 0L454 0L454 88Q440 64 418 42Q392 17 357 4Q322-9 285-11Q278-12 265-12Q198-12 146 23Q89 62 68.50 126Q48 190 50 277L50 540L92 540L92 277Q92 193 107 141Q122 89 169 57Q213 29 272 29Q306 29 336.50 40Q367 51 390 72Q432 110 444 176Q451 207 451 243L451 540L493 540Z"  horiz-adv-x="563" vert-adv-y="960"  />

      
      <glyph glyph-name="uni76" unicode="&#x76;" d="M458 540L262 0L216 0L20 540L64 540L239 61L413 540L458 540Z"  horiz-adv-x="478" vert-adv-y="960"  />

      
      <glyph glyph-name="uni77" unicode="&#x77;" d="M714 540L549 0L505 0L362 469L219 0L175 0L10 540L54 540L197 72L340 540L384 540L527 72L671 540L714 540Z"  horiz-adv-x="724" vert-adv-y="960"  />

      
      <glyph glyph-name="uni1E83" unicode="&#x1E83;" d="M466 699L449 734L249 641L266 606L466 699M714 540L549 0L505 0L362 469L219 0L175 0L10 540L54 540L197 72L340 540L384 540L527 72L671 540L714 540Z"  horiz-adv-x="724" vert-adv-y="960"  />

      
      <glyph glyph-name="uni0175" unicode="&#x0175;" d="M362 680L462 606L485 638L362 729L239 638L262 606L362 680M714 540L549 0L505 0L362 469L219 0L175 0L10 540L54 540L197 72L340 540L384 540L527 72L671 540L714 540Z"  horiz-adv-x="724" vert-adv-y="960"  />

      
      <glyph glyph-name="uni1E85" unicode="&#x1E85;" d="M294 720L294 660L234 660L234 720L294 720M474 720L474 660L414 660L414 720L474 720M714 540L549 0L505 0L362 469L219 0L175 0L10 540L54 540L197 72L340 540L384 540L527 72L671 540L714 540Z"  horiz-adv-x="724" vert-adv-y="960"  />

      
      <glyph glyph-name="uni1E81" unicode="&#x1E81;" d="M461 641L261 734L244 699L444 606L461 641M714 540L549 0L505 0L362 469L219 0L175 0L10 540L54 540L197 72L340 540L384 540L527 72L671 540L714 540Z"  horiz-adv-x="724" vert-adv-y="960"  />

      
      <glyph glyph-name="uni78" unicode="&#x78;" d="M279 273L499 0L446 0L255 242L63 0L10 0L230 273L15 540L67 540L255 304L442 540L494 540L279 273Z"  horiz-adv-x="509" vert-adv-y="960"  />

      
      <glyph glyph-name="uni79" unicode="&#x79;" d="M527 539L270-123Q243-194 204-222Q189-233 171-236.50Q153-240 128-240L110-239L110-196L129-198Q148-199 161-196Q174-193 187-183Q204-170 216.50-142Q229-114 267-15L20 540L66 540L289 40L482 539L527 539Z"  horiz-adv-x="537" vert-adv-y="960"  />

      
      <glyph glyph-name="unifd" unicode="&#xfd;" d="M391 699L374 734L174 641L191 606L391 699M527 539L270-123Q243-194 204-222Q189-233 171-236.50Q153-240 128-240L110-239L110-196L129-198Q148-199 161-196Q174-193 187-183Q204-170 216.50-142Q229-114 267-15L20 540L66 540L289 40L482 539L527 539Z"  horiz-adv-x="537" vert-adv-y="960"  />

      
      <glyph glyph-name="uni0177" unicode="&#x0177;" d="M281 680L381 606L404 638L281 729L158 638L181 606L281 680M527 539L270-123Q243-194 204-222Q189-233 171-236.50Q153-240 128-240L110-239L110-196L129-198Q148-199 161-196Q174-193 187-183Q204-170 216.50-142Q229-114 267-15L20 540L66 540L289 40L482 539L527 539Z"  horiz-adv-x="537" vert-adv-y="960"  />

      
      </font>
</defs>
</svg>
