<?xml version="1.0" standalone="no"?>
  <!DOCTYPE svg PUBLIC "-//W3C//DTD SVG 1.1//EN" "http://www.w3.org/Graphics/SVG/1.1/DTD/svg11.dtd" >
  <svg>
  <metadata>
  Created by font-carrier
  </metadata>
  <defs>
  <font id="Manrope-Medium" horiz-adv-x="1206" vert-adv-y="1206" >
    <font-face
      
      font-family="Manrope Medium"
      
      font-weight="400"
      
      font-stretch="normal"
      
      units-per-em="960"
      
      ascent="1020"
      
      descent="-300"
      
    />
      <missing-glyph />

      

      
      <glyph glyph-name="uni41" unicode="&#x41;" d="M473 131L148 131L105 0L5 0L242 720L380 720L617 0L517 0L473 131M443 222L310 620L178 222L443 222Z"  horiz-adv-x="622" vert-adv-y="960"  />

      
      <glyph glyph-name="unic1" unicode="&#xc1;" d="M184 785L157 857L404 953L431 880L184 785M473 131L148 131L105 0L5 0L242 720L380 720L617 0L517 0L473 131M443 222L310 620L178 222L443 222Z"  horiz-adv-x="622" vert-adv-y="960"  />

      
      <glyph glyph-name="uni0102" unicode="&#x0102;" d="M316 780Q278 780 246 799Q214 818 195 850Q176 882 176 920L253 920Q253 895 272 876Q291 857 316 857Q342 857 360.50 875.50Q379 894 379 920L457 920Q457 882 438 850Q419 818 386.50 799Q354 780 316 780M473 131L148 131L105 0L5 0L242 720L380 720L617 0L517 0L473 131M443 222L310 620L178 222L443 222Z"  horiz-adv-x="622" vert-adv-y="960"  />

      
      <glyph glyph-name="unic2" unicode="&#xc2;" d="M193 786L155 854L312 946L468 854L430 786L312 857L193 786M473 131L148 131L105 0L5 0L242 720L380 720L617 0L517 0L473 131M443 222L310 620L178 222L443 222Z"  horiz-adv-x="622" vert-adv-y="960"  />

      
      <glyph glyph-name="unic4" unicode="&#xc4;" d="M260 840L165 840L165 935L260 935L260 840M458 840L363 840L363 935L458 935L458 840M473 131L148 131L105 0L5 0L242 720L380 720L617 0L517 0L473 131M443 222L310 620L178 222L443 222Z"  horiz-adv-x="622" vert-adv-y="960"  />

      
      <glyph glyph-name="unic0" unicode="&#xc0;" d="M439 785L191 880L218 953L466 857L439 785M474 131L149 131L105 0L5 0L243 720L380 720L617 0L517 0L474 131M444 222L312 620L179 222L444 222Z"  horiz-adv-x="622" vert-adv-y="960"  />

      
      <glyph glyph-name="uni0100" unicode="&#x0100;" d="M441 840L182 840L182 918L441 918L441 840M473 131L148 131L105 0L5 0L242 720L380 720L617 0L517 0L473 131M443 222L310 620L178 222L443 222Z"  horiz-adv-x="622" vert-adv-y="960"  />

      
      <glyph glyph-name="uni0104" unicode="&#x0104;" d="M633-193Q614-219 586-231Q567-240 545-240Q523-240 502-230Q481-220 467-203Q442-177 442-134Q442-108 450-87Q469-38 515 5L473 131L148 131L105 0L5 0L242 720L380 720L617 0L616 0Q583-25 561-51Q532-85 523-113Q519-123 519-132Q519-146 527-154Q536-164 550-164Q570-164 595-145L633-193M443 222L310 620L178 222L443 222Z"  horiz-adv-x="622" vert-adv-y="960"  />

      
      <glyph glyph-name="unic5" unicode="&#xc5;" d="M473 131L148 131L105 0L5 0L228 678Q206 697 193 724Q180 751 180 780Q180 815 198 845.50Q216 876 246.50 894Q277 912 312 912Q347 912 377.50 894Q408 876 425.50 845.50Q443 815 443 780Q443 750 430 723Q417 696 394 677L617 0L517 0L473 131M312 840Q287 840 269.50 822.50Q252 805 252 780Q252 755 269.50 737.50Q287 720 312 720Q337 720 354.50 737.50Q372 755 372 780Q372 805 354.50 822.50Q337 840 312 840M443 222L310 620L178 222L443 222Z"  horiz-adv-x="622" vert-adv-y="960"  />

      
      <glyph glyph-name="unic3" unicode="&#xc3;" d="M155 845Q152 856 152 869Q152 895 163 915Q172 930 186.50 940Q201 950 217 953Q231 955 239 955Q275 955 310 936L330 927Q344 920 357.50 915Q371 910 382 910Q396 910 402.50 917Q409 924 409 935Q409 944 407 949L468 949Q471 937 471 924Q471 898 460 878Q451 863 436.50 853Q422 843 406 840Q392 838 385 838Q353 838 312 857L293 866Q279 873 266 878Q253 883 242 883Q214 883 214 859Q214 850 216 845L155 845M473 131L148 131L105 0L5 0L242 720L380 720L617 0L517 0L473 131M443 222L310 620L178 222L443 222Z"  horiz-adv-x="622" vert-adv-y="960"  />

      
      <glyph glyph-name="unic6" unicode="&#xc6;" d="M500 623L500 408L797 408L797 312L500 312L500 97L857 97L857 0L403 0L403 131L149 131L105 0L5 0L242 720L857 720L857 623L500 623M403 222L403 623L312 623L179 222L403 222Z"  horiz-adv-x="917" vert-adv-y="960"  />

      
      <glyph glyph-name="uni42" unicode="&#x42;" d="M555 336Q596 281 596 213Q596 138 552 82Q510 31 443 10Q407 0 354 0L80 0L80 720L340 720Q396 720 420 712Q482 694 519 645Q540 620 551 587.50Q562 555 562 520Q562 491 551.50 463.50Q541 436 522 413Q512 398 501 387Q530 369 555 336M178 629L178 423L361 423Q381 423 404.50 434.50Q428 446 442 465Q464 496 463 530Q463 566 436 596Q406 629 361 629L178 629M464 128Q496 160 498 208Q498 229 490.50 250Q483 271 470 287Q453 309 428 320.50Q403 332 378 332L178 332L178 92L353 92Q394 92 418.50 98.50Q443 105 464 128Z"  horiz-adv-x="632" vert-adv-y="960"  />

      
      <glyph glyph-name="uni43" unicode="&#x43;" d="M694 213Q677 151 637 101Q591 43 523.50 14Q456-15 379-15Q300-15 233 15Q166 45 121 101Q40 202 40 354Q40 516 121 619Q166 676 233.50 705.50Q301 735 379 735Q457 735 524.50 705.50Q592 676 637 619Q679 565 701 488L601 471Q587 523 560 560Q529 600 481 621.50Q433 643 379 643Q324 643 276 621.50Q228 600 199 560Q145 492 143 360Q145 229 199 160Q229 119 277.50 98Q326 77 383 77Q435 77 482.50 98.50Q530 120 560 160Q586 197 598 240L694 213Z"  horiz-adv-x="741" vert-adv-y="960"  />

      
      <glyph glyph-name="uni0106" unicode="&#x0106;" d="M520 880L494 953L246 857L273 785L520 880M694 213Q677 151 637 101Q591 43 523.50 14Q456-15 379-15Q300-15 233 15Q166 45 121 101Q40 202 40 354Q40 516 121 619Q166 676 233.50 705.50Q301 735 379 735Q457 735 524.50 705.50Q592 676 637 619Q679 565 701 488L601 471Q587 523 560 560Q529 600 481 621.50Q433 643 379 643Q324 643 276 621.50Q228 600 199 560Q145 492 143 360Q145 229 199 160Q229 119 277.50 98Q326 77 383 77Q435 77 482.50 98.50Q530 120 560 160Q586 197 598 240L694 213Z"  horiz-adv-x="741" vert-adv-y="960"  />

      
      <glyph glyph-name="uni010C" unicode="&#x010C;" d="M227 879L384 786L540 879L502 946L384 876L265 946L227 879M694 213Q677 151 637 101Q591 43 523.50 14Q456-15 379-15Q300-15 233 15Q166 45 121 101Q40 202 40 354Q40 516 121 619Q166 676 233.50 705.50Q301 735 379 735Q457 735 524.50 705.50Q592 676 637 619Q679 565 701 488L601 471Q587 523 560 560Q529 600 481 621.50Q433 643 379 643Q324 643 276 621.50Q228 600 199 560Q145 492 143 360Q145 229 199 160Q229 119 277.50 98Q326 77 383 77Q435 77 482.50 98.50Q530 120 560 160Q586 197 598 240L694 213Z"  horiz-adv-x="741" vert-adv-y="960"  />

      
      <glyph glyph-name="unic7" unicode="&#xc7;" d="M560 160Q586 197 598 240L694 213Q677 151 637 101Q596 50 537.50 21Q479-8 411-14L398-51Q430-64 446-94Q458-115 458-141Q458-172 441-197Q426-220 401-231.50Q376-243 348-240Q323-239 293-224L315-163Q339-170 350-171Q372-171 381-156Q387-149 387-139Q387-133 384-127Q379-113 365-105.50Q351-98 321-90L348-14Q278-8 220 21Q162 50 121 101Q40 202 40 354Q40 516 121 619Q166 676 233.50 705.50Q301 735 379 735Q457 735 524.50 705.50Q592 676 637 619Q679 565 701 488L601 471Q587 523 560 560Q529 600 481 621.50Q433 643 379 643Q324 643 276 621.50Q228 600 199 560Q145 492 143 360Q145 229 199 160Q229 119 277.50 98Q326 77 383 77Q435 77 482.50 98.50Q530 120 560 160Z"  horiz-adv-x="741" vert-adv-y="960"  />

      
      <glyph glyph-name="uni010A" unicode="&#x010A;" d="M439 960L439 856L334 856L334 960L439 960M694 213Q677 151 637 101Q591 43 523.50 14Q456-15 379-15Q300-15 233 15Q166 45 121 101Q40 202 40 354Q40 516 121 619Q166 676 233.50 705.50Q301 735 379 735Q457 735 524.50 705.50Q592 676 637 619Q679 565 701 488L601 471Q587 523 560 560Q529 600 481 621.50Q433 643 379 643Q324 643 276 621.50Q228 600 199 560Q145 492 143 360Q145 229 199 160Q229 119 277.50 98Q326 77 383 77Q435 77 482.50 98.50Q530 120 560 160Q586 197 598 240L694 213Z"  horiz-adv-x="741" vert-adv-y="960"  />

      
      <glyph glyph-name="uni44" unicode="&#x44;" d="M609 536Q650 455 650 360Q650 266 609 184Q566 100 484 50Q402 0 309 0L80 0L80 720L309 720Q402 720 484 670Q566 620 609 536M522 228Q551 286 551 360Q549 437 522 492Q491 554 432.50 590.50Q374 627 304 628L178 628L178 92L304 93Q372 94 432 130Q492 166 522 228Z"  horiz-adv-x="690" vert-adv-y="960"  />

      
      <glyph glyph-name="unid0" unicode="&#xd0;" d="M607 536Q646 459 648 360Q646 263 607 184Q564 100 482 50Q400 0 307 0L78 0L78 321L10 321L10 400L78 400L78 720L307 720Q400 720 482 670Q564 620 607 536M520 228Q549 286 549 360Q547 437 520 492Q488 554 430 590.50Q372 627 302 628L176 628L176 400L336 400L336 321L176 321L176 92L302 93Q370 94 430 130Q490 166 520 228Z"  horiz-adv-x="688" vert-adv-y="960"  />

      
      <glyph glyph-name="uni010E" unicode="&#x010E;" d="M323 786L166 879L204 946L323 876L441 946L479 879L323 786M609 536Q650 455 650 360Q650 266 609 184Q566 100 484 50Q402 0 309 0L80 0L80 720L309 720Q402 720 484 670Q566 620 609 536M522 228Q551 286 551 360Q549 437 522 492Q491 554 432.50 590.50Q374 627 304 628L178 628L178 92L304 93Q372 94 432 130Q492 166 522 228Z"  horiz-adv-x="690" vert-adv-y="960"  />

      
      <glyph glyph-name="uni0110" unicode="&#x0110;" d="M607 536Q646 459 648 360Q646 263 607 184Q564 100 482 50Q400 0 307 0L78 0L78 321L10 321L10 400L78 400L78 720L307 720Q400 720 482 670Q564 620 607 536M520 228Q549 286 549 360Q547 437 520 492Q488 554 430 590.50Q372 627 302 628L176 628L176 400L336 400L336 321L176 321L176 92L302 93Q370 94 430 130Q490 166 520 228Z"  horiz-adv-x="688" vert-adv-y="960"  />

      
      <glyph glyph-name="uni45" unicode="&#x45;" d="M177 623L177 408L473 408L473 312L177 312L177 97L533 97L533 0L80 0L80 720L533 720L533 623L177 623Z"  horiz-adv-x="593" vert-adv-y="960"  />

      
      <glyph glyph-name="unic9" unicode="&#xc9;" d="M182 785L155 857L403 953L429 880L182 785M177 623L177 408L473 408L473 312L177 312L177 97L533 97L533 0L80 0L80 720L533 720L533 623L177 623Z"  horiz-adv-x="593" vert-adv-y="960"  />

      
      <glyph glyph-name="uni011A" unicode="&#x011A;" d="M302 786L145 879L183 946L302 876L420 946L458 879L302 786M177 623L177 408L473 408L473 312L177 312L177 97L533 97L533 0L80 0L80 720L533 720L533 623L177 623Z"  horiz-adv-x="593" vert-adv-y="960"  />

      
      <glyph glyph-name="unica" unicode="&#xca;" d="M168 786L130 854L286 946L442 854L405 786L286 857L168 786M177 623L177 408L473 408L473 312L177 312L177 97L533 97L533 0L80 0L80 720L533 720L533 623L177 623Z"  horiz-adv-x="593" vert-adv-y="960"  />

      
      <glyph glyph-name="unicb" unicode="&#xcb;" d="M240 840L145 840L145 935L240 935L240 840M439 840L344 840L344 935L439 935L439 840M177 623L177 408L473 408L473 312L177 312L177 97L533 97L533 0L80 0L80 720L533 720L533 623L177 623Z"  horiz-adv-x="593" vert-adv-y="960"  />

      
      <glyph glyph-name="uni0116" unicode="&#x0116;" d="M364 831L260 831L260 935L364 935L364 831M177 623L177 408L473 408L473 312L177 312L177 97L533 97L533 0L80 0L80 720L533 720L533 623L177 623Z"  horiz-adv-x="593" vert-adv-y="960"  />

      
      <glyph glyph-name="unic8" unicode="&#xc8;" d="M405 785L158 880L184 953L432 857L405 785M177 623L177 408L473 408L473 312L177 312L177 97L533 97L533 0L80 0L80 720L533 720L533 623L177 623Z"  horiz-adv-x="593" vert-adv-y="960"  />

      
      <glyph glyph-name="uni0112" unicode="&#x0112;" d="M431 840L172 840L172 918L431 918L431 840M177 623L177 408L473 408L473 312L177 312L177 97L533 97L533 0L80 0L80 720L533 720L533 623L177 623Z"  horiz-adv-x="593" vert-adv-y="960"  />

      
      <glyph glyph-name="uni0118" unicode="&#x0118;" d="M177 623L177 408L473 408L473 312L177 312L177 97L533 97L533 0L503 0Q470-25 448-51Q422-82 410-113Q406-123 406-132Q406-145 415-154Q424-164 438-164Q457-164 482-145L520-193Q501-219 473-231Q454-240 432-240Q410-240 389-230Q368-220 354-203Q329-177 329-133Q329-111 337-87Q357-39 397 0L80 0L80 720L533 720L533 623L177 623Z"  horiz-adv-x="593" vert-adv-y="960"  />

      
      <glyph glyph-name="uni46" unicode="&#x46;" d="M177 623L177 408L443 408L443 312L177 312L177 0L80 0L80 720L503 720L503 623L177 623Z"  horiz-adv-x="523" vert-adv-y="960"  />

      
      <glyph glyph-name="uni47" unicode="&#x47;" d="M717 374L717 350Q712 195 636 102Q590 44 523 14.50Q456-15 378-15Q299-15 231 14.50Q163 44 121 102Q42 198 40 360Q42 520 121 618Q163 675 231 705Q299 735 378 735Q457 735 523.50 705Q590 675 636 618Q658 588 670 565L580 525Q562 556 559 560Q530 600 482.50 621Q435 642 382 642Q326 642 277 621.50Q228 601 197 560Q146 491 142 360Q146 229 197 160Q227 120 274.50 99Q322 78 374 78Q431 78 480 98.50Q529 119 559 160Q597 212 609 294L430 294L430 374L717 374Z"  horiz-adv-x="757" vert-adv-y="960"  />

      
      <glyph glyph-name="uni011E" unicode="&#x011E;" d="M389 780Q351 780 319 799Q287 818 268 850Q249 882 249 920L327 920Q327 894 345.50 875.50Q364 857 389 857Q415 857 433.50 875.50Q452 894 452 920L530 920Q530 882 511 850Q492 818 459.50 799Q427 780 389 780M717 374L717 350Q712 195 636 102Q590 44 523 14.50Q456-15 378-15Q299-15 231 14.50Q163 44 121 102Q42 198 40 360Q42 520 121 618Q163 675 231 705Q299 735 378 735Q457 735 523.50 705Q590 675 636 618Q658 588 670 565L580 525Q562 556 559 560Q530 600 482.50 621Q435 642 382 642Q326 642 277 621.50Q228 601 197 560Q146 491 142 360Q146 229 197 160Q227 120 274.50 99Q322 78 374 78Q431 78 480 98.50Q529 119 559 160Q597 212 609 294L430 294L430 374L717 374Z"  horiz-adv-x="757" vert-adv-y="960"  />

      
      <glyph glyph-name="uni0122" unicode="&#x0122;" d="M717 374L717 350Q712 195 636 102Q590 44 523 14.50Q456-15 378-15Q299-15 231 14.50Q163 44 121 102Q42 198 40 360Q42 520 121 618Q163 675 231 705Q299 735 378 735Q457 735 523.50 705Q590 675 636 618Q658 588 670 565L580 525Q562 556 559 560Q530 600 482.50 621Q435 642 382 642Q326 642 277 621.50Q228 601 197 560Q146 491 142 360Q146 229 197 160Q227 120 274.50 99Q322 78 374 78Q431 78 480 98.50Q529 119 559 160Q597 212 609 294L430 294L430 374L717 374M325-73L425-73L425-172Q425-216 396.50-241Q368-266 325-266L325-220Q343-220 362-209.50Q381-199 380-172L325-172L325-73Z"  horiz-adv-x="757" vert-adv-y="960"  />

      
      <glyph glyph-name="uni0120" unicode="&#x0120;" d="M431 831L327 831L327 935L431 935L431 831M717 374L717 350Q712 195 636 102Q590 44 523 14.50Q456-15 378-15Q299-15 231 14.50Q163 44 121 102Q42 198 40 360Q42 520 121 618Q163 675 231 705Q299 735 378 735Q457 735 523.50 705Q590 675 636 618Q658 588 670 565L580 525Q562 556 559 560Q530 600 482.50 621Q435 642 382 642Q326 642 277 621.50Q228 601 197 560Q146 491 142 360Q146 229 197 160Q227 120 274.50 99Q322 78 374 78Q431 78 480 98.50Q529 119 559 160Q597 212 609 294L430 294L430 374L717 374Z"  horiz-adv-x="757" vert-adv-y="960"  />

      
      <glyph glyph-name="uni48" unicode="&#x48;" d="M643 720L643 0L546 0L546 260L177 260L177 0L80 0L80 720L177 720L177 356L546 356L546 720L643 720Z"  horiz-adv-x="723" vert-adv-y="960"  />

      
      <glyph glyph-name="uni0126" unicode="&#x0126;" d="M713 487L643 487L643 0L546 0L546 260L177 260L177 0L80 0L80 487L10 487L10 584L80 584L80 720L177 720L177 584L546 584L546 720L643 720L643 584L713 584L713 487M546 487L177 487L177 356L546 356L546 487Z"  horiz-adv-x="723" vert-adv-y="960"  />

      
      <glyph glyph-name="uni49" unicode="&#x49;" d="M167 720L167 0L70 0L70 720L167 720Z"  horiz-adv-x="237" vert-adv-y="960"  />

      
      <glyph glyph-name="unicd" unicode="&#xcd;" d="M257 880L231 953L-17 857L10 785L257 880M167 720L167 0L70 0L70 720L167 720Z"  horiz-adv-x="237" vert-adv-y="960"  />

      
      <glyph glyph-name="unice" unicode="&#xce;" d="M121 857L239 786L277 854L121 946L-36 854L2 786L121 857M167 720L167 0L70 0L70 720L167 720Z"  horiz-adv-x="237" vert-adv-y="960"  />

      
      <glyph glyph-name="unicf" unicode="&#xcf;" d="M66 935L66 840L-29 840L-29 935L66 935M265 935L265 840L170 840L170 935L265 935M167 720L167 0L70 0L70 720L167 720Z"  horiz-adv-x="237" vert-adv-y="960"  />

      
      <glyph glyph-name="uni0130" unicode="&#x0130;" d="M171 935L171 831L66 831L66 935L171 935M167 720L167 0L70 0L70 720L167 720Z"  horiz-adv-x="237" vert-adv-y="960"  />

      
      <glyph glyph-name="unicc" unicode="&#xcc;" d="M258 857L10 953L-16 880L231 785L258 857M167 720L167 0L70 0L70 720L167 720Z"  horiz-adv-x="237" vert-adv-y="960"  />

      
      <glyph glyph-name="uni012A" unicode="&#x012A;" d="M248 918L248 840L-11 840L-11 918L248 918M167 720L167 0L70 0L70 720L167 720Z"  horiz-adv-x="237" vert-adv-y="960"  />

      
      <glyph glyph-name="uni012E" unicode="&#x012E;" d="M184-193Q166-218 137-231Q117-240 96-240Q74-240 53-230Q32-220 18-203Q-7-177-7-134Q-7-108 1-87Q22-33 70 9L70 720L167 720L167 0Q131-27 112-51Q84-82 74-113Q70-123 70-132Q70-146 78-154Q87-164 101-164Q122-164 145-145L184-193Z"  horiz-adv-x="237" vert-adv-y="960"  />

      
      <glyph glyph-name="uni4a" unicode="&#x4a;" d="M302 720L302 228Q302 185 300 167.50Q298 150 290 132Q278 106 252.50 91.50Q227 77 199 77Q167 77 140 96Q123 107 111.50 124.50Q100 142 96 161L0 138Q11 99 35.50 66Q60 33 95 13Q138-15 200-15Q316-15 375 82Q394 116 398 143.50Q402 171 402 228L402 720L302 720Z"  horiz-adv-x="482" vert-adv-y="960"  />

      
      <glyph glyph-name="uni4b" unicode="&#x4b;" d="M178 335L178 0L80 0L80 720L178 720L178 414L330 414L523 720L639 720L415 375L659 0L542 0L330 335L178 335Z"  horiz-adv-x="659" vert-adv-y="960"  />

      
      <glyph glyph-name="uni0136" unicode="&#x0136;" d="M178 335L178 0L80 0L80 720L178 720L178 414L330 414L523 720L639 720L415 375L659 0L542 0L330 335L178 335M392-172Q392-215 363.50-240.50Q335-266 293-266L293-220Q310-220 329-209.50Q348-199 347-172L293-172L293-73L392-73L392-172Z"  horiz-adv-x="659" vert-adv-y="960"  />

      
      <glyph glyph-name="uni4c" unicode="&#x4c;" d="M80 720L80 0L507 0L507 97L177 97L177 720L80 720Z"  horiz-adv-x="522" vert-adv-y="960"  />

      
      <glyph glyph-name="uni0139" unicode="&#x0139;" d="M354 880L328 953L80 857L107 785L354 880M80 720L80 0L507 0L507 97L177 97L177 720L80 720Z"  horiz-adv-x="522" vert-adv-y="960"  />

      
      <glyph glyph-name="uni013D" unicode="&#x013D;" d="M80 720L80 0L507 0L507 97L177 97L177 720L80 720M427 594Q427 544 406 516.50Q385 489 344 489Q339 489 323 491L329 535Q355 533 367 548.50Q379 564 379 591Q379 602 378 607L323 607L323 724L427 724L427 594Z"  horiz-adv-x="522" vert-adv-y="960"  />

      
      <glyph glyph-name="uni013B" unicode="&#x013B;" d="M80 720L80 0L507 0L507 97L177 97L177 720L80 720M343-172Q343-216 314.50-241Q286-266 244-266L244-220Q261-220 280-209.50Q299-199 298-172L244-172L244-73L343-73L343-172Z"  horiz-adv-x="522" vert-adv-y="960"  />

      
      <glyph glyph-name="uni0141" unicode="&#x0141;" d="M519 97L519 0L92 0L92 184L53 145L-12 210L92 314L92 720L188 720L188 409L328 549L393 484L188 280L188 97L519 97Z"  horiz-adv-x="534" vert-adv-y="960"  />

      
      <glyph glyph-name="uni4d" unicode="&#x4d;" d="M801 0L703 0L703 509L464 0L417 0L178 508L178 0L80 0L80 720L177 720L441 162L703 720L801 720L801 0Z"  horiz-adv-x="881" vert-adv-y="960"  />

      
      <glyph glyph-name="uni4e" unicode="&#x4e;" d="M531 178L531 720L629 720L629 0L542 0L179 542L179 0L80 0L80 720L166 720L531 178Z"  horiz-adv-x="709" vert-adv-y="960"  />

      
      <glyph glyph-name="uni0143" unicode="&#x0143;" d="M507 880L480 953L232 857L259 785L507 880M531 178L531 720L629 720L629 0L542 0L179 542L179 0L80 0L80 720L166 720L531 178Z"  horiz-adv-x="709" vert-adv-y="960"  />

      
      <glyph glyph-name="uni0147" unicode="&#x0147;" d="M198 879L355 786L511 879L473 946L355 876L236 946L198 879M531 178L531 720L629 720L629 0L542 0L179 542L179 0L80 0L80 720L166 720L531 178Z"  horiz-adv-x="709" vert-adv-y="960"  />

      
      <glyph glyph-name="uni0145" unicode="&#x0145;" d="M531 178L531 720L629 720L629 0L542 0L179 542L179 0L80 0L80 720L166 720L531 178M404-172Q404-216 375.50-241Q347-266 305-266L305-220Q322-220 341-209.50Q360-199 359-172L305-172L305-73L404-73L404-172Z"  horiz-adv-x="709" vert-adv-y="960"  />

      
      <glyph glyph-name="uni014A" unicode="&#x014A;" d="M629 720L629-91Q629-142 608.50-172.50Q588-203 550-211Q529-214 511-214Q476-214 446-206L446-131Q452-132 459.50-133Q467-134 478-134Q506-134 522.50-118.50Q539-103 539-63Q539-42 526.50-9Q514 24 486 66L442 135L454 132L179 542L179 0L80 0L80 720L166 720L531 178L531 720L629 720Z"  horiz-adv-x="709" vert-adv-y="960"  />

      
      <glyph glyph-name="unid1" unicode="&#xd1;" d="M512 924Q515 912 515 899Q515 873 504 853Q495 838 480.50 828Q466 818 450 815Q436 813 429 813Q397 813 357 832Q353 834 336 842Q304 858 286 858Q258 858 258 834Q258 825 260 820L199 820Q196 831 196 844Q196 870 207 890Q216 905 230.50 915Q245 925 261 928Q275 930 283 930Q319 930 355 911L374 902Q388 895 401.50 890Q415 885 426 885Q440 885 446.50 892Q453 899 453 910Q453 919 451 924L512 924M531 178L531 720L629 720L629 0L542 0L179 542L179 0L80 0L80 720L166 720L531 178Z"  horiz-adv-x="709" vert-adv-y="960"  />

      
      <glyph glyph-name="uni4f" unicode="&#x4f;" d="M378-15Q299-15 231.50 14.50Q164 44 121 101Q79 154 59.50 220Q40 286 40 360Q40 434 59.50 500.50Q79 567 121 619Q165 676 232.50 705.50Q300 735 378 735Q457 734 524 704.50Q591 675 636 619Q714 521 716 360Q716 201 636 101Q590 44 523 14.50Q456-15 378-15M374 77Q431 77 479.50 98Q528 119 558 160Q612 231 614 360Q614 488 558 560Q529 600 482 621Q435 642 382 642Q326 642 277 621.50Q228 601 198 560Q144 492 142 360Q142 232 198 160Q227 120 274.50 98.50Q322 77 374 77Z"  horiz-adv-x="756" vert-adv-y="960"  />

      
      <glyph glyph-name="unid3" unicode="&#xd3;" d="M526 880L499 953L252 857L279 785L526 880M378-15Q299-15 231.50 14.50Q164 44 121 101Q79 154 59.50 220Q40 286 40 360Q40 434 59.50 500.50Q79 567 121 619Q165 676 232.50 705.50Q300 735 378 735Q457 734 524 704.50Q591 675 636 619Q714 521 716 360Q716 201 636 101Q590 44 523 14.50Q456-15 378-15M374 77Q431 77 479.50 98Q528 119 558 160Q612 231 614 360Q614 488 558 560Q529 600 482 621Q435 642 382 642Q326 642 277 621.50Q228 601 198 560Q144 492 142 360Q142 232 198 160Q227 120 274.50 98.50Q322 77 374 77Z"  horiz-adv-x="756" vert-adv-y="960"  />

      
      <glyph glyph-name="unid4" unicode="&#xd4;" d="M378 857L497 786L534 854L378 946L222 854L260 786L378 857M378-15Q299-15 231.50 14.50Q164 44 121 101Q79 154 59.50 220Q40 286 40 360Q40 434 59.50 500.50Q79 567 121 619Q165 676 232.50 705.50Q300 735 378 735Q457 734 524 704.50Q591 675 636 619Q714 521 716 360Q716 201 636 101Q590 44 523 14.50Q456-15 378-15M374 77Q431 77 479.50 98Q528 119 558 160Q612 231 614 360Q614 488 558 560Q529 600 482 621Q435 642 382 642Q326 642 277 621.50Q228 601 198 560Q144 492 142 360Q142 232 198 160Q227 120 274.50 98.50Q322 77 374 77Z"  horiz-adv-x="756" vert-adv-y="960"  />

      
      <glyph glyph-name="unid6" unicode="&#xd6;" d="M326 935L326 840L231 840L231 935L326 935M525 935L525 840L430 840L430 935L525 935M378-15Q299-15 231.50 14.50Q164 44 121 101Q79 154 59.50 220Q40 286 40 360Q40 434 59.50 500.50Q79 567 121 619Q165 676 232.50 705.50Q300 735 378 735Q457 734 524 704.50Q591 675 636 619Q714 521 716 360Q716 201 636 101Q590 44 523 14.50Q456-15 378-15M374 77Q431 77 479.50 98Q528 119 558 160Q612 231 614 360Q614 488 558 560Q529 600 482 621Q435 642 382 642Q326 642 277 621.50Q228 601 198 560Q144 492 142 360Q142 232 198 160Q227 120 274.50 98.50Q322 77 374 77Z"  horiz-adv-x="756" vert-adv-y="960"  />

      
      <glyph glyph-name="unid2" unicode="&#xd2;" d="M536 857L288 953L262 880L509 785L536 857M378-15Q299-15 231.50 14.50Q164 44 121 101Q79 154 59.50 220Q40 286 40 360Q40 434 59.50 500.50Q79 567 121 619Q165 676 232.50 705.50Q300 735 378 735Q457 734 524 704.50Q591 675 636 619Q714 521 716 360Q716 201 636 101Q590 44 523 14.50Q456-15 378-15M374 77Q431 77 479.50 98Q528 119 558 160Q612 231 614 360Q614 488 558 560Q529 600 482 621Q435 642 382 642Q326 642 277 621.50Q228 601 198 560Q144 492 142 360Q142 232 198 160Q227 120 274.50 98.50Q322 77 374 77Z"  horiz-adv-x="756" vert-adv-y="960"  />

      
      <glyph glyph-name="uni0150" unicode="&#x0150;" d="M432 904L384 953L270 841L318 792L432 904M586 904L538 953L424 841L472 792L586 904M378-15Q299-15 231.50 14.50Q164 44 121 101Q79 154 59.50 220Q40 286 40 360Q40 434 59.50 500.50Q79 567 121 619Q165 676 232.50 705.50Q300 735 378 735Q457 734 524 704.50Q591 675 636 619Q714 521 716 360Q716 201 636 101Q590 44 523 14.50Q456-15 378-15M374 77Q431 77 479.50 98Q528 119 558 160Q612 231 614 360Q614 488 558 560Q529 600 482 621Q435 642 382 642Q326 642 277 621.50Q228 601 198 560Q144 492 142 360Q142 232 198 160Q227 120 274.50 98.50Q322 77 374 77Z"  horiz-adv-x="756" vert-adv-y="960"  />

      
      <glyph glyph-name="uni014C" unicode="&#x014C;" d="M502 918L502 840L243 840L243 918L502 918M378-15Q299-15 231.50 14.50Q164 44 121 101Q79 154 59.50 220Q40 286 40 360Q40 434 59.50 500.50Q79 567 121 619Q165 676 232.50 705.50Q300 735 378 735Q457 734 524 704.50Q591 675 636 619Q714 521 716 360Q716 201 636 101Q590 44 523 14.50Q456-15 378-15M374 77Q431 77 479.50 98Q528 119 558 160Q612 231 614 360Q614 488 558 560Q529 600 482 621Q435 642 382 642Q326 642 277 621.50Q228 601 198 560Q144 492 142 360Q142 232 198 160Q227 120 274.50 98.50Q322 77 374 77Z"  horiz-adv-x="756" vert-adv-y="960"  />

      
      <glyph glyph-name="unid8" unicode="&#xd8;" d="M663 579Q714 492 716 360Q716 201 636 101Q590 44 523 14.50Q456-15 378-15Q312-15 253 6Q194 27 151 68L95 12L30 77L94 141Q40 233 40 360Q40 434 59.50 500.50Q79 567 121 619Q165 676 232.50 705.50Q300 735 378 735Q444 734 503 713Q562 692 606 652L661 707L726 642L663 579M142 360Q142 273 167 214L537 584Q507 613 465.50 628Q424 643 378 642Q324 643 275.50 621.50Q227 600 198 560Q144 492 142 360M614 360Q614 444 589 505L219 136Q249 108 289.50 92.50Q330 77 374 77Q431 77 479.50 98Q528 119 558 160Q612 231 614 360Z"  horiz-adv-x="756" vert-adv-y="960"  />

      
      <glyph glyph-name="unid5" unicode="&#xd5;" d="M535 949Q538 937 538 924Q538 898 527 878Q518 863 503.50 853Q489 843 473 840Q459 838 452 838Q420 838 379 857L360 866Q346 873 333 878Q320 883 309 883Q281 883 281 859Q281 850 283 845L222 845Q219 856 219 869Q219 895 230 915Q239 930 253.50 940Q268 950 284 953Q298 955 306 955Q342 955 377 936L397 927Q411 920 424.50 915Q438 910 449 910Q463 910 469.50 917Q476 924 476 935Q476 944 474 949L535 949M378-15Q299-15 231.50 14.50Q164 44 121 101Q79 154 59.50 220Q40 286 40 360Q40 434 59.50 500.50Q79 567 121 619Q165 676 232.50 705.50Q300 735 378 735Q457 734 524 704.50Q591 675 636 619Q714 521 716 360Q716 201 636 101Q590 44 523 14.50Q456-15 378-15M374 77Q431 77 479.50 98Q528 119 558 160Q612 231 614 360Q614 488 558 560Q529 600 482 621Q435 642 382 642Q326 642 277 621.50Q228 601 198 560Q144 492 142 360Q142 232 198 160Q227 120 274.50 98.50Q322 77 374 77Z"  horiz-adv-x="756" vert-adv-y="960"  />

      
      <glyph glyph-name="uni0152" unicode="&#x0152;" d="M742 623L742 408L1038 408L1038 312L742 312L742 97L1098 97L1098 0L645 0L645 113L636 101Q590 44 523 14.50Q456-15 378-15Q299-15 231.50 14.50Q164 44 121 101Q79 154 59.50 220Q40 286 40 360Q40 434 59.50 500.50Q79 567 121 619Q165 676 232.50 705.50Q300 735 378 735Q457 734 524 704.50Q591 675 636 619L645 607L645 720L1098 720L1098 623L742 623M558 160Q612 231 614 360Q614 488 558 560Q529 600 482 621Q435 642 382 642Q326 642 277 621.50Q228 601 198 560Q144 492 142 360Q142 232 198 160Q227 120 274.50 98.50Q322 77 374 77Q431 77 479.50 98Q528 119 558 160Z"  horiz-adv-x="1158" vert-adv-y="960"  />

      
      <glyph glyph-name="uni50" unicode="&#x50;" d="M621 491Q622 453 608 416Q594 379 570 349Q539 309 491 286Q443 263 391 263L177 263L177 0L80 0L80 720L391 720Q430 720 465 707Q527 686 565 638Q592 608 606.50 569.50Q621 531 621 491M492 406Q522 444 522 487Q522 545 485 585Q467 604 441 616Q415 628 390 628L177 628L177 355L390 355Q418 355 446 368.50Q474 382 492 406Z"  horiz-adv-x="650" vert-adv-y="960"  />

      
      <glyph glyph-name="unide" unicode="&#xde;" d="M592 360Q593 322 579.50 285Q566 248 541 217Q510 178 462.50 155Q415 132 362 132L178 132L178 0L80 0L80 720L178 720L178 589L362 589Q398 589 437 576Q499 555 536 507Q563 477 577.50 438.50Q592 400 592 360M463 275Q493 313 493 356Q493 416 456 454Q437 473 412 485Q387 497 361 497L178 497L178 223L361 223Q388 223 416 237Q444 251 463 275Z"  horiz-adv-x="621" vert-adv-y="960"  />

      
      <glyph glyph-name="uni51" unicode="&#x51;" d="M716 360Q716 204 639 105L696 48L635-15L576 44Q493-15 378-15Q299-15 231.50 14.50Q164 44 121 101Q79 154 59.50 220Q40 286 40 360Q40 434 59.50 500.50Q79 567 121 619Q165 676 232.50 705.50Q300 735 378 735Q457 734 524 704.50Q591 675 636 619Q714 521 716 360M374 77Q452 77 507 112L436 183L499 246L569 176Q612 245 614 360Q614 488 558 560Q529 600 482 621Q435 642 382 642Q326 642 277 621.50Q228 601 198 560Q144 492 142 360Q142 232 198 160Q227 120 274.50 98.50Q322 77 374 77Z"  horiz-adv-x="756" vert-adv-y="960"  />

      
      <glyph glyph-name="uni52" unicode="&#x52;" d="M570 349Q537 305 483 282L621 0L511 0L384 263L177 263L177 0L80 0L80 720L391 720Q430 720 465 707Q527 686 565 638Q592 608 606.50 569.50Q621 531 621 491Q622 453 608 416Q594 379 570 349M177 355L390 355Q418 355 446 368.50Q474 382 492 406Q522 444 522 487Q522 545 485 585Q467 604 441 616Q415 628 390 628L177 628L177 355Z"  horiz-adv-x="632" vert-adv-y="960"  />

      
      <glyph glyph-name="uni0154" unicode="&#x0154;" d="M202 785L175 857L423 953L449 880L202 785M570 349Q537 305 483 282L621 0L511 0L384 263L177 263L177 0L80 0L80 720L391 720Q430 720 465 707Q527 686 565 638Q592 608 606.50 569.50Q621 531 621 491Q622 453 608 416Q594 379 570 349M177 355L390 355Q418 355 446 368.50Q474 382 492 406Q522 444 522 487Q522 545 485 585Q467 604 441 616Q415 628 390 628L177 628L177 355Z"  horiz-adv-x="632" vert-adv-y="960"  />

      
      <glyph glyph-name="uni0158" unicode="&#x0158;" d="M308 786L151 879L189 946L308 876L426 946L464 879L308 786M570 349Q537 305 483 282L621 0L511 0L384 263L177 263L177 0L80 0L80 720L391 720Q430 720 465 707Q527 686 565 638Q592 608 606.50 569.50Q621 531 621 491Q622 453 608 416Q594 379 570 349M177 355L390 355Q418 355 446 368.50Q474 382 492 406Q522 444 522 487Q522 545 485 585Q467 604 441 616Q415 628 390 628L177 628L177 355Z"  horiz-adv-x="632" vert-adv-y="960"  />

      
      <glyph glyph-name="uni0156" unicode="&#x0156;" d="M570 349Q537 305 483 282L621 0L511 0L384 263L177 263L177 0L80 0L80 720L391 720Q430 720 465 707Q527 686 565 638Q592 608 606.50 569.50Q621 531 621 491Q622 453 608 416Q594 379 570 349M177 355L390 355Q418 355 446 368.50Q474 382 492 406Q522 444 522 487Q522 545 485 585Q467 604 441 616Q415 628 390 628L177 628L177 355M269-73L368-73L368-172Q368-216 339.50-241Q311-266 269-266L269-220Q286-220 305-209.50Q324-199 323-172L269-172L269-73Z"  horiz-adv-x="632" vert-adv-y="960"  />

      
      <glyph glyph-name="uni53" unicode="&#x53;" d="M493 512Q479 547 460 572Q441 597 413 614Q365 643 311 643Q250 643 212 621Q188 608 174.50 585.50Q161 563 161 539Q161 507 183 483Q209 457 277 438L405 400Q448 388 479.50 371.50Q511 355 535 332Q565 304 581 267.50Q597 231 597 191Q597 145 573.50 102Q550 59 511 32Q443-15 322-15Q168-15 90 84Q50 135 30 218L128 245Q139 183 168 146Q193 111 235 94Q277 77 325 77Q361 77 396.50 86Q432 95 454 111Q475 127 484.50 148.50Q494 170 494 194Q494 235 465 262Q437 289 382 305L249 344Q205 357 172.50 372Q140 387 115 410Q87 434 73 469Q59 504 59 541Q59 593 89.50 638Q120 683 167 706Q200 723 235.50 729Q271 735 312 735Q400 733 461 698Q505 674 538 632.50Q571 591 591 538L493 512Z"  horiz-adv-x="627" vert-adv-y="960"  />

      
      <glyph glyph-name="uni015A" unicode="&#x015A;" d="M450 880L423 953L175 857L202 785L450 880M493 512Q479 547 460 572Q441 597 413 614Q365 643 311 643Q250 643 212 621Q188 608 174.50 585.50Q161 563 161 539Q161 507 183 483Q209 457 277 438L405 400Q448 388 479.50 371.50Q511 355 535 332Q565 304 581 267.50Q597 231 597 191Q597 145 573.50 102Q550 59 511 32Q443-15 322-15Q168-15 90 84Q50 135 30 218L128 245Q139 183 168 146Q193 111 235 94Q277 77 325 77Q361 77 396.50 86Q432 95 454 111Q475 127 484.50 148.50Q494 170 494 194Q494 235 465 262Q437 289 382 305L249 344Q205 357 172.50 372Q140 387 115 410Q87 434 73 469Q59 504 59 541Q59 593 89.50 638Q120 683 167 706Q200 723 235.50 729Q271 735 312 735Q400 733 461 698Q505 674 538 632.50Q571 591 591 538L493 512Z"  horiz-adv-x="627" vert-adv-y="960"  />

      
      <glyph glyph-name="uni0160" unicode="&#x0160;" d="M160 879L316 786L472 879L435 946L316 876L198 946L160 879M493 512Q479 547 460 572Q441 597 413 614Q365 643 311 643Q250 643 212 621Q188 608 174.50 585.50Q161 563 161 539Q161 507 183 483Q209 457 277 438L405 400Q448 388 479.50 371.50Q511 355 535 332Q565 304 581 267.50Q597 231 597 191Q597 145 573.50 102Q550 59 511 32Q443-15 322-15Q168-15 90 84Q50 135 30 218L128 245Q139 183 168 146Q193 111 235 94Q277 77 325 77Q361 77 396.50 86Q432 95 454 111Q475 127 484.50 148.50Q494 170 494 194Q494 235 465 262Q437 289 382 305L249 344Q205 357 172.50 372Q140 387 115 410Q87 434 73 469Q59 504 59 541Q59 593 89.50 638Q120 683 167 706Q200 723 235.50 729Q271 735 312 735Q400 733 461 698Q505 674 538 632.50Q571 591 591 538L493 512Z"  horiz-adv-x="627" vert-adv-y="960"  />

      
      <glyph glyph-name="uni015E" unicode="&#x015E;" d="M535 332Q565 304 581 267.50Q597 231 597 191Q597 145 573.50 102Q550 59 511 32Q451-10 346-15L333-51Q365-64 381-94Q393-115 393-141Q393-172 376-197Q361-220 336-231.50Q311-243 283-240Q257-239 228-224L251-163Q273-170 285-171Q307-171 316-156Q322-149 322-139Q322-133 319-127Q314-113 300-105.50Q286-98 256-90L283-13Q157-2 90 84Q50 135 30 218L128 245Q139 183 168 146Q193 111 235 94Q277 77 325 77Q361 77 396.50 86Q432 95 454 111Q475 127 484.50 148.50Q494 170 494 194Q494 235 465 262Q437 289 382 305L249 344Q205 357 172.50 372Q140 387 115 410Q87 434 73 469Q59 504 59 541Q59 593 89.50 638Q120 683 167 706Q200 723 235.50 729Q271 735 312 735Q400 733 461 698Q505 674 538 632.50Q571 591 591 538L493 512Q479 547 460 572Q441 597 413 614Q365 643 311 643Q250 643 212 621Q188 608 174.50 585.50Q161 563 161 539Q161 507 183 483Q209 457 277 438L405 400Q448 388 479.50 371.50Q511 355 535 332Z"  horiz-adv-x="627" vert-adv-y="960"  />

      
      <glyph glyph-name="uni0218" unicode="&#x0218;" d="M493 512Q479 547 460 572Q441 597 413 614Q365 643 311 643Q250 643 212 621Q188 608 174.50 585.50Q161 563 161 539Q161 507 183 483Q209 457 277 438L405 400Q448 388 479.50 371.50Q511 355 535 332Q565 304 581 267.50Q597 231 597 191Q597 145 573.50 102Q550 59 511 32Q443-15 322-15Q168-15 90 84Q50 135 30 218L128 245Q139 183 168 146Q193 111 235 94Q277 77 325 77Q361 77 396.50 86Q432 95 454 111Q475 127 484.50 148.50Q494 170 494 194Q494 235 465 262Q437 289 382 305L249 344Q205 357 172.50 372Q140 387 115 410Q87 434 73 469Q59 504 59 541Q59 593 89.50 638Q120 683 167 706Q200 723 235.50 729Q271 735 312 735Q400 733 461 698Q505 674 538 632.50Q571 591 591 538L493 512M365-172Q365-215 336-240.50Q307-266 265-266L265-220Q283-220 301.50-209.50Q320-199 319-172L265-172L265-73L365-73L365-172Z"  horiz-adv-x="627" vert-adv-y="960"  />

      
      <glyph glyph-name="uni54" unicode="&#x54;" d="M592 623L349 623L349 0L252 0L252 623L10 623L10 720L592 720L592 623Z"  horiz-adv-x="602" vert-adv-y="960"  />

      
      <glyph glyph-name="uni0166" unicode="&#x0166;" d="M349 623L349 408L528 408L528 312L349 312L349 0L252 0L252 312L73 312L73 408L252 408L252 623L10 623L10 720L592 720L592 623L349 623Z"  horiz-adv-x="602" vert-adv-y="960"  />

      
      <glyph glyph-name="uni0164" unicode="&#x0164;" d="M281 786L125 879L162 946L281 876L399 946L437 879L281 786M592 623L349 623L349 0L252 0L252 623L10 623L10 720L592 720L592 623Z"  horiz-adv-x="602" vert-adv-y="960"  />

      
      <glyph glyph-name="uni0162" unicode="&#x0162;" d="M333 0L315-51Q345-64 363-94Q375-114 375-140Q375-172 358-197Q342-220 317-231.50Q292-243 265-240Q241-239 209-224L232-163Q253-170 266-171Q290-171 297-156Q303-147 303-138Q303-118 287.50-108.50Q272-99 238-90L270 0L252 0L252 623L10 623L10 720L592 720L592 623L349 623L349 0L333 0Z"  horiz-adv-x="602" vert-adv-y="960"  />

      
      <glyph glyph-name="uni021A" unicode="&#x021A;" d="M592 623L349 623L349 0L252 0L252 623L10 623L10 720L592 720L592 623M231-73L331-73L331-172Q331-215 302-240.50Q273-266 231-266L231-220Q249-220 267.50-209.50Q286-199 285-172L231-172L231-73Z"  horiz-adv-x="602" vert-adv-y="960"  />

      
      <glyph glyph-name="uni55" unicode="&#x55;" d="M651 263Q651 216 634.50 170Q618 124 588 86Q550 37 491 11Q432-15 366-15Q300-15 241 11Q182 37 143 86Q114 122 97 169.50Q80 217 80 263L80 719L178 720L178 286Q178 241 186 210Q194 179 218 147Q244 113 283.50 94.50Q323 76 366 76Q408 76 447.50 95Q487 114 513 147Q537 178 545 209Q553 240 553 286L553 720L651 720L651 263Z"  horiz-adv-x="731" vert-adv-y="960"  />

      
      <glyph glyph-name="unida" unicode="&#xda;" d="M501 880L475 953L227 857L254 785L501 880M651 263Q651 216 634.50 170Q618 124 588 86Q550 37 491 11Q432-15 366-15Q300-15 241 11Q182 37 143 86Q114 122 97 169.50Q80 217 80 263L80 719L178 720L178 286Q178 241 186 210Q194 179 218 147Q244 113 283.50 94.50Q323 76 366 76Q408 76 447.50 95Q487 114 513 147Q537 178 545 209Q553 240 553 286L553 720L651 720L651 263Z"  horiz-adv-x="731" vert-adv-y="960"  />

      
      <glyph glyph-name="unidb" unicode="&#xdb;" d="M360 857L479 786L517 854L360 946L204 854L242 786L360 857M651 263Q651 216 634.50 170Q618 124 588 86Q550 37 491 11Q432-15 366-15Q300-15 241 11Q182 37 143 86Q114 122 97 169.50Q80 217 80 263L80 719L178 720L178 286Q178 241 186 210Q194 179 218 147Q244 113 283.50 94.50Q323 76 366 76Q408 76 447.50 95Q487 114 513 147Q537 178 545 209Q553 240 553 286L553 720L651 720L651 263Z"  horiz-adv-x="731" vert-adv-y="960"  />

      
      <glyph glyph-name="unidc" unicode="&#xdc;" d="M302 935L302 840L207 840L207 935L302 935M501 935L501 840L406 840L406 935L501 935M651 263Q651 216 634.50 170Q618 124 588 86Q550 37 491 11Q432-15 366-15Q300-15 241 11Q182 37 143 86Q114 122 97 169.50Q80 217 80 263L80 719L178 720L178 286Q178 241 186 210Q194 179 218 147Q244 113 283.50 94.50Q323 76 366 76Q408 76 447.50 95Q487 114 513 147Q537 178 545 209Q553 240 553 286L553 720L651 720L651 263Z"  horiz-adv-x="731" vert-adv-y="960"  />

      
      <glyph glyph-name="unid9" unicode="&#xd9;" d="M507 857L259 953L233 880L480 785L507 857M651 263Q651 216 634.50 170Q618 124 588 86Q550 37 491 11Q432-15 366-15Q300-15 241 11Q182 37 143 86Q114 122 97 169.50Q80 217 80 263L80 719L178 720L178 286Q178 241 186 210Q194 179 218 147Q244 113 283.50 94.50Q323 76 366 76Q408 76 447.50 95Q487 114 513 147Q537 178 545 209Q553 240 553 286L553 720L651 720L651 263Z"  horiz-adv-x="731" vert-adv-y="960"  />

      
      <glyph glyph-name="uni0170" unicode="&#x0170;" d="M392 904L344 953L231 841L279 792L392 904M547 904L499 953L385 841L433 792L547 904M651 263Q651 216 634.50 170Q618 124 588 86Q550 37 491 11Q432-15 366-15Q300-15 241 11Q182 37 143 86Q114 122 97 169.50Q80 217 80 263L80 719L178 720L178 286Q178 241 186 210Q194 179 218 147Q244 113 283.50 94.50Q323 76 366 76Q408 76 447.50 95Q487 114 513 147Q537 178 545 209Q553 240 553 286L553 720L651 720L651 263Z"  horiz-adv-x="731" vert-adv-y="960"  />

      
      <glyph glyph-name="uni016A" unicode="&#x016A;" d="M494 918L494 840L235 840L235 918L494 918M651 263Q651 216 634.50 170Q618 124 588 86Q550 37 491 11Q432-15 366-15Q300-15 241 11Q182 37 143 86Q114 122 97 169.50Q80 217 80 263L80 719L178 720L178 286Q178 241 186 210Q194 179 218 147Q244 113 283.50 94.50Q323 76 366 76Q408 76 447.50 95Q487 114 513 147Q537 178 545 209Q553 240 553 286L553 720L651 720L651 263Z"  horiz-adv-x="731" vert-adv-y="960"  />

      
      <glyph glyph-name="uni0172" unicode="&#x0172;" d="M651 720L651 263Q651 216 634.50 170Q618 124 588 86Q568 62 556 52L534 31Q475-25 459-47Q430-87 420-113Q417-128 417-131Q417-146 425-154Q434-164 448-164Q469-164 492-145L531-193Q513-218 484-231Q464-240 443-240Q420-240 399-230Q378-220 364-203Q340-176 340-135Q340-108 348-87Q362-49 393-14Q384-15 366-15Q300-15 241 11Q182 37 143 86Q114 122 97 169.50Q80 217 80 263L80 719L178 720L178 286Q178 241 186 210Q194 179 218 147Q244 113 283.50 94.50Q323 76 366 76Q408 76 447.50 95Q487 114 513 147Q537 178 545 209Q553 240 553 286L553 720L651 720Z"  horiz-adv-x="731" vert-adv-y="960"  />

      
      <glyph glyph-name="uni016E" unicode="&#x016E;" d="M366 976Q401 976 431.50 958.50Q462 941 479.50 910.50Q497 880 497 845Q497 809 479.50 778.50Q462 748 431.50 730.50Q401 713 366 713Q330 713 299.50 730.50Q269 748 251.50 778.50Q234 809 234 845Q234 880 251.50 910.50Q269 941 299.50 958.50Q330 976 366 976M366 905Q341 905 323.50 887.50Q306 870 306 845Q306 820 323.50 802.50Q341 785 366 785Q391 785 408.50 802.50Q426 820 426 845Q426 870 408.50 887.50Q391 905 366 905M651 263Q651 216 634.50 170Q618 124 588 86Q550 37 491 11Q432-15 366-15Q300-15 241 11Q182 37 143 86Q114 122 97 169.50Q80 217 80 263L80 719L178 720L178 286Q178 241 186 210Q194 179 218 147Q244 113 283.50 94.50Q323 76 366 76Q408 76 447.50 95Q487 114 513 147Q537 178 545 209Q553 240 553 286L553 720L651 720L651 263Z"  horiz-adv-x="731" vert-adv-y="960"  />

      
      <glyph glyph-name="uni56" unicode="&#x56;" d="M5 720L105 720L310 100L517 720L617 720L380 0L242 0L5 720Z"  horiz-adv-x="622" vert-adv-y="960"  />

      
      <glyph glyph-name="uni57" unicode="&#x57;" d="M942 720L733 0L636 0L477 546L320 0L223 0L14 720L115 720L271 169L426 719L528 720L684 169L840 720L942 720Z"  horiz-adv-x="956" vert-adv-y="960"  />

      
      <glyph glyph-name="uni1E82" unicode="&#x1E82;" d="M597 880L571 953L323 857L350 785L597 880M942 720L733 0L636 0L477 546L320 0L223 0L14 720L115 720L271 169L426 719L528 720L684 169L840 720L942 720Z"  horiz-adv-x="956" vert-adv-y="960"  />

      
      <glyph glyph-name="uni0174" unicode="&#x0174;" d="M478 857L597 786L635 854L478 946L322 854L360 786L478 857M942 720L733 0L636 0L477 546L320 0L223 0L14 720L115 720L271 169L426 719L528 720L684 169L840 720L942 720Z"  horiz-adv-x="956" vert-adv-y="960"  />

      
      <glyph glyph-name="uni1E84" unicode="&#x1E84;" d="M427 935L427 840L332 840L332 935L427 935M625 935L625 840L530 840L530 935L625 935M942 720L733 0L636 0L477 546L320 0L223 0L14 720L115 720L271 169L426 719L528 720L684 169L840 720L942 720Z"  horiz-adv-x="956" vert-adv-y="960"  />

      
      <glyph glyph-name="uni1E80" unicode="&#x1E80;" d="M622 857L375 953L348 880L596 785L622 857M942 720L733 0L636 0L477 546L320 0L223 0L14 720L115 720L271 169L426 719L528 720L684 169L840 720L942 720Z"  horiz-adv-x="956" vert-adv-y="960"  />

      
      <glyph glyph-name="uni58" unicode="&#x58;" d="M627 0L508 0L316 283L124 0L5 0L261 364L11 720L129 720L316 445L503 720L621 720L372 364L627 0Z"  horiz-adv-x="632" vert-adv-y="960"  />

      
      <glyph glyph-name="uni59" unicode="&#x59;" d="M584 720L341 298L341 0L243 0L243 298L0 720L113 720L292 409L471 720L584 720Z"  horiz-adv-x="584" vert-adv-y="960"  />

      
      <glyph glyph-name="unidd" unicode="&#xdd;" d="M439 880L413 953L165 857L192 785L439 880M584 720L341 298L341 0L243 0L243 298L0 720L113 720L292 409L471 720L584 720Z"  horiz-adv-x="584" vert-adv-y="960"  />

      
      <glyph glyph-name="uni0176" unicode="&#x0176;" d="M292 857L411 786L448 854L292 946L136 854L173 786L292 857M584 720L341 298L341 0L243 0L243 298L0 720L113 720L292 409L471 720L584 720Z"  horiz-adv-x="584" vert-adv-y="960"  />

      
      <glyph glyph-name="uni0178" unicode="&#x0178;" d="M240 935L240 840L145 840L145 935L240 935M439 935L439 840L344 840L344 935L439 935M584 720L341 298L341 0L243 0L243 298L0 720L113 720L292 409L471 720L584 720Z"  horiz-adv-x="584" vert-adv-y="960"  />

      
      <glyph glyph-name="uni1EF2" unicode="&#x1EF2;" d="M445 857L197 953L171 880L418 785L445 857M584 720L341 298L341 0L243 0L243 298L0 720L113 720L292 409L471 720L584 720Z"  horiz-adv-x="584" vert-adv-y="960"  />

      
      <glyph glyph-name="uni5a" unicode="&#x5a;" d="M575 92L575 0L60 0L60 92L452 628L60 628L60 720L575 720L575 628L183 92L575 92Z"  horiz-adv-x="635" vert-adv-y="960"  />

      
      <glyph glyph-name="uni0179" unicode="&#x0179;" d="M478 880L452 953L204 857L231 785L478 880M575 92L575 0L60 0L60 92L452 628L60 628L60 720L575 720L575 628L183 92L575 92Z"  horiz-adv-x="635" vert-adv-y="960"  />

      
      <glyph glyph-name="uni017D" unicode="&#x017D;" d="M177 879L333 786L489 879L452 946L333 876L214 946L177 879M575 92L575 0L60 0L60 92L452 628L60 628L60 720L575 720L575 628L183 92L575 92Z"  horiz-adv-x="635" vert-adv-y="960"  />

      
      <glyph glyph-name="uni017B" unicode="&#x017B;" d="M391 935L391 831L287 831L287 935L391 935M575 92L575 0L60 0L60 92L452 628L60 628L60 720L575 720L575 628L183 92L575 92Z"  horiz-adv-x="635" vert-adv-y="960"  />

      
      <glyph glyph-name="uni61" unicode="&#x61;" d="M61 440L75 461Q145 554 278 554Q355 554 412 525.50Q469 497 498 438Q521 391 521 339L521 0L435 0L435 103Q423 77 399 54Q375 31 348 18Q289-14 225-14Q181-14 139.50 5Q98 24 75 55Q57 82 48.50 105.50Q40 129 40 158Q40 201 61.50 237.50Q83 274 122 297Q156 316 189 324Q222 332 287 342Q308 344 317 346L421 361Q418 383 407 402Q396 421 378 434Q339 463 282 463Q201 463 162 414Q153 402 150 397L61 440M399 276L303 260Q249 251 216 242.50Q183 234 160 214.50Q137 195 137 162Q137 127 166 101Q195 75 236 75Q289 75 338.50 103Q388 131 407 178Q419 203 422 225Q425 247 425 280L399 276Z"  horiz-adv-x="581" vert-adv-y="960"  />

      
      <glyph glyph-name="unie1" unicode="&#xe1;" d="M436 700L410 773L162 677L189 605L436 700M61 440L75 461Q145 554 278 554Q355 554 412 525.50Q469 497 498 438Q521 391 521 339L521 0L435 0L435 103Q423 77 399 54Q375 31 348 18Q289-14 225-14Q181-14 139.50 5Q98 24 75 55Q57 82 48.50 105.50Q40 129 40 158Q40 201 61.50 237.50Q83 274 122 297Q156 316 189 324Q222 332 287 342Q308 344 317 346L421 361Q418 383 407 402Q396 421 378 434Q339 463 282 463Q201 463 162 414Q153 402 150 397L61 440M399 276L303 260Q249 251 216 242.50Q183 234 160 214.50Q137 195 137 162Q137 127 166 101Q195 75 236 75Q289 75 338.50 103Q388 131 407 178Q419 203 422 225Q425 247 425 280L399 276Z"  horiz-adv-x="581" vert-adv-y="960"  />

      
      <glyph glyph-name="uni0103" unicode="&#x0103;" d="M440 740Q440 702 421 670Q402 638 369.50 619Q337 600 299 600Q261 600 229 619Q197 638 178 670Q159 702 159 740L237 740Q237 714 255.50 695.50Q274 677 299 677Q325 677 343.50 695.50Q362 714 362 740L440 740M61 440L75 461Q145 554 278 554Q355 554 412 525.50Q469 497 498 438Q521 391 521 339L521 0L435 0L435 103Q423 77 399 54Q375 31 348 18Q289-14 225-14Q181-14 139.50 5Q98 24 75 55Q57 82 48.50 105.50Q40 129 40 158Q40 201 61.50 237.50Q83 274 122 297Q156 316 189 324Q222 332 287 342Q308 344 317 346L421 361Q418 383 407 402Q396 421 378 434Q339 463 282 463Q201 463 162 414Q153 402 150 397L61 440M399 276L303 260Q249 251 216 242.50Q183 234 160 214.50Q137 195 137 162Q137 127 166 101Q195 75 236 75Q289 75 338.50 103Q388 131 407 178Q419 203 422 225Q425 247 425 280L399 276Z"  horiz-adv-x="581" vert-adv-y="960"  />

      
      <glyph glyph-name="unie2" unicode="&#xe2;" d="M295 677L414 606L452 674L295 766L139 674L177 606L295 677M61 440L75 461Q145 554 278 554Q355 554 412 525.50Q469 497 498 438Q521 391 521 339L521 0L435 0L435 103Q423 77 399 54Q375 31 348 18Q289-14 225-14Q181-14 139.50 5Q98 24 75 55Q57 82 48.50 105.50Q40 129 40 158Q40 201 61.50 237.50Q83 274 122 297Q156 316 189 324Q222 332 287 342Q308 344 317 346L421 361Q418 383 407 402Q396 421 378 434Q339 463 282 463Q201 463 162 414Q153 402 150 397L61 440M399 276L303 260Q249 251 216 242.50Q183 234 160 214.50Q137 195 137 162Q137 127 166 101Q195 75 236 75Q289 75 338.50 103Q388 131 407 178Q419 203 422 225Q425 247 425 280L399 276Z"  horiz-adv-x="581" vert-adv-y="960"  />

      
      <glyph glyph-name="unie4" unicode="&#xe4;" d="M247 755L247 660L152 660L152 755L247 755M446 755L446 660L351 660L351 755L446 755M61 440L75 461Q145 554 278 554Q355 554 412 525.50Q469 497 498 438Q521 391 521 339L521 0L435 0L435 103Q423 77 399 54Q375 31 348 18Q289-14 225-14Q181-14 139.50 5Q98 24 75 55Q57 82 48.50 105.50Q40 129 40 158Q40 201 61.50 237.50Q83 274 122 297Q156 316 189 324Q222 332 287 342Q308 344 317 346L421 361Q418 383 407 402Q396 421 378 434Q339 463 282 463Q201 463 162 414Q153 402 150 397L61 440M399 276L303 260Q249 251 216 242.50Q183 234 160 214.50Q137 195 137 162Q137 127 166 101Q195 75 236 75Q289 75 338.50 103Q388 131 407 178Q419 203 422 225Q425 247 425 280L399 276Z"  horiz-adv-x="581" vert-adv-y="960"  />

      
      <glyph glyph-name="unie0" unicode="&#xe0;" d="M461 677L213 773L187 700L434 605L461 677M61 440L75 461Q145 554 278 554Q355 554 412 525.50Q469 497 498 438Q521 391 521 339L521 0L435 0L435 103Q423 77 399 54Q375 31 348 18Q289-14 225-14Q181-14 139.50 5Q98 24 75 55Q57 82 48.50 105.50Q40 129 40 158Q40 201 61.50 237.50Q83 274 122 297Q156 316 189 324Q222 332 287 342Q308 344 317 346L421 361Q418 383 407 402Q396 421 378 434Q339 463 282 463Q201 463 162 414Q153 402 150 397L61 440M399 276L303 260Q249 251 216 242.50Q183 234 160 214.50Q137 195 137 162Q137 127 166 101Q195 75 236 75Q289 75 338.50 103Q388 131 407 178Q419 203 422 225Q425 247 425 280L399 276Z"  horiz-adv-x="581" vert-adv-y="960"  />

      
      <glyph glyph-name="uni0101" unicode="&#x0101;" d="M433 738L433 660L175 660L175 738L433 738M61 440L75 461Q145 554 278 554Q355 554 412 525.50Q469 497 498 438Q521 391 521 339L521 0L435 0L435 103Q423 77 399 54Q375 31 348 18Q289-14 225-14Q181-14 139.50 5Q98 24 75 55Q57 82 48.50 105.50Q40 129 40 158Q40 201 61.50 237.50Q83 274 122 297Q156 316 189 324Q222 332 287 342Q308 344 317 346L421 361Q418 383 407 402Q396 421 378 434Q339 463 282 463Q201 463 162 414Q153 402 150 397L61 440M399 276L303 260Q249 251 216 242.50Q183 234 160 214.50Q137 195 137 162Q137 127 166 101Q195 75 236 75Q289 75 338.50 103Q388 131 407 178Q419 203 422 225Q425 247 425 280L399 276Z"  horiz-adv-x="581" vert-adv-y="960"  />

      
      <glyph glyph-name="uni0105" unicode="&#x0105;" d="M538-193Q520-218 491-231Q472-240 450-240Q428-240 407-230Q386-220 372-203Q347-177 347-134Q347-108 355-87Q376-30 435 17L435 103Q423 77 399 54Q375 31 348 18Q289-14 225-14Q181-14 139.50 5Q98 24 75 55Q57 82 48.50 105.50Q40 129 40 158Q40 201 61.50 237.50Q83 274 122 297Q156 316 189 324Q222 332 287 342Q308 344 317 346L421 361Q418 383 407 402Q396 421 378 434Q339 463 282 463Q201 463 162 414Q153 402 150 397L61 440L75 461Q145 554 278 554Q355 554 412 525.50Q469 497 498 438Q521 391 521 339L521 0Q485-27 466-51Q437-85 428-113Q424-123 424-132Q424-146 432-154Q441-164 455-164Q475-164 500-145L538-193M407 178Q419 203 422 225Q425 247 425 280L399 276L303 260Q249 251 216 242.50Q183 234 160 214.50Q137 195 137 162Q137 127 166 101Q195 75 236 75Q289 75 338.50 103Q388 131 407 178Z"  horiz-adv-x="581" vert-adv-y="960"  />

      
      <glyph glyph-name="unie5" unicode="&#xe5;" d="M498 438Q521 391 521 339L521 0L435 0L435 103Q423 77 399 54Q375 31 348 18Q289-14 225-14Q181-14 139.50 5Q98 24 75 55Q57 82 48.50 105.50Q40 129 40 158Q40 201 61.50 237.50Q83 274 122 297Q156 316 189 324Q222 332 287 342Q308 344 317 346L421 361Q418 383 407 402Q396 421 378 434Q339 463 282 463Q201 463 162 414Q153 402 150 397L61 440L75 461Q117 516 181 539Q156 572 156 615Q156 650 174 680.50Q192 711 222.50 729Q253 747 288 747Q324 747 354 729Q384 711 402 680.50Q420 650 420 615Q420 570 392 534Q465 505 498 438M288 675Q263 675 245.50 657.50Q228 640 228 615Q228 590 245.50 572.50Q263 555 288 555Q313 555 330.50 572.50Q348 590 348 615Q348 640 330.50 657.50Q313 675 288 675M407 178Q419 203 422 225Q425 247 425 280L399 276L303 260Q249 251 216 242.50Q183 234 160 214.50Q137 195 137 162Q137 127 166 101Q195 75 236 75Q289 75 338.50 103Q388 131 407 178Z"  horiz-adv-x="581" vert-adv-y="960"  />

      
      <glyph glyph-name="unie3" unicode="&#xe3;" d="M454 744Q457 732 457 719Q457 693 446 673Q437 658 422.50 648Q408 638 392 635Q378 633 371 633Q339 633 298 652L279 661Q265 668 251.50 673Q238 678 227 678Q200 678 200 654Q200 645 202 640L141 640Q138 652 138 666Q138 692 149 710Q158 725 172.50 735Q187 745 203 748Q217 750 225 750Q261 750 296 731Q310 725 317 721Q330 715 343.50 710Q357 705 368 705Q395 705 395 731Q395 736 393 744L454 744M61 440L75 461Q145 554 278 554Q355 554 412 525.50Q469 497 498 438Q521 391 521 339L521 0L435 0L435 103Q423 77 399 54Q375 31 348 18Q289-14 225-14Q181-14 139.50 5Q98 24 75 55Q57 82 48.50 105.50Q40 129 40 158Q40 201 61.50 237.50Q83 274 122 297Q156 316 189 324Q222 332 287 342Q308 344 317 346L421 361Q418 383 407 402Q396 421 378 434Q339 463 282 463Q201 463 162 414Q153 402 150 397L61 440M399 276L303 260Q249 251 216 242.50Q183 234 160 214.50Q137 195 137 162Q137 127 166 101Q195 75 236 75Q289 75 338.50 103Q388 131 407 178Q419 203 422 225Q425 247 425 280L399 276Z"  horiz-adv-x="581" vert-adv-y="960"  />

      
      <glyph glyph-name="unie6" unicode="&#xe6;" d="M520 243Q525 172 554 133Q573 106 603.50 91.50Q634 77 669 77Q704 77 734.50 91.50Q765 106 784 133Q790 142 798 158L888 117Q879 96 860 72Q826 30 777.50 7.50Q729-15 676-15Q617-15 565 7.50Q513 30 480 74Q469 87 457 110L451 100Q411 39 350 10Q301-13 236-13Q206-13 174-6Q100 11 70 61Q40 102 40 153Q40 186 53 216Q67 249 94.50 271.50Q122 294 155 303Q191 315 227.50 319Q264 323 325 323L423 323Q422 364 410.50 391Q399 418 375 435Q337 463 273 463Q207 463 171 424Q156 414 148 397L59 440Q67 453 73 461Q106 507 159 530.50Q212 554 275 554Q363 554 425 515Q457 494 478 465L480 467Q514 510 563.50 532.50Q613 555 669 555Q726 555 775 532.50Q824 510 857 467Q916 388 916 270Q916 252 915 243L520 243M669 463Q634 464 603.50 449.50Q573 435 554 407Q531 376 522 322L815 322Q808 372 784 407Q765 435 734.50 449.50Q704 464 669 463M393 154Q414 186 421 238L347 238Q253 238 225 235Q199 233 178 221Q157 209 146 192Q137 177 137 157Q137 132 151 114Q163 97 183 87Q203 77 222 75Q227 74 237 74Q284 74 321 92Q342 102 361.50 118.50Q381 135 393 154Z"  horiz-adv-x="956" vert-adv-y="960"  />

      
      <glyph glyph-name="uni62" unicode="&#x62;" d="M518 469Q549 429 564 378Q579 327 579 270Q579 149 518 72Q484 30 435.50 7.50Q387-15 331-15Q278-15 233 3Q188 21 156 57L156 0L70 0L70 720L167 720L167 495Q199 524 242 539.50Q285 555 331 555Q387 555 436 532.50Q485 510 518 469M441 132Q476 179 476 270Q476 361 440 409Q420 438 387.50 452.50Q355 467 316 467Q280 467 249 454Q218 441 198 415Q156 365 156 270Q156 227 166.50 189Q177 151 198 125Q220 100 251 86.50Q282 73 319 73Q356 73 388.50 88Q421 103 441 132Z"  horiz-adv-x="619" vert-adv-y="960"  />

      
      <glyph glyph-name="uni63" unicode="&#x63;" d="M440 381Q430 399 424 407Q403 435 371 449.50Q339 464 302 463Q265 464 233 449.50Q201 435 180 407Q144 359 142 270Q144 181 180 133Q201 106 233 91.50Q265 77 302 77Q339 77 371 91.50Q403 106 424 133Q428 139 439 158L530 119Q517 92 501 74Q465 30 412.50 7Q360-16 302-14Q243-16 191 7Q139 30 103 74Q40 152 40 270Q40 387 103 467Q139 511 190.50 533Q242 555 302 555Q361 555 413.50 532.50Q466 510 501 467Q520 444 530 420L440 381Z"  horiz-adv-x="565" vert-adv-y="960"  />

      
      <glyph glyph-name="uni0107" unicode="&#x0107;" d="M434 700L408 773L160 677L187 605L434 700M440 381Q430 399 424 407Q403 435 371 449.50Q339 464 302 463Q265 464 233 449.50Q201 435 180 407Q144 359 142 270Q144 181 180 133Q201 106 233 91.50Q265 77 302 77Q339 77 371 91.50Q403 106 424 133Q428 139 439 158L530 119Q517 92 501 74Q465 30 412.50 7Q360-16 302-14Q243-16 191 7Q139 30 103 74Q40 152 40 270Q40 387 103 467Q139 511 190.50 533Q242 555 302 555Q361 555 413.50 532.50Q466 510 501 467Q520 444 530 420L440 381Z"  horiz-adv-x="565" vert-adv-y="960"  />

      
      <glyph glyph-name="uni010D" unicode="&#x010D;" d="M151 699L307 606L463 699L426 766L307 696L188 766L151 699M440 381Q430 399 424 407Q403 435 371 449.50Q339 464 302 463Q265 464 233 449.50Q201 435 180 407Q144 359 142 270Q144 181 180 133Q201 106 233 91.50Q265 77 302 77Q339 77 371 91.50Q403 106 424 133Q428 139 439 158L530 119Q517 92 501 74Q465 30 412.50 7Q360-16 302-14Q243-16 191 7Q139 30 103 74Q40 152 40 270Q40 387 103 467Q139 511 190.50 533Q242 555 302 555Q361 555 413.50 532.50Q466 510 501 467Q520 444 530 420L440 381Z"  horiz-adv-x="565" vert-adv-y="960"  />

      
      <glyph glyph-name="unie7" unicode="&#xe7;" d="M424 133Q428 139 439 158L530 119Q517 92 501 74Q472 38 431 16Q390-6 344-12L330-51Q360-64 378-94Q390-114 390-140Q390-172 373-197Q357-220 332.50-231.50Q308-243 280-240Q255-239 225-224L247-163Q271-170 282-171Q305-171 312-156Q319-146 319-139Q319-133 316-127Q311-113 297-105.50Q283-98 253-90L280-14Q227-11 181 12Q135 35 103 74Q40 152 40 270Q40 387 103 467Q139 511 190.50 533Q242 555 302 555Q361 555 413.50 532.50Q466 510 501 467Q520 444 530 420L440 381Q430 399 424 407Q403 435 371 449.50Q339 464 302 463Q265 464 233 449.50Q201 435 180 407Q144 359 142 270Q144 181 180 133Q201 106 233 91.50Q265 77 302 77Q339 77 371 91.50Q403 106 424 133Z"  horiz-adv-x="565" vert-adv-y="960"  />

      
      <glyph glyph-name="uni010B" unicode="&#x010B;" d="M364 755L364 651L260 651L260 755L364 755M440 381Q430 399 424 407Q403 435 371 449.50Q339 464 302 463Q265 464 233 449.50Q201 435 180 407Q144 359 142 270Q144 181 180 133Q201 106 233 91.50Q265 77 302 77Q339 77 371 91.50Q403 106 424 133Q428 139 439 158L530 119Q517 92 501 74Q465 30 412.50 7Q360-16 302-14Q243-16 191 7Q139 30 103 74Q40 152 40 270Q40 387 103 467Q139 511 190.50 533Q242 555 302 555Q361 555 413.50 532.50Q466 510 501 467Q520 444 530 420L440 381Z"  horiz-adv-x="565" vert-adv-y="960"  />

      
      <glyph glyph-name="uni64" unicode="&#x64;" d="M549 720L549 0L463 0L463 57Q431 21 386 3Q341-15 287-15Q232-15 183 7.50Q134 30 101 72Q40 148 40 270Q40 327 55 378Q70 429 101 469Q134 511 183 533Q232 555 288 555Q334 555 376.50 539.50Q419 524 451 495L451 720L549 720M421 125Q442 151 452.50 189Q463 227 463 270Q463 365 421 415Q400 441 369.50 454Q339 467 303 467Q264 467 231.50 452.50Q199 438 179 409Q143 361 143 270Q143 179 178 132Q198 103 230.50 88Q263 73 300 73Q336 73 367.50 86.50Q399 100 421 125Z"  horiz-adv-x="619" vert-adv-y="960"  />

      
      <glyph glyph-name="unif0" unicode="&#xf0;" d="M502 579Q522 535 535.50 468Q549 401 549 332L549 254Q549 198 533 149Q517 100 485 64Q451 25 401 5Q351-15 295-15Q239-15 189 5.50Q139 26 105 64Q72 101 56 149.50Q40 198 40 251Q40 305 56 353.50Q72 402 105 439Q139 479 189.50 499Q240 519 295 518Q331 519 366 508.50Q401 498 430 476Q434 474 442 466Q433 526 412 559Q391 591 363 614L314 551L252 600L294 653Q258 666 214 669L227 749Q295 746 349 723L407 797L469 748L419 684Q472 643 502 579M430 196Q439 223 439 253Q439 289 427 319Q416 348 395 369Q374 390 347 401Q323 411 295 411Q261 411 231 396Q205 383 186.50 360Q168 337 159 307Q151 278 151 251Q151 216 163 184Q174 155 195 133.50Q216 112 243 102Q271 92 296 92Q329 92 359 107Q385 120 403.50 143.50Q422 167 430 196Z"  horiz-adv-x="589" vert-adv-y="960"  />

      
      <glyph glyph-name="uni010F" unicode="&#x010F;" d="M549 720L549 0L463 0L463 57Q431 21 386 3Q341-15 287-15Q232-15 183 7.50Q134 30 101 72Q40 148 40 270Q40 327 55 378Q70 429 101 469Q134 511 183 533Q232 555 288 555Q334 555 376.50 539.50Q419 524 451 495L451 720L549 720M421 125Q442 151 452.50 189Q463 227 463 270Q463 365 421 415Q400 441 369.50 454Q339 467 303 467Q264 467 231.50 452.50Q199 438 179 409Q143 361 143 270Q143 179 178 132Q198 103 230.50 88Q263 73 300 73Q336 73 367.50 86.50Q399 100 421 125M730 594Q730 544 709 516.50Q688 489 647 489Q642 489 626 491L632 535Q658 533 670 548.50Q682 564 682 591Q682 602 681 607L626 607L626 724L730 724L730 594Z"  horiz-adv-x="752" vert-adv-y="960"  />

      
      <glyph glyph-name="uni0111" unicode="&#x0111;" d="M602 588L549 588L549 0L463 0L463 57Q431 21 386 3Q341-15 287-15Q232-15 183 7.50Q134 30 101 72Q40 148 40 270Q40 327 55 378Q70 429 101 469Q134 511 183 533Q232 555 288 555Q334 555 376.50 539.50Q419 524 451 495L451 588L343 588L343 667L451 667L451 720L549 720L549 667L602 667L602 588M421 125Q442 151 452.50 189Q463 227 463 270Q463 365 421 415Q400 441 369.50 454Q339 467 303 467Q264 467 231.50 452.50Q199 438 179 409Q143 361 143 270Q143 179 178 132Q198 103 230.50 88Q263 73 300 73Q336 73 367.50 86.50Q399 100 421 125Z"  horiz-adv-x="619" vert-adv-y="960"  />

      
      <glyph glyph-name="uni65" unicode="&#x65;" d="M144 243Q149 173 180 133Q201 106 233 91.50Q265 77 302 77Q339 77 371 91.50Q403 106 424 133Q429 141 432.50 147Q436 153 439 158L535 117Q522 93 505 72Q469 30 418 7.50Q367-15 309-15Q247-15 193 7.50Q139 30 103 74Q40 152 40 265Q40 388 103 467Q138 510 190.50 532.50Q243 555 302 555Q362 555 414 532.50Q466 510 502 467Q534 427 549 376Q564 325 564 270L563 243L144 243M302 463Q265 464 233 449.50Q201 435 180 407Q155 374 147 322L457 322Q449 374 424 407Q403 435 371 449.50Q339 464 302 463Z"  horiz-adv-x="604" vert-adv-y="960"  />

      
      <glyph glyph-name="unie9" unicode="&#xe9;" d="M192 605L165 677L412 773L439 700L192 605M144 243Q149 173 180 133Q201 106 233 91.50Q265 77 302 77Q339 77 371 91.50Q403 106 424 133Q429 141 432.50 147Q436 153 439 158L535 117Q522 93 505 72Q469 30 418 7.50Q367-15 309-15Q247-15 193 7.50Q139 30 103 74Q40 152 40 265Q40 388 103 467Q138 510 190.50 532.50Q243 555 302 555Q362 555 414 532.50Q466 510 502 467Q534 427 549 376Q564 325 564 270L563 243L144 243M302 463Q265 464 233 449.50Q201 435 180 407Q155 374 147 322L457 322Q449 374 424 407Q403 435 371 449.50Q339 464 302 463Z"  horiz-adv-x="604" vert-adv-y="960"  />

      
      <glyph glyph-name="uni011B" unicode="&#x011B;" d="M318 606L162 699L200 766L318 696L437 766L475 699L318 606M144 243Q149 173 180 133Q201 106 233 91.50Q265 77 302 77Q339 77 371 91.50Q403 106 424 133Q429 141 432.50 147Q436 153 439 158L535 117Q522 93 505 72Q469 30 418 7.50Q367-15 309-15Q247-15 193 7.50Q139 30 103 74Q40 152 40 265Q40 388 103 467Q138 510 190.50 532.50Q243 555 302 555Q362 555 414 532.50Q466 510 502 467Q534 427 549 376Q564 325 564 270L563 243L144 243M302 463Q265 464 233 449.50Q201 435 180 407Q155 374 147 322L457 322Q449 374 424 407Q403 435 371 449.50Q339 464 302 463Z"  horiz-adv-x="604" vert-adv-y="960"  />

      
      <glyph glyph-name="uniea" unicode="&#xea;" d="M183 606L146 674L302 766L458 674L421 606L302 677L183 606M144 243Q149 173 180 133Q201 106 233 91.50Q265 77 302 77Q339 77 371 91.50Q403 106 424 133Q429 141 432.50 147Q436 153 439 158L535 117Q522 93 505 72Q469 30 418 7.50Q367-15 309-15Q247-15 193 7.50Q139 30 103 74Q40 152 40 265Q40 388 103 467Q138 510 190.50 532.50Q243 555 302 555Q362 555 414 532.50Q466 510 502 467Q534 427 549 376Q564 325 564 270L563 243L144 243M302 463Q265 464 233 449.50Q201 435 180 407Q155 374 147 322L457 322Q449 374 424 407Q403 435 371 449.50Q339 464 302 463Z"  horiz-adv-x="604" vert-adv-y="960"  />

      
      <glyph glyph-name="unieb" unicode="&#xeb;" d="M262 660L167 660L167 755L262 755L262 660M461 660L366 660L366 755L461 755L461 660M144 243Q149 173 180 133Q201 106 233 91.50Q265 77 302 77Q339 77 371 91.50Q403 106 424 133Q429 141 432.50 147Q436 153 439 158L535 117Q522 93 505 72Q469 30 418 7.50Q367-15 309-15Q247-15 193 7.50Q139 30 103 74Q40 152 40 265Q40 388 103 467Q138 510 190.50 532.50Q243 555 302 555Q362 555 414 532.50Q466 510 502 467Q534 427 549 376Q564 325 564 270L563 243L144 243M302 463Q265 464 233 449.50Q201 435 180 407Q155 374 147 322L457 322Q449 374 424 407Q403 435 371 449.50Q339 464 302 463Z"  horiz-adv-x="604" vert-adv-y="960"  />

      
      <glyph glyph-name="uni0117" unicode="&#x0117;" d="M361 651L257 651L257 755L361 755L361 651M144 243Q149 173 180 133Q201 106 233 91.50Q265 77 302 77Q339 77 371 91.50Q403 106 424 133Q429 141 432.50 147Q436 153 439 158L535 117Q522 93 505 72Q469 30 418 7.50Q367-15 309-15Q247-15 193 7.50Q139 30 103 74Q40 152 40 265Q40 388 103 467Q138 510 190.50 532.50Q243 555 302 555Q362 555 414 532.50Q466 510 502 467Q534 427 549 376Q564 325 564 270L563 243L144 243M302 463Q265 464 233 449.50Q201 435 180 407Q155 374 147 322L457 322Q449 374 424 407Q403 435 371 449.50Q339 464 302 463Z"  horiz-adv-x="604" vert-adv-y="960"  />

      
      <glyph glyph-name="unie8" unicode="&#xe8;" d="M448 605L201 700L227 773L475 677L448 605M144 243Q149 173 180 133Q201 106 233 91.50Q265 77 302 77Q339 77 371 91.50Q403 106 424 133Q429 141 432.50 147Q436 153 439 158L535 117Q522 93 505 72Q469 30 418 7.50Q367-15 309-15Q247-15 193 7.50Q139 30 103 74Q40 152 40 265Q40 388 103 467Q138 510 190.50 532.50Q243 555 302 555Q362 555 414 532.50Q466 510 502 467Q534 427 549 376Q564 325 564 270L563 243L144 243M302 463Q265 464 233 449.50Q201 435 180 407Q155 374 147 322L457 322Q449 374 424 407Q403 435 371 449.50Q339 464 302 463Z"  horiz-adv-x="604" vert-adv-y="960"  />

      
      <glyph glyph-name="uni0113" unicode="&#x0113;" d="M441 660L183 660L183 738L441 738L441 660M144 243Q149 173 180 133Q201 106 233 91.50Q265 77 302 77Q339 77 371 91.50Q403 106 424 133Q429 141 432.50 147Q436 153 439 158L535 117Q522 93 505 72Q469 30 418 7.50Q367-15 309-15Q247-15 193 7.50Q139 30 103 74Q40 152 40 265Q40 388 103 467Q138 510 190.50 532.50Q243 555 302 555Q362 555 414 532.50Q466 510 502 467Q534 427 549 376Q564 325 564 270L563 243L144 243M302 463Q265 464 233 449.50Q201 435 180 407Q155 374 147 322L457 322Q449 374 424 407Q403 435 371 449.50Q339 464 302 463Z"  horiz-adv-x="604" vert-adv-y="960"  />

      
      <glyph glyph-name="uni0119" unicode="&#x0119;" d="M144 243Q149 173 180 133Q201 106 233 91.50Q265 77 302 77Q339 77 371 91.50Q403 106 424 133Q429 141 432.50 147Q436 153 439 158L535 117Q507 66 457-3Q450-14 444.50-21.50Q439-29 436-34Q408-81 398-112Q396-122 396-130Q396-145 404-154Q413-164 427-164Q448-164 471-145L510-193Q492-218 463-231Q444-240 422-240Q400-240 379-230Q358-220 344-203Q319-177 319-134Q319-108 327-87Q338-57 370-8Q337-15 311-15Q248-15 193.50 7.50Q139 30 103 74Q40 152 40 265Q40 388 103 467Q138 510 190.50 532.50Q243 555 302 555Q362 555 414 532.50Q466 510 502 467Q534 427 549 376Q564 325 564 270L563 243L144 243M302 463Q265 464 233 449.50Q201 435 180 407Q155 374 147 322L457 322Q449 374 424 407Q403 435 371 449.50Q339 464 302 463Z"  horiz-adv-x="604" vert-adv-y="960"  />

      
      <glyph glyph-name="uni66" unicode="&#x66;" d="M294 647Q256 640 240.50 619.50Q225 599 225 562L225 540L376 540L376 461L225 461L225 0L129 0L129 461L10 461L10 540L129 540L129 555Q129 642 178 690Q231 736 324 736Q349 736 376 733L376 648Q356 651 334 651Q311 651 294 647Z"  horiz-adv-x="386" vert-adv-y="960"  />

      
      <glyph glyph-name="uni67" unicode="&#x67;" d="M548 540L548-9Q548-80 527.50-127.50Q507-175 460-207Q391-254 296-254Q256-254 217-241Q178-228 151-203Q106-177 83-137L172-93Q181-110 196-122Q214-141 241.50-151.50Q269-162 297-162Q329-162 358.50-153Q388-144 408-127Q434-106 443-80Q452-54 451-8L451 45Q420 15 378 0Q336-15 287-15Q232-15 183 7.50Q134 30 101 72Q40 148 40 270Q40 327 55 378Q70 429 101 469Q134 511 183 533Q232 555 288 555Q339 555 385 536.50Q431 518 463 484L463 540L548 540M300 73Q336 73 367.50 86.50Q399 100 421 125Q442 151 452.50 189Q463 227 463 270Q463 365 421 415Q400 441 369.50 454Q339 467 303 467Q264 467 231.50 452.50Q199 438 179 409Q143 361 143 270Q143 179 178 132Q198 103 230.50 88Q263 73 300 73Z"  horiz-adv-x="618" vert-adv-y="960"  />

      
      <glyph glyph-name="uni011F" unicode="&#x011F;" d="M327 600Q289 600 257 619Q225 638 206 670Q187 702 187 740L264 740Q264 714 282.50 695.50Q301 677 327 677Q353 677 371.50 695.50Q390 714 390 740L467 740Q467 702 448.50 670Q430 638 397.50 619Q365 600 327 600M548 540L548-9Q548-80 527.50-127.50Q507-175 460-207Q391-254 296-254Q256-254 217-241Q178-228 151-203Q106-177 83-137L172-93Q181-110 196-122Q214-141 241.50-151.50Q269-162 297-162Q329-162 358.50-153Q388-144 408-127Q434-106 443-80Q452-54 451-8L451 45Q420 15 378 0Q336-15 287-15Q232-15 183 7.50Q134 30 101 72Q40 148 40 270Q40 327 55 378Q70 429 101 469Q134 511 183 533Q232 555 288 555Q339 555 385 536.50Q431 518 463 484L463 540L548 540M300 73Q336 73 367.50 86.50Q399 100 421 125Q442 151 452.50 189Q463 227 463 270Q463 365 421 415Q400 441 369.50 454Q339 467 303 467Q264 467 231.50 452.50Q199 438 179 409Q143 361 143 270Q143 179 178 132Q198 103 230.50 88Q263 73 300 73Z"  horiz-adv-x="618" vert-adv-y="960"  />

      
      <glyph glyph-name="uni0123" unicode="&#x0123;" d="M374 600L274 600L274 700Q274 743 303 768.50Q332 794 374 794L374 748Q357 748 338 737.50Q319 727 320 700L374 700L374 600M548 540L548-9Q548-80 527.50-127.50Q507-175 460-207Q391-254 296-254Q256-254 217-241Q178-228 151-203Q106-177 83-137L172-93Q181-110 196-122Q214-141 241.50-151.50Q269-162 297-162Q329-162 358.50-153Q388-144 408-127Q434-106 443-80Q452-54 451-8L451 45Q420 15 378 0Q336-15 287-15Q232-15 183 7.50Q134 30 101 72Q40 148 40 270Q40 327 55 378Q70 429 101 469Q134 511 183 533Q232 555 288 555Q339 555 385 536.50Q431 518 463 484L463 540L548 540M300 73Q336 73 367.50 86.50Q399 100 421 125Q442 151 452.50 189Q463 227 463 270Q463 365 421 415Q400 441 369.50 454Q339 467 303 467Q264 467 231.50 452.50Q199 438 179 409Q143 361 143 270Q143 179 178 132Q198 103 230.50 88Q263 73 300 73Z"  horiz-adv-x="618" vert-adv-y="960"  />

      
      <glyph glyph-name="uni0121" unicode="&#x0121;" d="M374 651L270 651L270 755L374 755L374 651M548 540L548-9Q548-80 527.50-127.50Q507-175 460-207Q391-254 296-254Q256-254 217-241Q178-228 151-203Q106-177 83-137L172-93Q181-110 196-122Q214-141 241.50-151.50Q269-162 297-162Q329-162 358.50-153Q388-144 408-127Q434-106 443-80Q452-54 451-8L451 45Q420 15 378 0Q336-15 287-15Q232-15 183 7.50Q134 30 101 72Q40 148 40 270Q40 327 55 378Q70 429 101 469Q134 511 183 533Q232 555 288 555Q339 555 385 536.50Q431 518 463 484L463 540L548 540M300 73Q336 73 367.50 86.50Q399 100 421 125Q442 151 452.50 189Q463 227 463 270Q463 365 421 415Q400 441 369.50 454Q339 467 303 467Q264 467 231.50 452.50Q199 438 179 409Q143 361 143 270Q143 179 178 132Q198 103 230.50 88Q263 73 300 73Z"  horiz-adv-x="618" vert-adv-y="960"  />

      
      <glyph glyph-name="uni68" unicode="&#x68;" d="M467 504Q517 464 534 407Q551 350 550 267L550 0L452 0L452 267Q452 325 441 365.50Q430 406 399 431Q361 462 302 460Q253 457 220 430Q183 400 174 346Q169 325 168 296Q167 267 167 237L167 0L70 0L70 720L156 720L156 486Q156 486 167 497Q198 525 239.50 539Q281 553 324 553Q363 553 400.50 540.50Q438 528 467 504Z"  horiz-adv-x="600" vert-adv-y="960"  />

      
      <glyph glyph-name="uni0127" unicode="&#x0127;" d="M467 504Q517 464 534 407Q551 350 550 267L550 0L452 0L452 267Q452 325 441 365.50Q430 406 399 431Q361 462 302 460Q253 457 220 430Q183 400 174 346Q169 325 168 296Q167 267 167 237L167 0L70 0L70 588L10 588L10 667L70 667L70 720L156 720L156 667L269 667L269 588L156 588L156 486Q156 486 167 497Q198 525 239.50 539Q281 553 324 553Q363 553 400.50 540.50Q438 528 467 504Z"  horiz-adv-x="600" vert-adv-y="960"  />

      
      <glyph glyph-name="uni69" unicode="&#x69;" d="M177 725L177 628L80 628L80 725L177 725M177 540L177 0L80 0L80 540L177 540Z"  horiz-adv-x="257" vert-adv-y="960"  />

      
      <glyph glyph-name="uni0131" unicode="&#x0131;" d="M177 540L177 0L80 0L80 540L177 540Z"  horiz-adv-x="257" vert-adv-y="960"  />

      
      <glyph glyph-name="unied" unicode="&#xed;" d="M265 700L239 773L-9 677L18 605L265 700M177 540L177 0L80 0L80 540L177 540Z"  horiz-adv-x="257" vert-adv-y="960"  />

      
      <glyph glyph-name="uniee" unicode="&#xee;" d="M134 677L253 606L290 674L134 766L-22 674L16 606L134 677M177 540L177 0L80 0L80 540L177 540Z"  horiz-adv-x="257" vert-adv-y="960"  />

      
      <glyph glyph-name="unief" unicode="&#xef;" d="M77 755L77 660L-18 660L-18 755L77 755M275 755L275 660L180 660L180 755L275 755M177 540L177 0L80 0L80 540L177 540Z"  horiz-adv-x="257" vert-adv-y="960"  />

      
      <glyph glyph-name="uniec" unicode="&#xec;" d="M266 677L18 773L-8 700L239 605L266 677M177 540L177 0L80 0L80 540L177 540Z"  horiz-adv-x="257" vert-adv-y="960"  />

      
      <glyph glyph-name="uni012B" unicode="&#x012B;" d="M258 738L258 660L-1 660L-1 738L258 738M177 540L177 0L80 0L80 540L177 540Z"  horiz-adv-x="257" vert-adv-y="960"  />

      
      <glyph glyph-name="uni012F" unicode="&#x012F;" d="M177 628L80 628L80 725L177 725L177 628M194-193Q176-218 147-231Q128-240 106-240Q84-240 63-230Q42-220 28-203Q3-177 3-134Q3-108 11-87Q32-33 80 9L80 540L177 540L177 0Q141-27 122-51Q94-82 84-113Q80-123 80-132Q80-146 88-154Q97-164 111-164Q132-164 155-145L194-193Z"  horiz-adv-x="257" vert-adv-y="960"  />

      
      <glyph glyph-name="uni6a" unicode="&#x6a;" d="M195 716L195 619L98 619L98 716L195 716M17-255Q59-255 94-239.50Q129-224 152-194Q178-163 186.50-123.50Q195-84 195-21L195 540L98 540L98-21Q98-70 93.50-94Q89-118 74-134Q56-156 17-156L17-255Z"  horiz-adv-x="275" vert-adv-y="960"  />

      
      <glyph glyph-name="uni6b" unicode="&#x6b;" d="M168 0L70 0L70 719L168 719L168 334L258 334L398 540L509 540L342 294L535 0L425 0L258 255L168 255L168 0Z"  horiz-adv-x="535" vert-adv-y="960"  />

      
      <glyph glyph-name="uni0137" unicode="&#x0137;" d="M168 0L70 0L70 719L168 719L168 334L258 334L398 540L509 540L342 294L535 0L425 0L258 255L168 255L168 0M335-172Q335-216 306.50-241Q278-266 236-266L236-220Q253-220 272-209.50Q291-199 290-172L236-172L236-73L335-73L335-172Z"  horiz-adv-x="535" vert-adv-y="960"  />

      
      <glyph glyph-name="uni6c" unicode="&#x6c;" d="M167 0L167 735L70 735L70 0L167 0Z"  horiz-adv-x="237" vert-adv-y="960"  />

      
      <glyph glyph-name="uni013A" unicode="&#x013A;" d="M255 880L229 953L-19 857L8 785L255 880M167 0L167 735L70 735L70 0L167 0Z"  horiz-adv-x="237" vert-adv-y="960"  />

      
      <glyph glyph-name="uni013E" unicode="&#x013E;" d="M167 0L167 735L70 735L70 0L167 0M363 594Q363 544 342 516.50Q321 489 280 489Q275 489 259 491L265 535Q291 533 303 548.50Q315 564 315 591Q315 602 314 607L259 607L259 724L363 724L363 594Z"  horiz-adv-x="385" vert-adv-y="960"  />

      
      <glyph glyph-name="uni013C" unicode="&#x013C;" d="M167 0L167 735L70 735L70 0L167 0M171-172Q171-215 142-240.50Q113-266 71-266L71-220Q88-220 107-209.50Q126-199 125-172L71-172L71-73L171-73L171-172Z"  horiz-adv-x="237" vert-adv-y="960"  />

      
      <glyph glyph-name="uni0142" unicode="&#x0142;" d="M231 330L231 0L134 0L134 234L45 145L-20 210L134 364L134 735L231 735L231 460L320 549L385 484L231 330Z"  horiz-adv-x="365" vert-adv-y="960"  />

      
      <glyph glyph-name="uni6d" unicode="&#x6d;" d="M753 500Q790 469 802.50 427Q815 385 815 322L814 0L717 0L718 322Q718 362 710.50 384.50Q703 407 680 428Q666 442 646 450Q626 458 606 458Q580 458 557 447.50Q534 437 518 418Q502 399 496.50 378.50Q491 358 491 331L491 322L491 0L394 0L394 322Q394 362 387 384.50Q380 407 357 428Q325 458 282 458Q256 458 233.50 447.50Q211 437 195 418Q178 399 172.50 378.50Q167 358 167 331L167 0L70 0L70 540L156 540L156 471Q183 505 223.50 524.50Q264 544 309 544Q341 544 372.50 532.50Q404 521 429 500Q452 481 468 454L471 460Q497 499 540.50 521.50Q584 544 632 544Q664 544 696 532.50Q728 521 753 500Z"  horiz-adv-x="865" vert-adv-y="960"  />

      
      <glyph glyph-name="uni6e" unicode="&#x6e;" d="M467 504Q517 464 534 407Q551 350 550 267L550 0L452 0L452 267Q452 325 441 365.50Q430 406 399 431Q361 462 302 460Q253 457 220 430Q183 400 174 346Q169 325 168 296Q167 267 167 237L167 236L167 0L70 0L70 540L156 540L156 486Q156 486 167 497Q198 525 239.50 539Q281 553 324 553Q363 553 400.50 540.50Q438 528 467 504Z"  horiz-adv-x="600" vert-adv-y="960"  />

      
      <glyph glyph-name="uni0144" unicode="&#x0144;" d="M213 605L186 677L434 773L460 700L213 605M467 504Q517 464 534 407Q551 350 550 267L550 0L452 0L452 267Q452 325 441 365.50Q430 406 399 431Q361 462 302 460Q253 457 220 430Q183 400 174 346Q169 325 168 296Q167 267 167 237L167 236L167 0L70 0L70 540L156 540L156 486Q156 486 167 497Q198 525 239.50 539Q281 553 324 553Q363 553 400.50 540.50Q438 528 467 504Z"  horiz-adv-x="600" vert-adv-y="960"  />

      
      <glyph glyph-name="uni0148" unicode="&#x0148;" d="M321 606L165 699L202 766L321 696L440 766L477 699L321 606M467 504Q517 464 534 407Q551 350 550 267L550 0L452 0L452 267Q452 325 441 365.50Q430 406 399 431Q361 462 302 460Q253 457 220 430Q183 400 174 346Q169 325 168 296Q167 267 167 237L167 236L167 0L70 0L70 540L156 540L156 486Q156 486 167 497Q198 525 239.50 539Q281 553 324 553Q363 553 400.50 540.50Q438 528 467 504Z"  horiz-adv-x="600" vert-adv-y="960"  />

      
      <glyph glyph-name="uni0146" unicode="&#x0146;" d="M467 504Q517 464 534 407Q551 350 550 267L550 0L452 0L452 267Q452 325 441 365.50Q430 406 399 431Q361 462 302 460Q253 457 220 430Q183 400 174 346Q169 325 168 296Q167 267 167 237L167 236L167 0L70 0L70 540L156 540L156 486Q156 486 167 497Q198 525 239.50 539Q281 553 324 553Q363 553 400.50 540.50Q438 528 467 504M262-73L362-73L362-172Q362-215 333-240.50Q304-266 262-266L262-220Q280-220 298.50-209.50Q317-199 316-172L262-172L262-73Z"  horiz-adv-x="600" vert-adv-y="960"  />

      
      <glyph glyph-name="uni014B" unicode="&#x014B;" d="M467 504Q517 464 534 407Q551 350 550 267L550-91Q550-142 528-172.50Q506-203 467-211Q446-214 429-214Q397-214 367-206L367-134Q385-136 392-136Q421-136 436.50-120Q452-104 452-61L452 267Q452 325 441 365.50Q430 406 399 431Q361 462 302 460Q253 457 220 430Q183 400 174 346Q169 325 168 296Q167 267 167 237L167 236L167 0L70 0L70 540L156 540L156 486Q156 486 167 497Q198 525 239.50 539Q281 553 324 553Q363 553 400.50 540.50Q438 528 467 504Z"  horiz-adv-x="600" vert-adv-y="960"  />

      
      <glyph glyph-name="unif1" unicode="&#xf1;" d="M166 640Q163 652 163 666Q163 692 174 710Q183 725 197.50 735Q212 745 228 748Q242 750 250 750Q286 750 321 731Q335 725 342 721Q355 715 368.50 710Q382 705 393 705Q420 705 420 729Q420 737 417 744L479 744Q482 732 482 719Q482 693 471 673Q461 658 446.50 648Q432 638 416 635Q402 633 395 633Q363 633 323 652L304 661Q290 668 276.50 673Q263 678 252 678Q238 678 231 671.50Q224 665 224 655Q224 648 227 640L166 640M467 504Q517 464 534 407Q551 350 550 267L550 0L452 0L452 267Q452 325 441 365.50Q430 406 399 431Q361 462 302 460Q253 457 220 430Q183 400 174 346Q169 325 168 296Q167 267 167 237L167 236L167 0L70 0L70 540L156 540L156 486Q156 486 167 497Q198 525 239.50 539Q281 553 324 553Q363 553 400.50 540.50Q438 528 467 504Z"  horiz-adv-x="600" vert-adv-y="960"  />

      
      <glyph glyph-name="uni6f" unicode="&#x6f;" d="M302-15Q242-15 190 8Q138 31 103 74Q40 152 40 270Q40 388 103 467Q137 509 190 532Q243 555 302 555Q362 555 414.50 532.50Q467 510 502 467Q565 388 565 270Q565 154 502 74Q466 30 414.50 7.50Q363-15 302-15M425 133Q462 182 462 270Q462 359 425 408Q405 435 372.50 449Q340 463 302 463Q264 463 232 449Q200 435 180 408Q143 359 143 270Q143 182 180 133Q200 106 232 91.50Q264 77 302 77Q340 77 372 91.50Q404 106 425 133Z"  horiz-adv-x="605" vert-adv-y="960"  />

      
      <glyph glyph-name="unif3" unicode="&#xf3;" d="M428 700L401 773L154 677L180 605L428 700M302-15Q242-15 190 8Q138 31 103 74Q40 152 40 270Q40 388 103 467Q137 509 190 532Q243 555 302 555Q362 555 414.50 532.50Q467 510 502 467Q565 388 565 270Q565 154 502 74Q466 30 414.50 7.50Q363-15 302-15M425 133Q462 182 462 270Q462 359 425 408Q405 435 372.50 449Q340 463 302 463Q264 463 232 449Q200 435 180 408Q143 359 143 270Q143 182 180 133Q200 106 232 91.50Q264 77 302 77Q340 77 372 91.50Q404 106 425 133Z"  horiz-adv-x="605" vert-adv-y="960"  />

      
      <glyph glyph-name="unif4" unicode="&#xf4;" d="M303 677L421 606L459 674L303 766L147 674L184 606L303 677M302-15Q242-15 190 8Q138 31 103 74Q40 152 40 270Q40 388 103 467Q137 509 190 532Q243 555 302 555Q362 555 414.50 532.50Q467 510 502 467Q565 388 565 270Q565 154 502 74Q466 30 414.50 7.50Q363-15 302-15M425 133Q462 182 462 270Q462 359 425 408Q405 435 372.50 449Q340 463 302 463Q264 463 232 449Q200 435 180 408Q143 359 143 270Q143 182 180 133Q200 106 232 91.50Q264 77 302 77Q340 77 372 91.50Q404 106 425 133Z"  horiz-adv-x="605" vert-adv-y="960"  />

      
      <glyph glyph-name="unif6" unicode="&#xf6;" d="M251 755L251 660L156 660L156 755L251 755M450 755L450 660L355 660L355 755L450 755M302-15Q242-15 190 8Q138 31 103 74Q40 152 40 270Q40 388 103 467Q137 509 190 532Q243 555 302 555Q362 555 414.50 532.50Q467 510 502 467Q565 388 565 270Q565 154 502 74Q466 30 414.50 7.50Q363-15 302-15M425 133Q462 182 462 270Q462 359 425 408Q405 435 372.50 449Q340 463 302 463Q264 463 232 449Q200 435 180 408Q143 359 143 270Q143 182 180 133Q200 106 232 91.50Q264 77 302 77Q340 77 372 91.50Q404 106 425 133Z"  horiz-adv-x="605" vert-adv-y="960"  />

      
      <glyph glyph-name="unif2" unicode="&#xf2;" d="M451 677L204 773L177 700L425 605L451 677M303-15Q242-15 190.50 7.50Q139 30 103 74Q40 154 40 270Q40 388 103 467Q138 510 190.50 532.50Q243 555 303 555Q362 555 415 532Q468 509 502 467Q565 388 565 270Q565 152 502 74Q467 31 415 8Q363-15 303-15M180 133Q201 106 233 91.50Q265 77 303 77Q341 77 373 91.50Q405 106 425 133Q462 182 462 270Q462 359 425 408Q405 435 373 449Q341 463 303 463Q265 463 232.50 449Q200 435 180 408Q143 359 143 270Q143 182 180 133Z"  horiz-adv-x="605" vert-adv-y="960"  />

      
      <glyph glyph-name="uni0151" unicode="&#x0151;" d="M338 724L290 773L176 661L224 612L338 724M492 724L444 773L331 661L379 612L492 724M302-15Q242-15 190 8Q138 31 103 74Q40 152 40 270Q40 388 103 467Q137 509 190 532Q243 555 302 555Q362 555 414.50 532.50Q467 510 502 467Q565 388 565 270Q565 154 502 74Q466 30 414.50 7.50Q363-15 302-15M425 133Q462 182 462 270Q462 359 425 408Q405 435 372.50 449Q340 463 302 463Q264 463 232 449Q200 435 180 408Q143 359 143 270Q143 182 180 133Q200 106 232 91.50Q264 77 302 77Q340 77 372 91.50Q404 106 425 133Z"  horiz-adv-x="605" vert-adv-y="960"  />

      
      <glyph glyph-name="uni014D" unicode="&#x014D;" d="M432 738L432 660L173 660L173 738L432 738M302-15Q242-15 190 8Q138 31 103 74Q40 152 40 270Q40 388 103 467Q137 509 190 532Q243 555 302 555Q362 555 414.50 532.50Q467 510 502 467Q565 388 565 270Q565 154 502 74Q466 30 414.50 7.50Q363-15 302-15M425 133Q462 182 462 270Q462 359 425 408Q405 435 372.50 449Q340 463 302 463Q264 463 232 449Q200 435 180 408Q143 359 143 270Q143 182 180 133Q200 106 232 91.50Q264 77 302 77Q340 77 372 91.50Q404 106 425 133Z"  horiz-adv-x="605" vert-adv-y="960"  />

      
      <glyph glyph-name="unif8" unicode="&#xf8;" d="M527 429Q565 360 565 270Q565 154 502 74Q466 30 414.50 7.50Q363-15 302-15Q256-15 213.50-1Q171 13 137 40L88-9L23 56L78 111Q40 179 40 270Q40 388 103 467Q137 509 190 532Q243 555 302 555Q349 555 392 541Q435 527 468 500L517 549L582 484L527 429M143 270Q143 223 154 186L400 433Q360 463 302 463Q264 463 232 449Q200 435 180 408Q143 359 143 270M462 270Q462 317 451 354L205 108Q243 77 302 77Q340 77 372 91.50Q404 106 425 133Q462 182 462 270Z"  horiz-adv-x="605" vert-adv-y="960"  />

      
      <glyph glyph-name="unif5" unicode="&#xf5;" d="M459 744Q462 732 462 718Q462 691 451 673Q442 658 427.50 648Q413 638 397 635Q383 633 376 633Q344 633 304 652Q300 654 283 662Q251 678 233 678Q219 678 212 671.50Q205 665 205 655Q205 648 208 640L147 640Q144 652 144 665Q144 692 155 710Q164 725 178.50 735Q193 745 209 748Q223 750 231 750Q267 750 302 731Q306 730 323 721Q355 705 373 705Q387 705 394 711.50Q401 718 401 729Q401 737 398 744L459 744M302-15Q242-15 190 8Q138 31 103 74Q40 152 40 270Q40 388 103 467Q137 509 190 532Q243 555 302 555Q362 555 414.50 532.50Q467 510 502 467Q565 388 565 270Q565 154 502 74Q466 30 414.50 7.50Q363-15 302-15M425 133Q462 182 462 270Q462 359 425 408Q405 435 372.50 449Q340 463 302 463Q264 463 232 449Q200 435 180 408Q143 359 143 270Q143 182 180 133Q200 106 232 91.50Q264 77 302 77Q340 77 372 91.50Q404 106 425 133Z"  horiz-adv-x="605" vert-adv-y="960"  />

      
      <glyph glyph-name="uni0153" unicode="&#x0153;" d="M567 243Q572 173 603 133Q623 106 655.50 91.50Q688 77 725 77Q762 77 794 91.50Q826 106 847 133Q852 141 855.50 147Q859 153 862 158L957 117Q945 93 927 72Q892 30 840.50 7.50Q789-15 732-15Q670-15 615.50 7.50Q561 30 525 74Q517 84 514 90L502 74Q466 30 414.50 7.50Q363-15 302-15Q242-15 190 8Q138 31 103 74Q40 152 40 270Q40 388 103 467Q137 509 190 532Q243 555 302 555Q362 555 414.50 532.50Q467 510 502 467Q510 457 513 451L525 467Q561 510 613 532.50Q665 555 725 555Q785 555 837 532.50Q889 510 924 467Q985 391 987 270Q987 261 985 243L567 243M725 463Q688 464 655.50 449.50Q623 435 603 407Q578 374 570 322L880 322Q872 374 847 407Q826 435 794 449.50Q762 464 725 463M425 133Q462 182 462 270Q462 359 425 408Q405 435 372.50 449Q340 463 302 463Q264 463 232 449Q200 435 180 408Q143 359 143 270Q143 182 180 133Q200 106 232 91.50Q264 77 302 77Q340 77 372 91.50Q404 106 425 133Z"  horiz-adv-x="1027" vert-adv-y="960"  />

      
      <glyph glyph-name="uni70" unicode="&#x70;" d="M518 469Q549 429 564 378Q579 327 579 270Q579 149 518 72Q484 30 435.50 7.50Q387-15 331-15Q282-15 240 0.50Q198 16 167 46L167-240L70-240L70 540L156 540L156 484Q189 518 235 536.50Q281 555 331 555Q387 555 436 532.50Q485 510 518 469M441 132Q476 179 476 270Q476 361 440 409Q420 438 387.50 452.50Q355 467 316 467Q280 467 249 454Q218 441 198 415Q156 365 156 270Q156 227 166.50 189Q177 151 198 125Q220 100 251 86.50Q282 73 319 73Q356 73 388.50 88Q421 103 441 132Z"  horiz-adv-x="619" vert-adv-y="960"  />

      
      <glyph glyph-name="unife" unicode="&#xfe;" d="M518 469Q549 429 564 378Q579 327 579 270Q579 149 518 72Q484 30 435.50 7.50Q387-15 331-15Q282-15 240 0.50Q198 16 167 46L167-240L70-240L70 720L167 720L167 495Q199 524 242 539.50Q285 555 331 555Q387 555 436 532.50Q485 510 518 469M441 132Q476 179 476 270Q476 361 440 409Q420 438 387.50 452.50Q355 467 316 467Q280 467 249 454Q218 441 198 415Q156 365 156 270Q156 227 166.50 189Q177 151 198 125Q220 100 251 86.50Q282 73 319 73Q356 73 388.50 88Q421 103 441 132Z"  horiz-adv-x="619" vert-adv-y="960"  />

      
      <glyph glyph-name="uni71" unicode="&#x71;" d="M549 540L549-240L451-240L451 45Q420 15 378 0Q336-15 287-15Q232-15 183 7.50Q134 30 101 72Q40 148 40 270Q40 327 55 378Q70 429 101 469Q134 511 183 533Q232 555 288 555Q339 555 385 536.50Q431 518 463 484L463 540L549 540M300 73Q336 73 367.50 86.50Q399 100 421 125Q442 151 452.50 189Q463 227 463 270Q463 365 421 415Q400 441 369.50 454Q339 467 303 467Q264 467 231.50 452.50Q199 438 179 409Q143 361 143 270Q143 179 178 132Q198 103 230.50 88Q263 73 300 73Z"  horiz-adv-x="619" vert-adv-y="960"  />

      
      <glyph glyph-name="uni72" unicode="&#x72;" d="M321 554Q361 557 400 542L400 451Q367 464 322 464Q251 464 213 424Q185 397 176 361Q167 325 167 268L167 0L70 0L70 540L156 540L156 461Q174 493 206 516Q252 552 321 554Z"  horiz-adv-x="425" vert-adv-y="960"  />

      
      <glyph glyph-name="uni0155" unicode="&#x0155;" d="M97 605L70 677L318 773L344 700L97 605M321 554Q361 557 400 542L400 451Q367 464 322 464Q251 464 213 424Q185 397 176 361Q167 325 167 268L167 0L70 0L70 540L156 540L156 461Q174 493 206 516Q252 552 321 554Z"  horiz-adv-x="425" vert-adv-y="960"  />

      
      <glyph glyph-name="uni0159" unicode="&#x0159;" d="M226 606L70 699L108 766L226 696L345 766L382 699L226 606M321 554Q361 557 400 542L400 451Q367 464 322 464Q251 464 213 424Q185 397 176 361Q167 325 167 268L167 0L70 0L70 540L156 540L156 461Q174 493 206 516Q252 552 321 554Z"  horiz-adv-x="425" vert-adv-y="960"  />

      
      <glyph glyph-name="uni0157" unicode="&#x0157;" d="M321 554Q361 557 400 542L400 451Q367 464 322 464Q251 464 213 424Q185 397 176 361Q167 325 167 268L167 0L70 0L70 540L156 540L156 461Q174 493 206 516Q252 552 321 554M69-73L169-73L169-172Q169-215 140-240.50Q111-266 69-266L69-220Q87-220 105.50-209.50Q124-199 123-172L69-172L69-73Z"  horiz-adv-x="425" vert-adv-y="960"  />

      
      <glyph glyph-name="uni73" unicode="&#x73;" d="M399 375Q391 397 375 416.50Q359 436 339 446Q307 463 266 463Q222 463 192 448Q176 439 167 427Q158 415 158 402Q158 383 170 369Q188 352 236 338Q263 330 334 311Q373 300 395 290.50Q417 281 439 262Q498 215 498 149Q498 110 478.50 76Q459 42 425 21Q369-15 275-15Q157-15 92 56Q71 79 55 114Q39 149 35 176L128 199Q130 178 139 155.50Q148 133 162 119Q199 78 274 78Q303 78 330 83.50Q357 89 372 101Q395 118 398 145Q399 172 379 191Q368 202 351.50 209Q335 216 307 224L263 236L215 249Q178 259 154 269Q130 279 109 296Q85 315 72 343.50Q59 372 59 400Q59 444 85 480Q111 516 151 534Q198 555 257 555Q331 555 381 528Q421 509 451 474Q481 439 494 398L399 375Z"  horiz-adv-x="532" vert-adv-y="960"  />

      
      <glyph glyph-name="uni015B" unicode="&#x015B;" d="M413 700L387 773L139 677L166 605L413 700M399 375Q391 397 375 416.50Q359 436 339 446Q307 463 266 463Q222 463 192 448Q176 439 167 427Q158 415 158 402Q158 383 170 369Q188 352 236 338Q263 330 334 311Q373 300 395 290.50Q417 281 439 262Q498 215 498 149Q498 110 478.50 76Q459 42 425 21Q369-15 275-15Q157-15 92 56Q71 79 55 114Q39 149 35 176L128 199Q130 178 139 155.50Q148 133 162 119Q199 78 274 78Q303 78 330 83.50Q357 89 372 101Q395 118 398 145Q399 172 379 191Q368 202 351.50 209Q335 216 307 224L263 236L215 249Q178 259 154 269Q130 279 109 296Q85 315 72 343.50Q59 372 59 400Q59 444 85 480Q111 516 151 534Q198 555 257 555Q331 555 381 528Q421 509 451 474Q481 439 494 398L399 375Z"  horiz-adv-x="532" vert-adv-y="960"  />

      
      <glyph glyph-name="uni0161" unicode="&#x0161;" d="M120 699L276 606L433 699L395 766L276 696L158 766L120 699M399 375Q391 397 375 416.50Q359 436 339 446Q307 463 266 463Q222 463 192 448Q176 439 167 427Q158 415 158 402Q158 383 170 369Q188 352 236 338Q263 330 334 311Q373 300 395 290.50Q417 281 439 262Q498 215 498 149Q498 110 478.50 76Q459 42 425 21Q369-15 275-15Q157-15 92 56Q71 79 55 114Q39 149 35 176L128 199Q130 178 139 155.50Q148 133 162 119Q199 78 274 78Q303 78 330 83.50Q357 89 372 101Q395 118 398 145Q399 172 379 191Q368 202 351.50 209Q335 216 307 224L263 236L215 249Q178 259 154 269Q130 279 109 296Q85 315 72 343.50Q59 372 59 400Q59 444 85 480Q111 516 151 534Q198 555 257 555Q331 555 381 528Q421 509 451 474Q481 439 494 398L399 375Z"  horiz-adv-x="532" vert-adv-y="960"  />

      
      <glyph glyph-name="uni015F" unicode="&#x015F;" d="M439 262Q498 215 498 149Q498 110 478.50 76Q459 42 425 21Q381-8 312-13L299-51Q329-64 347-94Q359-114 359-140Q359-172 342-197Q326-220 301-231.50Q276-243 249-240Q225-239 193-224L216-163Q240-170 250-171Q274-171 281-156Q287-147 287-138Q287-118 271.50-108.50Q256-99 222-90L249-14Q150-8 92 56Q71 79 55 114Q39 149 35 176L128 199Q130 178 139 155.50Q148 133 162 119Q199 78 274 78Q303 78 330 83.50Q357 89 372 101Q395 118 398 145Q399 172 379 191Q368 202 351.50 209Q335 216 307 224L263 236L215 249Q178 259 154 269Q130 279 109 296Q85 315 72 343.50Q59 372 59 400Q59 444 85 480Q111 516 151 534Q198 555 257 555Q331 555 381 528Q421 509 451 474Q481 439 494 398L399 375Q391 397 375 416.50Q359 436 339 446Q307 463 266 463Q222 463 192 448Q176 439 167 427Q158 415 158 402Q158 383 170 369Q188 352 236 338Q263 330 334 311Q373 300 395 290.50Q417 281 439 262Z"  horiz-adv-x="532" vert-adv-y="960"  />

      
      <glyph glyph-name="uni0219" unicode="&#x0219;" d="M399 375Q391 397 375 416.50Q359 436 339 446Q307 463 266 463Q222 463 192 448Q176 439 167 427Q158 415 158 402Q158 383 170 369Q188 352 236 338Q263 330 334 311Q373 300 395 290.50Q417 281 439 262Q498 215 498 149Q498 110 478.50 76Q459 42 425 21Q369-15 275-15Q157-15 92 56Q71 79 55 114Q39 149 35 176L128 199Q130 178 139 155.50Q148 133 162 119Q199 78 274 78Q303 78 330 83.50Q357 89 372 101Q395 118 398 145Q399 172 379 191Q368 202 351.50 209Q335 216 307 224L263 236L215 249Q178 259 154 269Q130 279 109 296Q85 315 72 343.50Q59 372 59 400Q59 444 85 480Q111 516 151 534Q198 555 257 555Q331 555 381 528Q421 509 451 474Q481 439 494 398L399 375M322-172Q322-216 293.50-241Q265-266 222-266L222-220Q240-220 259-209.50Q278-199 277-172L222-172L222-73L322-73L322-172Z"  horiz-adv-x="532" vert-adv-y="960"  />

      
      <glyph glyph-name="unidf" unicode="&#xdf;" d="M70 523Q70 612 120 667Q150 700 191.50 717Q233 734 278 734Q326 734 370 714Q414 694 443 657Q464 634 476 604Q488 574 488 542Q488 482 452 432Q438 415 418 403Q450 385 470.50 368.50Q491 352 509 327Q528 304 538.50 274Q549 244 549 213Q549 152 517 99Q485 46 427 21Q394 7 361 3.50Q328 0 276 0L235 0L235 86L276 86Q313 86 336 89.50Q359 93 385 105Q418 120 436 150.50Q454 181 454 216Q454 267 411 302Q364 342 278 347L278 431Q351 445 379 487Q396 512 396 540Q396 576 370 604Q353 625 328.50 636Q304 647 277 647Q219 647 183 606Q171 593 164 574.50Q157 556 157 539L157 0L70 0L70 523Z"  horiz-adv-x="599" vert-adv-y="960"  />

      
      <glyph glyph-name="uni74" unicode="&#x74;" d="M225 214Q225 171 226.50 152.50Q228 134 237 120Q246 104 262.50 93.50Q279 83 298 81Q307 80 326 80Q355 80 387 85L387 0Q354-9 309-9Q280-9 255-4Q178 14 150 70Q136 97 132 128.50Q128 160 128 208L128 461L10 461L10 540L128 540L128 690L225 690L225 540L387 540L387 461L225 461L225 214Z"  horiz-adv-x="437" vert-adv-y="960"  />

      
      <glyph glyph-name="uni0167" unicode="&#x0167;" d="M225 461L225 316L387 316L387 237L225 237L225 214Q225 171 226.50 152.50Q228 134 237 120Q246 104 262.50 93.50Q279 83 298 81Q307 80 326 80Q355 80 387 85L387 0Q354-9 309-9Q280-9 255-4Q178 14 150 70Q136 97 132 128.50Q128 160 128 208L128 237L10 237L10 316L128 316L128 461L10 461L10 540L128 540L128 690L225 690L225 540L387 540L387 461L225 461Z"  horiz-adv-x="437" vert-adv-y="960"  />

      
      <glyph glyph-name="uni0165" unicode="&#x0165;" d="M225 214Q225 171 226.50 152.50Q228 134 237 120Q246 104 262.50 93.50Q279 83 298 81Q307 80 326 80Q355 80 387 85L387 0Q354-9 309-9Q280-9 255-4Q178 14 150 70Q136 97 132 128.50Q128 160 128 208L128 461L10 461L10 540L128 540L128 690L225 690L225 540L387 540L387 461L225 461L225 214M429 712Q429 662 408 634.50Q387 607 346 607Q341 607 325 609L331 653Q357 651 369 666.50Q381 682 381 709Q381 720 380 725L325 725L325 842L429 842L429 712Z"  horiz-adv-x="426" vert-adv-y="960"  />

      
      <glyph glyph-name="uni0163" unicode="&#x0163;" d="M225 214Q225 171 226.50 152.50Q228 134 237 120Q246 104 262.50 93.50Q279 83 298 81Q307 80 326 80Q355 80 387 85L387 0Q354-9 309-9Q280-9 255-4Q253-4 249-2L231-52Q261-65 279-95Q291-115 291-141Q291-173 274-198Q258-221 233.50-232.50Q209-244 181-241Q156-240 126-225L148-164Q172-171 182-172Q206-172 213-157Q219-148 219-139Q219-119 203.50-109.50Q188-100 154-91L194 21Q164 40 150 70Q136 97 132 128.50Q128 160 128 208L128 461L10 461L10 540L128 540L128 690L225 690L225 540L387 540L387 461L225 461L225 214Z"  horiz-adv-x="437" vert-adv-y="960"  />

      
      <glyph glyph-name="uni021B" unicode="&#x021B;" d="M225 214Q225 171 226.50 152.50Q228 134 237 120Q246 104 262.50 93.50Q279 83 298 81Q307 80 326 80Q355 80 387 85L387 0Q354-9 309-9Q280-9 255-4Q178 14 150 70Q136 97 132 128.50Q128 160 128 208L128 461L10 461L10 540L128 540L128 690L225 690L225 540L387 540L387 461L225 461L225 214M174-73L274-73L274-172Q274-216 245.50-241Q217-266 174-266L174-220Q192-220 211-209.50Q230-199 229-172L174-172L174-73Z"  horiz-adv-x="437" vert-adv-y="960"  />

      
      <glyph glyph-name="uni75" unicode="&#x75;" d="M530 540L530 0L444 0L444 54Q444 54 433 43Q402 15 360.50 1Q319-13 276-13Q237-13 199.50-0.50Q162 12 133 36Q83 76 66 133Q49 190 50 273L50 540L148 540L148 273Q148 214 159 174Q170 134 201 110Q237 80 298 80Q348 83 380 111Q416 140 426 194Q432 219 432 265L432 540L530 540Z"  horiz-adv-x="600" vert-adv-y="960"  />

      
      <glyph glyph-name="unifa" unicode="&#xfa;" d="M189 605L162 677L410 773L436 700L189 605M530 540L530 0L444 0L444 54Q444 54 433 43Q402 15 360.50 1Q319-13 276-13Q237-13 199.50-0.50Q162 12 133 36Q83 76 66 133Q49 190 50 273L50 540L148 540L148 273Q148 214 159 174Q170 134 201 110Q237 80 298 80Q348 83 380 111Q416 140 426 194Q432 219 432 265L432 540L530 540Z"  horiz-adv-x="600" vert-adv-y="960"  />

      
      <glyph glyph-name="unifb" unicode="&#xfb;" d="M171 606L134 674L290 766L446 674L409 606L290 677L171 606M530 540L530 0L444 0L444 54Q444 54 433 43Q402 15 360.50 1Q319-13 276-13Q237-13 199.50-0.50Q162 12 133 36Q83 76 66 133Q49 190 50 273L50 540L148 540L148 273Q148 214 159 174Q170 134 201 110Q237 80 298 80Q348 83 380 111Q416 140 426 194Q432 219 432 265L432 540L530 540Z"  horiz-adv-x="600" vert-adv-y="960"  />

      
      <glyph glyph-name="unifc" unicode="&#xfc;" d="M238 660L143 660L143 755L238 755L238 660M436 660L341 660L341 755L436 755L436 660M530 540L530 0L444 0L444 54Q444 54 433 43Q402 15 360.50 1Q319-13 276-13Q237-13 199.50-0.50Q162 12 133 36Q83 76 66 133Q49 190 50 273L50 540L148 540L148 273Q148 214 159 174Q170 134 201 110Q237 80 298 80Q348 83 380 111Q416 140 426 194Q432 219 432 265L432 540L530 540Z"  horiz-adv-x="600" vert-adv-y="960"  />

      
      <glyph glyph-name="unif9" unicode="&#xf9;" d="M424 605L177 700L203 773L451 677L424 605M530 540L530 0L444 0L444 54Q444 54 433 43Q402 15 360.50 1Q319-13 276-13Q237-13 199.50-0.50Q162 12 133 36Q83 76 66 133Q49 190 50 273L50 540L148 540L148 273Q148 214 159 174Q170 134 201 110Q237 80 298 80Q348 83 380 111Q416 140 426 194Q432 219 432 265L432 540L530 540Z"  horiz-adv-x="600" vert-adv-y="960"  />

      
      <glyph glyph-name="uni0171" unicode="&#x0171;" d="M217 612L169 661L283 773L331 724L217 612M324 661L437 773L485 724L372 612L324 661M530 540L530 0L444 0L444 54Q444 54 433 43Q402 15 360.50 1Q319-13 276-13Q237-13 199.50-0.50Q162 12 133 36Q83 76 66 133Q49 190 50 273L50 540L148 540L148 273Q148 214 159 174Q170 134 201 110Q237 80 298 80Q348 83 380 111Q416 140 426 194Q432 219 432 265L432 540L530 540Z"  horiz-adv-x="600" vert-adv-y="960"  />

      
      <glyph glyph-name="uni016B" unicode="&#x016B;" d="M432 660L173 660L173 738L432 738L432 660M530 540L530 0L444 0L444 54Q444 54 433 43Q402 15 360.50 1Q319-13 276-13Q237-13 199.50-0.50Q162 12 133 36Q83 76 66 133Q49 190 50 273L50 540L148 540L148 273Q148 214 159 174Q170 134 201 110Q237 80 298 80Q348 83 380 111Q416 140 426 194Q432 219 432 265L432 540L530 540Z"  horiz-adv-x="600" vert-adv-y="960"  />

      
      <glyph glyph-name="uni0173" unicode="&#x0173;" d="M547-193Q529-218 500-231Q481-240 459-240Q436-240 415-230Q394-220 380-203Q356-176 356-135Q356-108 364-87Q386-29 444 18L444 54Q444 54 433 43Q402 15 360.50 1Q319-13 276-13Q237-13 199.50-0.50Q162 12 133 36Q83 76 66 133Q49 190 50 273L50 540L148 540L148 273Q148 214 159 174Q170 134 201 110Q237 80 298 80Q348 83 380 111Q416 140 426 194Q432 219 432 265L432 540L530 540L530 0Q494-27 475-51Q448-81 436-113Q433-128 433-131Q433-146 441-154Q450-164 464-164Q485-164 508-145L547-193Z"  horiz-adv-x="600" vert-adv-y="960"  />

      
      <glyph glyph-name="uni016F" unicode="&#x016F;" d="M299 580Q264 580 233.50 598Q203 616 185.50 646.50Q168 677 168 712Q168 747 185.50 777.50Q203 808 233.50 826Q264 844 299 844Q335 844 365 826Q395 808 413 777.50Q431 747 431 712Q431 677 413 646.50Q395 616 365 598Q335 580 299 580M299 772Q274 772 256.50 754.50Q239 737 239 712Q239 687 256.50 669.50Q274 652 299 652Q324 652 341.50 669.50Q359 687 359 712Q359 737 341.50 754.50Q324 772 299 772M530 540L530 0L444 0L444 54Q444 54 433 43Q402 15 360.50 1Q319-13 276-13Q237-13 199.50-0.50Q162 12 133 36Q83 76 66 133Q49 190 50 273L50 540L148 540L148 273Q148 214 159 174Q170 134 201 110Q237 80 298 80Q348 83 380 111Q416 140 426 194Q432 219 432 265L432 540L530 540Z"  horiz-adv-x="600" vert-adv-y="960"  />

      
      <glyph glyph-name="uni76" unicode="&#x76;" d="M505 540L309 0L211 0L14 540L112 540L260 122L407 540L505 540Z"  horiz-adv-x="519" vert-adv-y="960"  />

      
      <glyph glyph-name="uni77" unicode="&#x77;" d="M755 540L590 0L494 0L382 383L266 0L175 0L10 541L106 540L223 157L341 540L425 540L542 157L659 540L755 540Z"  horiz-adv-x="765" vert-adv-y="960"  />

      
      <glyph glyph-name="uni1E83" unicode="&#x1E83;" d="M512 700L486 773L238 677L265 605L512 700M755 540L590 0L494 0L382 383L266 0L175 0L10 541L106 540L223 157L341 540L425 540L542 157L659 540L755 540Z"  horiz-adv-x="765" vert-adv-y="960"  />

      
      <glyph glyph-name="uni0175" unicode="&#x0175;" d="M395 677L514 606L552 674L395 766L239 674L277 606L395 677M755 540L590 0L494 0L382 383L266 0L175 0L10 541L106 540L223 157L341 540L425 540L542 157L659 540L755 540Z"  horiz-adv-x="765" vert-adv-y="960"  />

      
      <glyph glyph-name="uni1E85" unicode="&#x1E85;" d="M327 755L327 660L232 660L232 755L327 755M526 755L526 660L431 660L431 755L526 755M755 540L590 0L494 0L382 383L266 0L175 0L10 541L106 540L223 157L341 540L425 540L542 157L659 540L755 540Z"  horiz-adv-x="765" vert-adv-y="960"  />

      
      <glyph glyph-name="uni1E81" unicode="&#x1E81;" d="M521 677L273 773L247 700L494 605L521 677M755 540L590 0L494 0L382 383L266 0L175 0L10 541L106 540L223 157L341 540L425 540L542 157L659 540L755 540Z"  horiz-adv-x="765" vert-adv-y="960"  />

      
      <glyph glyph-name="uni78" unicode="&#x78;" d="M319 274L525 0L412 0L267 199L122 0L10 0L215 274L14 540L126 540L267 347L408 540L520 540L319 274Z"  horiz-adv-x="535" vert-adv-y="960"  />

      
      <glyph glyph-name="uni79" unicode="&#x79;" d="M548 540L307-94Q275-179 229-213Q207-229 182-234.50Q157-240 122-240L110-240L110-146L127-148L140-149Q165-149 181-139Q195-129 209-101.50Q223-74 244-16L20 540L118 540L290 108L451 540L548 540Z"  horiz-adv-x="558" vert-adv-y="960"  />

      
      <glyph glyph-name="unifd" unicode="&#xfd;" d="M432 700L406 773L158 677L185 605L432 700M548 540L307-94Q275-179 229-213Q207-229 182-234.50Q157-240 122-240L110-240L110-146L127-148L140-149Q165-149 181-139Q195-129 209-101.50Q223-74 244-16L20 540L118 540L290 108L451 540L548 540Z"  horiz-adv-x="558" vert-adv-y="960"  />

      
      </font>
</defs>
</svg>
