<svg xmlns="http://www.w3.org/2000/svg" width="176" height="48" viewBox="0 0 176 48"><defs><clipPath id="7v4za"><path d="M15.44.44h9.263v9.27H15.44z"/></clipPath><clipPath id="7v4zb"><path d="M0 9.71h40.14v38.113H0z"/></clipPath></defs><g><g><g><g/><g clip-path="url(#7v4za)"><path fill="#dc1414" d="M20.071.44a4.635 4.635 0 0 1 4.632 4.635 4.635 4.635 0 0 1-4.632 4.636 4.634 4.634 0 0 1-4.631-4.636A4.634 4.634 0 0 1 20.071.44"/></g></g><g><g/><g clip-path="url(#7v4zb)"><path fill="#dc1414" d="M39.442 9.71l.699 1.693c-12.226 5.984-18.166 18.735-19.05 36.42H19.05C18.166 30.138 12.226 17.386 0 11.403L.7 9.71c12.592 5.48 26.148 5.48 38.742 0"/></g></g><g><path fill="#dc1414" d="M96.149 19.146a3.186 3.186 0 0 1-1.599-1.905 4.508 4.508 0 0 1-.194-1.071h1.873c.015.16.057.325.126.5.068.175.167.338.298.488.128.151.284.28.467.38.183.104.39.156.617.156.259 0 .483-.052.673-.155.191-.102.35-.23.481-.381.13-.15.223-.313.285-.487.061-.176.09-.342.09-.501h1.852c-.031.334-.107.69-.228 1.07-.123.382-.31.74-.56 1.073-.25.334-.587.611-1.005.833-.42.223-.948.335-1.588.335-.64 0-1.17-.112-1.588-.335zm5.06 5.715a96.637 96.637 0 0 1-1.874 3.103c-.106.176-.296.485-.57.931-.275.446-.59.96-.948 1.539-.358.582-.739 1.2-1.142 1.85-.403.653-.788 1.27-1.155 1.85a204.898 204.898 0 0 0-1.529 2.472h-2.399V20.159h2.604v11.696h.115l7.195-11.696h2.444v16.447h-2.605V24.861zm-14.792 1.023c0-.587-.092-1.095-.275-1.525a3.004 3.004 0 0 0-.735-1.06 2.803 2.803 0 0 0-1.069-.608 4.123 4.123 0 0 0-1.25-.191 4.09 4.09 0 0 0-1.262.19c-.4.127-.748.33-1.045.608-.297.278-.543.63-.724 1.061-.184.43-.275.938-.275 1.525v4.985c0 .604.09 1.12.275 1.55.181.429.43.779.735 1.048.305.27.66.469 1.057.596.398.128.812.19 1.24.19.426 0 .845-.062 1.249-.19.41-.127.763-.326 1.07-.596.304-.27.551-.62.734-1.049.183-.428.275-.945.275-1.549zm2.594 5.398c0 .86-.152 1.632-.456 2.316a4.87 4.87 0 0 1-1.265 1.73c-.54.47-1.173.828-1.891 1.073a7.092 7.092 0 0 1-2.316.371 7.153 7.153 0 0 1-2.337-.37 5.364 5.364 0 0 1-1.87-1.075 4.997 4.997 0 0 1-1.242-1.73c-.304-.683-.456-1.455-.456-2.315v-5.849c0-.859.156-1.623.467-2.29a5.142 5.142 0 0 1 1.265-1.707 5.519 5.519 0 0 1 1.87-1.074 6.959 6.959 0 0 1 2.303-.37c.807 0 1.568.126 2.292.381.723.255 1.351.617 1.892 1.086a5.05 5.05 0 0 1 1.276 1.72c.31.675.468 1.443.468 2.304zm-17.464-1.384a2.576 2.576 0 0 0-1.77-.663h-3.77v4.91H69.8c.822 0 1.442-.218 1.861-.651.42-.439.63-1.033.63-1.792 0-.76-.249-1.358-.744-1.804zm-.127-6.768c-.434-.342-1.041-.511-1.817-.511h-3.595v4.208h3.71c.684 0 1.25-.184 1.692-.548.444-.364.663-.88.663-1.544 0-.73-.215-1.265-.653-1.605zM74.7 33.56a4.626 4.626 0 0 1-.858 1.552c-.38.453-.852.816-1.416 1.086-.563.27-1.21.407-1.94.407h-7.082V20.159h6.807c.746 0 1.405.12 1.976.358.57.238 1.042.562 1.416.967.374.405.654.871.845 1.397.19.524.285 1.081.285 1.67a4.3 4.3 0 0 1-.456 1.897c-.304.63-.799 1.142-1.486 1.54.761.397 1.317.95 1.668 1.659.35.707.525 1.412.525 2.113 0 .62-.094 1.222-.284 1.801zM57.396 22.617v13.989h-2.604V22.617H50.43V20.16h11.306v2.458z"/></g><g><path fill="#6b6b6b" d="M173.474 29.597c-.605-.528-1.4-.792-2.387-.792h-4.407v5.993h4.453c.461 0 .891-.066 1.286-.195.392-.13.732-.323 1.019-.575.282-.253.511-.567.681-.941.171-.375.257-.816.257-1.321 0-.918-.302-1.641-.902-2.169zm2.215 3.93a4.148 4.148 0 0 1-.903 1.431 4.142 4.142 0 0 1-1.461.953c-.58.229-1.242.344-1.984.344h-6.288V20.46h1.627v6.853h4.744c.738 0 1.391.13 1.951.389.566.26 1.044.6 1.438 1.022.392.419.69.893.887 1.42.202.527.303 1.066.303 1.616a4.9 4.9 0 0 1-.314 1.766zm-21.4-11.6v5.686c0 1.375-.088 2.566-.266 3.576-.18 1.008-.434 1.871-.768 2.59-.332.718-.747 1.318-1.243 1.799a6.879 6.879 0 0 1-1.698 1.204l-.742-1.376c.51-.305.956-.657 1.335-1.054.381-.397.703-.903.965-1.513.263-.612.463-1.365.593-2.258.133-.893.198-1.99.198-3.29v-6.83h9.647v15.794h-1.627V21.927zM138.04 33.434l2.905-4.401 5.697-8.572h1.604v15.794h-1.627V23.21h-.093l-3.092 4.7-5.533 8.345h-1.605V20.46h1.629v12.973zm-8.275-11.484v14.305h-1.627V21.95H123.3v-1.489h11.253v1.49zm-7.556-.343l-.836 1.26a5.072 5.072 0 0 0-1.615-.803 6.54 6.54 0 0 0-1.872-.273 4.9 4.9 0 0 0-1.488.227c-.48.154-.915.39-1.303.712a3.45 3.45 0 0 0-.93 1.25c-.232.511-.348 1.126-.348 1.845v5.043c0 .717.12 1.332.36 1.845.242.51.551.931.93 1.26.38.329.812.574 1.291.734.48.161.962.24 1.442.24.65 0 1.286-.087 1.906-.264a4.648 4.648 0 0 0 1.673-.86l.813 1.24c-.45.351-1.054.664-1.813.94-.759.274-1.603.412-2.533.412a6.702 6.702 0 0 1-2.268-.368 5.314 5.314 0 0 1-1.8-1.053 4.853 4.853 0 0 1-1.198-1.65c-.287-.642-.43-1.362-.43-2.155V25.48c0-.779.147-1.486.443-2.12a4.983 4.983 0 0 1 1.208-1.639 5.343 5.343 0 0 1 1.8-1.054 6.658 6.658 0 0 1 2.245-.367c1.704 0 3.145.436 4.323 1.307z"/></g></g></g></svg>