<svg xmlns="http://www.w3.org/2000/svg" width="219" height="64" viewBox="0 0 219 64"><g><g><path fill="#c10327" d="M41.06 64c-10.213-5.577-17.877-12.784-22.996-21.622.86-.056 1.763-.118 2.71-.183 4.697 7.54 11.458 13.907 20.286 19.096 18.317-10.663 27.65-27.32 27.996-49.97C51.946-.49 33.183-.54 12.763 11.167c-.03 3.104.13 6.1.476 8.99-.748.177-1.503.385-2.266.622-.454-3.496-.662-7.15-.617-10.965C33.08-3.42 53.5-3.27 71.615 10.265 71.345 34.84 61.159 52.753 41.06 64"/></g><g><path fill="#2a2928" d="M41.1 59.142C33.36 54.45 27.294 48.75 22.902 42.04l-.003-.006c.787-.055 1.597-.114 2.436-.175 4.04-.122 7.763-.453 11.172-.993l-7.08 1.53a25.263 25.263 0 0 0 1.94 3.095c4.465-.92 8.347-1.973 11.65-3.16l-10.65 4.453a33.857 33.857 0 0 0 1.931 2.16c5.185-1.84 10.523-4.553 15.826-7.667l-14.717 8.763a44.28 44.28 0 0 0 2.095 1.864c3.655-1.572 7.377-3.77 11.166-6.594l-9.531 7.904c.64.493 1.307.982 1.999 1.468a56.096 56.096 0 0 0 3.83-2.503zm23.894-45.85c-17.915-9.283-34.495-9.434-49.747-.453-.024 2.33.088 4.612.338 6.847-.24.039-.484.08-.728.124-.33-2.45-.524-4.98-.587-7.59C31.915 1.23 49.577 1.18 67.251 12.066l-2.49 4.483c.103-1.07.18-2.156.233-3.259zm-.233 3.258c-1.472 15.378-8.07 27.255-19.794 35.63l3.897-7.015-.195.146.212-.176 2.585-4.653c-.447.268-.894.533-1.34.796l1.342-.8zM36.508 40.867l6.736-1.456a58.653 58.653 0 0 1-6.736 1.456zm6.51 1.465l4.656-1.947a45.754 45.754 0 0 1-4.657 1.947z"/></g><g><path fill="#2a2928" d="M57.105 34.362c-.73.15-1.466.277-2.199.416l-2.203.38-2.208.359-.348.057.003-.367.008-1.68c-.004-.28-.028-.56-.036-.84l-.035-.838-.084-.834c-.03-.277-.045-.557-.094-.831l-.127-.828c-.033-.278-.108-.546-.164-.82-.065-.27-.108-.548-.19-.813l-.229-.803-.278-.79c-.098-.26-.215-.512-.323-.77-.115-.254-.252-.496-.372-.75-.145-.238-.272-.49-.435-.716a7.498 7.498 0 0 0-.502-.674c-.186-.21-.368-.428-.59-.604.242.147.458.336.671.528.09.09.179.184.267.277l2.798.145 3.032.157-3.032.156-2.314.12c.116.153.228.312.344.467l-.074-.103 2.39.09 3.102.114-3.098.2-2.05.133c.06.1.12.2.176.302l.044.087 2.171.053 3.173.07-3.165.242-1.919.148c.028.057.058.113.084.17l.1.234 2.074.024 3.242.026-3.232.287-1.873.165.024.058.12.355 2.064-.004 3.313-.016-3.3.329-1.906.19c.048.138.088.276.124.415l2.114-.03 3.384-.06-3.365.372-2.005.223c.036.137.07.274.102.411l2.23-.058 3.454-.104-3.432.416-2.15.26-.042-.215.116.623 2.4-.093 3.524-.146-3.498.458-2.334.306c.016.134.03.268.044.401l2.611-.13 3.593-.192-3.565.502-2.577.364.043.389 2.853-.176 3.662-.234-3.632.546-2.851.427.02.379 3.145-.23 3.733-.278-3.697.59-3.159.501c.003.087.008.174.01.259l-.006.368.004-.262 3.461-.29 3.804-.321-3.765.631-3.508.59-.01.642 1.863-.25 2.22-.271c.743-.08 1.483-.171 2.226-.239.573-.055 1.146-.11 1.718-.16.171-.014.342-.032.512-.044-.166.038-.333.07-.498.105zm-6.402-2.56zm-2.895 2.08l-.013.286-.02-.285c-.01-.187-.043-.459-.071-.805a20.56 20.56 0 0 0-.486-2.828c-.284-1.146-.715-2.468-1.453-3.722-.371-.621-.826-1.221-1.388-1.697-.565-.475-1.233-.797-1.977-.793-.324 0-.699.076-1.023.216-.331.14-.642.34-.922.577-.17.144-.327.301-.478.465a7.969 7.969 0 0 0-.91 1.232c-.738 1.254-1.17 2.576-1.454 3.722a20.559 20.559 0 0 0-.485 2.828c-.028.345-.06.618-.071.805l-.019.285-.013-.286c-.01-.186-.022-.46-.02-.812.014-.698.041-1.704.257-2.894.106-.594.251-1.236.463-1.898.065-.198.137-.396.211-.596.176-.475.389-.955.652-1.428.379-.667.838-1.34 1.473-1.883.631-.544 1.441-.961 2.371-.961.1.006.195.009.3.018.114.018.234.03.342.055.214.05.426.116.624.203a4.25 4.25 0 0 1 1.073.684c.638.542 1.095 1.217 1.474 1.884.374.672.646 1.36.862 2.022.213.664.358 1.306.464 1.9.216 1.19.241 2.196.256 2.894zm-1.027-.692c.001.214-.024.404-.035.557a22.24 22.24 0 0 1-.048.481s-.033-.174-.077-.477c-.024-.152-.042-.336-.079-.545-.04-.21-.083-.444-.121-.7l-.17-.818-.225-.9c-.079-.242-.15-.496-.235-.746-.02-.064-.038-.13-.064-.194l-.168-.476-.2-.468a4.212 4.212 0 0 0-.208-.46c-.078-.15-.145-.304-.229-.446-.088-.142-.17-.283-.25-.424-.08-.142-.18-.264-.267-.396l-.135-.191-.148-.173c-.099-.112-.183-.24-.29-.332l-.3-.291c-.1-.09-.207-.161-.306-.24l-.148-.112-.152-.085-.219-.127-.065-.037c-.025-.008-.045-.02-.07-.027l-.302-.116c-.043-.016-.087-.035-.125-.047a17.516 17.516 0 0 1-.474-.104s.176-.01.484-.018c.154.01.344.046.568.086.104.038.216.076.334.118l.181.066.176.098c.119.068.248.132.372.213l.364.279c.128.093.232.217.353.328.06.058.118.118.178.177l.158.197c.223.26.422.55.607.855.096.152.17.315.256.472.087.159.167.32.233.487l.203.5c.056.169.11.337.167.505.06.167.104.335.14.504.041.168.08.333.118.496.062.328.112.648.151.95.028.305.055.591.065.857zm-5.11 9.178a2.129 2.129 0 0 1-.362-.032 2.242 2.242 0 0 1-.306-.07c.36-.11.706-.31 1.03-.59zm2.85-8.108c0-4.042-1.526-7.393-3.519-8.006h.001a2.46 2.46 0 0 1 .306-.07c.018-.004.036-.005.056-.008.101-.014.202-.024.306-.024 2.343 0 4.243 3.63 4.243 8.108l-1.776 3.394c.246-1.032.383-2.182.383-3.394zm-.383 3.394c-.425 1.788-1.176 3.224-2.105 4.023zm-4.164-3.399c0-1.148.49-2.079 1.096-2.079.605 0 1.097.931 1.097 2.08 0 1.148-.492 2.078-1.097 2.078zm-13.672-7.493c-7.225.472-8.901.313-8.901.313s6.91-6.385 16.125-3.872zM36.652 16.6c2.802-.124 6.318-.17 10.68-.053.52.013.847.568.607 1.028l-1.458 2.796c-.206.39-.62.619-1.058.583-2.358-.196-10.196-.782-18.894-.667zm13.77.255l.019-.006h.004c.26-.071.536-.066.794.004 1.84.509 3.167 1.154 3.755 1.767.248.26.47.5.677.725.843.915 1.487 1.613 2.848 2.497a.265.265 0 0 1-.086.107c-.352.205-4.59.386-8.09-.134.714-.218 1.195-.62 1.195-1.082 0-.695-1.084-1.256-2.421-1.256-.47 0-.907.07-1.28.191zM16.695 31.578c-1.074.838-7.172.55-7.172.55s-6.29-.178-8.642-.546c.124-.486.245-.987.265-1.512.027-.742.179-1.842.257-2.383a1.76 1.76 0 0 1 .686-.219c1.728-.156 10.156-.485 12.12.595zM16.6 36.95c-.709 1.206-.524 2.333-3.903 2.57-3.378.236-10.738-1.128-11.261-1.547a.782.782 0 0 1-.163-.206 5.385 5.385 0 0 0-.159-.61 3.053 3.053 0 0 0-.213-.5l-.06-.292c.027-.37-.012-1.098-.128-2.461a.55.55 0 0 1 .572-.358c1.953.204 8.814.882 12.25.703zm46.033-13.578c-5.026-2.434-5.324-3.234-7.186-5.182-2.59-2.714-16.922-5.734-30.232 2.12-.102.06-16.058-.196-24.384 6.949 0 0-.274 1.728-.313 2.788-.039 1.06-.588 2.159-.51 3.023.078.864.274 2.985.197 3.338-.079.354.117.354.313.942.197.589.275 1.413.275 1.413s1.538.61 4.78 1.168c.7.81 1.536 1.281 2.434 1.281h5.154c.5 0 .98-.148 1.43-.417.855.028 1.751.047 2.692.05 6.363.022 11.428-.227 14.651-.451.915 1.704 2.205 2.768 3.635 2.768h5.784c2.141 0 3.968-2.382 4.692-5.735h1.633a.73.73 0 0 0 .772.373l10.979-1.968c.037.068.074.134.113.198 1.484-2.814 2.841-6.426 3.657-9.59.202-.768.396-1.548.57-2.346z"/></g><g><path fill="#2a2928" d="M209.7 21.048h4.015l-1.996-7.019zm4.77 2.637h-5.526l-.895 3.166h-3.28l5.16-16.055h3.579l5.16 16.055h-3.28zm-22.59-12.889h11.284v16.045h-3.188V13.478h-4.908V22.9c0 3.185-1.17 4.103-4.083 4.103-.573 0-.985-.024-1.376-.07V24.32h.734c1.078 0 1.537-.299 1.537-1.535zm-6.775 8.022c0-2.382-.253-3.597-.826-4.444-.503-.757-1.304-1.169-2.404-1.169-1.098 0-1.901.412-2.404 1.169-.574.847-.824 2.062-.824 4.444 0 2.384.25 3.598.824 4.445.503.757 1.306 1.17 2.404 1.17 1.1 0 1.901-.413 2.404-1.17.573-.847.826-2.06.826-4.445zm3.196.005c0 2.317-.297 4.496-1.49 6.101-1.031 1.399-2.591 2.203-4.931 2.203-2.339 0-3.899-.804-4.93-2.203-1.194-1.605-1.493-3.784-1.493-6.101 0-2.316.299-4.495 1.492-6.1 1.032-1.4 2.592-2.203 4.931-2.203 2.34 0 3.9.803 4.93 2.203 1.194 1.605 1.491 3.784 1.491 6.1zm-19.15-.206l5.206 8.234h-3.486l-4.288-6.88h-1.468v6.88h-3.188V10.796h3.188v6.49h1.468l3.693-6.49h3.44zm-13.486-7.821h3.188v16.055h-18.921V10.796h3.188v13.372h4.679V10.796h3.188v13.372h4.678zm-21.558 8.022c0-2.382-.254-3.597-.826-4.444-.504-.757-1.308-1.169-2.408-1.169-1.101 0-1.904.412-2.409 1.169-.572.847-.825 2.062-.825 4.444 0 2.384.253 3.598.825 4.445.505.757 1.308 1.17 2.41 1.17 1.1 0 1.903-.413 2.407-1.17.572-.847.826-2.06.826-4.445zm3.186.005c0 2.317-.297 4.496-1.489 6.101-1.032 1.399-2.592 2.203-4.93 2.203-2.34 0-3.9-.804-4.933-2.203-1.192-1.605-1.489-3.784-1.489-6.101 0-2.316.297-4.495 1.49-6.1 1.031-1.4 2.591-2.203 4.931-2.203 2.339 0 3.899.803 4.931 2.203 1.192 1.605 1.49 3.784 1.49 6.1zm-26.03-8.027h11.766v2.684h-4.289v13.37h-3.188V13.48h-4.29zm-4.78 4.587c0-1.468-.871-1.903-2.473-1.903h-2.402v3.807h2.402c1.602 0 2.473-.436 2.473-1.904zm.422 6.674c0-1.537-.802-2.11-2.522-2.11h-2.775v4.221h2.775c1.72 0 2.522-.573 2.522-2.11zm-8.485 4.794V10.796h6.123c3.394 0 5.114 1.49 5.114 4.359 0 1.696-.87 2.842-2.314 3.325 1.72.457 2.774 1.88 2.774 3.737 0 3.028-1.72 4.634-5.208 4.634zm-10.85-5.803h4.025l-2-7.019zm4.773 2.637h-5.528l-.895 3.166h-3.28l5.16-16.055h3.579l5.16 16.055h-3.28z"/></g><g><path fill="#c10327" d="M84.912 36.975h11.29V53.03h-3.19V39.66h-4.91v9.426c0 3.188-1.17 4.105-4.085 4.105-.575 0-.987-.024-1.377-.069v-2.615h.735c1.078 0 1.537-.297 1.537-1.536zm21.838 10.253l-2-7.019-2.023 7.019zm-.21-10.252l5.164 16.055h-3.282l-.918-3.166h-5.53l-.895 3.166h-3.281l5.162-16.055zm15.525 0h3.26V53.03h-3.192v-10.55l-5.3 10.55h-3.26V36.975h3.191v10.528zm-6.313-4.886h2.456c.024.964.484 1.4 1.24 1.4.759 0 1.218-.436 1.242-1.4h2.457c-.093 2.203-1.585 3.441-3.699 3.441zm25.074 20.94h-3.488l-4.292-6.88h-1.468v6.88h-3.19V36.976h3.19v6.49h1.468l3.696-6.49h3.442l-4.568 7.821z"/></g><g><g><text dominant-baseline="text-before-edge" style="font-kerning:normal" fill="#c10327" font-family="Inter_Bold" font-size="18" letter-spacing="-.4" transform="translate(70 33)"><tspan style="font-kerning:normal">«</tspan></text></g></g><g><g><text dominant-baseline="text-before-edge" style="font-kerning:normal" fill="#c10327" font-family="Inter_Bold" font-size="18" letter-spacing="-.4" transform="translate(141 33)"><tspan style="font-kerning:normal">»</tspan></text></g></g></g></svg>