<?xml version="1.0" encoding="UTF-8"?>
<svg width="302px" height="72px" viewBox="0 0 302 72" version="1.1" xmlns="http://www.w3.org/2000/svg" xmlns:xlink="http://www.w3.org/1999/xlink">
    <!-- Generator: Sketch 63.1 (92452) - https://sketch.com -->
    <title>logo_color</title>
    <desc>Created with Sketch.</desc>
    <g id="Home-Warm" stroke="none" stroke-width="1" fill="none" fill-rule="evenodd">
        <g id="logo_color">
            <path d="M86,72 C71.6666667,60 14.3333333,60 0,72 C14.3333333,60 14.3333333,12 0,0 C14.3333333,12 71.6666667,12 86,0 C71.6666667,12 71.6666667,60 86,72" id="Fill-1" fill="#50C0FF" opacity="0.849999964"></path>
            <path d="M36.26,42.28 C41.692,42.28 46.06,38.052 46.06,32.2 C46.06,26.348 41.692,22.12 36.26,22.12 C33.404,22.12 31.612,22.82 29.96,24.276 L29.96,27.412 C31.332,25.676 33.488,24.5 36.26,24.5 C39.788,24.5 42.952,27.132 43.456,31.08 L31.696,31.08 L31.696,33.32 L43.456,33.32 C42.952,37.268 39.788,39.9 36.26,39.9 C33.488,39.9 31.332,38.724 29.96,36.988 L29.96,40.124 C31.612,41.58 33.404,42.28 36.26,42.28 Z M53.3555556,42 L53.3555556,32.48 L61.4755556,42 L64.4155556,42 L55.5115556,31.584 L63.9955556,22.4 L61.0555556,22.4 L53.3555556,30.828 L53.3555556,22.4 L50.9755556,22.4 L50.9755556,42 L53.3555556,42 Z M75.7711111,42.28 C81.4831111,42.28 85.7111111,37.912 85.7111111,32.2 C85.7111111,26.488 81.4831111,22.12 75.7711111,22.12 C70.0591111,22.12 65.8311111,26.488 65.8311111,32.2 C65.8311111,37.912 70.0591111,42.28 75.7711111,42.28 Z M75.7711111,39.9 C71.4871111,39.9 68.3511111,36.624 68.3511111,32.2 C68.3511111,27.776 71.4871111,24.5 75.7711111,24.5 C80.0551111,24.5 83.1911111,27.776 83.1911111,32.2 C83.1911111,36.624 80.0551111,39.9 75.7711111,39.9 Z M93.0066667,42 L93.0066667,32.48 L103.786667,32.48 L103.786667,42 L106.166667,42 L106.166667,22.4 L103.786667,22.4 L103.786667,30.24 L93.0066667,30.24 L93.0066667,22.4 L90.6266667,22.4 L90.6266667,42 L93.0066667,42 Z M121.022222,42.28 C126.734222,42.28 130.962222,37.912 130.962222,32.2 C130.962222,26.488 126.734222,22.12 121.022222,22.12 C115.310222,22.12 111.082222,26.488 111.082222,32.2 C111.082222,37.912 115.310222,42.28 121.022222,42.28 Z M121.022222,39.9 C116.738222,39.9 113.602222,36.624 113.602222,32.2 C113.602222,27.776 116.738222,24.5 121.022222,24.5 C125.306222,24.5 128.442222,27.776 128.442222,32.2 C128.442222,36.624 125.306222,39.9 121.022222,39.9 Z M137.137778,42 L138.593778,28.756 L144.977778,40.18 L151.361778,28.756 L152.817778,42 L155.197778,42 L152.817778,21.42 L144.977778,35.616 L137.137778,21.42 L134.757778,42 L137.137778,42 Z" id="ЭКОНОМ" fill="#585452" fill-rule="nonzero"></path>
            <path d="M165.62,42 L165.62,24.64 L176.4,24.64 L176.4,42 L178.78,42 L178.78,22.4 L163.24,22.4 L163.24,42 L165.62,42 Z M193.635556,42.28 C199.347556,42.28 203.575556,37.912 203.575556,32.2 C203.575556,26.488 199.347556,22.12 193.635556,22.12 C187.923556,22.12 183.695556,26.488 183.695556,32.2 C183.695556,37.912 187.923556,42.28 193.635556,42.28 Z M193.635556,39.9 C189.351556,39.9 186.215556,36.624 186.215556,32.2 C186.215556,27.776 189.351556,24.5 193.635556,24.5 C197.919556,24.5 201.055556,27.776 201.055556,32.2 C201.055556,36.624 197.919556,39.9 193.635556,39.9 Z M213.111111,42 L213.111111,24.64 L218.151111,24.64 L218.151111,22.4 L205.691111,22.4 L205.691111,24.64 L210.731111,24.64 L210.731111,42 L213.111111,42 Z M229.646667,42.28 C235.358667,42.28 239.586667,37.912 239.586667,32.2 C239.586667,26.488 235.358667,22.12 229.646667,22.12 C223.934667,22.12 219.706667,26.488 219.706667,32.2 C219.706667,37.912 223.934667,42.28 229.646667,42.28 Z M229.646667,39.9 C225.362667,39.9 222.226667,36.624 222.226667,32.2 C222.226667,27.776 225.362667,24.5 229.646667,24.5 C233.930667,24.5 237.066667,27.776 237.066667,32.2 C237.066667,36.624 233.930667,39.9 229.646667,39.9 Z M258.446222,42 L258.446222,22.4 L245.146222,22.4 L245.146222,34.72 C245.146222,37.688 244.222222,39.956 242.542222,39.956 L242.542222,42 C245.734222,42 247.386222,38.892 247.386222,35.28 L247.386222,24.64 L256.066222,24.64 L256.066222,42 L258.446222,42 Z M273.301778,42.28 C279.013778,42.28 283.241778,37.912 283.241778,32.2 C283.241778,26.488 279.013778,22.12 273.301778,22.12 C267.589778,22.12 263.361778,26.488 263.361778,32.2 C263.361778,37.912 267.589778,42.28 273.301778,42.28 Z M273.301778,39.9 C269.017778,39.9 265.881778,36.624 265.881778,32.2 C265.881778,27.776 269.017778,24.5 273.301778,24.5 C277.585778,24.5 280.721778,27.776 280.721778,32.2 C280.721778,36.624 277.585778,39.9 273.301778,39.9 Z M290.537333,42 L290.537333,32.48 L298.657333,42 L301.597333,42 L292.693333,31.584 L301.177333,22.4 L298.237333,22.4 L290.537333,30.828 L290.537333,22.4 L288.157333,22.4 L288.157333,42 L290.537333,42 Z" id="ПОТОЛОК" fill="#50C0FF" fill-rule="nonzero"></path>
            <path d="M167.634,61 C168.762,61 169.62,60.79 170.208,60.37 C170.796,59.95 171.09,59.398 171.09,58.714 C171.09,58.366 171.027,58.066 170.901,57.814 C170.775,57.562 170.607,57.352 170.397,57.184 C170.187,57.016 169.941,56.89 169.659,56.806 C169.377,56.722 169.08,56.668 168.768,56.644 C169.032,56.572 169.278,56.494 169.506,56.41 C169.734,56.326 169.935,56.215 170.109,56.077 C170.283,55.939 170.421,55.762 170.523,55.546 C170.625,55.33 170.676,55.06 170.676,54.736 C170.676,54.04 170.406,53.482 169.866,53.062 C169.326,52.642 168.51,52.432 167.418,52.432 L167.418,52.432 L163.44,52.432 L163.44,61 L167.634,61 Z M167.166,56.122 L165.114,56.122 L165.114,53.692 L166.446,53.692 C166.806,53.692 167.139,53.701 167.445,53.719 C167.751,53.737 168.018,53.788 168.246,53.872 C168.474,53.956 168.651,54.076 168.777,54.232 C168.903,54.388 168.966,54.61 168.966,54.898 C168.966,55.39 168.801,55.717 168.471,55.879 C168.141,56.041 167.706,56.122 167.166,56.122 L167.166,56.122 Z M166.572,59.74 L165.114,59.74 L165.114,57.22 L166.536,57.22 C166.944,57.22 167.319,57.226 167.661,57.238 C168.003,57.25 168.3,57.298 168.552,57.382 C168.804,57.466 168.999,57.592 169.137,57.76 C169.275,57.928 169.344,58.168 169.344,58.48 C169.344,58.792 169.272,59.035 169.128,59.209 C168.984,59.383 168.786,59.509 168.534,59.587 C168.282,59.665 167.988,59.71 167.652,59.722 C167.316,59.734 166.956,59.74 166.572,59.74 L166.572,59.74 Z M177.28,61.234 C178,61.234 178.627,61.108 179.161,60.856 C179.695,60.604 180.148,60.268 180.52,59.848 L180.52,59.848 L179.404,58.84 C179.176,59.14 178.885,59.38 178.531,59.56 C178.177,59.74 177.766,59.83 177.298,59.83 C176.854,59.83 176.452,59.749 176.092,59.587 C175.732,59.425 175.426,59.206 175.174,58.93 C174.922,58.654 174.727,58.324 174.589,57.94 C174.451,57.556 174.382,57.148 174.382,56.716 C174.382,56.284 174.451,55.876 174.589,55.492 C174.727,55.108 174.922,54.778 175.174,54.502 C175.426,54.226 175.732,54.007 176.092,53.845 C176.452,53.683 176.854,53.602 177.298,53.602 C177.718,53.602 178.111,53.695 178.477,53.881 C178.843,54.067 179.122,54.31 179.314,54.61 L179.314,54.61 L180.466,53.602 C180.106,53.146 179.632,52.798 179.044,52.558 C178.456,52.318 177.868,52.198 177.28,52.198 C176.596,52.198 175.969,52.309 175.399,52.531 C174.829,52.753 174.343,53.065 173.941,53.467 C173.539,53.869 173.224,54.346 172.996,54.898 C172.768,55.45 172.654,56.056 172.654,56.716 C172.654,57.376 172.768,57.982 172.996,58.534 C173.224,59.086 173.539,59.563 173.941,59.965 C174.343,60.367 174.829,60.679 175.399,60.901 C175.969,61.123 176.596,61.234 177.28,61.234 Z M185.972,61.234 C186.728,61.234 187.418,61.09 188.042,60.802 C188.666,60.514 189.218,60.052 189.698,59.416 L189.698,59.416 L188.492,58.552 C188.264,58.9 187.937,59.209 187.511,59.479 C187.085,59.749 186.572,59.884 185.972,59.884 C185.588,59.884 185.225,59.812 184.883,59.668 C184.541,59.524 184.244,59.332 183.992,59.092 C183.74,58.852 183.539,58.567 183.389,58.237 C183.239,57.907 183.158,57.55 183.146,57.166 L183.146,57.166 L190.004,57.166 C190.016,57.058 190.022,56.953 190.022,56.851 L190.022,56.851 L190.022,56.554 C190.022,55.93 189.929,55.354 189.743,54.826 C189.557,54.298 189.287,53.839 188.933,53.449 C188.579,53.059 188.144,52.753 187.628,52.531 C187.112,52.309 186.524,52.198 185.864,52.198 C185.24,52.198 184.661,52.309 184.127,52.531 C183.593,52.753 183.128,53.065 182.732,53.467 C182.336,53.869 182.027,54.349 181.805,54.907 C181.583,55.465 181.472,56.074 181.472,56.734 C181.472,57.406 181.586,58.018 181.814,58.57 C182.042,59.122 182.357,59.596 182.759,59.992 C183.161,60.388 183.638,60.694 184.19,60.91 C184.742,61.126 185.336,61.234 185.972,61.234 Z M188.402,55.978 L183.146,55.978 C183.17,55.654 183.257,55.342 183.407,55.042 C183.557,54.742 183.752,54.478 183.992,54.25 C184.232,54.022 184.511,53.839 184.829,53.701 C185.147,53.563 185.492,53.494 185.864,53.494 C186.668,53.494 187.286,53.728 187.718,54.196 C188.15,54.664 188.378,55.258 188.402,55.978 L188.402,55.978 Z M193.854,61 L193.854,53.782 L197.688,53.782 L197.688,52.432 L192.18,52.432 L192.18,61 L193.854,61 Z M199.27,63.502 L199.27,61 L206.488,61 L206.488,63.502 L208,63.502 L208,59.632 L206.56,59.632 L203.824,52.432 L202.096,52.432 L199.144,59.632 L197.758,59.632 L197.758,63.502 L199.27,63.502 Z M204.886,59.632 L200.854,59.632 L202.438,55.474 L202.978,54.376 L204.886,59.632 Z M211.706,61.216 C212.354,61.216 212.918,61.099 213.398,60.865 C213.878,60.631 214.292,60.256 214.64,59.74 L214.64,59.74 L214.676,59.74 C214.676,59.944 214.685,60.154 214.703,60.37 C214.721,60.586 214.742,60.796 214.766,61 L214.766,61 L216.278,61 C216.242,60.748 216.215,60.454 216.197,60.118 C216.179,59.782 216.17,59.452 216.17,59.128 L216.17,59.128 L216.17,55.888 C216.17,55.732 216.164,55.57 216.152,55.402 C216.14,54.862 216.047,54.391 215.873,53.989 C215.699,53.587 215.459,53.254 215.153,52.99 C214.847,52.726 214.484,52.528 214.064,52.396 C213.644,52.264 213.182,52.198 212.678,52.198 C211.958,52.198 211.292,52.318 210.68,52.558 C210.068,52.798 209.57,53.11 209.186,53.494 L209.186,53.494 L210.086,54.502 C210.374,54.214 210.731,53.98 211.157,53.8 C211.583,53.62 212.036,53.53 212.516,53.53 C213.176,53.53 213.689,53.692 214.055,54.016 C214.421,54.34 214.604,54.826 214.604,55.474 L214.604,55.474 L214.604,55.726 C213.86,55.726 213.134,55.753 212.426,55.807 C211.718,55.861 211.088,55.987 210.536,56.185 C209.984,56.383 209.54,56.671 209.204,57.049 C208.868,57.427 208.7,57.94 208.7,58.588 C208.7,59.08 208.796,59.491 208.988,59.821 C209.18,60.151 209.423,60.421 209.717,60.631 C210.011,60.841 210.335,60.991 210.689,61.081 C211.043,61.171 211.382,61.216 211.706,61.216 Z M212.138,59.956 C211.922,59.956 211.706,59.932 211.49,59.884 C211.274,59.836 211.082,59.755 210.914,59.641 C210.746,59.527 210.608,59.38 210.5,59.2 C210.392,59.02 210.338,58.798 210.338,58.534 C210.338,58.174 210.458,57.883 210.698,57.661 C210.938,57.439 211.247,57.268 211.625,57.148 C212.003,57.028 212.423,56.95 212.885,56.914 C213.347,56.878 213.806,56.86 214.262,56.86 L214.262,56.86 L214.622,56.86 L214.622,57.418 C214.622,57.766 214.568,58.093 214.46,58.399 C214.352,58.705 214.19,58.975 213.974,59.209 C213.758,59.443 213.497,59.626 213.191,59.758 C212.885,59.89 212.534,59.956 212.138,59.956 Z M223.204,63.502 L223.204,61 L230.422,61 L230.422,63.502 L231.934,63.502 L231.934,59.632 L230.494,59.632 L227.758,52.432 L226.03,52.432 L223.078,59.632 L221.692,59.632 L221.692,63.502 L223.204,63.502 Z M228.82,59.632 L224.788,59.632 L226.372,55.474 L226.912,54.376 L228.82,59.632 Z M237.188,61.234 C237.944,61.234 238.634,61.09 239.258,60.802 C239.882,60.514 240.434,60.052 240.914,59.416 L240.914,59.416 L239.708,58.552 C239.48,58.9 239.153,59.209 238.727,59.479 C238.301,59.749 237.788,59.884 237.188,59.884 C236.804,59.884 236.441,59.812 236.099,59.668 C235.757,59.524 235.46,59.332 235.208,59.092 C234.956,58.852 234.755,58.567 234.605,58.237 C234.455,57.907 234.374,57.55 234.362,57.166 L234.362,57.166 L241.22,57.166 C241.232,57.058 241.238,56.953 241.238,56.851 L241.238,56.851 L241.238,56.554 C241.238,55.93 241.145,55.354 240.959,54.826 C240.773,54.298 240.503,53.839 240.149,53.449 C239.795,53.059 239.36,52.753 238.844,52.531 C238.328,52.309 237.74,52.198 237.08,52.198 C236.456,52.198 235.877,52.309 235.343,52.531 C234.809,52.753 234.344,53.065 233.948,53.467 C233.552,53.869 233.243,54.349 233.021,54.907 C232.799,55.465 232.688,56.074 232.688,56.734 C232.688,57.406 232.802,58.018 233.03,58.57 C233.258,59.122 233.573,59.596 233.975,59.992 C234.377,60.388 234.854,60.694 235.406,60.91 C235.958,61.126 236.552,61.234 237.188,61.234 Z M239.618,55.978 L234.362,55.978 C234.386,55.654 234.473,55.342 234.623,55.042 C234.773,54.742 234.968,54.478 235.208,54.25 C235.448,54.022 235.727,53.839 236.045,53.701 C236.363,53.563 236.708,53.494 237.08,53.494 C237.884,53.494 238.502,53.728 238.934,54.196 C239.366,54.664 239.594,55.258 239.618,55.978 L239.618,55.978 Z M255.258,61 L255.258,52.432 L253.602,52.432 L253.602,59.65 L250.164,59.65 L250.164,52.432 L248.49,52.432 L248.49,59.65 L245.07,59.65 L245.07,52.432 L243.396,52.432 L243.396,61 L255.258,61 Z M261.952,61.234 C262.708,61.234 263.398,61.09 264.022,60.802 C264.646,60.514 265.198,60.052 265.678,59.416 L265.678,59.416 L264.472,58.552 C264.244,58.9 263.917,59.209 263.491,59.479 C263.065,59.749 262.552,59.884 261.952,59.884 C261.568,59.884 261.205,59.812 260.863,59.668 C260.521,59.524 260.224,59.332 259.972,59.092 C259.72,58.852 259.519,58.567 259.369,58.237 C259.219,57.907 259.138,57.55 259.126,57.166 L259.126,57.166 L265.984,57.166 C265.996,57.058 266.002,56.953 266.002,56.851 L266.002,56.851 L266.002,56.554 C266.002,55.93 265.909,55.354 265.723,54.826 C265.537,54.298 265.267,53.839 264.913,53.449 C264.559,53.059 264.124,52.753 263.608,52.531 C263.092,52.309 262.504,52.198 261.844,52.198 C261.22,52.198 260.641,52.309 260.107,52.531 C259.573,52.753 259.108,53.065 258.712,53.467 C258.316,53.869 258.007,54.349 257.785,54.907 C257.563,55.465 257.452,56.074 257.452,56.734 C257.452,57.406 257.566,58.018 257.794,58.57 C258.022,59.122 258.337,59.596 258.739,59.992 C259.141,60.388 259.618,60.694 260.17,60.91 C260.722,61.126 261.316,61.234 261.952,61.234 Z M264.382,55.978 L259.126,55.978 C259.15,55.654 259.237,55.342 259.387,55.042 C259.537,54.742 259.732,54.478 259.972,54.25 C260.212,54.022 260.491,53.839 260.809,53.701 C261.127,53.563 261.472,53.494 261.844,53.494 C262.648,53.494 263.266,53.728 263.698,54.196 C264.13,54.664 264.358,55.258 264.382,55.978 L264.382,55.978 Z M272.354,61 C273.482,61 274.34,60.79 274.928,60.37 C275.516,59.95 275.81,59.398 275.81,58.714 C275.81,58.366 275.747,58.066 275.621,57.814 C275.495,57.562 275.327,57.352 275.117,57.184 C274.907,57.016 274.661,56.89 274.379,56.806 C274.097,56.722 273.8,56.668 273.488,56.644 C273.752,56.572 273.998,56.494 274.226,56.41 C274.454,56.326 274.655,56.215 274.829,56.077 C275.003,55.939 275.141,55.762 275.243,55.546 C275.345,55.33 275.396,55.06 275.396,54.736 C275.396,54.04 275.126,53.482 274.586,53.062 C274.046,52.642 273.23,52.432 272.138,52.432 L272.138,52.432 L268.16,52.432 L268.16,61 L272.354,61 Z M271.886,56.122 L269.834,56.122 L269.834,53.692 L271.166,53.692 C271.526,53.692 271.859,53.701 272.165,53.719 C272.471,53.737 272.738,53.788 272.966,53.872 C273.194,53.956 273.371,54.076 273.497,54.232 C273.623,54.388 273.686,54.61 273.686,54.898 C273.686,55.39 273.521,55.717 273.191,55.879 C272.861,56.041 272.426,56.122 271.886,56.122 L271.886,56.122 Z M271.292,59.74 L269.834,59.74 L269.834,57.22 L271.256,57.22 C271.664,57.22 272.039,57.226 272.381,57.238 C272.723,57.25 273.02,57.298 273.272,57.382 C273.524,57.466 273.719,57.592 273.857,57.76 C273.995,57.928 274.064,58.168 274.064,58.48 C274.064,58.792 273.992,59.035 273.848,59.209 C273.704,59.383 273.506,59.509 273.254,59.587 C273.002,59.665 272.708,59.71 272.372,59.722 C272.036,59.734 271.676,59.74 271.292,59.74 L271.292,59.74 Z M278.526,61 L281.208,54.43 L283.764,61 L285.51,61 L282.09,52.432 L280.38,52.432 L276.744,61 L278.526,61 Z M291.052,61.234 C291.808,61.234 292.498,61.09 293.122,60.802 C293.746,60.514 294.298,60.052 294.778,59.416 L294.778,59.416 L293.572,58.552 C293.344,58.9 293.017,59.209 292.591,59.479 C292.165,59.749 291.652,59.884 291.052,59.884 C290.668,59.884 290.305,59.812 289.963,59.668 C289.621,59.524 289.324,59.332 289.072,59.092 C288.82,58.852 288.619,58.567 288.469,58.237 C288.319,57.907 288.238,57.55 288.226,57.166 L288.226,57.166 L295.084,57.166 C295.096,57.058 295.102,56.953 295.102,56.851 L295.102,56.851 L295.102,56.554 C295.102,55.93 295.009,55.354 294.823,54.826 C294.637,54.298 294.367,53.839 294.013,53.449 C293.659,53.059 293.224,52.753 292.708,52.531 C292.192,52.309 291.604,52.198 290.944,52.198 C290.32,52.198 289.741,52.309 289.207,52.531 C288.673,52.753 288.208,53.065 287.812,53.467 C287.416,53.869 287.107,54.349 286.885,54.907 C286.663,55.465 286.552,56.074 286.552,56.734 C286.552,57.406 286.666,58.018 286.894,58.57 C287.122,59.122 287.437,59.596 287.839,59.992 C288.241,60.388 288.718,60.694 289.27,60.91 C289.822,61.126 290.416,61.234 291.052,61.234 Z M293.482,55.978 L288.226,55.978 C288.25,55.654 288.337,55.342 288.487,55.042 C288.637,54.742 288.832,54.478 289.072,54.25 C289.312,54.022 289.591,53.839 289.909,53.701 C290.227,53.563 290.572,53.494 290.944,53.494 C291.748,53.494 292.366,53.728 292.798,54.196 C293.23,54.664 293.458,55.258 293.482,55.978 L293.482,55.978 Z M299.708,57.274 L299.708,48.256 L297.926,48.256 L297.926,57.274 L299.708,57.274 Z M298.826,61.108 C299.174,61.108 299.462,60.988 299.69,60.748 C299.918,60.508 300.032,60.232 300.032,59.92 C300.032,59.596 299.918,59.32 299.69,59.092 C299.462,58.864 299.174,58.75 298.826,58.75 C298.478,58.75 298.19,58.867 297.962,59.101 C297.734,59.335 297.62,59.614 297.62,59.938 C297.62,60.25 297.737,60.523 297.971,60.757 C298.205,60.991 298.49,61.108 298.826,61.108 Z" id="всегдадешевле!" fill="#585452" fill-rule="nonzero"></path>
            <path d="M91.562,61.234 C92.282,61.234 92.909,61.108 93.443,60.856 C93.977,60.604 94.43,60.268 94.802,59.848 L94.802,59.848 L93.686,58.84 C93.458,59.14 93.167,59.38 92.813,59.56 C92.459,59.74 92.048,59.83 91.58,59.83 C91.136,59.83 90.734,59.749 90.374,59.587 C90.014,59.425 89.708,59.206 89.456,58.93 C89.204,58.654 89.009,58.324 88.871,57.94 C88.733,57.556 88.664,57.148 88.664,56.716 C88.664,56.284 88.733,55.876 88.871,55.492 C89.009,55.108 89.204,54.778 89.456,54.502 C89.708,54.226 90.014,54.007 90.374,53.845 C90.734,53.683 91.136,53.602 91.58,53.602 C92,53.602 92.393,53.695 92.759,53.881 C93.125,54.067 93.404,54.31 93.596,54.61 L93.596,54.61 L94.748,53.602 C94.388,53.146 93.914,52.798 93.326,52.558 C92.738,52.318 92.15,52.198 91.562,52.198 C90.878,52.198 90.251,52.309 89.681,52.531 C89.111,52.753 88.625,53.065 88.223,53.467 C87.821,53.869 87.506,54.346 87.278,54.898 C87.05,55.45 86.936,56.056 86.936,56.716 C86.936,57.376 87.05,57.982 87.278,58.534 C87.506,59.086 87.821,59.563 88.223,59.965 C88.625,60.367 89.111,60.679 89.681,60.901 C90.251,61.123 90.878,61.234 91.562,61.234 Z M103.096,61.252 C103.636,61.252 104.131,61.192 104.581,61.072 C105.031,60.952 105.418,60.781 105.742,60.559 C106.066,60.337 106.318,60.067 106.498,59.749 C106.678,59.431 106.768,59.068 106.768,58.66 C106.768,58.312 106.702,58.015 106.57,57.769 C106.438,57.523 106.261,57.319 106.039,57.157 C105.817,56.995 105.565,56.875 105.283,56.797 C105.001,56.719 104.716,56.674 104.428,56.662 L104.428,56.662 L104.428,56.608 C104.98,56.548 105.454,56.338 105.85,55.978 C106.246,55.618 106.444,55.144 106.444,54.556 C106.444,54.256 106.378,53.959 106.246,53.665 C106.114,53.371 105.913,53.113 105.643,52.891 C105.373,52.669 105.031,52.489 104.617,52.351 C104.203,52.213 103.714,52.144 103.15,52.144 C102.538,52.144 102.025,52.225 101.611,52.387 C101.197,52.549 100.861,52.729 100.603,52.927 C100.345,53.125 100.156,53.32 100.036,53.512 C99.916,53.704 99.844,53.824 99.82,53.872 L99.82,53.872 L100.954,54.628 C101.05,54.4 101.188,54.19 101.368,53.998 C101.524,53.842 101.734,53.698 101.998,53.566 C102.262,53.434 102.604,53.368 103.024,53.368 C103.66,53.368 104.128,53.515 104.428,53.809 C104.728,54.103 104.878,54.436 104.878,54.808 C104.878,55.264 104.695,55.594 104.329,55.798 C103.963,56.002 103.51,56.104 102.97,56.104 L102.97,56.104 L101.926,56.104 L101.926,57.256 L103.114,57.256 C103.786,57.256 104.29,57.376 104.626,57.616 C104.962,57.856 105.13,58.168 105.13,58.552 C105.13,58.996 104.953,59.341 104.599,59.587 C104.245,59.833 103.756,59.956 103.132,59.956 C102.712,59.956 102.358,59.899 102.07,59.785 C101.782,59.671 101.542,59.542 101.35,59.398 C101.158,59.254 101.014,59.119 100.918,58.993 C100.822,58.867 100.762,58.792 100.738,58.768 L100.738,58.768 L99.676,59.668 C99.712,59.692 99.793,59.788 99.919,59.956 C100.045,60.124 100.237,60.304 100.495,60.496 C100.753,60.688 101.092,60.862 101.512,61.018 C101.932,61.174 102.46,61.252 103.096,61.252 Z M111.284,61.216 C111.932,61.216 112.496,61.099 112.976,60.865 C113.456,60.631 113.87,60.256 114.218,59.74 L114.218,59.74 L114.254,59.74 C114.254,59.944 114.263,60.154 114.281,60.37 C114.299,60.586 114.32,60.796 114.344,61 L114.344,61 L115.856,61 C115.82,60.748 115.793,60.454 115.775,60.118 C115.757,59.782 115.748,59.452 115.748,59.128 L115.748,59.128 L115.748,55.888 C115.748,55.732 115.742,55.57 115.73,55.402 C115.718,54.862 115.625,54.391 115.451,53.989 C115.277,53.587 115.037,53.254 114.731,52.99 C114.425,52.726 114.062,52.528 113.642,52.396 C113.222,52.264 112.76,52.198 112.256,52.198 C111.536,52.198 110.87,52.318 110.258,52.558 C109.646,52.798 109.148,53.11 108.764,53.494 L108.764,53.494 L109.664,54.502 C109.952,54.214 110.309,53.98 110.735,53.8 C111.161,53.62 111.614,53.53 112.094,53.53 C112.754,53.53 113.267,53.692 113.633,54.016 C113.999,54.34 114.182,54.826 114.182,55.474 L114.182,55.474 L114.182,55.726 C113.438,55.726 112.712,55.753 112.004,55.807 C111.296,55.861 110.666,55.987 110.114,56.185 C109.562,56.383 109.118,56.671 108.782,57.049 C108.446,57.427 108.278,57.94 108.278,58.588 C108.278,59.08 108.374,59.491 108.566,59.821 C108.758,60.151 109.001,60.421 109.295,60.631 C109.589,60.841 109.913,60.991 110.267,61.081 C110.621,61.171 110.96,61.216 111.284,61.216 Z M111.716,59.956 C111.5,59.956 111.284,59.932 111.068,59.884 C110.852,59.836 110.66,59.755 110.492,59.641 C110.324,59.527 110.186,59.38 110.078,59.2 C109.97,59.02 109.916,58.798 109.916,58.534 C109.916,58.174 110.036,57.883 110.276,57.661 C110.516,57.439 110.825,57.268 111.203,57.148 C111.581,57.028 112.001,56.95 112.463,56.914 C112.925,56.878 113.384,56.86 113.84,56.86 L113.84,56.86 L114.2,56.86 L114.2,57.418 C114.2,57.766 114.146,58.093 114.038,58.399 C113.93,58.705 113.768,58.975 113.552,59.209 C113.336,59.443 113.075,59.626 112.769,59.758 C112.463,59.89 112.112,59.956 111.716,59.956 Z M122.586,61 C123.714,61 124.572,60.79 125.16,60.37 C125.748,59.95 126.042,59.398 126.042,58.714 C126.042,58.366 125.979,58.066 125.853,57.814 C125.727,57.562 125.559,57.352 125.349,57.184 C125.139,57.016 124.893,56.89 124.611,56.806 C124.329,56.722 124.032,56.668 123.72,56.644 C123.984,56.572 124.23,56.494 124.458,56.41 C124.686,56.326 124.887,56.215 125.061,56.077 C125.235,55.939 125.373,55.762 125.475,55.546 C125.577,55.33 125.628,55.06 125.628,54.736 C125.628,54.04 125.358,53.482 124.818,53.062 C124.278,52.642 123.462,52.432 122.37,52.432 L122.37,52.432 L118.392,52.432 L118.392,61 L122.586,61 Z M122.118,56.122 L120.066,56.122 L120.066,53.692 L121.398,53.692 C121.758,53.692 122.091,53.701 122.397,53.719 C122.703,53.737 122.97,53.788 123.198,53.872 C123.426,53.956 123.603,54.076 123.729,54.232 C123.855,54.388 123.918,54.61 123.918,54.898 C123.918,55.39 123.753,55.717 123.423,55.879 C123.093,56.041 122.658,56.122 122.118,56.122 L122.118,56.122 Z M121.524,59.74 L120.066,59.74 L120.066,57.22 L121.488,57.22 C121.896,57.22 122.271,57.226 122.613,57.238 C122.955,57.25 123.252,57.298 123.504,57.382 C123.756,57.466 123.951,57.592 124.089,57.76 C124.227,57.928 124.296,58.168 124.296,58.48 C124.296,58.792 124.224,59.035 124.08,59.209 C123.936,59.383 123.738,59.509 123.486,59.587 C123.234,59.665 122.94,59.71 122.604,59.722 C122.268,59.734 121.908,59.74 121.524,59.74 L121.524,59.74 Z M132.214,61.234 C132.874,61.234 133.486,61.123 134.05,60.901 C134.614,60.679 135.103,60.367 135.517,59.965 C135.931,59.563 136.255,59.086 136.489,58.534 C136.723,57.982 136.84,57.376 136.84,56.716 C136.84,56.056 136.723,55.45 136.489,54.898 C136.255,54.346 135.931,53.869 135.517,53.467 C135.103,53.065 134.614,52.753 134.05,52.531 C133.486,52.309 132.874,52.198 132.214,52.198 C131.554,52.198 130.945,52.309 130.387,52.531 C129.829,52.753 129.343,53.065 128.929,53.467 C128.515,53.869 128.191,54.346 127.957,54.898 C127.723,55.45 127.606,56.056 127.606,56.716 C127.606,57.376 127.723,57.982 127.957,58.534 C128.191,59.086 128.515,59.563 128.929,59.965 C129.343,60.367 129.829,60.679 130.387,60.901 C130.945,61.123 131.554,61.234 132.214,61.234 Z M132.214,59.83 C131.758,59.83 131.35,59.746 130.99,59.578 C130.63,59.41 130.324,59.185 130.072,58.903 C129.82,58.621 129.628,58.291 129.496,57.913 C129.364,57.535 129.298,57.136 129.298,56.716 C129.298,56.284 129.364,55.879 129.496,55.501 C129.628,55.123 129.82,54.793 130.072,54.511 C130.324,54.229 130.63,54.007 130.99,53.845 C131.35,53.683 131.758,53.602 132.214,53.602 C132.67,53.602 133.078,53.683 133.438,53.845 C133.798,54.007 134.104,54.229 134.356,54.511 C134.608,54.793 134.803,55.123 134.941,55.501 C135.079,55.879 135.148,56.284 135.148,56.716 C135.148,57.136 135.079,57.535 134.941,57.913 C134.803,58.291 134.608,58.621 134.356,58.903 C134.104,59.185 133.798,59.41 133.438,59.578 C133.078,59.746 132.67,59.83 132.214,59.83 Z M139.106,63.502 L139.106,61 L146.324,61 L146.324,63.502 L147.836,63.502 L147.836,59.632 L146.396,59.632 L143.66,52.432 L141.932,52.432 L138.98,59.632 L137.594,59.632 L137.594,63.502 L139.106,63.502 Z M144.722,59.632 L140.69,59.632 L142.274,55.474 L142.814,54.376 L144.722,59.632 Z M151.542,61.216 C152.19,61.216 152.754,61.099 153.234,60.865 C153.714,60.631 154.128,60.256 154.476,59.74 L154.476,59.74 L154.512,59.74 C154.512,59.944 154.521,60.154 154.539,60.37 C154.557,60.586 154.578,60.796 154.602,61 L154.602,61 L156.114,61 C156.078,60.748 156.051,60.454 156.033,60.118 C156.015,59.782 156.006,59.452 156.006,59.128 L156.006,59.128 L156.006,55.888 C156.006,55.732 156,55.57 155.988,55.402 C155.976,54.862 155.883,54.391 155.709,53.989 C155.535,53.587 155.295,53.254 154.989,52.99 C154.683,52.726 154.32,52.528 153.9,52.396 C153.48,52.264 153.018,52.198 152.514,52.198 C151.794,52.198 151.128,52.318 150.516,52.558 C149.904,52.798 149.406,53.11 149.022,53.494 L149.022,53.494 L149.922,54.502 C150.21,54.214 150.567,53.98 150.993,53.8 C151.419,53.62 151.872,53.53 152.352,53.53 C153.012,53.53 153.525,53.692 153.891,54.016 C154.257,54.34 154.44,54.826 154.44,55.474 L154.44,55.474 L154.44,55.726 C153.696,55.726 152.97,55.753 152.262,55.807 C151.554,55.861 150.924,55.987 150.372,56.185 C149.82,56.383 149.376,56.671 149.04,57.049 C148.704,57.427 148.536,57.94 148.536,58.588 C148.536,59.08 148.632,59.491 148.824,59.821 C149.016,60.151 149.259,60.421 149.553,60.631 C149.847,60.841 150.171,60.991 150.525,61.081 C150.879,61.171 151.218,61.216 151.542,61.216 Z M151.974,59.956 C151.758,59.956 151.542,59.932 151.326,59.884 C151.11,59.836 150.918,59.755 150.75,59.641 C150.582,59.527 150.444,59.38 150.336,59.2 C150.228,59.02 150.174,58.798 150.174,58.534 C150.174,58.174 150.294,57.883 150.534,57.661 C150.774,57.439 151.083,57.268 151.461,57.148 C151.839,57.028 152.259,56.95 152.721,56.914 C153.183,56.878 153.642,56.86 154.098,56.86 L154.098,56.86 L154.458,56.86 L154.458,57.418 C154.458,57.766 154.404,58.093 154.296,58.399 C154.188,58.705 154.026,58.975 153.81,59.209 C153.594,59.443 153.333,59.626 153.027,59.758 C152.721,59.89 152.37,59.956 151.974,59.956 Z" id="сзавода" fill="#50C0FF" fill-rule="nonzero"></path>
        </g>
    </g>
</svg>