<svg xmlns="http://www.w3.org/2000/svg" width="93" height="82" viewBox="0 0 93 82"><defs><mask id="58bxb" width="2" height="2" x="-1" y="-1"><path fill="#fff" d="M11 11h72v61H11z"/><path d="M11 14a3 3 0 0 1 3-3h66a3 3 0 0 1 3 3v55a3 3 0 0 1-3 3H14a3 3 0 0 1-3-3z"/></mask><filter id="58bxa" width="112" height="101" x="-7" y="-7" filterUnits="userSpaceOnUse"><feOffset dx="4" dy="4" in="SourceGraphic" result="FeOffset1056Out"/><feGaussianBlur in="FeOffset1056Out" result="FeGaussianBlur1057Out" stdDeviation="3.2 3.2"/></filter><filter id="58bxc" width="200%" height="200%" x="-50%" y="-50%"><feGaussianBlur in="SourceGraphic" result="FeGaussianBlur1062Out" stdDeviation="0 0"/></filter><mask id="58bxd"><path fill="#fff" d="M11 14a3 3 0 0 1 3-3h66a3 3 0 0 1 3 3v55a3 3 0 0 1-3 3H14a3 3 0 0 1-3-3z"/></mask><mask id="58bxf" width="2" height="2" x="-1" y="-1"><path fill="#fff" d="M11 11h72v18H11z"/><path d="M11 14a3 3 0 0 1 3-3h66a3 3 0 0 1 3 3v12a3 3 0 0 1-3 3H14a3 3 0 0 1-3-3z"/></mask><filter id="58bxe" width="112" height="58" x="-11" y="-11" filterUnits="userSpaceOnUse"><feOffset dx="-4" dy="-4" in="SourceGraphic" result="FeOffset1077Out"/><feGaussianBlur in="FeOffset1077Out" result="FeGaussianBlur1078Out" stdDeviation="3.2 3.2"/></filter></defs><g><g><g><g filter="url(#58bxa)"><path fill="none" d="M11 14a3 3 0 0 1 3-3h66a3 3 0 0 1 3 3v55a3 3 0 0 1-3 3H14a3 3 0 0 1-3-3z" mask="url(&quot;#58bxb&quot;)"/><path fill="#585452" fill-opacity=".1" d="M11 14a3 3 0 0 1 3-3h66a3 3 0 0 1 3 3v55a3 3 0 0 1-3 3H14a3 3 0 0 1-3-3z"/></g><path fill="#faf9f8" d="M11 14a3 3 0 0 1 3-3h66a3 3 0 0 1 3 3v55a3 3 0 0 1-3 3H14a3 3 0 0 1-3-3z"/><path fill="#fff" fill-opacity=".4" d="M10 73v-5a3 3 0 0 0 3 3h66a3 3 0 0 0 3-3V13a3 3 0 0 0-3-3h5v63zm0-63h3a3 3 0 0 0-3 3z" filter="url(#58bxc)" mask="url(&quot;#58bxd&quot;)"/></g><g><g filter="url(#58bxe)"><path fill="none" d="M11 14a3 3 0 0 1 3-3h66a3 3 0 0 1 3 3v12a3 3 0 0 1-3 3H14a3 3 0 0 1-3-3z" mask="url(&quot;#58bxf&quot;)"/><path fill="#a8e0ff" fill-opacity=".5" d="M11 14a3 3 0 0 1 3-3h66a3 3 0 0 1 3 3v12a3 3 0 0 1-3 3H14a3 3 0 0 1-3-3z"/></g><path fill="#50c0ff" d="M11 14a3 3 0 0 1 3-3h66a3 3 0 0 1 3 3v12a3 3 0 0 1-3 3H14a3 3 0 0 1-3-3z"/></g><g><g><text dominant-baseline="text-before-edge" style="line-height:10px;font-kerning:normal" fill="#f3fbff" font-family="'Jost*','Jost-Book'" font-size="10" transform="translate(17 16)"><tspan style="line-height:10px;font-kerning:normal">понедельник</tspan></text></g></g><g><path fill="#a89e90" d="M20 8a1 1 0 0 1 1-1h4a1 1 0 0 1 1 1v6a1 1 0 0 1-1 1h-4a1 1 0 0 1-1-1z"/></g><g><path fill="#a89e90" d="M44 8a1 1 0 0 1 1-1h4a1 1 0 0 1 1 1v6a1 1 0 0 1-1 1h-4a1 1 0 0 1-1-1z"/></g><g><path fill="#a89e90" d="M68 8a1 1 0 0 1 1-1h4a1 1 0 0 1 1 1v6a1 1 0 0 1-1 1h-4a1 1 0 0 1-1-1z"/></g><g><g><text dominant-baseline="text-before-edge" style="line-height:32px;font-kerning:normal" fill="#50c0ff" font-family="'Jost*','Jost-Book'" font-size="32" letter-spacing="-.4" transform="translate(18 34)"><tspan style="line-height:32px;font-kerning:normal">38%</tspan></text></g></g></g></g></svg>