<?xml version="1.0" encoding="utf-8"?>
<!-- Generator: Adobe Illustrator 24.3.0, SVG Export Plug-In . SVG Version: 6.00 Build 0)  -->
<svg version="1.1" id="Layer_1" xmlns="http://www.w3.org/2000/svg" xmlns:xlink="http://www.w3.org/1999/xlink" x="0px" y="0px"
	 viewBox="0 0 91.1 28.3" style="enable-background:new 0 0 91.1 28.3;" xml:space="preserve">
<style type="text/css">
	.st0{fill:#253689;}
	.st1{fill:#FFFFFF;}
	.st2{fill:#F8B004;}
	.st3{fill-rule:evenodd;clip-rule:evenodd;}
</style>
<g id="jll">
	<path d="M91.1,1.3c0-0.7-0.6-1.3-1.3-1.3H1.3C0.6,0,0,0.6,0,1.3v25.8c0,0.7,0.6,1.3,1.3,1.3h88.6c0.7,0,1.3-0.6,1.3-1.3V1.3z"/>
	<path class="st0" d="M82.8,18.2C82.8,18.2,82.8,18.2,82.8,18.2c0,0,0-0.1,0-0.1C82.8,18.1,82.8,18.2,82.8,18.2z"/>
	<g>
		<path class="st1" d="M25.4,19V3h-6.8v13.8c0,2.2-0.4,3.1-2.9,3.1h-3.1c-2.7,0-3.3-0.9-3.3-3.5c0-0.2,0-0.5,0-0.8H3.1v2.9
			c0,5.4,2.1,6.9,8.7,6.9h4.7c3.3,0,5.6-0.3,7.1-1.8C24.7,22.6,25.4,20.9,25.4,19z"/>
		<path class="st1" d="M50.2,11H57c0-0.4,0-0.9,0-1.3c0-2.7-0.6-4.5-2-5.6c-1.6-1.3-4.2-1.4-8.1-1.4h-7.6c-7.6,0-10.5,1.9-10.5,8.6
			v6.1c0,3,0.7,5,2.6,6.5c1.9,1.5,4.4,1.6,7.9,1.6h7.6c3.9,0,6.5-0.2,8.2-1.5c1.6-1.2,2.2-3,2.2-5.7c0-0.5,0-1-0.1-1.6h-6.9
			c0,0.1,0,0.2,0,0.2c0,2.7-1.5,3.1-5.3,3.1h-3.9c-4,0-5.5-0.7-5.5-4.2v-3.1c0-3.8,1.1-4.4,5.5-4.4h5.4c2.4,0,3.6,0.7,3.6,2.5
			C50.2,10.9,50.2,11,50.2,11z"/>
		<path class="st1" d="M81.3,25.2c4.9,0,7.1-1.7,7.1-6c0-3.2-1.2-4.8-4-5.3c2.2-0.9,3.3-2.3,3.3-4.7C87.7,5,85.3,3,80.3,3h-20v22.2
			H81.3z M79,11.7H67V8H79c1,0,1.7,0.7,1.7,1.8C80.7,11,80.1,11.7,79,11.7z M79.6,20.2H67v-4h12.5c1.1,0,1.9,0.8,1.9,2
			C81.4,19.4,80.8,20.2,79.6,20.2z"/>
	</g>
	<rect x="3" y="3" class="st2" width="9.1" height="9.1"/>
	<g>
		<path class="st3" d="M9.7,7.6l0.2,0.6c0,0,0.2,0,0.2,0c0.1,0,0.1-0.1,0.1-0.2c0,0-0.1-0.3-0.1-0.3c0-0.1-0.1-0.1-0.2-0.1
			C9.9,7.6,9.7,7.6,9.7,7.6L9.7,7.6z M9.4,6.5L9.5,7c0,0,0.2,0,0.2,0c0.1,0,0.1-0.1,0.1-0.2c0,0-0.1-0.2-0.1-0.3
			c0,0-0.1-0.1-0.1-0.1C9.6,6.5,9.4,6.5,9.4,6.5L9.4,6.5z M8.7,5.9l1,2.9c0,0,0.7-0.2,0.7-0.2c0.4-0.1,0.3-0.5,0.3-0.6
			c0-0.1-0.2-0.5-0.2-0.5c-0.1-0.2-0.4-0.3-0.4-0.3s0.2-0.1,0.1-0.4c0,0-0.1-0.3-0.1-0.4c0-0.1-0.2-0.4-0.5-0.5
			C9.5,6,8.7,5.9,8.7,5.9L8.7,5.9z"/>
		<path d="M5.4,5.4l0.3,0.8l0.3,0c0,0,0.7,2.3,0.7,2.4c0,0.1,0,0.2-0.1,0.2c-0.2,0-0.2,0-0.3-0.2c0-0.1-0.3-0.8-0.3-0.8l-0.6,0
			L6,9.4c0.1,0.4,0.4,0.4,0.7,0.3c0,0,0.4-0.1,0.5-0.1c0.4-0.1,0.4-0.4,0.3-0.7c0-0.1-0.8-2.5-0.8-2.5l0.3,0L6.7,5.6L5.4,5.4
			L5.4,5.4z"/>
		<path d="M7.4,5.7C7.1,5.6,7,5.8,7.1,6.1c0,0.1,0.9,2.8,0.9,2.9c0.1,0.4,0.5,0.3,0.6,0.3c0,0,0.4-0.1,0.5-0.1c0,0,0,0,0.1,0
			c0.3-0.1,0.2-0.5,0.2-0.5S9,7.6,9,7.6l-0.5,0c0,0,0.1,0.5,0.2,0.5c0,0.1,0.1,0.2-0.1,0.2c-0.2,0-0.2,0-0.2-0.2
			c0-0.1-0.5-1.6-0.5-1.7c0-0.1,0-0.2,0.1-0.2c0.2,0,0.2,0.1,0.2,0.2C8.2,6.6,8.2,7,8.2,7l0.5,0c0,0-0.2-0.6-0.2-0.7
			C8.4,5.9,8,5.8,7.9,5.8C7.9,5.8,7.4,5.7,7.4,5.7L7.4,5.7z"/>
		<path class="st3" d="M4.8,5c0,0-0.1,0-0.2,0c-0.2,0-0.4,0-0.3,0.3c0,0.1,0,0.2,0.1,0.4c0.1,0.2,1.3,4.2,1.3,4.2
			c0.2,0.6,0.5,0.4,0.6,0.4c0.1,0,4.2-1.3,4.3-1.3C11.1,8.7,11,8.2,11,8.2c0-0.1-0.6-1.8-0.6-1.9c-0.1-0.4-0.5-0.5-0.7-0.5
			C9.5,5.7,5.1,5,4.8,5L4.8,5z M4.7,4.7c-0.1,0-0.6-0.1-0.6,0.4c0,0.1,0,0.3,0.1,0.5c0,0.1,1.4,4.3,1.4,4.3c0.2,0.7,0.8,0.4,0.9,0.4
			c0.1,0,4.1-1.3,4.3-1.4c0.4-0.1,0.5-0.5,0.4-0.8c0-0.1-0.6-1.9-0.7-2c-0.2-0.5-0.7-0.6-0.8-0.6C9.6,5.6,4.8,4.8,4.7,4.7L4.7,4.7z"
			/>
	</g>
</g>
</svg>
