<svg xmlns="http://www.w3.org/2000/svg" width="32" height="33" viewBox="0 0 32 33"><g><g><g><path fill="none" stroke="#fff" stroke-linecap="round" stroke-linejoin="round" stroke-miterlimit="20" d="M24.67 31.997v0-16a7.947 7.947 0 0 0-2-5.247"/></g><g><path fill="none" stroke="#fff" stroke-linecap="round" stroke-linejoin="round" stroke-miterlimit="20" d="M11.237 10.14A8 8 0 0 0 8.67 16v16"/></g><g><path fill="none" stroke="#fff" stroke-linecap="round" stroke-linejoin="round" stroke-miterlimit="20" d="M6.563 3.667v0l-1 1.666v0L4.557 3.667v0l-1.667-1v0l1.667-1v0L5.563 0v0l1 1.667v0l1.667 1v0l-1.667 1v0z"/></g><g><path fill="none" stroke="#fff" stroke-linecap="round" stroke-linejoin="round" stroke-miterlimit="20" d="M3.667 20.997v0l-1 1.666v0l-1-1.666v0l-1.667-1v0l1.667-1v0l1-1.667v0l1 1.667v0l1.666 1v0l-1.666 1v0z"/></g><g><path fill="none" stroke="#fff" stroke-linecap="round" stroke-linejoin="round" stroke-miterlimit="20" d="M29.527 7.737v0l-1 1.666v0l-1-1.666v0l-1.667-1v0l1.667-1v0l1-1.667v0l1 1.667v0l1.666 1v0l-1.666 1v0z"/></g><g><path fill="none" stroke="#fff" stroke-linecap="round" stroke-linejoin="round" stroke-miterlimit="20" d="M12.373 18.36a5.607 5.607 0 0 1-.94-2.88l-.3-7.847a4 4 0 0 1 4-4.153h3.687a4 4 0 0 1 4 4.153l-.3 7.847a5.54 5.54 0 0 1-5.54 5.333v0"/></g></g></g></svg>