<svg xmlns="http://www.w3.org/2000/svg" width="33" height="34" viewBox="0 0 33 34"><g><g><g><path fill="none" stroke="#fff" stroke-linecap="round" stroke-linejoin="round" stroke-miterlimit="20" d="M21.293 1a19.44 19.44 0 0 1-3.926 6.107c-2.807 2.96-4.407 4.366-4.407 4.366v0"/></g><g><path fill="none" stroke="#fff" stroke-linecap="round" stroke-linejoin="round" stroke-miterlimit="20" d="M9.253 11.47v0S1 17.597 1 25.45a14.667 14.667 0 0 0 2.087 7.547"/></g><g><path fill="none" stroke="#fff" stroke-linecap="round" stroke-linejoin="round" stroke-miterlimit="20" d="M7.217 18.33a12.5 12.5 0 0 0-2.127 6.88 24.554 24.554 0 0 0 1.44 7.787"/></g><g><path fill="none" stroke="#fff" stroke-linecap="round" stroke-linejoin="round" stroke-miterlimit="20" d="M26.167 1C21.4 11.033 9.38 15 9.38 25.973A15.46 15.46 0 0 0 11.18 33"/></g><g><path fill="none" stroke="#fff" stroke-linecap="round" stroke-linejoin="round" stroke-miterlimit="20" d="M29.969 1c-4.307 9.707-16.453 14.54-16.587 24.453-.066 4.967 1.4 7.547 1.4 7.547v0s-.2-2.46-.2-4.46c0-4.333 2.88-8.873 7.574-8.873 3.566 0 3.186.44 5.066.44 2.32 0 1.107-2.794 1.107-2.794a3.96 3.96 0 0 0 1.64-.78l-1.053-1.12v0l1.386-.666v0l-.666-1.5v0l2.086-1.234v0s-3.053-1.426-3.053-3.546A23.54 23.54 0 0 1 29.969 1z"/></g><g><path fill="none" stroke="#fff" stroke-linecap="round" stroke-linejoin="round" stroke-miterlimit="20" d="M11.563 4.05a1.48 1.48 0 1 1 2.527 1.046l-2.527 2.52v0l-2.52-2.52a1.48 1.48 0 0 1 1.044-2.526c.391 0 .767.156 1.043.433.277.275.433.65.433 1.04"/></g><g><path fill="none" stroke="#fff" stroke-linecap="round" stroke-linejoin="round" stroke-miterlimit="20" d="M28.503 26.81a1.48 1.48 0 1 1 2.96 0c-.007.394-.173.769-.46 1.04l-2.526 2.526v0l-2.52-2.527a1.467 1.467 0 0 1-.434-1.04 1.48 1.48 0 1 1 2.954 0"/></g></g></g></svg>