<svg xmlns="http://www.w3.org/2000/svg" width="40" height="40" viewBox="0 0 40 40"><defs><linearGradient id="o4hnb" x1="20" x2="20" y1="0" y2="40" gradientUnits="userSpaceOnUse"><stop offset="0" stop-color="#90fb89"/><stop offset="1" stop-color="#00dd34"/></linearGradient><clipPath id="o4hna"><path d="M0 1a1 1 0 0 1 1-1h38a1 1 0 0 1 1 1v38a1 1 0 0 1-1 1H1a1 1 0 0 1-1-1z"/></clipPath></defs><g><g><g><path fill="#d8d8d8" d="M0 1a1 1 0 0 1 1-1h38a1 1 0 0 1 1 1v38a1 1 0 0 1-1 1H1a1 1 0 0 1-1-1z"/></g><g clip-path="url(#o4hna)"><g><path fill="url(#o4hnb)" d="M0 40h40V0H0z"/></g><g><path fill="#fff" d="M31.789 26.833L27.31 23.77c-.943-.472-1.768.118-2.24.59-2.121 1.65-3.278 1.2-4.713-.236L18 21.766l-2.357-2.357c-1.436-1.436-1.886-2.593-.236-4.715.47-.47 1.06-1.296.589-2.239l-3.064-4.478c-1.061-1.296-1.64-1.402-2.475-1.06-5.181 2.12-4.36 8.838 4.478 17.913 9.076 8.838 15.794 9.66 17.915 4.478.34-.835.235-1.414-1.062-2.475"/></g></g></g></g></svg>