<svg xmlns="http://www.w3.org/2000/svg" width="34" height="34" viewBox="0 0 34 34"><g><g><path fill="none" stroke="#a7a5a0" stroke-miterlimit="20" d="M11.131 9.96h.394c.129.002.253.004.37.01l.1.005c.256.018.531.095.794.666l.18.408.16.372.69 1.655.162.379.064.136c.08.18.12.384.001.614l-.053.106-.096.187a1.87 1.87 0 0 1-.247.356l-.121.14-.246.29a4.158 4.158 0 0 1-.27.29l-.077.08c-.147.165-.242.362-.057.673l.07.115.207.324.137.202.157.223.178.24c.377.496.872 1.072 1.462 1.586.524.457 1.02.805 1.46 1.072l.258.152.123.068.236.125.22.11.2.095.184.081.422.182.184.084c.344.148.558.102.772-.138l.053-.06.414-.476.2-.237.2-.24.093-.116.169-.215c.05-.066.094-.127.13-.179.23-.337.459-.333.753-.242l.141.047.06.023.17.072.36.16.597.279.63.298 1.311.63c.172.085.291.16.351.256.1.162.1.94-.232 1.847-.331.907-1.954 1.782-2.684 1.847a4.532 4.532 0 0 0-.046.004l-.386.042-.162.012-.178.006h-.129l-.14-.006-.15-.011-.251-.03a6.064 6.064 0 0 1-.091-.013l-.193-.032-.21-.042-.227-.05-.246-.062-.266-.073-.289-.085-.152-.047-.323-.104a23.394 23.394 0 0 1-.17-.058l-.36-.125-.387-.141-.414-.158c-1.732-.667-3.19-1.791-4.307-2.88l-.272-.27-.258-.268a18.376 18.376 0 0 1-.123-.132l-.235-.26a18.823 18.823 0 0 1-.113-.127l-.212-.248-.198-.237-.181-.226-.166-.212-.15-.197-.25-.341-.297-.424-.195-.264-.101-.143-.178-.266-.131-.208-.137-.232c-.439-.767-.911-1.847-.911-2.947 0-1.45.591-2.34 1.036-2.856l.117-.132.24-.252c.363-.39.793-.487 1.058-.487zm5.673-8.958C8.143 1.142 1.137 8.2 1.134 16.856l.003.335a15.767 15.767 0 0 0 1.96 7.302l.164.29L1 33l8.447-2.205.305.161a16.011 16.011 0 0 0 6.961 1.766l.348.004.267-.002c8.575-.138 15.526-7.058 15.67-15.594l.002-.262-.003-.303a15.711 15.711 0 0 0-4.452-10.704l-.208-.211-.216-.212a15.864 15.864 0 0 0-10.757-4.435L17.067 1z"/></g></g></svg>